<svg id="Layer_1" data-name="Layer 1" xmlns="http://www.w3.org/2000/svg" xmlns:xlink="http://www.w3.org/1999/xlink" viewBox="0 0 461.89 402.7" width="406" height="306" class="illustration styles_illustrationTablet__1DWOa"><defs><linearGradient id="linear-gradient" x1="291.45" y1="352.16" x2="249.14" y2="410.85" gradientUnits="userSpaceOnUse"><stop offset="0" stop-color="#010101" stop-opacity="0"></stop><stop offset="0.95" stop-color="#010101"></stop></linearGradient><linearGradient id="linear-gradient-2" x1="285.83" y1="107.59" x2="279.01" y2="160.49" xlink:href="#linear-gradient"></linearGradient><linearGradient id="linear-gradient-3" x1="328.84" y1="361.64" x2="326.11" y2="292.7" gradientTransform="translate(655.31 663.52) rotate(180)" xlink:href="#linear-gradient"></linearGradient><linearGradient id="linear-gradient-4" x1="322.03" y1="362.75" x2="333.28" y2="362.75" gradientTransform="translate(655.31 725.51) rotate(180)" gradientUnits="userSpaceOnUse"><stop offset="0" stop-color="#fff" stop-opacity="0"></stop><stop offset="0.95" stop-color="#fff"></stop></linearGradient><linearGradient id="linear-gradient-5" x1="411.6" y1="231.93" x2="232.1" y2="246.94" xlink:href="#linear-gradient"></linearGradient><linearGradient id="linear-gradient-6" x1="223.12" y1="195.79" x2="292.4" y2="157.23" xlink:href="#linear-gradient"></linearGradient><linearGradient id="linear-gradient-7" x1="259.55" y1="203.21" x2="375.57" y2="180.69" xlink:href="#linear-gradient"></linearGradient><linearGradient id="linear-gradient-8" x1="133" y1="207.94" x2="133.76" y2="235.58" xlink:href="#linear-gradient"></linearGradient><linearGradient id="linear-gradient-9" x1="154.99" y1="357.57" x2="167.96" y2="120.74" xlink:href="#linear-gradient"></linearGradient><linearGradient id="linear-gradient-10" x1="115.65" y1="206.1" x2="119.06" y2="95.54" gradientTransform="matrix(1, 0, 0, 1, 0, 0)" xlink:href="#linear-gradient-4"></linearGradient><linearGradient id="linear-gradient-11" x1="141.78" y1="187.74" x2="77.03" y2="201.05" gradientTransform="matrix(1, 0, 0, 1, 0, 0)" xlink:href="#linear-gradient-4"></linearGradient><linearGradient id="linear-gradient-12" x1="270.39" y1="101.64" x2="271.75" y2="210.16" xlink:href="#linear-gradient"></linearGradient><linearGradient id="linear-gradient-13" x1="266.88" y1="80.44" x2="263.47" y2="142.21" xlink:href="#linear-gradient"></linearGradient><linearGradient id="linear-gradient-14" x1="275.79" y1="108.63" x2="270.16" y2="137.29" xlink:href="#linear-gradient"></linearGradient><linearGradient id="linear-gradient-15" x1="341.48" y1="152.52" x2="175.12" y2="224.18" xlink:href="#linear-gradient"></linearGradient></defs><title>Customer services</title><path d="M235.07,401c52.21-.76,104.57-1.53,156.34-8.4,12.92-1.72,26.27-4,37-11.41,9.18-6.35,15.62-15.93,20.78-25.83,8-15.4,13.57-32.49,13.17-49.86-.46-20.21-8.86-39.84-7.63-60,1.34-21.72,13.54-41,22.75-60.69,9.61-20.55,16.29-43.25,13.54-65.77-3.91-32-26.78-59.44-54.48-76s-59.9-23.85-91.73-29.21A851,851,0,0,0,224.34,2C205,1.58,185,2,167.18,9.46,150.62,16.43,137.13,29,124.71,42A521.54,521.54,0,0,0,45.65,149.37c-8.11,14.62-15.68,30.3-15.9,47-.38,28.65,20.31,52.63,31.57,79C72,300.27,73.13,326.54,68,352.86c-3.51,18.12-9,37.42,11.32,46.77,19.87,9.15,50.38,2.94,71.48,2.63Z" transform="translate(-29.74 -1.91)" fill="#5e95ed" opacity="0.4" style="isolation: isolate;"></path><path d="M280.85,393.36a1.53,1.53,0,0,1-1.54,2c-11.84,2-23.94,1.3-35.92.63-.92-5.2,3.23-10.11,8-12.36s10.19-2.65,15.28-4a34.91,34.91,0,0,1,6.49-1.51C282.49,377.38,280.54,386.92,280.85,393.36Z" transform="translate(-29.74 -1.91)" fill="#5e95ed"></path><path d="M280.85,393.36a1.53,1.53,0,0,1-1.54,2c-11.84,2-23.94,1.3-35.92.63-.92-5.2,3.23-10.11,8-12.36s10.19-2.65,15.28-4a34.91,34.91,0,0,1,6.49-1.51C282.49,377.38,280.54,386.92,280.85,393.36Z" transform="translate(-29.74 -1.91)" fill="url(#linear-gradient)"></path><path d="M245,112.33c-1.24-8.59-1.73-18.17,3.48-25.11,4.22-5.62,11.61-8.32,18.62-7.92s13.65,3.56,19.23,7.82a30.81,30.81,0,0,1,7.95,8.43c7.43,12.41,1.75,30.55,11.65,41.1,3.49,3.72,8.45,5.81,12,9.48a18.54,18.54,0,0,1-11.74,31.38c-5.41.46-10.72-1.46-16.1-2.18-8.61-1.16-17.39.73-26-.24s-18-6.26-19-14.88,6.41-16.19,5.76-24.71c-.46-5.91-4.67-10.75-7.36-16s-3.3-12.92,1.72-16.1" transform="translate(-29.74 -1.91)" fill="#606161"></path><path d="M245,112.33c-1.24-8.59-1.73-18.17,3.48-25.11,4.22-5.62,11.61-8.32,18.62-7.92s13.65,3.56,19.23,7.82a30.81,30.81,0,0,1,7.95,8.43c7.43,12.41,1.75,30.55,11.65,41.1,3.49,3.72,8.45,5.81,12,9.48a18.54,18.54,0,0,1-11.74,31.38c-5.41.46-10.72-1.46-16.1-2.18-8.61-1.16-17.39.73-26-.24s-18-6.26-19-14.88,6.41-16.19,5.76-24.71c-.46-5.91-4.67-10.75-7.36-16s-3.3-12.92,1.72-16.1" transform="translate(-29.74 -1.91)" fill="url(#linear-gradient-2)"></path><rect x="326.45" y="381.12" width="2.41" height="3.87" transform="translate(625.56 764.2) rotate(-180)" fill="#cce8ec"></rect><rect x="319.62" y="310.75" width="16.07" height="42.01" transform="translate(625.56 661.61) rotate(-180)" fill="#5e95ed"></rect><rect x="319.62" y="310.75" width="16.07" height="42.01" transform="translate(625.56 661.61) rotate(-180)" fill="url(#linear-gradient-3)"></rect><rect x="319.62" y="372.74" width="16.07" height="7.85" transform="translate(625.56 751.42) rotate(-180)" fill="#5e95ed"></rect><rect x="322.03" y="352.54" width="11.25" height="20.43" transform="translate(625.56 723.6) rotate(-180)" fill="#5e95ed"></rect><rect x="322.03" y="352.54" width="11.25" height="20.43" transform="translate(625.56 723.6) rotate(-180)" fill="url(#linear-gradient-4)"></rect><rect x="291.03" y="377.33" width="73.24" height="3.9" transform="translate(625.56 756.66) rotate(-180)" fill="#5e95ed"></rect><rect x="324.14" y="383.18" width="7.02" height="10.45" rx="1.41" transform="translate(625.56 774.91) rotate(-180)" fill="#2a2d6b"></rect><rect x="359.8" y="381" width="2.41" height="5.28" transform="translate(692.28 765.38) rotate(-180)" fill="#cce8ec"></rect><rect x="263.46" y="379.1" width="2.41" height="5.28" fill="#cce8ec"></rect><circle cx="333.15" cy="387.08" r="5.21" fill="#2a2d6b"></circle><circle cx="262.67" cy="386.74" r="5.21" fill="#2a2d6b"></circle><path d="M391.74,173.89h-56.3a12.61,12.61,0,0,0-12.39,10.28l-22.78,121.5,65.54-5.46Z" transform="translate(-29.74 -1.91)" fill="#5e95ed"></path><path d="M391.74,173.89h-56.3a12.61,12.61,0,0,0-12.39,10.28l-22.78,121.5,65.54-5.46Z" transform="translate(-29.74 -1.91)" fill="url(#linear-gradient-5)"></path><path d="M312.08,303.62a9.11,9.11,0,0,1,9.11-9.11H365c7.23-45.33,17.08-107.44,17.65-112.21a9.11,9.11,0,0,1,18.19.69c0,.92,0,2.62-19.08,122.06a9.11,9.11,0,0,1-9,7.67H321.19A9.11,9.11,0,0,1,312.08,303.62ZM382.64,183c0-.2,0-.41,0-.61A5,5,0,0,0,382.64,183Z" transform="translate(-29.74 -1.91)" fill="#5e95ed"></path><path d="M266.19,312.72h61.07a9.11,9.11,0,0,0,0-18.21H266.19a9.11,9.11,0,1,0,0,18.21Z" transform="translate(-29.74 -1.91)" fill="#5e95ed"></path><path d="M324.42,255.94s-83.17,31.16-83.56,32.58c-2.68,10,23,92,23,92s8.55,5.47,18.61-1.09l-7.95-73.67,40.74-11.87S334,285.84,324.42,255.94Z" transform="translate(-29.74 -1.91)" fill="#606161"></path><path d="M269.61,254.41s-58,27.36-57.49,28.75,11.24,89.51,11.24,89.51,7.7,5.19,18.53,0l1.7-74.07,70.09-10.07s6.9-10.35,10.74-32.58C316.87,249.93,271.65,253.69,269.61,254.41Z" transform="translate(-29.74 -1.91)" fill="#606161"></path><path d="M204.66,211s-11.76-3.43-16.38-3-14.78,5.47-15.74,5.88-2.25,2.7,7,1.87,12.84,6.16,19.68,4.72,8.47-5.57,8.47-5.57" transform="translate(-29.74 -1.91)" fill="#f2ddca"></path><path d="M257.89,141.57l-19.35,56-35.7,11.79s-3.53,2.53,1,11.42c0,0,35.84-.32,44.15-3.94s22.36-56.41,22.36-56.41" transform="translate(-29.74 -1.91)" fill="#5e95ed"></path><path d="M257.89,141.57l-19.35,56-35.7,11.79s-3.53,2.53,1,11.42c0,0,35.84-.32,44.15-3.94s22.36-56.41,22.36-56.41" transform="translate(-29.74 -1.91)" fill="url(#linear-gradient-6)"></path><path d="M294.26,145.27c4.93,6.2,8.54,13.95,11.74,20.62a140.81,140.81,0,0,1,13,44.47c1.06,9.18,1,18.57,2.06,27.92.17,1.45,3,17.83,1.79,18.35,0,0-19.06,6.83-47.93,7.22-3.09,0-13.44,1.62-15.29-1.74-1.17-2.12,1-8.88,1.15-11.22,1.17-13.61.92-20.59,1.33-34.24.15-5-8.07-25.62-10.38-28.23-3.05-3.44-4.15-8.31-3.72-12.89.38-4.14,2.57-7.48,3.38-11.41.75-3.57.39-7.06,1.57-10.68,3.91-11.87,14.6-21.79,27.81-19.5C287.84,135.17,289.89,139.78,294.26,145.27Z" transform="translate(-29.74 -1.91)" fill="#5e95ed"></path><path d="M294.26,145.27c4.93,6.2,8.54,13.95,11.74,20.62a140.81,140.81,0,0,1,13,44.47c1.06,9.18,1,18.57,2.06,27.92.17,1.45,3,17.83,1.79,18.35,0,0-19.06,6.83-47.93,7.22-3.09,0-13.44,1.62-15.29-1.74-1.17-2.12,1-8.88,1.15-11.22,1.17-13.61.92-20.59,1.33-34.24.15-5-8.07-25.62-10.38-28.23-3.05-3.44-4.15-8.31-3.72-12.89.38-4.14,2.57-7.48,3.38-11.41.75-3.57.39-7.06,1.57-10.68,3.91-11.87,14.6-21.79,27.81-19.5C287.84,135.17,289.89,139.78,294.26,145.27Z" transform="translate(-29.74 -1.91)" fill="url(#linear-gradient-7)"></path><path d="M260.74,250.89s-13.53,9.62-9.62,11.95c3.58,2.14,28.84,2.49,32.23,4.74s9.11,10.21,22.71,13.74,18.37-5.84,19.36-13.74a20.4,20.4,0,0,0-2.61-13.16S273,260,260.74,250.89Z" transform="translate(-29.74 -1.91)" fill="#effaff"></path><rect x="92.33" y="213.44" width="81.79" height="5.38" fill="#5e95ed"></rect><rect x="92.33" y="213.44" width="81.79" height="5.38" fill="url(#linear-gradient-8)"></rect><rect x="83.8" y="218.49" width="182.91" height="5.46" fill="#5e95ed"></rect><rect x="84.82" y="223.59" width="145.49" height="174.06" fill="#5e95ed"></rect><rect x="84.82" y="223.59" width="145.49" height="174.06" fill="url(#linear-gradient-9)"></rect><rect x="63.15" y="120.55" width="107.84" height="79.17" rx="10.31" fill="#5e95ed"></rect><rect x="63.15" y="120.55" width="107.84" height="79.17" rx="10.31" fill="url(#linear-gradient-10)"></rect><path d="M104.34,167.65h13.34a8.94,8.94,0,0,1,8.94,8.94v42.24a0,0,0,0,1,0,0H95.4a0,0,0,0,1,0,0V176.59A8.94,8.94,0,0,1,104.34,167.65Z" fill="#5e95ed"></path><path d="M104.34,167.65h13.34a8.94,8.94,0,0,1,8.94,8.94v42.24a0,0,0,0,1,0,0H95.4a0,0,0,0,1,0,0V176.59A8.94,8.94,0,0,1,104.34,167.65Z" fill="url(#linear-gradient-11)"></path><path d="M263.33,144.46a5.42,5.42,0,0,0,.32,2,3.75,3.75,0,0,0,2.92,2.05,8.32,8.32,0,0,0,3.66-.43c5.35-1.63,10.3-5.93,10.9-11.49a16.54,16.54,0,0,0-.38-5,36.69,36.69,0,0,0-2.33-7.46c-1-2.25-2.48-4.63-4.89-5.05s-4.88,1.58-6.34,3.73C263,128.89,263.16,137.36,263.33,144.46Z" transform="translate(-29.74 -1.91)" fill="#f2ddca"></path><path d="M277.7,132.2a14.42,14.42,0,0,1-6.05,7.73,6.31,6.31,0,0,1-3.69.95c-2.2-.22-3.93-2.07-4.8-4.1a16.09,16.09,0,0,1-1.12-5.72,18.34,18.34,0,0,1,2.1-10.13c1.77-3,5-5.3,8.53-5.22C281.63,115.92,279.73,126.66,277.7,132.2Z" transform="translate(-29.74 -1.91)" fill="url(#linear-gradient-12)"></path><path d="M248,99.78,250.09,113A71.73,71.73,0,0,0,253,126.26c1.24,3.43,3.15,6.83,6.32,8.63a11.92,11.92,0,0,0,10.35.31,19.36,19.36,0,0,0,8.05-6.88c5.07-7.21,6.47-16.47,5.73-25.25-.43-5.17-1.65-10.47-4.85-14.55a17.65,17.65,0,0,0-16-6.44C254.09,83.28,246.69,91.18,248,99.78Z" transform="translate(-29.74 -1.91)" fill="#f2ddca"></path><path d="M291.14,104.77a14.31,14.31,0,0,0-1.21-2.75,25.78,25.78,0,0,0,.31-4,24.92,24.92,0,1,0-49.84,0,25.86,25.86,0,0,0,.33,4.06,15.22,15.22,0,0,0-1.18,2.71c-.58,1.58-.21,9.22.51,10.26,1.32,1.91,4.9,3.4,7.18,3.69a1.39,1.39,0,0,0,1.16.45,1.34,1.34,0,0,0,1.24-1.45l-1.25-13.74a1.36,1.36,0,0,0-1.49-1.2,1.41,1.41,0,0,0-.86.42l-.37,0a3.47,3.47,0,0,1-2.31-1.77,22.26,22.26,0,0,1-.27-3.39c0-12.46,9.95-21,22.23-21s22.23,8.56,22.23,21a21.43,21.43,0,0,1-.27,3.42,3.46,3.46,0,0,1-2.26,1.67l-.37,0a1.37,1.37,0,0,0-2.35.78l-1.25,13.74a1.35,1.35,0,0,0,1.24,1.45,1.39,1.39,0,0,0,1.16-.45c2.28-.29,5.86-1.78,7.18-3.69C291.35,114,291.73,106.35,291.14,104.77Z" transform="translate(-29.74 -1.91)" fill="#5e95ed"></path><path d="M291.14,104.77a14.31,14.31,0,0,0-1.21-2.75,25.78,25.78,0,0,0,.31-4,24.92,24.92,0,1,0-49.84,0,25.86,25.86,0,0,0,.33,4.06,15.22,15.22,0,0,0-1.18,2.71c-.58,1.58-.21,9.22.51,10.26,1.32,1.91,4.9,3.4,7.18,3.69a1.39,1.39,0,0,0,1.16.45,1.34,1.34,0,0,0,1.24-1.45l-1.25-13.74a1.36,1.36,0,0,0-1.49-1.2,1.41,1.41,0,0,0-.86.42l-.37,0a3.47,3.47,0,0,1-2.31-1.77,22.26,22.26,0,0,1-.27-3.39c0-12.46,9.95-21,22.23-21s22.23,8.56,22.23,21a21.43,21.43,0,0,1-.27,3.42,3.46,3.46,0,0,1-2.26,1.67l-.37,0a1.37,1.37,0,0,0-2.35.78l-1.25,13.74a1.35,1.35,0,0,0,1.24,1.45,1.39,1.39,0,0,0,1.16-.45c2.28-.29,5.86-1.78,7.18-3.69C291.35,114,291.73,106.35,291.14,104.77Z" transform="translate(-29.74 -1.91)" fill="url(#linear-gradient-13)"></path><path d="M285.3,118c-1.49-1.16-2,0-2,0-.8,1.43-5.4,7.85-15.37,10.71a4.89,4.89,0,0,0-3.57-1.28c-2.24,0-4.05,1.07-4.05,2.39s1.81,2.4,4.05,2.4,4-1.06,4.05-2.38C271.9,128.77,280.6,125.53,285.3,118Z" transform="translate(-29.74 -1.91)" fill="#5e95ed"></path><path d="M285.3,118c-1.49-1.16-2,0-2,0-.8,1.43-5.4,7.85-15.37,10.71a4.89,4.89,0,0,0-3.57-1.28c-2.24,0-4.05,1.07-4.05,2.39s1.81,2.4,4.05,2.4,4-1.06,4.05-2.38C271.9,128.77,280.6,125.53,285.3,118Z" transform="translate(-29.74 -1.91)" fill="url(#linear-gradient-14)"></path><path d="M251.78,93.75a21.18,21.18,0,0,1,2.5,2.91,15.47,15.47,0,0,0,17.46,4.21c2-.86,4.1-2.19,6.19-1.59A14.76,14.76,0,0,1,281,101c1,.59,2.41.89,3.32.14a2.92,2.92,0,0,0,.86-2.22c.1-3.1-1.8-5.86-3.61-8.37a24,24,0,0,0-5.2-5.74,16.14,16.14,0,0,0-5.63-2.38A24.73,24.73,0,0,0,255.1,83.9a13.35,13.35,0,0,0-4.76,3.31c-.8.94-2.27,3.18-1.83,4.52S250.68,92.82,251.78,93.75Z" transform="translate(-29.74 -1.91)" fill="#606161"></path><path d="M292,101.74a3.13,3.13,0,0,0-1.76-.62,2.24,2.24,0,0,0-1.81,1.58,6.59,6.59,0,0,0-.19,2.51l.63,11.48a17.51,17.51,0,0,0,.48,3.75c.9,3.24,3.52,5.66,6,7.89a8.28,8.28,0,0,0,3.72,2.28,5.61,5.61,0,0,0,5.26-2.37C311.09,119.55,299.2,106.15,292,101.74Z" transform="translate(-29.74 -1.91)" fill="#f2ddca"></path><path d="M304.14,189.55c6.37,7.08,14.65,12.74,24,14.56a2.28,2.28,0,0,0,3.18-1.76c2.82-7.49,2.25-15.88.31-23.65s-5.16-15.15-7.65-22.76c-3-9.29-16.76-34.33-17.8-34.33-3.72,0-7.34,4.09-9.55,6.65.36,8.52,7.08,14.77,8.36,23.21-1-4.68-7.85-10-12.12-12.13-1.78-.9-9.46-5.74-11.09-4.59-1.27.89,3.66,6.86,3.37,8.39C282.08,159.28,293.75,178,304.14,189.55Z" transform="translate(-29.74 -1.91)" fill="#5e95ed"></path><path d="M304.14,189.55c6.37,7.08,14.65,12.74,24,14.56a2.28,2.28,0,0,0,3.18-1.76c2.82-7.49,2.25-15.88.31-23.65s-5.16-15.15-7.65-22.76c-3-9.29-16.76-34.33-17.8-34.33-3.72,0-7.34,4.09-9.55,6.65.36,8.52,7.08,14.77,8.36,23.21-1-4.68-7.85-10-12.12-12.13-1.78-.9-9.46-5.74-11.09-4.59-1.27.89,3.66,6.86,3.37,8.39C282.08,159.28,293.75,178,304.14,189.55Z" transform="translate(-29.74 -1.91)" fill="url(#linear-gradient-15)"></path></svg>