<svg id="图层_1" data-name="图层 1" xmlns="http://www.w3.org/2000/svg" viewBox="0 0 50.33 50.13"><defs><style>.cls-1{fill:#3e3e3e;}</style></defs><title>logo</title><path class="cls-1" d="M65.27,46.52c-.46,1.77-.9,3.54-1.41,5.3-.09.32-.4.77-.67.81-3.37.52-6.3,2.17-9.33,3.55-2.38,1.09-4.67,2.4-7,3.55a1.94,1.94,0,0,1-1.43.2c-2-.93-4-2-6-3l.07-.3,4,1.15.29-.31c-.71-1.12-1.36-2.28-2.14-3.35-1-1.41-2.16-2.76-3.26-4.12-1.61-2-2.12-2.08-4.33-.85a.91.91,0,0,1-.75.08,17.34,17.34,0,0,0,1.64-1.56c.29-.36.64-1.08.49-1.32-1.25-1.92-2.62-3.75-3.95-5.61l-.46.1A21.1,21.1,0,0,0,30.26,43a14.82,14.82,0,0,1-.54,2.36c0-1,0-1.95,0-2.93.05-3.8.3-2.86-3.05-4.62a4.55,4.55,0,0,0-.51-.21l.07-.31c.74.16,1.48.3,2.2.49,1.44.36,1.71.17,1.75-1.29a9.37,9.37,0,0,1,.2-1.73c1.29,6,4.13,10.89,9.87,13.78-.42.26-1,.44-1,.67a2.05,2.05,0,0,0,.43,1.3c1.67,2.28,3.39,4.53,5.1,6.78a4.75,4.75,0,0,0,.74.59,8,8,0,0,0,1.31-5.38c-.06-.52-.91-1-1.45-1.38a8.89,8.89,0,0,0-1.28-.68h7.38c0,1.12.85,1.12,1.82,1.11,2.36,0,4.72.06,7.07,0,1.5,0,1.78-.32,1.78-1.75,0-2.65-.4-2.9-3-1.94a14.07,14.07,0,0,1-3.26.75,18.76,18.76,0,0,0,7.74-4.87l-1.2,5.61c1.48-.26,1.62-1.34,2.13-2.08a9.06,9.06,0,0,1,.71-.82Zm-6,6.23-.18-.42c-.14-.07-.27-.19-.41-.19-3.27,0-6.54,0-9.81.11-.4,0-1,.67-1.14,1.15a33.27,33.27,0,0,0-.85,3.84c-.21,1.11,0,1.33,1.12.88,2.68-1.11,5.37-2.2,8-3.4A29.54,29.54,0,0,0,59.24,52.75Z" transform="translate(-20.25 -9.87)"/><path class="cls-1" d="M29,23.65a8,8,0,0,0,.46.81,4.63,4.63,0,0,0,.93,1.12c.1.07.61-.44,1.14-.86l-1.44,6c-.16-.11-.25-.14-.26-.2-.15-.51-.29-1-.43-1.54A6.56,6.56,0,0,0,28,29.7q-2.39,2-4.68,4.09c-1.15,1.07-1.08,1.5.27,2.36a5.69,5.69,0,0,1,1.36,1l-3.19-.6,3.31,7.93-.24.09c-1.49-2.79-3-5.56-4.44-8.38a1.91,1.91,0,0,1,0-1.39c1.34-3.18,2.79-6.32,4.09-9.51,1-2.35,2.05-4.67,2.15-7.28a1,1,0,0,1,.57-.64c2.42-.89,4.85-1.74,7.28-2.59.1,0,.23,0,.53,0-.88.54-1.65,1-2.35,1.48-.46.34-.77.88-1.24,1.21a3,3,0,0,1-1.41.61c-1.51.17-1.75.39-1.55,1.87.16,1.23.37,2.44.56,3.66l-1.71-3.41a5.15,5.15,0,0,0-.49.71c-.57,1.34-1.17,2.68-1.66,4.06-.68,1.91-1.28,3.84-1.87,5.78a1.53,1.53,0,0,0,.14,1c0,.11.52.1.75,0a7.61,7.61,0,0,0,4.78-7C29,24.44,29,24.05,29,23.65Z" transform="translate(-20.25 -9.87)"/><path class="cls-1" d="M51.85,13.19c-2.53.8-4.73,1.51-7.46,1.27l2.34-2.77a4.41,4.41,0,0,0-3.36.45,7.2,7.2,0,0,0-1,.66c-1.81,1.24-2.78,1.43-5.4,1l1.64-.87C40.3,12,42,11.15,43.67,10.22a1.7,1.7,0,0,1,1.86-.12C47.48,11.13,49.5,12.05,51.85,13.19Z" transform="translate(-20.25 -9.87)"/><path class="cls-1" d="M65.29,46.54c.21-1,.43-2.08.63-3.12.27-1.43.23-1.47-1.34-1.13.69-1.24,1.31-2.37,2-3.48s1.19-2.07,1.77-3.12c.75-1.35.36-2.72,0-4-.26-.84-.67-1.62-1-2.44a.94.94,0,0,1,.12-.82c1.06,1.88,2.14,3.75,3.14,5.66.13.25-.09.73-.24,1.07-.87,1.9-1.79,3.79-2.63,5.7s-1.61,3.8-2.4,5.7Z" transform="translate(-20.25 -9.87)"/><path class="cls-1" d="M51.17,15c1.82-.74,3.61-.37,5.39,0s3.36.61,5,1a2.14,2.14,0,0,1,1.37.9c1,2.54,1.82,5.13,2.69,7.71a.68.68,0,0,1-.18.63C65,24.09,64.4,23,64,21.82a7.79,7.79,0,0,0-6-5.35C55.71,16,53.43,15.49,51.17,15Z" transform="translate(-20.25 -9.87)"/><path class="cls-1" d="M29.55,46.64c-.07,1-.16,2.09-.21,3.13a8.91,8.91,0,0,0,.1,1.26,7.59,7.59,0,0,0,1.35-.21,3.24,3.24,0,0,1,1.15-.37l-1.86,2.06,3.48,2-.09.31c-1.37-.36-2.74-.76-4.14-1.07a2.48,2.48,0,0,1-2-1.9c-.62-1.92-1.38-3.8-2.07-5.71a1.16,1.16,0,0,1,.09-.88c.72,1.35,1.42,2.71,2.18,4,.17.3.55.46.84.69a4.07,4.07,0,0,0,.55-1.05c.14-.76.16-1.54.23-2.31Z" transform="translate(-20.25 -9.87)"/><path class="cls-1" d="M33.06,22.13c-.18-1.6,2-2.73.67-4.22,1.86-1,3.64-2,5.43-3a.87.87,0,0,1,.66-.11c.69.23,1.36.53,2.18.87C38.46,17.11,35,18.55,33.06,22.13Z" transform="translate(-20.25 -9.87)"/></svg>