<svg id="图层_1" data-name="图层 1" xmlns="http://www.w3.org/2000/svg" viewBox="0 0 74.75 74.45"><defs><style>.cls-1{fill:#fff;}</style></defs><title>图标</title><path class="cls-1" d="M87.12,64.3c-.69,2.63-1.34,5.27-2.09,7.88-.14.47-.61,1.14-1,1.2-5,.77-9.37,3.23-13.86,5.28-3.54,1.61-6.93,3.55-10.42,5.27a2.92,2.92,0,0,1-2.13.29c-3-1.37-6-2.91-9-4.39l.12-.45,6,1.71.42-.46c-1-1.67-2-3.39-3.17-5-1.54-2.1-3.21-4.1-4.85-6.13-2.39-3-3.15-3.09-6.42-1.26a1.37,1.37,0,0,1-1.12.11A24.18,24.18,0,0,0,42,66.07c.43-.53,1-1.6.72-2-1.85-2.84-3.88-5.57-5.86-8.33l-.68.15a31,31,0,0,0-1.08,3.21,23.24,23.24,0,0,1-.8,3.51c0-1.46,0-2.91,0-4.36.08-5.64.46-4.25-4.51-6.87a7.28,7.28,0,0,0-.77-.31l.11-.46c1.09.24,2.19.45,3.27.73,2.14.54,2.54.25,2.6-1.91a12.67,12.67,0,0,1,.29-2.58c1.91,9,6.14,16.18,14.66,20.48-.62.38-1.5.64-1.54,1a3.06,3.06,0,0,0,.65,1.93c2.48,3.39,5,6.73,7.58,10.07a6.35,6.35,0,0,0,1.1.88,12,12,0,0,0,1.94-8c-.09-.76-1.35-1.43-2.15-2a13.46,13.46,0,0,0-1.91-1h11c-.06,1.67,1.27,1.67,2.71,1.66,3.5,0,7,.08,10.5.07,2.22,0,2.64-.48,2.64-2.6,0-3.94-.59-4.3-4.39-2.89a20.55,20.55,0,0,1-4.84,1.12A27.66,27.66,0,0,0,84.7,60.3c-.57,2.7-1.14,5.4-1.77,8.34,2.19-.38,2.4-2,3.16-3.08a13.63,13.63,0,0,1,1-1.23Zm-9,9.26-.28-.63c-.2-.1-.4-.28-.61-.28-4.85,0-9.71,0-14.56.16-.61,0-1.48,1-1.7,1.71a50,50,0,0,0-1.27,5.7c-.31,1.66.08,2,1.68,1.31,4-1.64,8-3.26,11.87-5A47.52,47.52,0,0,0,78.17,73.56Z" transform="translate(-20.25 -9.87)"/><path class="cls-1" d="M33.24,30.33a13,13,0,0,0,.69,1.21,6.82,6.82,0,0,0,1.38,1.66c.14.1.9-.66,1.69-1.27l-2.14,8.89c-.23-.17-.37-.21-.39-.29-.22-.76-.42-1.53-.63-2.3a10.87,10.87,0,0,0-2.12,1.09c-2.35,2-4.68,4-6.94,6.08-1.72,1.58-1.61,2.22.4,3.5a8.43,8.43,0,0,1,2,1.52l-4.74-.9,4.92,11.79-.36.13C24.81,57.3,22.57,53.17,20.43,49a2.78,2.78,0,0,1,.05-2.06c2-4.73,4.13-9.39,6.07-14.13,1.43-3.48,3-6.93,3.19-10.81a1.43,1.43,0,0,1,.85-1c3.59-1.32,7.2-2.58,10.81-3.84.14-.05.34,0,.78.07-1.3.81-2.45,1.44-3.49,2.21-.68.5-1.14,1.3-1.83,1.8a4.78,4.78,0,0,1-2.1.9c-2.24.25-2.6.58-2.31,2.78.24,1.82.55,3.62.83,5.43-.81-1.62-1.62-3.25-2.53-5.06a7.14,7.14,0,0,0-.72,1c-.85,2-1.75,4-2.48,6-1,2.83-1.9,5.71-2.77,8.58a2.29,2.29,0,0,0,.2,1.49c.08.16.78.15,1.12,0a11.3,11.3,0,0,0,7.1-10.39C33.18,31.52,33.22,30.92,33.24,30.33Z" transform="translate(-20.25 -9.87)"/><path class="cls-1" d="M67.18,14.8c-3.75,1.18-7,2.25-11.08,1.88l3.48-4.1a6.53,6.53,0,0,0-5,.67,10.76,10.76,0,0,0-1.48,1c-2.69,1.84-4.13,2.12-8,1.46l2.44-1.29c2.51-1.33,5-2.61,7.51-4a2.51,2.51,0,0,1,2.76-.17C60.69,11.74,63.69,13.11,67.18,14.8Z" transform="translate(-20.25 -9.87)"/><path class="cls-1" d="M87.14,64.33c.31-1.54.64-3.08.94-4.63.4-2.13.34-2.18-2-1.68,1-1.84,2-3.51,2.89-5.17s1.78-3.07,2.64-4.63c1.1-2,.54-4-.08-6-.39-1.24-1-2.4-1.44-3.62a1.43,1.43,0,0,1,.18-1.22c1.57,2.79,3.17,5.57,4.66,8.41.19.37-.13,1.09-.36,1.58-1.28,2.84-2.65,5.63-3.91,8.47s-2.38,5.64-3.56,8.47Z" transform="translate(-20.25 -9.87)"/><path class="cls-1" d="M66.17,17.51c2.7-1.11,5.36-.56,8-.06,2.49.48,5,.91,7.46,1.52a3.06,3.06,0,0,1,2,1.33c1.45,3.77,2.7,7.62,4,11.45a1,1,0,0,1-.27.93c-.73-1.69-1.57-3.33-2.17-5.06a11.63,11.63,0,0,0-9-8C72.91,18.9,69.53,18.22,66.17,17.51Z" transform="translate(-20.25 -9.87)"/><path class="cls-1" d="M34.06,64.48c-.11,1.55-.24,3.1-.31,4.66A17,17,0,0,0,33.9,71a13.22,13.22,0,0,0,2-.31,4.72,4.72,0,0,1,1.71-.56L34.84,73.2,40,76.13l-.13.48c-2-.54-4.08-1.14-6.15-1.6a3.7,3.7,0,0,1-3-2.82c-.91-2.86-2.05-5.65-3.06-8.48a1.67,1.67,0,0,1,.13-1.31c1.07,2,2.1,4,3.23,6,.25.44.82.69,1.25,1a6,6,0,0,0,.82-1.56c.21-1.12.24-2.28.34-3.42Z" transform="translate(-20.25 -9.87)"/><path class="cls-1" d="M39.28,28.07c-.27-2.37,2.94-4.05,1-6.26,2.77-1.53,5.41-3,8.07-4.45a1.4,1.4,0,0,1,1-.16c1,.35,2,.8,3.25,1.3C47.29,20.63,42.16,22.77,39.28,28.07Z" transform="translate(-20.25 -9.87)"/></svg>