<svg id="图层_1" data-name="图层 1" xmlns="http://www.w3.org/2000/svg" viewBox="0 0 853.75 306.29"><defs><style>.cls-1,.cls-2{fill:#fff;}.cls-2{font-size:72px;font-family:Consolas-BoldItalic, Consolas;font-weight:700;font-style:italic;}</style></defs><title>白全</title><path class="cls-1" d="M406.33,390.77c-2.83,10.82-5.53,21.68-8.61,32.43-.56,1.94-2.49,4.67-4.11,4.92-20.59,3.17-38.52,13.29-57,21.73-14.55,6.64-28.49,14.61-42.86,21.68-2.56,1.26-6.45,2.23-8.76,1.19-12.5-5.64-24.69-12-37-18.06l.47-1.83,24.64,7,1.72-1.9c-4.32-6.84-8.28-13.93-13.05-20.45-6.31-8.64-13.2-16.86-19.93-25.19-9.83-12.15-12.95-12.71-26.42-5.19a5.58,5.58,0,0,1-4.61.46c3.38-3.13,7.14-6,10-9.51,1.78-2.19,3.94-6.6,3-8.08-7.64-11.68-16-22.9-24.12-34.27l-2.81.63c-1.52,4.39-3.4,8.7-4.44,13.2-1.09,4.72-1.37,9.62-3.29,14.44,0-6-.07-12,0-17.94.33-23.19,1.88-17.46-18.58-28.23a31.94,31.94,0,0,0-3.15-1.28c.14-.63.29-1.26.44-1.9,4.49,1,9,1.87,13.46,3,8.79,2.24,10.44,1.05,10.68-7.87a53.62,53.62,0,0,1,1.23-10.59c7.86,36.81,25.24,66.54,60.28,84.23-2.56,1.56-6.17,2.65-6.31,4.08-.24,2.57,1,5.75,2.65,8,10.23,13.92,20.71,27.67,31.19,41.4,1,1.28,2.57,2.1,4.51,3.63,6.51-10.41,9.46-21.38,8-32.91-.4-3.15-5.58-5.88-8.86-8.41-2.17-1.67-4.88-2.63-7.86-4.18h45.09c-.23,6.89,5.23,6.86,11.15,6.83,14.4-.06,28.8.34,43.2.28,9.12,0,10.84-1.95,10.86-10.69,0-16.21-2.44-17.71-18.08-11.88a85.42,85.42,0,0,1-19.91,4.61c18.05-6.51,34.27-15.53,47.25-29.77-2.36,11.09-4.71,22.18-7.28,34.28,9-1.58,9.87-8.15,13-12.69a56.82,56.82,0,0,1,4.33-5Zm-36.84,38.11-1.11-2.59c-.84-.4-1.68-1.17-2.51-1.16-20,.06-40-.05-59.92.65-2.49.09-6.08,4.15-7,7.06-2.39,7.61-3.74,15.56-5.22,23.44-1.28,6.83.33,8.12,6.9,5.4,16.35-6.77,32.76-13.44,48.86-20.78C356.52,437.7,362.85,432.94,369.49,428.88Z" transform="translate(-131.25 -166.87)"/><path class="cls-1" d="M184.68,251a51.38,51.38,0,0,0,2.82,5c1.73,2.45,3.38,5.15,5.71,6.84.57.41,3.68-2.71,7-5.23-3.1,12.8-5.94,24.54-8.84,36.55-.92-.66-1.5-.85-1.59-1.18-.91-3.13-1.73-6.29-2.58-9.44-2.93,1.46-6.29,2.42-8.72,4.47-9.69,8.13-19.25,16.44-28.56,25-7.06,6.51-6.61,9.13,1.63,14.4,2.79,1.78,5.73,3.33,8.33,6.26L140.34,330c7.23,17.34,13.73,32.92,20.23,48.49l-1.48.56c-9.09-17-18.31-34-27.1-51.22-1.15-2.25-.85-6,.19-8.49,8.17-19.44,17-38.62,25-58.14,5.86-14.31,12.51-28.49,13.1-44.44.05-1.4,2-3.41,3.5-4,14.77-5.42,29.63-10.61,44.49-15.81.59-.21,1.38.11,3.2.31-5.35,3.33-10.07,5.91-14.35,9.07-2.81,2.07-4.71,5.37-7.53,7.4a19.35,19.35,0,0,1-8.63,3.71c-9.21,1-10.7,2.39-9.51,11.44,1,7.47,2.28,14.91,3.43,22.36l-10.42-20.83c-1.42,2-2.46,3-3,4.29-3.47,8.24-7.17,16.42-10.16,24.84-4.14,11.65-7.82,23.46-11.42,35.29a9.26,9.26,0,0,0,.84,6.12c.31.65,3.19.63,4.61.12,17-6.17,29.68-24.91,29.18-42.74C184.43,255.92,184.61,253.48,184.68,251Z" transform="translate(-131.25 -166.87)"/><path class="cls-1" d="M324.29,187.15c-15.43,4.86-28.86,9.25-45.55,7.75,5.3-6.28,9.38-11.1,14.3-16.9-8.28-2.46-14.49-.06-20.57,2.75a45,45,0,0,0-6.09,4c-11.06,7.56-17,8.73-33,6l10.05-5.33c10.31-5.46,20.72-10.74,30.88-16.47,3.91-2.21,6.95-3,11.36-.72C297.62,174.57,309.93,180.19,324.29,187.15Z" transform="translate(-131.25 -166.87)"/><path class="cls-1" d="M406.41,390.92c1.29-6.35,2.64-12.69,3.86-19.06,1.67-8.75,1.42-9-8.19-6.91,4.24-7.58,8.05-14.45,11.91-21.29,3.59-6.35,7.32-12.63,10.84-19,4.55-8.28,2.22-16.63-.32-24.78-1.59-5.08-4.06-9.88-5.93-14.88a6,6,0,0,1,.74-5c6.45,11.5,13.06,22.92,19.19,34.6.79,1.52-.56,4.49-1.49,6.53-5.28,11.65-10.9,23.14-16.07,34.84-5.09,11.51-9.79,23.19-14.64,34.83Z" transform="translate(-131.25 -166.87)"/><path class="cls-1" d="M320.14,198.28c11.13-4.55,22.06-2.29,33-.22,10.25,1.95,20.55,3.75,30.67,6.22,3.14.77,7.4,2.91,8.38,5.48,5.93,15.53,11.08,31.35,16.41,47.11.35,1,0,2.3-1.1,3.83-3-6.93-6.49-13.7-8.94-20.82-6.18-17.94-18.67-28.56-36.84-32.72C347.88,204,334,201.22,320.14,198.28Z" transform="translate(-131.25 -166.87)"/><path class="cls-1" d="M188,391.53c-.44,6.38-1,12.76-1.25,19.15a60.48,60.48,0,0,0,.6,7.69c2.75-.39,5.61-.45,8.22-1.28,2.15-.69,4-2.29,7.06-2.28L191.28,427.4l21.3,12.07c-.18.65-.36,1.29-.55,1.94-8.42-2.22-16.79-4.69-25.3-6.57-6.61-1.46-10.13-5.12-12.21-11.58-3.77-11.77-8.43-23.25-12.59-34.89a7,7,0,0,1,.52-5.4c4.4,8.24,8.67,16.55,13.31,24.65,1,1.79,3.38,2.82,5.13,4.19,1.17-2.13,3-4.14,3.39-6.41.86-4.63,1-9.38,1.4-14.09Z" transform="translate(-131.25 -166.87)"/><path class="cls-1" d="M209.53,241.75c-1.1-9.77,12.11-16.67,4.06-25.77,11.39-6.3,22.26-12.35,33.19-18.28a5.64,5.64,0,0,1,4-.67c4.22,1.45,8.31,3.27,13.36,5.32C242.48,211.11,221.37,219.91,209.53,241.75Z" transform="translate(-131.25 -166.87)"/><text class="cls-2" transform="translate(324.75 189.1)">InfoWeaver</text></svg>