<svg id="svg" version="1.1" xmlns="http://www.w3.org/2000/svg" xmlns:xlink="http://www.w3.org/1999/xlink" width="400" height="400" viewBox="0, 0, 400,400"><g id="svgg"><path id="path0" d="M112.800 103.411 C 94.094 108.401,62.352 143.254,53.352 168.687 C 41.461 202.290,38.984 244.439,48.231 255.846 C 53.750 262.654,117.571 275.155,166.400 278.992 C 221.439 283.317,294.629 275.798,343.971 260.751 C 355.490 257.238,357.614 254.565,359.668 241.000 C 362.358 223.236,355.424 181.115,346.641 161.859 C 336.480 139.584,308.330 109.880,291.768 103.957 C 285.289 101.640,272.212 104.936,252.056 113.964 L 247.511 116.000 201.364 116.000 L 155.216 116.000 151.108 114.162 C 132.512 105.842,118.465 101.900,112.800 103.411 M135.800 167.982 C 150.287 175.034,152.930 208.896,140.016 222.000 C 127.565 234.634,112.000 220.523,112.000 196.600 C 112.000 175.925,123.561 162.024,135.800 167.982 M276.053 168.460 C 284.354 172.885,289.530 187.107,288.089 201.528 C 284.719 235.231,255.319 235.046,251.964 201.300 C 249.755 179.076,262.745 161.368,276.053 168.460 " stroke="none" fill="#043261" fill-rule="evenodd"></path><path id="path1" d="M186.993 3.141 C 186.870 3.263,185.471 3.395,183.885 3.433 C 182.298 3.471,180.910 3.542,180.800 3.591 C 180.690 3.640,180.060 3.723,179.400 3.777 C 178.740 3.830,178.110 3.918,178.000 3.972 C 177.890 4.026,176.990 4.128,176.000 4.201 C 173.937 4.351,171.453 4.672,170.000 4.977 C 167.767 5.445,166.920 5.586,165.200 5.778 C 164.210 5.888,162.789 6.158,162.043 6.378 C 161.297 6.597,160.532 6.681,160.343 6.565 C 160.154 6.448,160.000 6.513,160.000 6.710 C 160.000 6.906,159.775 7.088,159.500 7.115 C 159.225 7.142,158.370 7.258,157.600 7.374 C 156.830 7.490,155.733 7.650,155.162 7.731 C 154.591 7.811,153.930 7.996,153.693 8.142 C 153.457 8.289,152.754 8.484,152.131 8.576 C 151.509 8.669,150.207 9.036,149.239 9.391 C 148.270 9.747,147.235 9.945,146.939 9.832 C 146.642 9.718,146.400 9.760,146.400 9.925 C 146.400 10.090,145.923 10.265,145.340 10.313 C 144.758 10.361,144.040 10.601,143.746 10.845 C 143.451 11.090,142.938 11.185,142.605 11.057 C 142.272 10.930,142.000 11.029,142.000 11.279 C 142.000 11.529,141.887 11.620,141.749 11.483 C 141.611 11.345,140.846 11.518,140.049 11.868 C 139.252 12.217,138.285 12.491,137.900 12.477 C 137.515 12.462,137.200 12.602,137.200 12.787 C 137.200 12.973,136.840 13.031,136.400 12.916 C 135.953 12.799,135.600 12.904,135.600 13.153 C 135.600 13.399,135.161 13.600,134.624 13.600 C 134.087 13.600,133.539 13.775,133.407 13.989 C 133.164 14.382,130.056 15.402,129.500 15.271 C 129.335 15.232,129.200 15.391,129.200 15.624 C 129.200 15.857,129.020 15.936,128.800 15.800 C 128.580 15.664,128.175 15.696,127.900 15.870 C 127.625 16.045,127.310 16.199,127.200 16.212 C 127.090 16.225,126.257 16.625,125.350 17.101 C 124.442 17.577,123.607 17.874,123.495 17.761 C 123.382 17.649,122.685 17.926,121.945 18.377 C 121.205 18.828,120.285 19.198,119.900 19.199 C 119.515 19.199,119.200 19.374,119.200 19.587 C 119.200 19.801,118.900 19.860,118.534 19.719 C 118.087 19.548,117.964 19.617,118.158 19.932 C 118.333 20.215,118.194 20.400,117.807 20.400 C 117.455 20.400,115.959 20.975,114.483 21.678 C 113.007 22.381,111.665 22.921,111.500 22.878 C 111.335 22.835,111.200 22.980,111.200 23.200 C 111.200 23.420,110.955 23.600,110.656 23.600 C 109.991 23.600,105.666 25.857,104.700 26.707 C 104.315 27.047,104.000 27.210,104.000 27.070 C 104.000 26.769,100.479 28.662,99.569 29.452 C 99.221 29.753,98.726 30.000,98.469 30.000 C 98.211 30.000,98.000 30.180,98.000 30.400 C 98.000 30.620,97.739 30.800,97.421 30.800 C 97.102 30.800,96.356 31.250,95.762 31.800 C 94.767 32.723,94.264 32.957,93.832 32.700 C 93.740 32.645,93.232 33.007,92.703 33.504 C 92.174 34.001,91.650 34.316,91.539 34.205 C 91.427 34.094,90.914 34.452,90.399 35.002 C 89.883 35.551,89.301 36.000,89.107 36.000 C 88.912 36.000,87.294 37.111,85.511 38.468 C 83.728 39.825,82.412 40.680,82.587 40.368 C 82.763 40.056,82.342 40.396,81.653 41.125 C 80.964 41.853,80.400 42.321,80.400 42.163 C 80.400 42.006,80.067 42.262,79.659 42.732 C 79.252 43.201,78.806 43.473,78.669 43.335 C 78.531 43.198,78.307 43.378,78.170 43.735 C 78.033 44.092,77.291 44.773,76.523 45.248 C 75.754 45.723,74.728 46.492,74.243 46.956 C 73.271 47.886,70.731 50.048,68.788 51.600 C 64.475 55.043,62.368 57.035,62.693 57.360 C 62.825 57.492,62.730 57.600,62.481 57.600 C 61.928 57.600,56.400 62.912,56.400 63.443 C 56.400 63.851,55.254 64.939,54.600 65.150 C 54.380 65.222,54.241 65.431,54.292 65.616 C 54.342 65.800,54.027 66.064,53.592 66.203 C 53.156 66.341,52.800 66.620,52.800 66.822 C 52.800 67.270,51.818 68.519,50.169 70.169 C 49.492 70.846,48.629 71.901,48.251 72.513 C 47.874 73.125,47.393 73.519,47.182 73.389 C 46.972 73.259,46.800 73.388,46.800 73.676 C 46.799 73.964,46.349 74.723,45.800 75.362 C 45.250 76.001,44.800 76.687,44.800 76.886 C 44.800 77.085,44.640 77.148,44.444 77.027 C 44.248 76.906,43.794 77.255,43.435 77.803 C 43.075 78.352,42.876 78.800,42.991 78.800 C 43.106 78.800,42.885 79.129,42.500 79.531 C 41.263 80.824,39.999 82.400,40.200 82.400 C 40.380 82.400,39.201 83.881,38.152 84.973 C 37.905 85.229,37.422 85.983,37.078 86.649 C 36.734 87.314,36.173 88.091,35.831 88.374 C 35.489 88.658,35.307 89.050,35.428 89.245 C 35.549 89.440,35.452 89.600,35.214 89.600 C 34.975 89.600,34.609 90.050,34.400 90.600 C 34.191 91.150,33.825 91.600,33.586 91.600 C 33.348 91.600,33.245 91.749,33.358 91.932 C 33.470 92.114,33.071 92.879,32.471 93.632 C 31.870 94.384,31.023 95.717,30.589 96.594 C 30.155 97.471,29.575 98.428,29.300 98.722 C 29.025 99.017,28.800 99.516,28.800 99.832 C 28.800 100.149,28.440 100.716,28.000 101.093 C 27.560 101.470,27.200 102.076,27.200 102.440 C 27.200 102.804,26.932 103.324,26.604 103.596 C 26.277 103.868,26.107 104.250,26.228 104.445 C 26.349 104.640,26.286 104.800,26.089 104.800 C 25.774 104.800,24.285 107.593,22.251 112.000 C 21.896 112.770,21.424 113.670,21.202 114.000 C 20.671 114.792,19.854 116.920,19.935 117.300 C 19.971 117.465,19.840 117.600,19.645 117.600 C 19.449 117.600,19.170 118.235,19.024 119.011 C 18.879 119.787,18.589 120.317,18.380 120.188 C 18.171 120.058,17.999 120.278,17.998 120.676 C 17.996 121.074,17.754 121.862,17.459 122.427 C 17.165 122.991,16.791 123.980,16.630 124.623 C 16.469 125.266,16.167 125.897,15.959 126.025 C 15.751 126.154,15.511 126.606,15.426 127.029 C 15.341 127.453,15.097 128.250,14.883 128.800 C 14.670 129.350,14.455 129.980,14.405 130.200 C 14.355 130.420,13.972 131.271,13.554 132.090 C 13.136 132.910,12.819 133.720,12.850 133.890 C 12.981 134.604,12.269 136.800,11.907 136.800 C 11.691 136.800,11.618 137.070,11.745 137.400 C 11.871 137.730,11.831 138.000,11.654 138.000 C 11.478 138.000,11.307 138.225,11.275 138.500 C 11.118 139.847,10.903 140.702,10.442 141.800 C 10.166 142.460,9.921 143.360,9.899 143.800 C 9.877 144.240,9.695 144.817,9.495 145.082 C 9.295 145.348,9.247 145.753,9.389 145.982 C 9.531 146.212,9.457 146.400,9.224 146.400 C 8.991 146.400,8.800 147.019,8.800 147.776 C 8.800 148.533,8.610 149.270,8.379 149.413 C 8.147 149.556,8.026 149.877,8.109 150.126 C 8.192 150.375,8.037 151.009,7.764 151.534 C 7.492 152.059,7.347 152.919,7.442 153.444 C 7.538 153.970,7.462 154.400,7.273 154.400 C 7.085 154.400,6.629 156.245,6.260 158.500 C 5.891 160.755,5.485 163.140,5.358 163.800 C 4.921 166.076,4.558 168.504,4.222 171.400 C 4.094 172.500,3.898 173.940,3.784 174.600 C 3.565 175.880,3.294 178.857,2.983 183.400 C 2.678 187.867,2.651 203.879,2.943 207.600 C 3.237 211.351,3.547 214.759,3.761 216.600 C 3.838 217.260,4.033 219.330,4.195 221.200 C 4.357 223.070,4.587 224.763,4.707 224.962 C 4.826 225.161,4.967 225.701,5.019 226.162 C 5.072 226.623,5.336 228.080,5.607 229.400 C 5.878 230.720,6.165 232.598,6.246 233.574 C 6.327 234.550,6.594 235.473,6.840 235.625 C 7.093 235.781,7.169 236.268,7.016 236.750 C 6.867 237.218,6.916 237.600,7.123 237.600 C 7.330 237.600,7.502 238.005,7.504 238.500 C 7.506 238.995,7.727 240.209,7.996 241.198 C 8.264 242.188,8.541 243.294,8.611 243.658 C 14.703 275.292,35.427 312.626,61.129 338.268 C 168.246 445.134,350.246 395.389,389.188 248.600 C 389.889 245.960,390.916 242.124,391.472 240.074 C 392.028 238.025,392.375 236.242,392.245 236.111 C 392.114 235.981,392.174 235.672,392.378 235.426 C 392.763 234.962,394.110 227.350,394.544 223.183 C 394.602 222.624,394.754 221.994,394.881 221.783 C 395.008 221.572,395.057 220.725,394.989 219.900 C 394.922 219.075,395.010 218.400,395.186 218.400 C 395.363 218.400,395.507 217.905,395.507 217.300 C 395.507 216.695,395.627 214.850,395.773 213.200 C 396.640 203.395,396.664 189.161,395.828 179.200 C 395.727 177.990,395.622 177.000,395.596 177.000 C 395.569 177.000,395.454 176.010,395.339 174.800 C 394.973 170.937,394.887 170.200,394.802 170.200 C 394.756 170.200,394.650 169.570,394.566 168.800 C 394.366 166.973,394.071 165.000,393.997 165.000 C 393.965 165.000,393.880 164.460,393.809 163.800 C 393.738 163.140,393.564 162.060,393.423 161.400 C 393.281 160.740,393.171 159.795,393.178 159.300 C 393.185 158.805,392.994 158.400,392.752 158.400 C 392.484 158.400,392.411 158.012,392.564 157.400 C 392.702 156.850,392.649 156.400,392.445 156.400 C 392.241 156.400,392.169 156.040,392.284 155.600 C 392.407 155.131,392.296 154.800,392.018 154.800 C 391.757 154.800,391.576 154.395,391.616 153.900 C 391.656 153.405,391.655 152.910,391.614 152.800 C 391.491 152.471,391.153 151.043,391.046 150.400 C 390.991 150.070,390.707 149.087,390.415 148.216 C 390.122 147.345,389.853 146.355,389.816 146.016 C 389.645 144.427,389.074 142.369,388.748 142.168 C 388.549 142.045,388.486 141.785,388.606 141.590 C 388.727 141.395,388.521 140.552,388.149 139.718 C 387.777 138.883,387.434 138.065,387.386 137.900 C 387.339 137.735,387.250 137.465,387.189 137.300 C 387.128 137.135,387.039 136.820,386.991 136.600 C 386.487 134.284,386.245 133.600,385.932 133.600 C 385.730 133.600,385.602 133.375,385.648 133.100 C 385.782 132.285,385.144 130.400,384.733 130.400 C 384.524 130.400,384.456 130.232,384.583 130.028 C 384.709 129.823,384.630 129.542,384.407 129.404 C 384.183 129.266,384.000 128.713,384.000 128.176 C 384.000 127.639,383.820 127.200,383.600 127.200 C 383.380 127.200,383.200 126.834,383.200 126.386 C 383.200 125.938,382.909 125.128,382.554 124.586 C 382.199 124.044,382.047 123.600,382.216 123.600 C 382.385 123.600,382.198 123.240,381.800 122.800 C 381.402 122.360,381.198 122.000,381.347 122.000 C 381.496 122.000,381.353 121.595,381.029 121.100 C 380.704 120.605,380.407 120.020,380.369 119.800 C 380.244 119.094,379.930 118.234,379.272 116.800 C 378.919 116.030,378.616 115.310,378.598 115.200 C 378.581 115.090,378.225 114.370,377.808 113.600 C 377.391 112.830,376.344 110.773,375.481 109.028 C 374.619 107.284,373.663 105.606,373.357 105.300 C 373.051 104.994,372.691 104.307,372.557 103.772 C 372.423 103.237,372.153 102.800,371.957 102.800 C 371.760 102.800,371.645 102.665,371.699 102.500 C 371.754 102.335,371.362 101.480,370.828 100.600 C 370.294 99.720,369.809 98.733,369.750 98.407 C 369.692 98.081,369.453 97.751,369.219 97.673 C 368.986 97.595,368.897 97.367,369.021 97.166 C 369.145 96.965,369.055 96.800,368.820 96.800 C 368.586 96.800,368.105 96.080,367.753 95.200 C 367.401 94.320,366.953 93.600,366.757 93.600 C 366.560 93.600,366.400 93.373,366.400 93.096 C 366.400 92.819,365.961 92.118,365.424 91.539 C 364.887 90.960,364.532 90.401,364.635 90.298 C 364.739 90.194,364.296 89.545,363.651 88.855 C 363.007 88.165,362.596 87.595,362.740 87.588 C 362.883 87.581,362.681 87.390,362.292 87.163 C 361.902 86.936,361.688 86.582,361.815 86.375 C 361.943 86.169,361.857 86.000,361.624 86.000 C 361.391 86.000,361.199 85.775,361.198 85.500 C 361.197 85.225,360.567 84.315,359.798 83.478 C 359.029 82.640,358.400 81.822,358.400 81.658 C 358.400 81.495,357.787 80.740,357.038 79.981 C 356.289 79.222,355.760 78.465,355.862 78.300 C 355.964 78.135,355.878 78.000,355.670 78.000 C 355.463 78.000,355.194 77.622,355.074 77.160 C 354.953 76.698,354.675 76.430,354.456 76.566 C 354.237 76.701,353.943 76.449,353.802 76.006 C 353.661 75.563,353.378 75.200,353.173 75.200 C 352.968 75.200,352.800 74.946,352.800 74.636 C 352.800 74.325,352.294 73.645,351.675 73.124 C 351.056 72.603,350.095 71.508,349.539 70.691 C 348.984 69.873,348.410 69.323,348.265 69.469 C 348.119 69.614,348.000 69.466,348.000 69.139 C 348.000 68.812,347.550 68.153,347.000 67.675 C 346.450 67.197,346.000 66.655,346.000 66.470 C 346.000 66.286,345.550 65.894,345.000 65.600 C 344.450 65.306,344.000 64.856,344.000 64.600 C 344.000 64.344,343.559 63.899,343.019 63.610 C 342.480 63.322,342.075 62.886,342.119 62.643 C 342.164 62.399,341.975 62.245,341.700 62.300 C 341.425 62.355,341.245 62.175,341.300 61.900 C 341.355 61.625,341.175 61.445,340.900 61.500 C 340.625 61.555,340.400 61.393,340.400 61.140 C 340.400 60.608,337.812 58.000,337.284 58.000 C 337.088 58.000,336.723 57.549,336.472 56.998 C 336.220 56.446,335.877 56.040,335.707 56.095 C 335.538 56.149,334.230 55.064,332.800 53.682 C 328.968 49.980,328.768 49.801,328.472 49.794 C 328.182 49.788,326.882 48.730,324.179 46.300 C 323.261 45.475,322.295 44.800,322.032 44.800 C 321.768 44.800,321.664 44.620,321.800 44.400 C 321.936 44.180,321.767 44.000,321.424 44.000 C 321.081 44.000,320.800 43.820,320.800 43.600 C 320.800 43.380,320.530 43.200,320.200 43.200 C 319.870 43.200,319.600 43.032,319.600 42.827 C 319.600 42.622,319.285 42.351,318.900 42.226 C 318.515 42.101,317.300 41.190,316.200 40.202 C 315.100 39.214,313.525 38.100,312.700 37.726 C 311.875 37.352,311.200 36.890,311.200 36.699 C 311.200 36.509,311.039 36.452,310.842 36.574 C 310.645 36.696,310.381 36.526,310.254 36.198 C 310.128 35.869,309.758 35.600,309.432 35.600 C 309.106 35.600,308.696 35.375,308.520 35.100 C 308.150 34.522,307.104 33.840,305.400 33.068 C 304.740 32.769,303.953 32.226,303.651 31.862 C 303.349 31.498,302.854 31.200,302.551 31.200 C 302.248 31.200,302.000 30.990,302.000 30.733 C 302.000 30.477,301.891 30.376,301.757 30.509 C 301.624 30.643,301.140 30.403,300.682 29.976 C 300.224 29.549,299.568 29.199,299.225 29.197 C 298.881 29.196,298.060 28.829,297.400 28.381 C 296.740 27.933,295.390 27.192,294.400 26.733 C 293.410 26.275,292.105 25.550,291.500 25.122 C 290.895 24.695,290.400 24.476,290.400 24.635 C 290.400 24.794,290.021 24.581,289.558 24.162 C 289.095 23.743,288.690 23.464,288.658 23.541 C 288.595 23.695,285.526 22.327,285.200 21.999 C 285.090 21.889,284.550 21.600,284.000 21.358 C 283.450 21.115,282.100 20.492,281.000 19.972 C 279.900 19.452,278.820 19.008,278.600 18.985 C 278.380 18.962,277.503 18.641,276.651 18.272 C 275.799 17.902,274.944 17.600,274.751 17.600 C 274.558 17.600,274.400 17.409,274.400 17.176 C 274.400 16.943,274.214 16.868,273.987 17.008 C 273.760 17.149,272.962 16.903,272.215 16.462 C 271.467 16.021,270.438 15.601,269.928 15.530 C 269.417 15.458,268.910 15.309,268.800 15.198 C 268.499 14.895,264.253 13.528,263.845 13.603 C 263.649 13.639,263.376 13.485,263.237 13.260 C 263.099 13.036,262.538 12.778,261.993 12.687 C 261.447 12.596,260.550 12.335,260.000 12.108 C 259.450 11.880,258.865 11.773,258.700 11.871 C 258.535 11.968,258.400 11.846,258.400 11.600 C 258.400 11.354,258.222 11.263,258.004 11.397 C 257.787 11.532,257.022 11.373,256.304 11.044 C 255.054 10.472,252.520 9.731,250.400 9.318 C 249.098 9.065,248.724 8.968,248.000 8.694 C 246.931 8.290,245.010 7.866,244.640 7.954 C 244.442 8.001,243.992 7.909,243.640 7.748 C 243.288 7.588,242.730 7.408,242.400 7.349 C 241.719 7.228,238.905 6.770,238.000 6.634 C 237.670 6.584,237.130 6.433,236.800 6.299 C 236.470 6.165,235.570 5.973,234.800 5.872 C 234.030 5.772,232.950 5.578,232.400 5.442 C 231.381 5.189,228.427 4.783,226.223 4.593 C 225.550 4.535,225.000 4.450,225.000 4.403 C 225.000 4.356,224.190 4.271,223.200 4.214 C 222.210 4.157,221.400 4.070,221.400 4.021 C 221.400 3.894,219.173 3.671,215.200 3.399 C 210.522 3.078,187.268 2.865,186.993 3.141 M220.800 12.980 C 286.871 21.605,340.670 59.846,368.829 118.200 C 429.047 242.992,338.158 387.774,199.600 387.774 C 65.408 387.774,-25.506 251.455,26.091 127.610 C 53.326 62.238,115.677 17.260,186.000 12.255 C 191.742 11.846,215.986 12.351,220.800 12.980 M108.879 93.824 C 92.471 98.240,67.517 121.565,51.990 147.000 C 36.241 172.799,27.552 229.673,36.015 251.569 C 39.783 261.320,44.434 264.853,58.973 269.009 C 148.914 294.724,254.243 295.034,341.264 269.840 C 357.162 265.237,359.349 263.939,363.116 256.863 C 371.385 241.335,368.878 202.800,357.337 168.000 C 346.693 135.909,306.870 94.438,285.600 93.296 C 278.413 92.909,263.161 97.312,249.400 103.743 L 245.000 105.800 199.757 105.903 L 154.515 106.007 151.357 104.558 C 132.637 95.971,116.268 91.835,108.879 93.824 M121.256 103.430 C 127.383 104.583,140.281 109.161,151.508 114.168 L 155.616 116.000 201.364 116.000 L 247.111 116.000 251.656 113.966 C 266.555 107.298,280.669 102.800,286.693 102.800 C 299.072 102.800,324.130 125.121,340.801 151.000 C 356.979 176.111,365.972 234.271,356.555 252.885 C 354.290 257.364,352.858 258.294,344.200 260.916 C 314.757 269.831,276.620 276.220,233.400 279.477 C 181.320 283.403,101.904 274.647,55.000 259.808 C 47.492 257.433,44.681 253.235,42.941 241.800 C 39.934 222.037,47.318 178.986,57.074 159.400 C 66.899 139.677,90.702 113.750,106.200 105.892 C 112.427 102.735,115.177 102.285,121.256 103.430 M126.780 167.322 C 117.225 170.019,110.671 185.418,112.304 201.332 C 115.740 234.827,144.851 234.594,148.014 201.047 C 149.929 180.749,139.257 163.800,126.780 167.322 M265.953 167.729 C 250.669 173.440,246.878 207.215,259.904 221.610 C 267.580 230.092,278.402 227.408,284.131 215.600 C 291.918 199.549,287.499 174.479,275.831 168.503 C 273.372 167.244,268.311 166.847,265.953 167.729 M398.206 398.843 L 397.012 400.000 398.506 400.000 C 399.899 400.000,400.000 399.919,400.000 398.800 C 400.000 397.344,399.747 397.350,398.206 398.843 " stroke="none" fill="#0da1ec" fill-rule="evenodd"></path><path id="path2" d="M157.400 7.200 C 156.896 7.417,156.822 7.544,157.200 7.544 C 157.530 7.544,158.160 7.389,158.600 7.200 C 159.104 6.983,159.178 6.856,158.800 6.856 C 158.470 6.856,157.840 7.011,157.400 7.200 M148.000 9.427 L 146.600 9.993 148.000 9.751 C 149.587 9.476,151.052 8.811,150.000 8.843 C 149.670 8.853,148.770 9.116,148.000 9.427 M272.400 16.600 C 272.950 16.914,273.580 17.172,273.800 17.172 C 274.020 17.172,273.750 16.914,273.200 16.600 C 272.650 16.286,272.020 16.028,271.800 16.028 C 271.580 16.028,271.850 16.286,272.400 16.600 M94.400 32.420 L 93.400 33.222 94.500 32.747 C 95.105 32.485,95.600 32.120,95.600 31.936 C 95.600 31.479,95.545 31.502,94.400 32.420 M304.344 32.376 C 304.864 32.829,305.479 33.200,305.711 33.200 C 306.203 33.200,306.179 33.180,304.600 32.255 L 303.400 31.553 304.344 32.376 M83.585 39.629 L 82.200 40.858 83.700 39.781 C 85.026 38.830,85.457 38.400,85.085 38.400 C 85.022 38.400,84.347 38.953,83.585 39.629 M317.600 41.400 C 318.345 41.950,319.055 42.399,319.178 42.398 C 319.555 42.395,317.024 40.430,316.622 40.414 C 316.415 40.406,316.855 40.850,317.600 41.400 M76.200 45.050 C 75.540 45.612,75.360 45.888,75.800 45.665 C 76.996 45.058,78.257 44.025,77.800 44.027 C 77.580 44.028,76.860 44.488,76.200 45.050 M323.562 45.726 C 324.182 46.504,327.200 48.968,327.200 48.696 C 327.200 48.602,326.255 47.737,325.100 46.774 C 323.945 45.810,323.253 45.339,323.562 45.726 M72.981 47.704 C 70.980 49.307,69.191 51.034,70.000 50.583 C 70.330 50.400,71.140 49.755,71.800 49.152 C 72.460 48.548,73.450 47.688,74.000 47.240 C 74.550 46.793,74.910 46.422,74.800 46.417 C 74.690 46.412,73.872 46.991,72.981 47.704 M67.800 52.000 C 67.402 52.440,67.166 52.800,67.277 52.800 C 67.387 52.800,67.893 52.440,68.400 52.000 C 68.907 51.560,69.143 51.200,68.923 51.200 C 68.704 51.200,68.198 51.560,67.800 52.000 M55.464 63.929 C 54.495 64.999,54.651 65.370,55.671 64.420 C 56.150 63.974,56.449 63.515,56.335 63.402 C 56.221 63.288,55.830 63.525,55.464 63.929 M50.664 69.201 C 50.041 69.861,49.806 70.296,50.141 70.167 C 50.649 69.972,52.257 68.000,51.908 68.000 C 51.847 68.000,51.287 68.540,50.664 69.201 M350.056 71.541 C 350.310 71.948,350.897 72.511,351.359 72.791 C 351.948 73.147,351.848 72.925,351.025 72.050 C 349.688 70.627,349.386 70.469,350.056 71.541 M47.889 72.405 C 47.126 73.296,46.984 73.781,47.598 73.401 C 47.990 73.159,48.946 71.600,48.703 71.600 C 48.634 71.600,48.268 71.962,47.889 72.405 M372.400 103.315 C 372.400 103.885,373.355 105.600,373.673 105.600 C 373.863 105.600,373.709 105.105,373.330 104.500 C 372.432 103.064,372.400 103.023,372.400 103.315 M21.878 112.205 C 21.512 112.972,21.295 113.600,21.396 113.600 C 21.670 113.600,22.884 111.151,22.701 110.968 C 22.614 110.881,22.244 111.438,21.878 112.205 M88.000 119.400 C 87.028 120.390,86.323 121.200,86.433 121.200 C 86.543 121.200,87.428 120.390,88.400 119.400 C 89.372 118.410,90.077 117.600,89.967 117.600 C 89.857 117.600,88.972 118.410,88.000 119.400 M318.400 123.400 C 320.481 125.490,322.274 127.200,322.384 127.200 C 322.494 127.200,320.881 125.490,318.800 123.400 C 316.719 121.310,314.926 119.600,314.816 119.600 C 314.706 119.600,316.319 121.310,318.400 123.400 M80.985 126.500 L 79.000 128.600 81.100 126.615 C 83.051 124.771,83.383 124.400,83.085 124.400 C 83.022 124.400,82.077 125.345,80.985 126.500 M323.600 128.925 C 323.600 128.994,324.185 129.579,324.900 130.225 L 326.200 131.400 325.025 130.100 C 323.930 128.888,323.600 128.616,323.600 128.925 M269.305 167.087 C 269.914 167.179,270.814 167.177,271.305 167.082 C 271.797 166.987,271.300 166.911,270.200 166.914 C 269.100 166.917,268.697 166.995,269.305 167.087 M120.581 170.900 L 119.000 172.600 120.700 171.019 C 122.281 169.548,122.584 169.200,122.281 169.200 C 122.216 169.200,121.451 169.965,120.581 170.900 M138.400 169.725 C 138.400 169.794,138.985 170.379,139.700 171.025 L 141.000 172.200 139.825 170.900 C 138.730 169.688,138.400 169.416,138.400 169.725 M279.400 171.200 C 280.259 172.080,281.052 172.800,281.162 172.800 C 281.272 172.800,280.659 172.080,279.800 171.200 C 278.941 170.320,278.148 169.600,278.038 169.600 C 277.928 169.600,278.541 170.320,279.400 171.200 M260.175 171.300 L 259.000 172.600 260.300 171.425 C 261.015 170.779,261.600 170.194,261.600 170.125 C 261.600 169.816,261.270 170.088,260.175 171.300 M112.093 191.600 C 112.093 192.370,112.175 192.685,112.276 192.300 C 112.376 191.915,112.376 191.285,112.276 190.900 C 112.175 190.515,112.093 190.830,112.093 191.600 M396.493 191.600 C 396.493 192.370,396.575 192.685,396.676 192.300 C 396.776 191.915,396.776 191.285,396.676 190.900 C 396.575 190.515,396.493 190.830,396.493 191.600 M148.109 192.800 C 148.109 193.790,148.187 194.195,148.282 193.700 C 148.378 193.205,148.378 192.395,148.282 191.900 C 148.187 191.405,148.109 191.810,148.109 192.800 M288.148 196.800 C 288.148 199.110,288.214 200.055,288.295 198.900 C 288.376 197.745,288.376 195.855,288.295 194.700 C 288.214 193.545,288.148 194.490,288.148 196.800 M251.734 196.800 C 251.734 198.450,251.805 199.125,251.891 198.300 C 251.978 197.475,251.978 196.125,251.891 195.300 C 251.805 194.475,251.734 195.150,251.734 196.800 M148.109 200.400 C 148.109 201.390,148.187 201.795,148.282 201.300 C 148.378 200.805,148.378 199.995,148.282 199.500 C 148.187 199.005,148.109 199.410,148.109 200.400 M3.256 214.800 C 3.256 215.130,3.411 215.760,3.600 216.200 C 3.817 216.704,3.944 216.778,3.944 216.400 C 3.944 216.070,3.789 215.440,3.600 215.000 C 3.383 214.496,3.256 214.422,3.256 214.800 M359.693 218.000 C 359.693 218.770,359.775 219.085,359.876 218.700 C 359.976 218.315,359.976 217.685,359.876 217.300 C 359.775 216.915,359.693 217.230,359.693 218.000 M42.493 221.600 C 42.493 222.370,42.575 222.685,42.676 222.300 C 42.776 221.915,42.776 221.285,42.676 220.900 C 42.575 220.515,42.493 220.830,42.493 221.600 M139.578 222.300 L 138.200 223.800 139.700 222.422 C 141.096 221.138,141.384 220.800,141.078 220.800 C 141.012 220.800,140.337 221.475,139.578 222.300 M279.200 222.600 C 278.228 223.590,277.523 224.400,277.633 224.400 C 277.743 224.400,278.628 223.590,279.600 222.600 C 280.572 221.610,281.277 220.800,281.167 220.800 C 281.057 220.800,280.172 221.610,279.200 222.600 M259.200 221.325 C 259.200 221.394,259.785 221.979,260.500 222.625 L 261.800 223.800 260.625 222.500 C 259.530 221.288,259.200 221.016,259.200 221.325 M360.120 224.000 C 360.120 225.210,360.195 225.705,360.287 225.100 C 360.378 224.495,360.378 223.505,360.287 222.900 C 360.195 222.295,360.120 222.790,360.120 224.000 M268.700 226.689 C 269.415 226.778,270.585 226.778,271.300 226.689 C 272.015 226.601,271.430 226.528,270.000 226.528 C 268.570 226.528,267.985 226.601,268.700 226.689 M42.109 230.400 C 42.109 231.390,42.187 231.795,42.282 231.300 C 42.378 230.805,42.378 229.995,42.282 229.500 C 42.187 229.005,42.109 229.410,42.109 230.400 M5.668 231.200 C 5.688 232.239,6.318 233.946,6.332 233.000 C 6.338 232.560,6.189 231.840,6.000 231.400 C 5.789 230.910,5.661 230.832,5.668 231.200 M360.109 236.000 C 360.109 236.990,360.187 237.395,360.282 236.900 C 360.378 236.405,360.378 235.595,360.282 235.100 C 360.187 234.605,360.109 235.010,360.109 236.000 M146.900 277.476 C 147.285 277.576,147.915 277.576,148.300 277.476 C 148.685 277.375,148.370 277.293,147.600 277.293 C 146.830 277.293,146.515 277.375,146.900 277.476 M255.700 277.476 C 256.085 277.576,256.715 277.576,257.100 277.476 C 257.485 277.375,257.170 277.293,256.400 277.293 C 255.630 277.293,255.315 277.375,255.700 277.476 M150.900 277.876 C 151.285 277.976,151.915 277.976,152.300 277.876 C 152.685 277.775,152.370 277.693,151.600 277.693 C 150.830 277.693,150.515 277.775,150.900 277.876 M251.700 277.876 C 252.085 277.976,252.715 277.976,253.100 277.876 C 253.485 277.775,253.170 277.693,252.400 277.693 C 251.630 277.693,251.315 277.775,251.700 277.876 M155.300 278.276 C 155.685 278.376,156.315 278.376,156.700 278.276 C 157.085 278.175,156.770 278.093,156.000 278.093 C 155.230 278.093,154.915 278.175,155.300 278.276 M247.300 278.276 C 247.685 278.376,248.315 278.376,248.700 278.276 C 249.085 278.175,248.770 278.093,248.000 278.093 C 247.230 278.093,246.915 278.175,247.300 278.276 M159.300 278.676 C 159.685 278.776,160.315 278.776,160.700 278.676 C 161.085 278.575,160.770 278.493,160.000 278.493 C 159.230 278.493,158.915 278.575,159.300 278.676 M242.705 278.683 C 243.202 278.779,243.922 278.775,244.305 278.675 C 244.687 278.575,244.280 278.496,243.400 278.501 C 242.520 278.505,242.207 278.587,242.705 278.683 M164.300 279.082 C 164.795 279.178,165.605 279.178,166.100 279.082 C 166.595 278.987,166.190 278.909,165.200 278.909 C 164.210 278.909,163.805 278.987,164.300 279.082 M237.105 279.083 C 237.602 279.179,238.322 279.175,238.705 279.075 C 239.087 278.975,238.680 278.896,237.800 278.901 C 236.920 278.905,236.607 278.987,237.105 279.083 M170.300 279.482 C 170.795 279.578,171.605 279.578,172.100 279.482 C 172.595 279.387,172.190 279.309,171.200 279.309 C 170.210 279.309,169.805 279.387,170.300 279.482 M231.505 279.483 C 232.002 279.579,232.722 279.575,233.105 279.475 C 233.487 279.375,233.080 279.296,232.200 279.301 C 231.320 279.305,231.007 279.387,231.505 279.483 M177.100 279.889 C 177.815 279.978,178.985 279.978,179.700 279.889 C 180.415 279.801,179.830 279.728,178.400 279.728 C 176.970 279.728,176.385 279.801,177.100 279.889 M223.900 279.889 C 224.615 279.978,225.785 279.978,226.500 279.889 C 227.215 279.801,226.630 279.728,225.200 279.728 C 223.770 279.728,223.185 279.801,223.900 279.889 M185.500 280.289 C 186.215 280.378,187.385 280.378,188.100 280.289 C 188.815 280.201,188.230 280.128,186.800 280.128 C 185.370 280.128,184.785 280.201,185.500 280.289 M215.100 280.289 C 215.815 280.378,216.985 280.378,217.700 280.289 C 218.415 280.201,217.830 280.128,216.400 280.128 C 214.970 280.128,214.385 280.201,215.100 280.289 " stroke="none" fill="#047bbc" fill-rule="evenodd"></path><path id="path3" d="M188.500 12.276 C 188.885 12.376,189.515 12.376,189.900 12.276 C 190.285 12.175,189.970 12.093,189.200 12.093 C 188.430 12.093,188.115 12.175,188.500 12.276 M209.300 12.276 C 209.685 12.376,210.315 12.376,210.700 12.276 C 211.085 12.175,210.770 12.093,210.000 12.093 C 209.230 12.093,208.915 12.175,209.300 12.276 M182.705 12.683 C 183.202 12.779,183.922 12.775,184.305 12.675 C 184.687 12.575,184.280 12.496,183.400 12.501 C 182.520 12.505,182.207 12.587,182.705 12.683 M215.105 12.683 C 215.602 12.779,216.322 12.775,216.705 12.675 C 217.087 12.575,216.680 12.496,215.800 12.501 C 214.920 12.505,214.607 12.587,215.105 12.683 M117.600 30.600 C 116.610 31.130,115.980 31.564,116.200 31.564 C 116.420 31.564,117.410 31.130,118.400 30.600 C 119.390 30.070,120.020 29.636,119.800 29.636 C 119.580 29.636,118.590 30.070,117.600 30.600 M280.833 30.554 C 281.240 30.928,287.600 33.988,287.600 33.809 C 287.600 33.586,281.377 30.400,280.942 30.400 C 280.791 30.400,280.742 30.469,280.833 30.554 M288.800 34.579 C 288.800 34.689,289.340 35.059,290.000 35.400 C 290.660 35.741,291.200 35.931,291.200 35.821 C 291.200 35.711,290.660 35.341,290.000 35.000 C 289.340 34.659,288.800 34.469,288.800 34.579 M293.400 37.090 C 293.620 37.300,294.520 37.876,295.400 38.370 C 296.280 38.865,296.640 38.970,296.200 38.604 C 295.306 37.861,292.772 36.491,293.400 37.090 M303.600 43.362 C 303.600 43.472,304.410 44.119,305.400 44.800 C 306.390 45.481,307.200 45.948,307.200 45.838 C 307.200 45.728,306.390 45.081,305.400 44.400 C 304.410 43.719,303.600 43.252,303.600 43.362 M307.800 46.289 C 308.454 46.972,316.800 53.236,316.800 53.043 C 316.800 52.946,315.315 51.717,313.500 50.311 C 310.070 47.655,307.107 45.564,307.800 46.289 M317.200 53.280 C 317.200 53.401,318.865 54.905,320.900 56.624 C 329.819 64.156,341.875 76.904,349.157 86.502 C 350.784 88.646,352.201 90.400,352.306 90.400 C 352.412 90.400,352.329 90.175,352.123 89.900 C 342.879 77.589,331.622 65.350,322.200 57.369 C 320.440 55.878,318.595 54.299,318.100 53.859 C 317.605 53.420,317.200 53.159,317.200 53.280 M71.787 62.100 L 69.400 64.600 71.900 62.213 C 73.275 60.899,74.400 59.774,74.400 59.713 C 74.400 59.417,74.005 59.778,71.787 62.100 M61.588 72.300 L 59.000 75.000 61.700 72.412 C 63.185 70.988,64.400 69.773,64.400 69.712 C 64.400 69.417,63.993 69.792,61.588 72.300 M57.775 76.500 L 56.600 77.800 57.900 76.625 C 58.615 75.979,59.200 75.394,59.200 75.325 C 59.200 75.016,58.870 75.288,57.775 76.500 M354.000 93.200 C 354.896 94.520,355.720 95.600,355.830 95.600 C 355.940 95.600,355.296 94.520,354.400 93.200 C 353.504 91.880,352.680 90.800,352.570 90.800 C 352.460 90.800,353.104 91.880,354.000 93.200 M112.900 93.087 C 113.505 93.178,114.495 93.178,115.100 93.087 C 115.705 92.995,115.210 92.920,114.000 92.920 C 112.790 92.920,112.295 92.995,112.900 93.087 M283.300 93.087 C 283.905 93.178,284.895 93.178,285.500 93.087 C 286.105 92.995,285.610 92.920,284.400 92.920 C 283.190 92.920,282.695 92.995,283.300 93.087 M357.149 97.800 C 357.365 98.240,357.834 98.960,358.193 99.400 L 358.844 100.200 358.451 99.400 C 358.235 98.960,357.766 98.240,357.407 97.800 L 356.756 97.000 357.149 97.800 M359.682 101.834 C 360.187 102.733,360.923 103.903,361.318 104.434 C 361.712 104.965,361.622 104.665,361.118 103.766 C 360.613 102.867,359.877 101.697,359.482 101.166 C 359.088 100.635,359.178 100.935,359.682 101.834 M363.200 108.000 C 363.649 108.880,364.106 109.600,364.216 109.600 C 364.326 109.600,364.049 108.880,363.600 108.000 C 363.151 107.120,362.694 106.400,362.584 106.400 C 362.474 106.400,362.751 107.120,363.200 108.000 M365.200 111.600 C 365.649 112.480,366.106 113.200,366.216 113.200 C 366.326 113.200,366.049 112.480,365.600 111.600 C 365.151 110.720,364.694 110.000,364.584 110.000 C 364.474 110.000,364.751 110.720,365.200 111.600 M76.600 115.600 C 73.967 118.240,71.903 120.400,72.013 120.400 C 72.123 120.400,74.367 118.240,77.000 115.600 C 79.633 112.960,81.697 110.800,81.587 110.800 C 81.477 110.800,79.233 112.960,76.600 115.600 M322.800 116.600 C 324.660 118.470,326.272 120.000,326.382 120.000 C 326.492 120.000,325.060 118.470,323.200 116.600 C 321.340 114.730,319.728 113.200,319.618 113.200 C 319.508 113.200,320.940 114.730,322.800 116.600 M366.441 113.800 C 366.441 114.020,367.413 116.090,368.600 118.400 C 369.787 120.710,370.759 122.420,370.759 122.200 C 370.759 121.980,369.787 119.910,368.600 117.600 C 367.413 115.290,366.441 113.580,366.441 113.800 M370.828 123.000 C 370.828 123.220,371.086 123.850,371.400 124.400 C 371.714 124.950,371.972 125.220,371.972 125.000 C 371.972 124.780,371.714 124.150,371.400 123.600 C 371.086 123.050,370.828 122.780,370.828 123.000 M376.629 137.600 C 376.776 138.150,377.064 138.870,377.267 139.200 C 377.525 139.617,377.557 139.495,377.371 138.800 C 377.224 138.250,376.936 137.530,376.733 137.200 C 376.475 136.783,376.443 136.905,376.629 137.600 M377.661 140.400 C 377.661 140.730,377.903 141.630,378.200 142.400 C 378.497 143.170,378.739 143.530,378.739 143.200 C 378.739 142.870,378.497 141.970,378.200 141.200 C 377.903 140.430,377.661 140.070,377.661 140.400 M380.856 151.200 C 380.856 151.530,381.011 152.160,381.200 152.600 C 381.417 153.104,381.544 153.178,381.544 152.800 C 381.544 152.470,381.389 151.840,381.200 151.400 C 380.983 150.896,380.856 150.822,380.856 151.200 M383.687 163.000 C 383.691 163.440,383.832 164.340,384.000 165.000 C 384.274 166.078,384.306 166.098,384.313 165.200 C 384.317 164.650,384.176 163.750,384.000 163.200 C 383.749 162.416,383.681 162.373,383.687 163.000 M385.701 175.000 C 385.705 175.880,385.787 176.193,385.883 175.695 C 385.979 175.198,385.975 174.478,385.875 174.095 C 385.775 173.713,385.696 174.120,385.701 175.000 M386.101 178.600 C 386.105 179.480,386.187 179.793,386.283 179.295 C 386.379 178.798,386.375 178.078,386.275 177.695 C 386.175 177.313,386.096 177.720,386.101 178.600 M12.493 181.200 C 12.493 181.970,12.575 182.285,12.676 181.900 C 12.776 181.515,12.776 180.885,12.676 180.500 C 12.575 180.115,12.493 180.430,12.493 181.200 M386.514 182.600 C 386.517 183.700,386.595 184.103,386.687 183.495 C 386.779 182.886,386.777 181.986,386.682 181.495 C 386.587 181.003,386.511 181.500,386.514 182.600 M12.114 186.200 C 12.117 187.300,12.195 187.703,12.287 187.095 C 12.379 186.486,12.377 185.586,12.282 185.095 C 12.187 184.603,12.111 185.100,12.114 186.200 M386.928 187.600 C 386.928 189.030,387.001 189.615,387.089 188.900 C 387.178 188.185,387.178 187.015,387.089 186.300 C 387.001 185.585,386.928 186.170,386.928 187.600 M11.750 194.200 C 11.751 196.620,11.816 197.558,11.896 196.285 C 11.976 195.012,11.975 193.032,11.894 191.885 C 11.814 190.738,11.749 191.780,11.750 194.200 M387.371 200.000 C 387.371 204.950,387.428 206.975,387.499 204.500 C 387.569 202.025,387.569 197.975,387.499 195.500 C 387.428 193.025,387.371 195.050,387.371 200.000 M11.750 205.400 C 11.751 207.820,11.816 208.758,11.896 207.485 C 11.976 206.212,11.975 204.232,11.894 203.085 C 11.814 201.938,11.749 202.980,11.750 205.400 M386.928 212.400 C 386.928 213.830,387.001 214.415,387.089 213.700 C 387.178 212.985,387.178 211.815,387.089 211.100 C 387.001 210.385,386.928 210.970,386.928 212.400 M12.114 213.800 C 12.117 214.900,12.195 215.303,12.287 214.695 C 12.379 214.086,12.377 213.186,12.282 212.695 C 12.187 212.203,12.111 212.700,12.114 213.800 M32.893 216.000 C 32.893 216.770,32.975 217.085,33.076 216.700 C 33.176 216.315,33.176 215.685,33.076 215.300 C 32.975 214.915,32.893 215.230,32.893 216.000 M386.514 217.400 C 386.517 218.500,386.595 218.903,386.687 218.295 C 386.779 217.686,386.777 216.786,386.682 216.295 C 386.587 215.803,386.511 216.300,386.514 217.400 M367.701 219.000 C 367.705 219.880,367.787 220.193,367.883 219.695 C 367.979 219.198,367.975 218.478,367.875 218.095 C 367.775 217.713,367.696 218.120,367.701 219.000 M32.520 222.000 C 32.520 223.210,32.595 223.705,32.687 223.100 C 32.778 222.495,32.778 221.505,32.687 220.900 C 32.595 220.295,32.520 220.790,32.520 222.000 M386.101 221.400 C 386.105 222.280,386.187 222.593,386.283 222.095 C 386.379 221.598,386.375 220.878,386.275 220.495 C 386.175 220.113,386.096 220.520,386.101 221.400 M368.165 230.000 C 368.165 233.850,368.225 235.425,368.298 233.500 C 368.371 231.575,368.371 228.425,368.298 226.500 C 368.225 224.575,368.165 226.150,368.165 230.000 M385.701 224.600 C 385.705 225.480,385.787 225.793,385.883 225.295 C 385.979 224.798,385.975 224.078,385.875 223.695 C 385.775 223.313,385.696 223.720,385.701 224.600 M32.509 234.400 C 32.509 235.390,32.587 235.795,32.682 235.300 C 32.778 234.805,32.778 233.995,32.682 233.500 C 32.587 233.005,32.509 233.410,32.509 234.400 M381.029 247.829 C 380.881 248.415,380.838 248.972,380.932 249.066 C 381.027 249.160,381.224 248.758,381.371 248.171 C 381.519 247.585,381.562 247.028,381.468 246.934 C 381.373 246.840,381.176 247.242,381.029 247.829 M379.829 252.229 C 379.681 252.815,379.638 253.372,379.732 253.466 C 379.827 253.560,380.024 253.158,380.171 252.571 C 380.319 251.985,380.362 251.428,380.268 251.334 C 380.173 251.240,379.976 251.642,379.829 252.229 M377.486 259.686 C 377.121 260.825,376.890 261.823,376.971 261.904 C 377.052 261.985,377.425 261.129,377.800 260.000 C 378.175 258.871,378.406 257.873,378.315 257.781 C 378.223 257.690,377.850 258.547,377.486 259.686 M375.644 264.844 C 375.398 265.551,375.266 266.200,375.352 266.285 C 375.438 266.371,375.709 265.862,375.956 265.156 C 376.202 264.449,376.334 263.800,376.248 263.715 C 376.162 263.629,375.891 264.138,375.644 264.844 M374.444 268.044 C 374.198 268.751,374.066 269.400,374.152 269.485 C 374.238 269.571,374.509 269.062,374.756 268.356 C 375.002 267.649,375.134 267.000,375.048 266.915 C 374.962 266.829,374.691 267.338,374.444 268.044 M372.065 273.817 C 371.395 275.288,371.523 275.602,372.247 274.265 C 372.586 273.640,372.788 273.054,372.696 272.963 C 372.605 272.871,372.321 273.256,372.065 273.817 M370.865 276.617 C 370.195 278.088,370.323 278.402,371.047 277.065 C 371.386 276.440,371.588 275.854,371.496 275.763 C 371.405 275.671,371.121 276.056,370.865 276.617 M28.436 277.800 C 28.436 278.020,28.870 279.010,29.400 280.000 C 29.930 280.990,30.364 281.620,30.364 281.400 C 30.364 281.180,29.930 280.190,29.400 279.200 C 28.870 278.210,28.436 277.580,28.436 277.800 M366.885 285.016 C 365.741 287.317,364.892 289.200,364.999 289.200 C 365.264 289.200,369.285 281.152,369.108 280.974 C 369.030 280.897,368.030 282.715,366.885 285.016 M141.700 285.476 C 142.085 285.576,142.715 285.576,143.100 285.476 C 143.485 285.375,143.170 285.293,142.400 285.293 C 141.630 285.293,141.315 285.375,141.700 285.476 M149.505 286.283 C 150.002 286.379,150.722 286.375,151.105 286.275 C 151.487 286.175,151.080 286.096,150.200 286.101 C 149.320 286.105,149.007 286.187,149.505 286.283 M254.305 286.283 C 254.802 286.379,255.522 286.375,255.905 286.275 C 256.287 286.175,255.880 286.096,255.000 286.101 C 254.120 286.105,253.807 286.187,254.305 286.283 M154.100 286.676 C 154.485 286.776,155.115 286.776,155.500 286.676 C 155.885 286.575,155.570 286.493,154.800 286.493 C 154.030 286.493,153.715 286.575,154.100 286.676 M249.505 286.683 C 250.002 286.779,250.722 286.775,251.105 286.675 C 251.487 286.575,251.080 286.496,250.200 286.501 C 249.320 286.505,249.007 286.587,249.505 286.683 M158.900 287.076 C 159.285 287.176,159.915 287.176,160.300 287.076 C 160.685 286.975,160.370 286.893,159.600 286.893 C 158.830 286.893,158.515 286.975,158.900 287.076 M244.900 287.076 C 245.285 287.176,245.915 287.176,246.300 287.076 C 246.685 286.975,246.370 286.893,245.600 286.893 C 244.830 286.893,244.515 286.975,244.900 287.076 M163.907 287.490 C 164.626 287.579,165.706 287.577,166.307 287.486 C 166.908 287.395,166.320 287.322,165.000 287.324 C 163.680 287.326,163.188 287.401,163.907 287.490 M239.300 287.487 C 239.905 287.578,240.895 287.578,241.500 287.487 C 242.105 287.395,241.610 287.320,240.400 287.320 C 239.190 287.320,238.695 287.395,239.300 287.487 M33.800 288.800 C 34.141 289.460,34.511 290.000,34.621 290.000 C 34.731 290.000,34.541 289.460,34.200 288.800 C 33.859 288.140,33.489 287.600,33.379 287.600 C 33.269 287.600,33.459 288.140,33.800 288.800 M171.907 287.890 C 172.626 287.979,173.706 287.977,174.307 287.886 C 174.908 287.795,174.320 287.722,173.000 287.724 C 171.680 287.726,171.188 287.801,171.907 287.890 M231.107 287.890 C 231.826 287.979,232.906 287.977,233.507 287.886 C 234.108 287.795,233.520 287.722,232.200 287.724 C 230.880 287.726,230.388 287.801,231.107 287.890 M182.700 288.297 C 184.295 288.373,186.905 288.373,188.500 288.297 C 190.095 288.221,188.790 288.159,185.600 288.159 C 182.410 288.159,181.105 288.221,182.700 288.297 M216.700 288.297 C 218.295 288.373,220.905 288.373,222.500 288.297 C 224.095 288.221,222.790 288.159,219.600 288.159 C 216.410 288.159,215.105 288.221,216.700 288.297 M363.600 291.200 C 363.151 292.080,362.874 292.800,362.984 292.800 C 363.094 292.800,363.551 292.080,364.000 291.200 C 364.449 290.320,364.726 289.600,364.616 289.600 C 364.506 289.600,364.049 290.320,363.600 291.200 M361.800 294.400 C 361.459 295.060,361.269 295.600,361.379 295.600 C 361.489 295.600,361.859 295.060,362.200 294.400 C 362.541 293.740,362.731 293.200,362.621 293.200 C 362.511 293.200,362.141 293.740,361.800 294.400 M357.882 300.800 C 356.217 303.440,354.937 305.600,355.037 305.600 C 355.136 305.600,356.169 304.115,357.331 302.300 C 360.321 297.629,361.292 296.000,361.087 296.000 C 360.988 296.000,359.546 298.160,357.882 300.800 M44.800 306.800 C 45.270 307.460,45.744 308.000,45.854 308.000 C 45.964 308.000,45.670 307.460,45.200 306.800 C 44.730 306.140,44.256 305.600,44.146 305.600 C 44.036 305.600,44.330 306.140,44.800 306.800 M352.800 308.400 C 351.904 309.720,351.260 310.800,351.370 310.800 C 351.480 310.800,352.304 309.720,353.200 308.400 C 354.096 307.080,354.740 306.000,354.630 306.000 C 354.520 306.000,353.696 307.080,352.800 308.400 M348.162 314.700 C 346.675 316.625,344.484 319.370,343.293 320.800 L 341.128 323.400 343.155 321.234 C 345.247 318.998,351.386 311.200,351.054 311.200 C 350.951 311.200,349.650 312.775,348.162 314.700 M335.040 329.835 C 331.762 333.259,326.497 338.322,323.340 341.087 C 320.183 343.851,317.600 346.190,317.600 346.285 C 317.600 347.161,333.349 332.394,338.487 326.700 C 342.894 321.817,341.523 323.063,335.040 329.835 M63.000 329.200 C 64.750 330.960,66.271 332.400,66.381 332.400 C 66.491 332.400,65.150 330.960,63.400 329.200 C 61.650 327.440,60.129 326.000,60.019 326.000 C 59.909 326.000,61.250 327.440,63.000 329.200 M70.200 336.400 C 71.950 338.160,73.471 339.600,73.581 339.600 C 73.691 339.600,72.350 338.160,70.600 336.400 C 68.850 334.640,67.329 333.200,67.219 333.200 C 67.109 333.200,68.450 334.640,70.200 336.400 M315.200 347.846 C 314.210 348.619,313.130 349.538,312.800 349.888 C 312.470 350.238,313.325 349.676,314.700 348.639 C 316.075 347.602,317.200 346.674,317.200 346.577 C 317.200 346.299,317.106 346.359,315.200 347.846 M310.400 351.649 C 309.006 352.871,309.005 352.872,310.288 352.019 C 310.996 351.548,311.682 350.991,311.812 350.781 C 312.197 350.157,311.877 350.354,310.400 351.649 M306.646 354.196 C 305.572 354.939,304.492 355.765,304.246 356.030 C 304.001 356.295,304.925 355.761,306.300 354.841 C 307.675 353.922,308.800 353.087,308.800 352.985 C 308.800 352.711,308.763 352.732,306.646 354.196 M297.700 360.046 C 296.337 360.919,295.895 361.506,297.100 360.843 C 298.018 360.339,299.456 359.227,299.200 359.219 C 299.090 359.216,298.415 359.588,297.700 360.046 M292.700 363.029 C 291.205 363.840,291.296 364.178,292.800 363.400 C 293.460 363.059,294.000 362.694,294.000 362.590 C 294.000 362.332,293.957 362.347,292.700 363.029 M288.300 365.429 C 286.805 366.240,286.896 366.578,288.400 365.800 C 289.060 365.459,289.600 365.094,289.600 364.990 C 289.600 364.732,289.557 364.747,288.300 365.429 M278.400 370.400 C 277.190 371.039,276.380 371.562,276.600 371.562 C 276.820 371.562,277.990 371.039,279.200 370.400 C 280.410 369.761,281.220 369.238,281.000 369.238 C 280.780 369.238,279.610 369.761,278.400 370.400 M184.500 387.476 C 184.885 387.576,185.515 387.576,185.900 387.476 C 186.285 387.375,185.970 387.293,185.200 387.293 C 184.430 387.293,184.115 387.375,184.500 387.476 M213.300 387.476 C 213.685 387.576,214.315 387.576,214.700 387.476 C 215.085 387.375,214.770 387.293,214.000 387.293 C 213.230 387.293,212.915 387.375,213.300 387.476 M190.700 387.889 C 191.415 387.978,192.585 387.978,193.300 387.889 C 194.015 387.801,193.430 387.728,192.000 387.728 C 190.570 387.728,189.985 387.801,190.700 387.889 M205.900 387.889 C 206.615 387.978,207.785 387.978,208.500 387.889 C 209.215 387.801,208.630 387.728,207.200 387.728 C 205.770 387.728,205.185 387.801,205.900 387.889 " stroke="none" fill="#89ccf1" fill-rule="evenodd"></path><path id="path4" d="M186.400 12.411 C 54.021 23.515,-25.767 159.180,29.433 279.303 C 75.649 379.873,201.064 418.358,296.000 361.103 C 395.422 301.143,417.509 167.280,342.646 78.400 C 304.798 33.466,243.587 7.614,186.400 12.411 M122.379 94.059 C 128.996 95.493,142.999 100.496,151.881 104.599 L 154.913 106.000 199.468 106.000 L 244.023 106.000 246.311 104.848 C 256.412 99.764,274.851 93.769,282.800 92.985 C 299.377 91.350,332.236 120.053,350.719 152.314 C 360.349 169.125,368.158 203.779,368.178 229.800 C 368.195 252.000,363.262 263.055,351.600 266.947 C 275.942 292.201,169.823 295.643,83.600 275.640 C 62.205 270.677,47.922 266.304,44.778 263.753 C 38.361 258.548,35.106 252.242,33.135 241.200 C 32.425 237.218,32.425 218.953,33.136 213.000 C 35.432 193.764,39.892 173.973,44.855 161.000 C 54.156 136.687,84.441 103.194,104.311 95.246 C 110.928 92.599,114.543 92.361,122.379 94.059 " stroke="none" fill="#f3fbfb" fill-rule="evenodd"></path></g></svg>