<svg viewBox="0 0 400 300" fill="none" xmlns="http://www.w3.org/2000/svg"><path opacity=".46" d="M324.3 188.5c-21.425-11.205-6.895-39.635-2.31-59 15.5-65.375 2.33-89.65-31.42-93.85C238.5 29.165 207.905 70 147.35 97c-21.215 9.455-34.5 14.145-76.22 21.7-70.55 12.77-52.96 69.33 10.085 110.8 24.105 15.85 18.335 24.955 14.445 31.97 16.605 0 189.45.03 189.45.03 27.39-14.5 60.935-8.5 77.085-18.63 26.155-16.4-4.62-36.98-37.895-54.37Z" fill="#C2D3F9"/><path opacity=".68" d="M127.655 104.675h-22.38c-4.145 0-7.5 3.775-7.5 8.43v116.94c0 4.65 3.355 8.425 7.5 8.425H269.35c4.14 0 7.5-3.775 7.5-8.425v-124.36" fill="#A1BEF7"/><path d="M239.17 85.05H75.25a7.745 7.745 0 0 0-7.745 7.745V218.55a7.745 7.745 0 0 0 7.745 7.745h163.92a7.745 7.745 0 0 0 7.745-7.745V92.795a7.745 7.745 0 0 0-7.745-7.745Z" fill="#F5F8FE" stroke="#231815" stroke-width=".48" stroke-miterlimit="10"/><path d="M112.6 68.27H87.795a8.37 8.37 0 0 0-8.295 8.425v116.94a8.375 8.375 0 0 0 5.112 7.77 8.37 8.37 0 0 0 3.198.66h181.815a8.376 8.376 0 0 0 5.901-2.494 8.365 8.365 0 0 0 2.409-5.936V92.175" fill="#E1E5EA" style="mix-blend-mode:multiply"/><path d="M256.915 61.775H93.78a7.445 7.445 0 0 0-7.445 7.445v116.64a7.445 7.445 0 0 0 7.445 7.445h163.135a7.445 7.445 0 0 0 7.445-7.445V69.22a7.445 7.445 0 0 0-7.445-7.445Z" fill="#F5F8FE" stroke="#231815" stroke-width=".46" stroke-miterlimit="10"/><g style="mix-blend-mode:multiply"><g style="mix-blend-mode:multiply" opacity=".59"><path d="M245.59 148.01a.65.65 0 1 0 0-1.3.65.65 0 0 0 0 1.3ZM245.59 150.52a.65.65 0 1 0 0-1.3.65.65 0 0 0 0 1.3ZM245.59 153.035a.65.65 0 1 0 0-1.3.65.65 0 0 0 0 1.3ZM245.59 155.55a.65.65 0 1 0 0-1.3.65.65 0 0 0 0 1.3ZM245.59 158.06a.65.65 0 1 0 0-1.3.65.65 0 0 0 0 1.3ZM245.59 160.575a.65.65 0 1 0 0-1.3.65.65 0 0 0 0 1.3ZM245.59 163.085a.65.65 0 1 0 0-1.3.65.65 0 0 0 0 1.3ZM245.59 165.6a.65.65 0 1 0 0-1.3.65.65 0 0 0 0 1.3ZM245.59 168.115a.65.65 0 1 0 0-1.3.65.65 0 0 0 0 1.3ZM243.38 148.01a.65.65 0 1 0 0-1.3.65.65 0 0 0 0 1.3ZM243.38 150.52a.65.65 0 1 0 0-1.3.65.65 0 0 0 0 1.3ZM243.38 153.035a.65.65 0 1 0 0-1.3.65.65 0 0 0 0 1.3ZM243.38 155.55a.65.65 0 1 0 0-1.3.65.65 0 0 0 0 1.3ZM243.38 158.06a.65.65 0 1 0 0-1.3.65.65 0 0 0 0 1.3ZM243.38 160.575a.65.65 0 1 0 0-1.3.65.65 0 0 0 0 1.3ZM243.38 163.085a.65.65 0 1 0 0-1.3.65.65 0 0 0 0 1.3ZM243.38 165.6a.65.65 0 1 0 0-1.3.65.65 0 0 0 0 1.3ZM243.38 168.115a.65.65 0 1 0 0-1.3.65.65 0 0 0 0 1.3ZM241.171 148.01a.65.65 0 1 0-.001-1.301.65.65 0 0 0 .001 1.301ZM241.171 150.52a.65.65 0 1 0-.001-1.301.65.65 0 0 0 .001 1.301ZM241.171 153.035a.65.65 0 1 0-.001-1.301.65.65 0 0 0 .001 1.301ZM241.171 155.55a.65.65 0 1 0-.001-1.301.65.65 0 0 0 .001 1.301ZM241.171 158.06a.65.65 0 1 0-.001-1.301.65.65 0 0 0 .001 1.301ZM241.171 160.575a.65.65 0 1 0-.001-1.301.65.65 0 0 0 .001 1.301ZM241.171 163.085a.65.65 0 1 0-.001-1.301.65.65 0 0 0 .001 1.301ZM241.171 165.6a.65.65 0 1 0-.001-1.301.65.65 0 0 0 .001 1.301ZM241.171 168.115a.65.65 0 1 0-.001-1.301.65.65 0 0 0 .001 1.301ZM238.965 148.01a.65.65 0 1 0 0-1.3.65.65 0 0 0 0 1.3ZM238.965 150.52a.65.65 0 1 0 0-1.3.65.65 0 0 0 0 1.3ZM238.965 153.035a.65.65 0 1 0 0-1.3.65.65 0 0 0 0 1.3ZM238.965 155.55a.65.65 0 1 0 0-1.3.65.65 0 0 0 0 1.3ZM238.965 158.06a.65.65 0 1 0 0-1.3.65.65 0 0 0 0 1.3ZM238.965 160.575a.65.65 0 1 0 0-1.3.65.65 0 0 0 0 1.3ZM238.965 163.085a.65.65 0 1 0 0-1.3.65.65 0 0 0 0 1.3ZM238.965 165.6a.65.65 0 1 0 0-1.3.65.65 0 0 0 0 1.3ZM238.965 168.115a.65.65 0 1 0 0-1.3.65.65 0 0 0 0 1.3ZM236.755 148.01a.65.65 0 1 0 0-1.3.65.65 0 0 0 0 1.3ZM236.755 150.52a.65.65 0 1 0 0-1.3.65.65 0 0 0 0 1.3ZM236.755 153.035a.65.65 0 1 0 0-1.3.65.65 0 0 0 0 1.3ZM236.755 155.55a.65.65 0 1 0 0-1.3.65.65 0 0 0 0 1.3ZM236.755 158.06a.65.65 0 1 0 0-1.3.65.65 0 0 0 0 1.3ZM236.755 160.575a.65.65 0 1 0 0-1.3.65.65 0 0 0 0 1.3ZM236.755 163.085a.65.65 0 1 0 0-1.3.65.65 0 0 0 0 1.3ZM236.755 165.6a.65.65 0 1 0 0-1.3.65.65 0 0 0 0 1.3ZM236.755 168.115a.65.65 0 1 0 0-1.3.65.65 0 0 0 0 1.3ZM234.55 148.01a.65.65 0 1 0 0-1.3.65.65 0 0 0 0 1.3ZM234.55 150.52a.65.65 0 1 0 0-1.3.65.65 0 0 0 0 1.3ZM234.55 153.035a.65.65 0 1 0 0-1.3.65.65 0 0 0 0 1.3ZM234.55 155.55a.65.65 0 1 0 0-1.3.65.65 0 0 0 0 1.3ZM234.55 158.06a.65.65 0 1 0 0-1.3.65.65 0 0 0 0 1.3ZM234.55 160.575a.65.65 0 1 0 0-1.3.65.65 0 0 0 0 1.3ZM234.55 163.085a.65.65 0 1 0 0-1.3.65.65 0 0 0 0 1.3ZM234.55 165.6a.65.65 0 1 0 0-1.3.65.65 0 0 0 0 1.3ZM234.55 168.115a.65.65 0 1 0 0-1.3.65.65 0 0 0 0 1.3ZM232.34 148.01a.65.65 0 1 0 0-1.3.65.65 0 0 0 0 1.3ZM232.34 150.52a.65.65 0 1 0 0-1.3.65.65 0 0 0 0 1.3ZM232.34 153.035a.65.65 0 1 0 0-1.3.65.65 0 0 0 0 1.3ZM232.34 155.55a.65.65 0 1 0 0-1.3.65.65 0 0 0 0 1.3ZM232.34 158.06a.65.65 0 1 0 0-1.3.65.65 0 0 0 0 1.3ZM232.34 160.575a.65.65 0 1 0 0-1.3.65.65 0 0 0 0 1.3ZM232.34 163.085a.65.65 0 1 0 0-1.3.65.65 0 0 0 0 1.3ZM232.34 165.6a.65.65 0 1 0 0-1.3.65.65 0 0 0 0 1.3ZM232.34 168.115a.65.65 0 1 0 0-1.3.65.65 0 0 0 0 1.3ZM230.13 148.01a.65.65 0 1 0 0-1.3.65.65 0 0 0 0 1.3ZM230.13 150.52a.65.65 0 1 0 0-1.3.65.65 0 0 0 0 1.3ZM230.13 153.035a.65.65 0 1 0 0-1.3.65.65 0 0 0 0 1.3ZM230.13 155.55a.65.65 0 1 0 0-1.3.65.65 0 0 0 0 1.3ZM230.13 158.06a.65.65 0 1 0 0-1.3.65.65 0 0 0 0 1.3ZM230.13 160.575a.65.65 0 1 0 0-1.3.65.65 0 0 0 0 1.3ZM230.13 163.085a.65.65 0 1 0 0-1.3.65.65 0 0 0 0 1.3ZM230.13 165.6a.65.65 0 1 0 0-1.3.65.65 0 0 0 0 1.3ZM230.13 168.115a.65.65 0 1 0 0-1.3.65.65 0 0 0 0 1.3Z" fill="#C9CACA" style="mix-blend-mode:multiply" opacity=".59"/></g><g style="mix-blend-mode:multiply" opacity=".59"><path d="M263.265 148.01a.65.65 0 1 0 0-1.3.65.65 0 0 0 0 1.3ZM263.265 150.52a.65.65 0 1 0 0-1.3.65.65 0 0 0 0 1.3ZM263.265 153.035a.65.65 0 1 0 0-1.3.65.65 0 0 0 0 1.3ZM263.265 155.55a.65.65 0 1 0 0-1.3.65.65 0 0 0 0 1.3ZM263.265 158.06a.65.65 0 1 0 0-1.3.65.65 0 0 0 0 1.3ZM263.265 160.575a.65.65 0 1 0 0-1.3.65.65 0 0 0 0 1.3ZM263.265 163.085a.65.65 0 1 0 0-1.3.65.65 0 0 0 0 1.3ZM263.265 165.6a.65.65 0 1 0 0-1.3.65.65 0 0 0 0 1.3ZM263.265 168.115a.65.65 0 1 0 0-1.3.65.65 0 0 0 0 1.3ZM261.055 148.01a.65.65 0 1 0 0-1.3.65.65 0 0 0 0 1.3ZM261.055 150.52a.65.65 0 1 0 0-1.3.65.65 0 0 0 0 1.3ZM261.055 153.035a.65.65 0 1 0 0-1.3.65.65 0 0 0 0 1.3ZM261.055 155.55a.65.65 0 1 0 0-1.3.65.65 0 0 0 0 1.3ZM261.055 158.06a.65.65 0 1 0 0-1.3.65.65 0 0 0 0 1.3ZM261.055 160.575a.65.65 0 1 0 0-1.3.65.65 0 0 0 0 1.3ZM261.055 163.085a.65.65 0 1 0 0-1.3.65.65 0 0 0 0 1.3ZM261.055 165.6a.65.65 0 1 0 0-1.3.65.65 0 0 0 0 1.3ZM261.055 168.115a.65.65 0 1 0 0-1.3.65.65 0 0 0 0 1.3ZM258.845 148.01a.65.65 0 1 0 0-1.3.65.65 0 0 0 0 1.3ZM258.845 150.52a.65.65 0 1 0 0-1.3.65.65 0 0 0 0 1.3ZM258.845 153.035a.65.65 0 1 0 0-1.3.65.65 0 0 0 0 1.3ZM258.845 155.55a.65.65 0 1 0 0-1.3.65.65 0 0 0 0 1.3ZM258.845 158.06a.65.65 0 1 0 0-1.3.65.65 0 0 0 0 1.3ZM258.845 160.575a.65.65 0 1 0 0-1.3.65.65 0 0 0 0 1.3ZM258.845 163.085a.65.65 0 1 0 0-1.3.65.65 0 0 0 0 1.3ZM258.845 165.6a.65.65 0 1 0 0-1.3.65.65 0 0 0 0 1.3ZM258.845 168.115a.65.65 0 1 0 0-1.3.65.65 0 0 0 0 1.3ZM256.64 148.01a.65.65 0 1 0 0-1.3.65.65 0 0 0 0 1.3ZM256.64 150.52a.65.65 0 1 0 0-1.3.65.65 0 0 0 0 1.3ZM256.64 153.035a.65.65 0 1 0 0-1.3.65.65 0 0 0 0 1.3ZM256.64 155.55a.65.65 0 1 0 0-1.3.65.65 0 0 0 0 1.3ZM256.64 158.06a.65.65 0 1 0 0-1.3.65.65 0 0 0 0 1.3ZM256.64 160.575a.65.65 0 1 0 0-1.3.65.65 0 0 0 0 1.3ZM256.64 163.085a.65.65 0 1 0 0-1.3.65.65 0 0 0 0 1.3ZM256.64 165.6a.65.65 0 1 0 0-1.3.65.65 0 0 0 0 1.3ZM256.64 168.115a.65.65 0 1 0 0-1.3.65.65 0 0 0 0 1.3ZM254.43 148.01a.65.65 0 1 0 0-1.3.65.65 0 0 0 0 1.3ZM254.43 150.52a.65.65 0 1 0 0-1.3.65.65 0 0 0 0 1.3ZM254.43 153.035a.65.65 0 1 0 0-1.3.65.65 0 0 0 0 1.3ZM254.43 155.55a.65.65 0 1 0 0-1.3.65.65 0 0 0 0 1.3ZM254.43 158.06a.65.65 0 1 0 0-1.3.65.65 0 0 0 0 1.3ZM254.43 160.575a.65.65 0 1 0 0-1.3.65.65 0 0 0 0 1.3ZM254.43 163.085a.65.65 0 1 0 0-1.3.65.65 0 0 0 0 1.3ZM254.43 165.6a.65.65 0 1 0 0-1.3.65.65 0 0 0 0 1.3ZM254.43 168.115a.65.65 0 1 0 0-1.3.65.65 0 0 0 0 1.3ZM252.22 148.01a.65.65 0 1 0 0-1.3.65.65 0 0 0 0 1.3ZM252.22 150.52a.65.65 0 1 0 0-1.3.65.65 0 0 0 0 1.3ZM252.22 153.035a.65.65 0 1 0 0-1.3.65.65 0 0 0 0 1.3ZM252.22 155.55a.65.65 0 1 0 0-1.3.65.65 0 0 0 0 1.3ZM252.22 158.06a.65.65 0 1 0 0-1.3.65.65 0 0 0 0 1.3ZM252.22 160.575a.65.65 0 1 0 0-1.3.65.65 0 0 0 0 1.3ZM252.22 163.085a.65.65 0 1 0 0-1.3.65.65 0 0 0 0 1.3ZM252.22 165.6a.65.65 0 1 0 0-1.3.65.65 0 0 0 0 1.3ZM252.22 168.115a.65.65 0 1 0 0-1.3.65.65 0 0 0 0 1.3ZM250.015 148.01a.65.65 0 1 0 0-1.3.65.65 0 0 0 0 1.3ZM250.015 150.52a.65.65 0 1 0 0-1.3.65.65 0 0 0 0 1.3ZM250.015 153.035a.65.65 0 1 0 0-1.3.65.65 0 0 0 0 1.3ZM250.015 155.55a.65.65 0 1 0 0-1.3.65.65 0 0 0 0 1.3ZM250.015 158.06a.65.65 0 1 0 0-1.3.65.65 0 0 0 0 1.3ZM250.015 160.575a.65.65 0 1 0 0-1.3.65.65 0 0 0 0 1.3ZM250.015 163.085a.65.65 0 1 0 0-1.3.65.65 0 0 0 0 1.3ZM250.015 165.6a.65.65 0 1 0 0-1.3.65.65 0 0 0 0 1.3ZM250.015 168.115a.65.65 0 1 0 0-1.3.65.65 0 0 0 0 1.3ZM247.805 148.01a.65.65 0 1 0 0-1.3.65.65 0 0 0 0 1.3ZM247.805 150.52a.65.65 0 1 0 0-1.3.65.65 0 0 0 0 1.3ZM247.805 153.035a.65.65 0 1 0 0-1.3.65.65 0 0 0 0 1.3ZM247.805 155.55a.65.65 0 1 0 0-1.3.65.65 0 0 0 0 1.3ZM247.805 158.06a.65.65 0 1 0 0-1.3.65.65 0 0 0 0 1.3ZM247.805 160.575a.65.65 0 1 0 0-1.3.65.65 0 0 0 0 1.3ZM247.805 163.085a.65.65 0 1 0 0-1.3.65.65 0 0 0 0 1.3ZM247.805 165.6a.65.65 0 1 0 0-1.3.65.65 0 0 0 0 1.3ZM247.805 168.115a.65.65 0 1 0 0-1.3.65.65 0 0 0 0 1.3Z" fill="#C9CACA" style="mix-blend-mode:multiply" opacity=".59"/></g><g style="mix-blend-mode:multiply" opacity=".59"><path d="M227.396 148.01a.65.65 0 1 0 0-1.3.65.65 0 0 0 0 1.3ZM227.396 150.52a.65.65 0 1 0 0-1.3.65.65 0 0 0 0 1.3ZM227.396 153.035a.65.65 0 1 0 0-1.3.65.65 0 0 0 0 1.3ZM227.396 155.55a.65.65 0 1 0 0-1.3.65.65 0 0 0 0 1.3ZM227.396 158.06a.65.65 0 1 0 0-1.3.65.65 0 0 0 0 1.3ZM227.396 160.575a.65.65 0 1 0 0-1.3.65.65 0 0 0 0 1.3ZM227.396 163.085a.65.65 0 1 0 0-1.3.65.65 0 0 0 0 1.3ZM227.396 165.6a.65.65 0 1 0 0-1.3.65.65 0 0 0 0 1.3ZM227.396 168.115a.65.65 0 1 0 0-1.3.65.65 0 0 0 0 1.3ZM225.186 148.01a.65.65 0 1 0 0-1.3.65.65 0 0 0 0 1.3ZM225.186 150.52a.65.65 0 1 0 0-1.3.65.65 0 0 0 0 1.3ZM225.186 153.035a.65.65 0 1 0 0-1.3.65.65 0 0 0 0 1.3ZM225.186 155.55a.65.65 0 1 0 0-1.3.65.65 0 0 0 0 1.3ZM225.186 158.06a.65.65 0 1 0 0-1.3.65.65 0 0 0 0 1.3ZM225.186 160.575a.65.65 0 1 0 0-1.3.65.65 0 0 0 0 1.3ZM225.186 163.085a.65.65 0 1 0 0-1.3.65.65 0 0 0 0 1.3ZM225.186 165.6a.65.65 0 1 0 0-1.3.65.65 0 0 0 0 1.3ZM225.186 168.115a.65.65 0 1 0 0-1.3.65.65 0 0 0 0 1.3ZM222.981 148.01a.65.65 0 1 0 0-1.3.65.65 0 0 0 0 1.3ZM222.981 150.52a.65.65 0 1 0 0-1.3.65.65 0 0 0 0 1.3ZM222.981 153.035a.65.65 0 1 0 0-1.3.65.65 0 0 0 0 1.3ZM222.981 155.55a.65.65 0 1 0 0-1.3.65.65 0 0 0 0 1.3ZM222.981 158.06a.65.65 0 1 0 0-1.3.65.65 0 0 0 0 1.3ZM222.981 160.575a.65.65 0 1 0 0-1.3.65.65 0 0 0 0 1.3ZM222.981 163.085a.65.65 0 1 0 0-1.3.65.65 0 0 0 0 1.3ZM222.981 165.6a.65.65 0 1 0 0-1.3.65.65 0 0 0 0 1.3ZM222.981 168.115a.65.65 0 1 0 0-1.3.65.65 0 0 0 0 1.3ZM220.771 148.01a.65.65 0 1 0 0-1.3.65.65 0 0 0 0 1.3ZM220.771 150.52a.65.65 0 1 0 0-1.3.65.65 0 0 0 0 1.3ZM220.771 153.035a.65.65 0 1 0 0-1.3.65.65 0 0 0 0 1.3ZM220.771 155.55a.65.65 0 1 0 0-1.3.65.65 0 0 0 0 1.3ZM220.771 158.06a.65.65 0 1 0 0-1.3.65.65 0 0 0 0 1.3ZM220.771 160.575a.65.65 0 1 0 0-1.3.65.65 0 0 0 0 1.3ZM220.771 163.085a.65.65 0 1 0 0-1.3.65.65 0 0 0 0 1.3ZM220.771 165.6a.65.65 0 1 0 0-1.3.65.65 0 0 0 0 1.3ZM220.771 168.115a.65.65 0 1 0 0-1.3.65.65 0 0 0 0 1.3ZM218.561 148.01a.65.65 0 1 0 0-1.3.65.65 0 0 0 0 1.3ZM218.561 150.52a.65.65 0 1 0 0-1.3.65.65 0 0 0 0 1.3ZM218.561 153.035a.65.65 0 1 0 0-1.3.65.65 0 0 0 0 1.3ZM218.561 155.55a.65.65 0 1 0 0-1.3.65.65 0 0 0 0 1.3ZM218.561 158.06a.65.65 0 1 0 0-1.3.65.65 0 0 0 0 1.3ZM218.561 160.575a.65.65 0 1 0 0-1.3.65.65 0 0 0 0 1.3ZM218.561 163.085a.65.65 0 1 0 0-1.3.65.65 0 0 0 0 1.3ZM218.561 165.6a.65.65 0 1 0 0-1.3.65.65 0 0 0 0 1.3ZM218.561 168.115a.65.65 0 1 0 0-1.3.65.65 0 0 0 0 1.3ZM216.356 148.01a.65.65 0 1 0 0-1.3.65.65 0 0 0 0 1.3ZM216.356 150.52a.65.65 0 1 0 0-1.3.65.65 0 0 0 0 1.3ZM216.356 153.035a.65.65 0 1 0 0-1.3.65.65 0 0 0 0 1.3ZM216.356 155.55a.65.65 0 1 0 0-1.3.65.65 0 0 0 0 1.3ZM216.356 158.06a.65.65 0 1 0 0-1.3.65.65 0 0 0 0 1.3ZM216.356 160.575a.65.65 0 1 0 0-1.3.65.65 0 0 0 0 1.3ZM216.356 163.085a.65.65 0 1 0 0-1.3.65.65 0 0 0 0 1.3ZM216.356 165.6a.65.65 0 1 0 0-1.3.65.65 0 0 0 0 1.3ZM216.356 168.115a.65.65 0 1 0 0-1.3.65.65 0 0 0 0 1.3ZM214.146 148.01a.65.65 0 1 0 0-1.3.65.65 0 0 0 0 1.3ZM214.146 150.52a.65.65 0 1 0 0-1.3.65.65 0 0 0 0 1.3ZM214.146 153.035a.65.65 0 1 0 0-1.3.65.65 0 0 0 0 1.3ZM214.146 155.55a.65.65 0 1 0 0-1.3.65.65 0 0 0 0 1.3ZM214.146 158.06a.65.65 0 1 0 0-1.3.65.65 0 0 0 0 1.3ZM214.146 160.575a.65.65 0 1 0 0-1.3.65.65 0 0 0 0 1.3ZM214.146 163.085a.65.65 0 1 0 0-1.3.65.65 0 0 0 0 1.3ZM214.146 165.6a.65.65 0 1 0 0-1.3.65.65 0 0 0 0 1.3ZM214.146 168.115a.65.65 0 1 0 0-1.3.65.65 0 0 0 0 1.3ZM211.936 148.01a.65.65 0 1 0 0-1.3.65.65 0 0 0 0 1.3ZM211.936 150.52a.65.65 0 1 0 0-1.3.65.65 0 0 0 0 1.3ZM211.936 153.035a.65.65 0 1 0 0-1.3.65.65 0 0 0 0 1.3ZM211.936 155.55a.65.65 0 1 0 0-1.3.65.65 0 0 0 0 1.3ZM211.936 158.06a.65.65 0 1 0 0-1.3.65.65 0 0 0 0 1.3ZM211.936 160.575a.65.65 0 1 0 0-1.3.65.65 0 0 0 0 1.3ZM211.936 163.085a.65.65 0 1 0 0-1.3.65.65 0 0 0 0 1.3ZM211.936 165.6a.65.65 0 1 0 0-1.3.65.65 0 0 0 0 1.3ZM211.936 168.115a.65.65 0 1 0 0-1.3.65.65 0 0 0 0 1.3Z" fill="#C9CACA" style="mix-blend-mode:multiply" opacity=".59"/></g><g style="mix-blend-mode:multiply" opacity=".59"><path d="M209.581 148.01a.65.65 0 1 0 0-1.3.65.65 0 0 0 0 1.3ZM209.581 150.52a.65.65 0 1 0 0-1.3.65.65 0 0 0 0 1.3ZM209.581 153.035a.65.65 0 1 0 0-1.3.65.65 0 0 0 0 1.3ZM209.581 155.55a.65.65 0 1 0 0-1.3.65.65 0 0 0 0 1.3ZM209.581 158.06a.65.65 0 1 0 0-1.3.65.65 0 0 0 0 1.3ZM209.581 160.575a.65.65 0 1 0 0-1.3.65.65 0 0 0 0 1.3ZM209.581 163.085a.65.65 0 1 0 0-1.3.65.65 0 0 0 0 1.3ZM209.581 165.6a.65.65 0 1 0 0-1.3.65.65 0 0 0 0 1.3ZM209.581 168.115a.65.65 0 1 0 0-1.3.65.65 0 0 0 0 1.3ZM207.371 148.01a.65.65 0 1 0 0-1.3.65.65 0 0 0 0 1.3ZM207.371 150.52a.65.65 0 1 0 0-1.3.65.65 0 0 0 0 1.3ZM207.371 153.035a.65.65 0 1 0 0-1.3.65.65 0 0 0 0 1.3ZM207.371 155.55a.65.65 0 1 0 0-1.3.65.65 0 0 0 0 1.3ZM207.371 158.06a.65.65 0 1 0 0-1.3.65.65 0 0 0 0 1.3ZM207.371 160.575a.65.65 0 1 0 0-1.3.65.65 0 0 0 0 1.3ZM207.371 163.085a.65.65 0 1 0 0-1.3.65.65 0 0 0 0 1.3ZM207.371 165.6a.65.65 0 1 0 0-1.3.65.65 0 0 0 0 1.3ZM207.371 168.115a.65.65 0 1 0 0-1.3.65.65 0 0 0 0 1.3ZM205.161 148.01a.65.65 0 1 0 0-1.3.65.65 0 0 0 0 1.3ZM205.161 150.52a.65.65 0 1 0 0-1.3.65.65 0 0 0 0 1.3ZM205.161 153.035a.65.65 0 1 0 0-1.3.65.65 0 0 0 0 1.3ZM205.161 155.55a.65.65 0 1 0 0-1.3.65.65 0 0 0 0 1.3ZM205.161 158.06a.65.65 0 1 0 0-1.3.65.65 0 0 0 0 1.3ZM205.161 160.575a.65.65 0 1 0 0-1.3.65.65 0 0 0 0 1.3ZM205.161 163.085a.65.65 0 1 0 0-1.3.65.65 0 0 0 0 1.3ZM205.161 165.6a.65.65 0 1 0 0-1.3.65.65 0 0 0 0 1.3ZM205.161 168.115a.65.65 0 1 0 0-1.3.65.65 0 0 0 0 1.3ZM202.956 148.01a.65.65 0 1 0 0-1.3.65.65 0 0 0 0 1.3ZM202.956 150.52a.65.65 0 1 0 0-1.3.65.65 0 0 0 0 1.3ZM202.956 153.035a.65.65 0 1 0 0-1.3.65.65 0 0 0 0 1.3ZM202.956 155.55a.65.65 0 1 0 0-1.3.65.65 0 0 0 0 1.3ZM202.956 158.06a.65.65 0 1 0 0-1.3.65.65 0 0 0 0 1.3ZM202.956 160.575a.65.65 0 1 0 0-1.3.65.65 0 0 0 0 1.3ZM202.956 163.085a.65.65 0 1 0 0-1.3.65.65 0 0 0 0 1.3ZM202.956 165.6a.65.65 0 1 0 0-1.3.65.65 0 0 0 0 1.3ZM202.956 168.115a.65.65 0 1 0 0-1.3.65.65 0 0 0 0 1.3ZM200.746 148.01a.65.65 0 1 0 0-1.3.65.65 0 0 0 0 1.3ZM200.746 150.52a.65.65 0 1 0 0-1.3.65.65 0 0 0 0 1.3ZM200.746 153.035a.65.65 0 1 0 0-1.3.65.65 0 0 0 0 1.3ZM200.746 155.55a.65.65 0 1 0 0-1.3.65.65 0 0 0 0 1.3ZM200.746 158.06a.65.65 0 1 0 0-1.3.65.65 0 0 0 0 1.3ZM200.746 160.575a.65.65 0 1 0 0-1.3.65.65 0 0 0 0 1.3ZM200.746 163.085a.65.65 0 1 0 0-1.3.65.65 0 0 0 0 1.3ZM200.746 165.6a.65.65 0 1 0 0-1.3.65.65 0 0 0 0 1.3ZM200.746 168.115a.65.65 0 1 0 0-1.3.65.65 0 0 0 0 1.3ZM198.536 148.01a.65.65 0 1 0 0-1.3.65.65 0 0 0 0 1.3ZM198.536 150.52a.65.65 0 1 0 0-1.3.65.65 0 0 0 0 1.3ZM198.536 153.035a.65.65 0 1 0 0-1.3.65.65 0 0 0 0 1.3ZM198.536 155.55a.65.65 0 1 0 0-1.3.65.65 0 0 0 0 1.3ZM198.536 158.06a.65.65 0 1 0 0-1.3.65.65 0 0 0 0 1.3ZM198.536 160.575a.65.65 0 1 0 0-1.3.65.65 0 0 0 0 1.3ZM198.536 163.085a.65.65 0 1 0 0-1.3.65.65 0 0 0 0 1.3ZM198.536 165.6a.65.65 0 1 0 0-1.3.65.65 0 0 0 0 1.3ZM198.536 168.115a.65.65 0 1 0 0-1.3.65.65 0 0 0 0 1.3ZM196.331 148.01a.65.65 0 1 0 0-1.3.65.65 0 0 0 0 1.3ZM196.331 150.52a.65.65 0 1 0 0-1.3.65.65 0 0 0 0 1.3ZM196.331 153.035a.65.65 0 1 0 0-1.3.65.65 0 0 0 0 1.3ZM196.331 155.55a.65.65 0 1 0 0-1.3.65.65 0 0 0 0 1.3ZM196.331 158.06a.65.65 0 1 0 0-1.3.65.65 0 0 0 0 1.3ZM196.331 160.575a.65.65 0 1 0 0-1.3.65.65 0 0 0 0 1.3ZM196.331 163.085a.65.65 0 1 0 0-1.3.65.65 0 0 0 0 1.3ZM196.331 165.6a.65.65 0 1 0 0-1.3.65.65 0 0 0 0 1.3ZM196.331 168.115a.65.65 0 1 0 0-1.3.65.65 0 0 0 0 1.3ZM194.121 148.01a.65.65 0 1 0 0-1.3.65.65 0 0 0 0 1.3ZM194.121 150.52a.65.65 0 1 0 0-1.3.65.65 0 0 0 0 1.3ZM194.121 153.035a.65.65 0 1 0 0-1.3.65.65 0 0 0 0 1.3ZM194.121 155.55a.65.65 0 1 0 0-1.3.65.65 0 0 0 0 1.3ZM194.121 158.06a.65.65 0 1 0 0-1.3.65.65 0 0 0 0 1.3ZM194.121 160.575a.65.65 0 1 0 0-1.3.65.65 0 0 0 0 1.3ZM194.121 163.085a.65.65 0 1 0 0-1.3.65.65 0 0 0 0 1.3ZM194.121 165.6a.65.65 0 1 0 0-1.3.65.65 0 0 0 0 1.3ZM194.121 168.115a.65.65 0 1 0 0-1.3.65.65 0 0 0 0 1.3Z" fill="#C9CACA" style="mix-blend-mode:multiply" opacity=".59"/></g><g style="mix-blend-mode:multiply" opacity=".59"><path d="M191.385 148.01a.65.65 0 1 0 0-1.3.65.65 0 0 0 0 1.3ZM191.385 150.52a.65.65 0 1 0 0-1.3.65.65 0 0 0 0 1.3ZM191.385 153.035a.65.65 0 1 0 0-1.3.65.65 0 0 0 0 1.3ZM191.385 155.55a.65.65 0 1 0 0-1.3.65.65 0 0 0 0 1.3ZM191.385 158.06a.65.65 0 1 0 0-1.3.65.65 0 0 0 0 1.3ZM191.385 160.575a.65.65 0 1 0 0-1.3.65.65 0 0 0 0 1.3ZM191.385 163.085a.65.65 0 1 0 0-1.3.65.65 0 0 0 0 1.3ZM191.385 165.6a.65.65 0 1 0 0-1.3.65.65 0 0 0 0 1.3ZM191.385 168.115a.65.65 0 1 0 0-1.3.65.65 0 0 0 0 1.3ZM189.175 148.01a.65.65 0 1 0 0-1.3.65.65 0 0 0 0 1.3ZM189.175 150.52a.65.65 0 1 0 0-1.3.65.65 0 0 0 0 1.3ZM189.175 153.035a.65.65 0 1 0 0-1.3.65.65 0 0 0 0 1.3ZM189.175 155.55a.65.65 0 1 0 0-1.3.65.65 0 0 0 0 1.3ZM189.175 158.06a.65.65 0 1 0 0-1.3.65.65 0 0 0 0 1.3ZM189.175 160.575a.65.65 0 1 0 0-1.3.65.65 0 0 0 0 1.3ZM189.175 163.085a.65.65 0 1 0 0-1.3.65.65 0 0 0 0 1.3ZM189.175 165.6a.65.65 0 1 0 0-1.3.65.65 0 0 0 0 1.3ZM189.175 168.115a.65.65 0 1 0 0-1.3.65.65 0 0 0 0 1.3ZM186.97 148.01a.65.65 0 1 0 0-1.3.65.65 0 0 0 0 1.3ZM186.97 150.52a.65.65 0 1 0 0-1.3.65.65 0 0 0 0 1.3ZM186.97 153.035a.65.65 0 1 0 0-1.3.65.65 0 0 0 0 1.3ZM186.97 155.55a.65.65 0 1 0 0-1.3.65.65 0 0 0 0 1.3ZM186.97 158.06a.65.65 0 1 0 0-1.3.65.65 0 0 0 0 1.3ZM186.97 160.575a.65.65 0 1 0 0-1.3.65.65 0 0 0 0 1.3ZM186.97 163.085a.65.65 0 1 0 0-1.3.65.65 0 0 0 0 1.3ZM186.97 165.6a.65.65 0 1 0 0-1.3.65.65 0 0 0 0 1.3ZM186.97 168.115a.65.65 0 1 0 0-1.3.65.65 0 0 0 0 1.3ZM184.76 148.01a.65.65 0 1 0 0-1.3.65.65 0 0 0 0 1.3ZM184.76 150.52a.65.65 0 1 0 0-1.3.65.65 0 0 0 0 1.3ZM184.76 153.035a.65.65 0 1 0 0-1.3.65.65 0 0 0 0 1.3ZM184.76 155.55a.65.65 0 1 0 0-1.3.65.65 0 0 0 0 1.3ZM184.76 158.06a.65.65 0 1 0 0-1.3.65.65 0 0 0 0 1.3ZM184.76 160.575a.65.65 0 1 0 0-1.3.65.65 0 0 0 0 1.3ZM184.76 163.085a.65.65 0 1 0 0-1.3.65.65 0 0 0 0 1.3ZM184.76 165.6a.65.65 0 1 0 0-1.3.65.65 0 0 0 0 1.3ZM184.76 168.115a.65.65 0 1 0 0-1.3.65.65 0 0 0 0 1.3ZM182.55 148.01a.65.65 0 1 0 0-1.3.65.65 0 0 0 0 1.3ZM182.55 150.52a.65.65 0 1 0 0-1.3.65.65 0 0 0 0 1.3ZM182.55 153.035a.65.65 0 1 0 0-1.3.65.65 0 0 0 0 1.3ZM182.55 155.55a.65.65 0 1 0 0-1.3.65.65 0 0 0 0 1.3ZM182.55 158.06a.65.65 0 1 0 0-1.3.65.65 0 0 0 0 1.3ZM182.55 160.575a.65.65 0 1 0 0-1.3.65.65 0 0 0 0 1.3ZM182.55 163.085a.65.65 0 1 0 0-1.3.65.65 0 0 0 0 1.3ZM182.55 165.6a.65.65 0 1 0 0-1.3.65.65 0 0 0 0 1.3ZM182.55 168.115a.65.65 0 1 0 0-1.3.65.65 0 0 0 0 1.3ZM180.345 148.01a.65.65 0 1 0 0-1.3.65.65 0 0 0 0 1.3ZM180.345 150.52a.65.65 0 1 0 0-1.3.65.65 0 0 0 0 1.3ZM180.345 153.035a.65.65 0 1 0 0-1.3.65.65 0 0 0 0 1.3ZM180.345 155.55a.65.65 0 1 0 0-1.3.65.65 0 0 0 0 1.3ZM180.345 158.06a.65.65 0 1 0 0-1.3.65.65 0 0 0 0 1.3ZM180.345 160.575a.65.65 0 1 0 0-1.3.65.65 0 0 0 0 1.3ZM180.345 163.085a.65.65 0 1 0 0-1.3.65.65 0 0 0 0 1.3ZM180.345 165.6a.65.65 0 1 0 0-1.3.65.65 0 0 0 0 1.3ZM180.345 168.115a.65.65 0 1 0 0-1.3.65.65 0 0 0 0 1.3ZM178.135 148.01a.65.65 0 1 0 0-1.3.65.65 0 0 0 0 1.3ZM178.135 150.52a.65.65 0 1 0 0-1.3.65.65 0 0 0 0 1.3ZM178.135 153.035a.65.65 0 1 0 0-1.3.65.65 0 0 0 0 1.3ZM178.135 155.55a.65.65 0 1 0 0-1.3.65.65 0 0 0 0 1.3ZM178.135 158.06a.65.65 0 1 0 0-1.3.65.65 0 0 0 0 1.3ZM178.135 160.575a.65.65 0 1 0 0-1.3.65.65 0 0 0 0 1.3ZM178.135 163.085a.65.65 0 1 0 0-1.3.65.65 0 0 0 0 1.3ZM178.135 165.6a.65.65 0 1 0 0-1.3.65.65 0 0 0 0 1.3ZM178.135 168.115a.65.65 0 1 0 0-1.3.65.65 0 0 0 0 1.3ZM175.925 148.01a.65.65 0 1 0 0-1.3.65.65 0 0 0 0 1.3ZM175.925 150.52a.65.65 0 1 0 0-1.3.65.65 0 0 0 0 1.3ZM175.925 153.035a.65.65 0 1 0 0-1.3.65.65 0 0 0 0 1.3ZM175.925 155.55a.65.65 0 1 0 0-1.3.65.65 0 0 0 0 1.3ZM175.925 158.06a.65.65 0 1 0 0-1.3.65.65 0 0 0 0 1.3ZM175.925 160.575a.65.65 0 1 0 0-1.3.65.65 0 0 0 0 1.3ZM175.925 163.085a.65.65 0 1 0 0-1.3.65.65 0 0 0 0 1.3ZM175.925 165.6a.65.65 0 1 0 0-1.3.65.65 0 0 0 0 1.3ZM175.925 168.115a.65.65 0 1 0 0-1.3.65.65 0 0 0 0 1.3Z" fill="#C9CACA" style="mix-blend-mode:multiply" opacity=".59"/></g></g><path d="M94.19 61.895h162.835a7.747 7.747 0 0 1 7.745 7.745v3.9H86.45v-3.9a7.745 7.745 0 0 1 7.74-7.745Z" fill="#2F54EB" stroke="#231815" stroke-width=".46" stroke-miterlimit="10"/><path d="M16.865 262.945h365.01" stroke="#231815" stroke-width=".55" stroke-miterlimit="10"/><path d="M244.425 86.98h-68.09a2.075 2.075 0 0 0-2.075 2.075v.005c0 1.146.929 2.075 2.075 2.075h68.09a2.075 2.075 0 0 0 2.075-2.075v-.005a2.075 2.075 0 0 0-2.075-2.075ZM244.425 98.16h-68.09a2.075 2.075 0 0 0-2.075 2.075v.005c0 1.146.929 2.075 2.075 2.075h68.09a2.075 2.075 0 0 0 2.075-2.075v-.005a2.075 2.075 0 0 0-2.075-2.075ZM195.33 109.55h-18.995a2.075 2.075 0 0 0-2.075 2.075v.005c0 1.146.929 2.075 2.075 2.075h18.995a2.075 2.075 0 0 0 2.075-2.075v-.005a2.075 2.075 0 0 0-2.075-2.075ZM150.505 149.65h-49.73c-.986 0-1.785.799-1.785 1.785v.585c0 .986.8 1.785 1.785 1.785h49.73c.986 0 1.785-.799 1.785-1.785v-.585c0-.986-.799-1.785-1.785-1.785ZM150.505 160.83h-49.73c-.986 0-1.785.799-1.785 1.785v.585c0 .986.8 1.785 1.785 1.785h49.73c.986 0 1.785-.799 1.785-1.785v-.585c0-.986-.799-1.785-1.785-1.785ZM114.285 172.22h-13.51c-.986 0-1.785.799-1.785 1.785v.585c0 .986.8 1.785 1.785 1.785h13.51c.986 0 1.785-.799 1.785-1.785v-.585c0-.986-.799-1.785-1.785-1.785ZM150.505 86.18h-49.73c-.986 0-1.785.8-1.785 1.785v.585c0 .986.8 1.785 1.785 1.785h49.73c.986 0 1.785-.8 1.785-1.785v-.585c0-.986-.799-1.785-1.785-1.785ZM150.505 97.36h-49.73c-.986 0-1.785.8-1.785 1.785v.585c0 .986.8 1.785 1.785 1.785h49.73c.986 0 1.785-.799 1.785-1.785v-.585c0-.986-.799-1.785-1.785-1.785ZM114.285 108.75h-13.51c-.986 0-1.785.799-1.785 1.785v.585c0 .986.8 1.785 1.785 1.785h13.51c.986 0 1.785-.799 1.785-1.785v-.585c0-.986-.799-1.785-1.785-1.785Z" fill="#E1E5EA"/><path d="M241.23 130.435h-60.64a6.17 6.17 0 0 0-6.17 6.17v20.63a6.17 6.17 0 0 0 6.17 6.17h60.64a6.17 6.17 0 0 0 6.17-6.17v-20.63a6.17 6.17 0 0 0-6.17-6.17Z" fill="#fff" stroke="#231815" stroke-width=".42" stroke-miterlimit="10"/><path d="M180.475 138.85a1.89 1.89 0 1 0 0-3.78 1.89 1.89 0 0 0 0 3.78ZM188.155 138.85a1.89 1.89 0 1 0 0-3.78 1.89 1.89 0 0 0 0 3.78ZM195.83 138.85a1.89 1.89 0 1 0 0-3.78 1.89 1.89 0 0 0 0 3.78ZM239.4 146.41h-59.03a1.474 1.474 0 0 0 0 2.95h59.03a1.475 1.475 0 1 0 0-2.95ZM207.111 154.09H180.37a1.474 1.474 0 0 0 0 2.95h26.741a1.475 1.475 0 0 0 0-2.95Z" fill="#E1E5EA"/><path d="M134.821 193.415H83.676a5.53 5.53 0 0 0-5.53 5.53v37.615a5.53 5.53 0 0 0 5.53 5.53h51.145a5.53 5.53 0 0 0 5.53-5.53v-37.615a5.53 5.53 0 0 0-5.53-5.53Z" fill="#2F54EB" stroke="#231815" stroke-width=".445" stroke-miterlimit="10"/><path d="M167.165 211.265h-4.8v4.8h4.8v-4.8Z" fill="#F66"/><path d="m162.365 211.265 4.795 4.8M162.365 216.065l4.795-4.8M174.665 212.03h37.47M174.78 216.51h16.535" stroke="#231815" stroke-width=".495" stroke-miterlimit="10"/><path d="M140.68 187.04H89.835a5.68 5.68 0 0 0-5.68 5.68v37.555a5.68 5.68 0 0 0 5.68 5.68h50.845a5.68 5.68 0 0 0 5.68-5.68V192.72a5.68 5.68 0 0 0-5.68-5.68Z" fill="#fff" stroke="#231815" stroke-width=".46" stroke-miterlimit="10"/><path d="M111.785 201.295h-4.72v24.78h4.72v-24.78Z" fill="#49E5DB" stroke="#231815" stroke-width=".47" stroke-miterlimit="10"/><path d="M122.28 207.595h-4.72v18.48h4.72v-18.48Z" fill="#F66331"/><path d="M101.93 210.4h-4.72v15.675h4.72V210.4ZM132.235 214.485h-4.72v11.595h4.72v-11.595Z" fill="#49E5DB" stroke="#231815" stroke-width=".47" stroke-miterlimit="10"/><path d="M93.445 226.165h39.045M93.57 226.21v-25.39" stroke="#231815" stroke-width=".495" stroke-miterlimit="10"/><path d="M98.84 55.155a3.92 3.92 0 1 0 0-7.84 3.92 3.92 0 0 0 0 7.84Z" fill="#F66" stroke="#231815" stroke-width=".5" stroke-miterlimit="10"/><path d="M112.29 55.155a3.92 3.92 0 1 0 0-7.84 3.92 3.92 0 0 0 0 7.84Z" fill="#2F54EB" stroke="#231815" stroke-width=".46" stroke-miterlimit="10"/><path d="M125.505 55.155a3.92 3.92 0 1 0 0-7.84 3.92 3.92 0 0 0 0 7.84Z" fill="#F8DC29" stroke="#231815" stroke-width=".46" stroke-miterlimit="10"/><path d="M145.065 95.435h-88.22a7.29 7.29 0 0 0-7.29 7.29v32.305a7.29 7.29 0 0 0 7.29 7.29h88.22a7.29 7.29 0 0 0 7.29-7.29v-32.305a7.29 7.29 0 0 0-7.29-7.29Z" fill="#49E5DB" stroke="#231815" stroke-width=".495" stroke-miterlimit="10"/><path d="M323.67 86.74h23.585a3.5 3.5 0 0 0 3.5-3.5v-.005a3.5 3.5 0 0 0-3.5-3.5H323.67a3.5 3.5 0 0 0-3.5 3.5v.005a3.5 3.5 0 0 0 3.5 3.5Z" fill="#FFB200"/><path d="M303.425 81v8h2.255c.41 0 .365 1.655 2.385 1.655h7.855c1.065 0 2.065-.465 2.065-1.835 0-1.37-1.035-1.73-2.395-1.73 0 0 3.27.435 3.27-2.025 0-1.68-1.43-1.8-3.04-1.8 0 0 6.285.095 7 .095.715 0 2.11-.345 2.11-1.8 0-1.195-.945-1.815-2.115-1.815h-8.74s2.54-1.32 3.245-2.605c.705-1.285-.06-2.085-.5-2.285-.44-.2-1.335-.61-2.6.845a7.757 7.757 0 0 1-3.43 2c-1.095.31-3.11.695-4.445 3.215-.025.04-2.89.035-2.92.085Z" fill="#fff" stroke="#231815" stroke-width=".51" stroke-miterlimit="10"/><path d="M332.735 90.105h23.585a3.5 3.5 0 0 0 3.5-3.5V86.6a3.5 3.5 0 0 0-3.5-3.5h-23.585a3.5 3.5 0 0 0-3.5 3.5v.005a3.5 3.5 0 0 0 3.5 3.5Z" stroke="#231815" stroke-width=".51" stroke-miterlimit="10"/><path d="M207.86 98v5.91c0 .405.54 3.84 5.28 3.84h2.62c.75 0 4.96-.06 4.96-4.5v-5.94l-12.86.69Z" fill="#fff" stroke="#231815" stroke-width=".46" stroke-miterlimit="10"/><path d="M214.075 99.235c9.11 0 16.495-7.385 16.495-16.495 0-9.11-7.385-16.495-16.495-16.495-9.11 0-16.495 7.385-16.495 16.495 0 9.11 7.385 16.495 16.495 16.495Z" fill="#F66" stroke="#231815" stroke-width=".46" stroke-miterlimit="10"/><path d="M207.87 100.5s4.875 2.565 12.77 0M208 103.21s4.67 3.11 12.745.065" stroke="#231815" stroke-width=".46" stroke-miterlimit="10"/><path d="M218.735 71.655S226 74.61 226.18 85.81" stroke="#fff" stroke-width=".425" stroke-miterlimit="10"/><path d="M201 80.62s-.095 10.4 6.535 13.255" stroke="#231815" stroke-width=".46" stroke-miterlimit="10"/><path d="M80.435 138.04c8.65 0 15.66-7.011 15.66-15.66 0-8.649-7.01-15.66-15.66-15.66-8.648 0-15.66 7.011-15.66 15.66 0 8.649 7.012 15.66 15.66 15.66Z" fill="#8CACE2" style="mix-blend-mode:multiply" opacity=".31"/><path d="M80.435 135.365c8.65 0 15.66-7.011 15.66-15.66 0-8.649-7.01-15.66-15.66-15.66-8.648 0-15.66 7.011-15.66 15.66 0 8.649 7.012 15.66 15.66 15.66Z" fill="#fff"/><path d="M72.545 122.84c-2.46-.53-3.69-2.29-2.705-3.29.985-1 2.155.225 2.155.225" fill="#F9D3DC"/><path d="M72.545 122.84c-2.46-.53-3.69-2.29-2.705-3.29.985-1 2.155.225 2.155.225" stroke="#231815" stroke-width=".185" stroke-miterlimit="10"/><path d="M86.16 119.775s1.175-1.23 2.155-.225c.98 1.005-.245 2.76-2.705 3.29" fill="#F9D3DC"/><path d="M86.16 119.775s1.175-1.23 2.155-.225c.98 1.005-.245 2.76-2.705 3.29M71.81 121.07l-1.204-.715" stroke="#231815" stroke-width=".185" stroke-miterlimit="10"/><path d="m76.725 127.51-.11 2.65 4.52-.04-.06-3.355" fill="#F9D3DC"/><path d="m76.725 127.51-.11 2.65 4.52-.04-.06-3.355" stroke="#231815" stroke-width=".185" stroke-miterlimit="10"/><path d="M71.155 132.175a11.356 11.356 0 0 1 7.91-2.78c2.686.038 5.309.817 7.58 2.25 0 0-4.695 3.305-9.595 2.405-4.9-.9-5.985-1.41-5.895-1.875Z" fill="#49E5DB" stroke="#231815" stroke-width=".47" stroke-miterlimit="10"/><path d="M86.715 117.59c.07 3.105-1.32 10.565-9 9.97-7.68-.595-5.5-11.75-5.5-11.75s5.855-3.065 6.1-3.065c.245 0 4.195-.245 4.645.24.45.485 3.755 4.605 3.755 4.605Z" fill="#F9D3DC" stroke="#231815" stroke-width=".41" stroke-miterlimit="10"/><path d="M78.7 114.2s-3.22-.59-3.57 2c-.245 1.84-1.175 3.775-4.645 3.5 0 0-1.64-5.23 2.565-8.63 3.605-2.91 7.43-2.385 10.83 0 3.73 2.59 3.38 8.445 3.38 8.445s-4.66.445-5-1.73c-.34-2.175-1.115-3.785-3.56-3.585Z" fill="#231815"/><path d="M75.84 120.56c.406 0 .736-.396.736-.885s-.33-.885-.735-.885c-.406 0-.735.396-.735.885s.329.885.735.885ZM82.16 120.56c.406 0 .735-.396.735-.885s-.329-.885-.735-.885c-.406 0-.735.396-.735.885s.33.885.735.885Z" fill="#231815"/><path d="M79.135 119.585c.213.999.492 1.983.835 2.945l-1.13.715M77.175 124.875a4.584 4.584 0 0 0 4.19-.73" stroke="#231815" stroke-width=".185" stroke-miterlimit="10"/><path d="M78.43 134.14c8.65 0 15.66-7.011 15.66-15.66 0-8.649-7.01-15.66-15.66-15.66-8.648 0-15.66 7.011-15.66 15.66 0 8.649 7.012 15.66 15.66 15.66Z" stroke="#231815" stroke-width=".41" stroke-miterlimit="10"/><path d="M139.875 105.795H109.18a2.33 2.33 0 0 0-2.33 2.33v.005a2.33 2.33 0 0 0 2.33 2.33h30.695a2.33 2.33 0 0 0 2.33-2.33v-.005a2.33 2.33 0 0 0-2.33-2.33ZM139.875 116.915H109.18a2.33 2.33 0 0 0-2.33 2.33v.005a2.33 2.33 0 0 0 2.33 2.33h30.695a2.33 2.33 0 0 0 2.33-2.33v-.005a2.33 2.33 0 0 0-2.33-2.33ZM125.2 128.175h-16.02a2.33 2.33 0 0 0-2.33 2.33v.005a2.33 2.33 0 0 0 2.33 2.33h16.02a2.33 2.33 0 0 0 2.33-2.33v-.005a2.33 2.33 0 0 0-2.33-2.33Z" fill="#fff"/><path d="M91.045 111.49a3.92 3.92 0 1 0 0-7.84 3.92 3.92 0 0 0 0 7.84Z" fill="#F66" stroke="#231815" stroke-width=".5" stroke-miterlimit="10"/><path d="M185.97 173.695h-10.195v9.9h10.195v-9.9Z" stroke="#231815" stroke-width=".445" stroke-miterlimit="10"/><path d="M242.22 173.695h-51.54v9.9h51.54v-9.9ZM198.34 176.5l4.37 4.15M198.265 180.595l4.29-4.03M208.83 176.5l4.37 4.15M208.75 180.595l4.295-4.03M219.315 176.5l4.37 4.15M219.24 180.595l4.29-4.03M229.8 176.5l4.37 4.15M229.725 180.595l4.295-4.03" stroke="#231815" stroke-width=".46" stroke-miterlimit="10"/><path d="m270.115 102.565.295 8.64s5.645.09 6.69-.695c1.045-.785 0-10.105 0-10.105l-6.985 2.16Z" fill="#F9D3DC" stroke="#231815" stroke-width=".525" stroke-miterlimit="10"/><path d="M265.71 81.765a22.373 22.373 0 0 0-.615 9.315l-4.235 5.715 4.1.555s-.875 5.17 3.305 6.435c4.18 1.265 6.96-1.63 8.43-2.355 0 0-.435-2.195 1.845-4.68 0 0 4.955-.85 4.79-4.05a9.067 9.067 0 0 0-2.33-5.395s-7.245-6.835-15.29-5.54Z" fill="#F9D3DC" stroke="#231815" stroke-width=".525" stroke-miterlimit="10"/><path d="M267.255 92.865c.301 0 .545-.454.545-1.015 0-.56-.244-1.015-.545-1.015-.301 0-.545.454-.545 1.015 0 .56.244 1.015.545 1.015Z" fill="#231815"/><path d="M266.87 99.65a6.629 6.629 0 0 0 3.805-2.085" stroke="#231815" stroke-width=".525" stroke-miterlimit="10"/><path d="M278.225 96.34a28.007 28.007 0 0 0-1.66 4.21c-.335 1.34.15 1.685.175 2.87 0 0 7.975-11 8.79-13.325.815-2.325 2.53-6.835.23-9.57-2.3-2.735-5.955-2.935-7.535-1.355 0 0-1.28-6.85-8.18-4.385 0 0-.94-3.555-4.54-4.075s-6 1.555-6.57 4.885c-.57 3.33 2.53 7.675 8 5.66 0 0 2.23 6.235 8.55 3.405 0 0 0 2.645 2.935 4.305 0 0-1.455 1.13-1.5 1.23-.045.1 5.425-.335 5.08 3.12-.345 3.455-3.775 3.025-3.775 3.025ZM199.04 262.68h49.885v-3.47H199.04v3.47Z" fill="#231815"/><path d="m220.265 241.55-1.57 6.855s-7.935-3.585-13.44-1.815c-8.74 2.815-6.03 12.645-6.03 12.645l49.425.065.07-16.23-28.455-1.52Z" fill="#2F54EB" stroke="#231815" stroke-width=".46" stroke-miterlimit="10"/><path d="m220.03 243.655 4.15.48M219.575 246.31l4.15.475" stroke="#fff" stroke-width=".46" stroke-miterlimit="10"/><path d="M218.34 241s-7.84-4.5-8.34-1.38c-.575 3.405 8.34 1.38 8.34 1.38Z" stroke="#000" stroke-width=".555" stroke-linecap="round" stroke-linejoin="round"/><path d="M218.34 241s-6.96.31-6.365 2.465c.595 2.155 5.2-1.1 6.365-2.465Z" stroke="#000" stroke-width=".555" stroke-linecap="round" stroke-linejoin="round"/><path d="M248.765 248.5s-10.5.39-11.07 10.46" stroke="#fff" stroke-width=".46" stroke-miterlimit="10"/><path d="m321.47 262.014 31.946-38.314-2.666-2.222-31.945 38.314 2.665 2.222Z" fill="#231815"/><path d="m318.835 232.215 4.265 5.595s-7.835 3.8-10 9.165c-3.435 8.5 5.85 12.73 5.85 12.73l31.7-37.925-12.425-10.445-19.39 20.88Z" fill="#2F54EB" stroke="#231815" stroke-width=".46" stroke-miterlimit="10"/><path d="m320.305 233.745 3.025-2.88M322.05 235.79l3.025-2.88" stroke="#fff" stroke-width=".46" stroke-miterlimit="10"/><path d="M317.165 233.33s-8.455 3.135-6.385 5.54c2.245 2.63 6.385-5.54 6.385-5.54Z" stroke="#000" stroke-width=".555" stroke-linecap="round" stroke-linejoin="round"/><path d="M317.165 233.33s-4.215 5.545-2.18 6.465c2.035.92 2.515-4.685 2.18-6.465Z" stroke="#000" stroke-width=".555" stroke-linecap="round" stroke-linejoin="round"/><path d="M342.41 214.765s-6.435 8.325.945 15.195" stroke="#fff" stroke-width=".46" stroke-miterlimit="10"/><path d="m267.295 200.685-2.675 6.765-12.92 32.665-31.045-15.89 36.22-75.89 10.42 52.35Z" fill="#fff" stroke="#231815" stroke-width=".59" stroke-miterlimit="10"/><path d="m264.39 110.425-25.155 19.5-10.735-10.76-16.58 10.08s19.74 23.1 22.035 24.725c2.295 1.625 6.76 2.025 11.9-2.03 5.14-4.055 8.645-6.625 8.645-6.625l2.43 3.175h23.845l1.175-3.04 26.905 29.5s11.75-7.695 23.11-15.35c0 0-45.255-42.375-48.235-46.42-2.98-4.045-13.385-7.65-19.34-2.755Z" fill="#2F54EB" stroke="#231815" stroke-width=".46" stroke-miterlimit="10"/><path d="M256.87 148.335s-1.74 34.135 12.565 55.77c10.115 15.29 37.44 26.8 37.44 26.8l22.19-24.45s-22.19-8.835-29.565-20.34c-9.67-15.04-10.5-30.05-18.845-37.645l-23.785-.135Z" fill="#fff" stroke="#231815" stroke-width=".59" stroke-miterlimit="10"/><path d="M315.7 170.875s1.255 11.45 4.105 12.875c2.85 1.425 3.7-2.45 2.275-5.925 0 0 5.355 9.57 8 8.315 2.645-1.255.965-4.615-1.14-6.605 0 0 3.19 4 5 1.765 1.81-2.235-.855-4-.855-4s2.165 1.94 3.535.06-4.275-6.21-5.3-7.125c0 0 4.16 3.42 5.755 1.425 1.595-1.995-3.245-7.635-10.765-8.03l-10.61 7.245Z" fill="#F9D3DC" stroke="#231815" stroke-width=".46" stroke-miterlimit="10"/><path d="M256.32 149.225a119.471 119.471 0 0 0-1.41 17.93c.06 5.35.429 10.692 1.105 16 1.095 7.595 5.4 19.825 9.87 21.1l1.11-2.88s.46 0-.455-1.625-4.14-8.625-5.96-16.5c-1.64-7.105-3.69-11.335-3.815-34.3l-.445.275Z" fill="#231815"/><path d="M227.235 120.265s-3.05-3.445-4.115-7c-1.065-3.555-3.22-4.105-4.895-3.435-1.675.67-1.185 4.235.365 5.5 0 0-6.22-1.06-9.455-4.085-3.235-3.025-4.57-1.545-3.875.96.695 2.505 4.65 5.815 9.745 7.24 0 0-5.205-3.03-5.955-.645s2.87 3.36 2.87 3.36-3.035-2.11-3.5.375c-.465 2.485 5.5 5.225 5.5 5.225l13.315-7.495Z" fill="#F9D3DC" stroke="#231815" stroke-width=".46" stroke-miterlimit="10"/><path d="M223.271 142.46s7.825 8.415 8.5 9.295c.675.88 5.775 6.265 12.425 1.37" stroke="#000" stroke-width=".56" stroke-miterlimit="10"/><path d="m252.11 147.51 13.045-11.305" stroke="#fff" stroke-width=".59" stroke-miterlimit="10"/><path d="m281.475 132.42 9.68 23.225-9.195-10.195-.485-13.03Z" fill="#231815"/><path d="m281.755 148.735-.205-16.98" stroke="#fff" stroke-width=".59" stroke-miterlimit="10"/><path d="m308.865 174.925 23.11-15.35M255.415 151.615h27.665" stroke="#000" stroke-width=".56" stroke-miterlimit="10"/><path d="M241.866 179.435s5.97 12.615-7.595 16.28l7.595-16.28Z" fill="#2F54EB" stroke="#231815" stroke-width=".46" stroke-miterlimit="10"/><path d="m232.295 230.32-3.605 11.69 14.575.585 1.005-6.375-11.975-5.9ZM325.315 210.555l7.17 7.025-6.88 7.465-7.465-6.145 7.175-8.345Z" fill="#F9D3DC" stroke="#231815" stroke-width=".46" stroke-miterlimit="10"/><path d="M260.58 183.275s12.03 3.61 6.715 17.41c0 0-5.595-11.185-6.715-17.41Z" fill="#2F54EB" stroke="#231815" stroke-width=".46" stroke-miterlimit="10"/><path d="M215.125 96.395s2.05-5.705.625-9.15c-1.425-3.445-4.465.34-2.735 2.63 1.795 2.38 4.84-2.14 4.365-5.39a8.037 8.037 0 0 0-3.635-5.45" stroke="#231815" stroke-width=".46" stroke-miterlimit="10"/></svg>