<svg viewBox="0 0 400 300" fill="none" xmlns="http://www.w3.org/2000/svg"><path d="M341.534 273.063H78.546" stroke="#1E294A" stroke-width=".926" stroke-miterlimit="10" stroke-linecap="round"/><path d="M104.657 103.226h205.9M314.647 88.108h-209.8v110.647h209.8V88.108Z" stroke="#1E294A" stroke-width=".741" stroke-miterlimit="10"/><path d="M94.63 238.292a4.566 4.566 0 1 0 0-9.131 4.566 4.566 0 0 0 0 9.131Z" stroke="#AABCFF" stroke-width=".451" stroke-miterlimit="10"/><path d="M90.63 229.046a1.447 1.447 0 1 0 0-2.894 1.447 1.447 0 0 0 0 2.894Z" fill="#398CFF"/><path d="m302.017 106.56-1.262 6.508a6.624 6.624 0 0 0 6.919-3.059l-5.657-3.449Z" fill="#FF3F08"/><path d="M322.086 90.876h-26.762s0 18.207-13.381 28.434h30.872s8.885-10.037 9.271-28.434Z" fill="#398CFF"/><path d="M298.638 94.83h11.388" stroke="#fff" stroke-width="1.031" stroke-miterlimit="10" stroke-linecap="round"/><path d="M304.655 113.203a6.629 6.629 0 1 0-.001-13.257 6.629 6.629 0 0 0 .001 13.257Z" fill="#fff"/><path d="m304.655 106.56 5.887-3.004a6.646 6.646 0 0 0-3.794-3.244l-2.093 6.248Z" fill="#2C60FF"/><path d="m304.655 106.56-.646-6.598a6.623 6.623 0 0 0-3.945 1.814 6.625 6.625 0 0 0 2.163 10.951l2.428-6.167Z" fill="#93B9FF"/><path d="M277.668 113.673a3.795 3.795 0 1 0 0-7.59 3.795 3.795 0 0 0 0 7.59Z" fill="#398CFF"/><path d="M296.035 70.807s4.37 2.573 5.656 13.767h27.859s-1.097-10.423-6.433-13.767h-27.082Z" fill="#2C60FF" style="mix-blend-mode:multiply"/><path d="m59.942 224.592-11.888 1.806 1.062 6.988 11.887-1.806-1.061-6.988ZM48.06 226.408l12.945 5.166M59.939 224.595l-10.813 8.756" stroke="#325AB4" stroke-width=".09" stroke-miterlimit="10"/><path d="M308.064 76.469h-18.977l-1.933-8.85h18.978l1.932 8.85Z" fill="#AABCFF" style="mix-blend-mode:multiply"/><path d="m111.444 194.546-21.941 10.231 7.455 15.988 21.941-10.231-7.455-15.988Z" fill="#D2E9FE"/><path d="m111.418 198.417-18.874 8.801a.426.426 0 0 0 .36.772l18.874-8.801a.425.425 0 0 0-.36-.772Z" fill="#93B9FF"/><path d="m113.436 201.933-19.645 9.161 3.8 8.148 19.645-9.16-3.8-8.149Z" fill="#398CFF"/><path d="m103.481 204.406-10.126 4.722a.426.426 0 0 0 .36.772l10.126-4.722a.427.427 0 0 0-.36-.772Z" fill="#93B9FF"/><path d="M98.16 217.192c.47-2.048 1.922-4.571 4.42-4.04.746.155 1.462.54 2.242.445a2.86 2.86 0 0 0 1.858-1.251c2.267-2.909 3.434-6.508 6.217-9.051.13-.12-.06-.305-.19-.19a18.492 18.492 0 0 0-3.414 4.475c-.946 1.622-1.782 3.454-3.039 4.866-.33.417-.784.719-1.296.861a3.481 3.481 0 0 1-1.712-.25 3.533 3.533 0 0 0-2.383-.035c-1.742.655-2.568 2.397-2.964 4.099-.04.171.22.241.26.071Z" fill="#fff"/><path d="m110.048 196.672.406-1.116M109.693 195.911l1.116.406" stroke="#04042B" stroke-width=".135" stroke-miterlimit="10" stroke-linecap="round"/><path d="M290.788 137.306a1.142 1.142 0 0 0-1.501.566l-4.761 10.443-3.179 6.963 6.363-5.507 37.855 17.266c.274.122.586.131.867.026.281-.106.509-.319.635-.592l4.29-9.406a1.142 1.142 0 0 0-.566-1.502l-40.003-18.257Z" fill="#FF3F08"/><path d="M301.661 150.367a1.382 1.382 0 1 0 0-2.765 1.382 1.382 0 0 0 0 2.765ZM308.029 153.301a1.382 1.382 0 1 0 0-2.765 1.382 1.382 0 0 0 0 2.765ZM314.392 156.229a1.382 1.382 0 1 0 0-2.765 1.382 1.382 0 0 0 0 2.765Z" fill="#fff"/><path d="M287.349 62.507h-31.778s-6.047 0-10.337 17.431c-2.058 9.01-8.3 14.347-13.516 15.379h36.603s5.372-1.898 8.781-16.44c3.409-14.542 8.68-16.34 10.247-16.37Z" fill="#D2E9FE"/><path d="M273.648 69.26a40.85 40.85 0 0 0-2.834 8.766 26.346 26.346 0 0 1-2.958 8.01h-4.505s2.307-4.806 2.763-6.624c.5-2.062 2.318-9.33 3.284-10.167l4.25.015ZM260.453 73.445c-.686 2.298-1.327 4.881-1.602 5.983-.456 1.817-2.764 6.622-2.764 6.622h4.506a26.344 26.344 0 0 0 2.953-8.024 36.216 36.216 0 0 1 1.212-4.58h-4.305ZM252.207 76.724c-.3 1.137-.545 2.123-.69 2.704-.456 1.817-2.779 6.607-2.779 6.607h4.506a26.355 26.355 0 0 0 2.968-8.01c.085-.435.175-.865.276-1.286l-4.281-.015Z" fill="#3C64F5"/><path d="M278.178 253.305s-4.74-10.243-10.837-23.108l-11.284 7.559c3.865 6.668 8.06 10.743 8.585 12.124 2.038 5.342 4.376 7.009-1.622 10.969l6.183 5.546 12.715-5.932-3.74-7.158ZM225.777 188.097c.12.551-8.415 56.292-8.936 61.738-.536 5.657-1.001 7.88-5.266 9.597l2.077 5.612 12.83.525.171-6.177s11.809-75.74 9.791-81.853l-10.667 10.558ZM253.865 167.768s-1.632 1.872-2.768 2.187c-.036 0-.967-1.932-.967-1.932l3.735-.255Z" fill="#AABCFF"/><path d="m250.886 165.63-25.29 9.652c-.831 4.135-10.753 71.265-10.753 71.265 1.242.275 17.161 5.111 17.161 5.111 5.211-15.183 7.133-51.256 7.133-51.256l3.134 11.178a82.704 82.704 0 0 0 6.367 16.059l12.25 23.438a157.96 157.96 0 0 0 16.204-8.245c-1.126-3.394-6.417-12.67-10.542-24.819-7.684-22.657-15.664-52.383-15.664-52.383Z" fill="#1E294A"/><path d="M286.183 264.523c.298.263.518.603.635.983.116.38.125.785.026 1.169l-6.603 1.838-1.101-1.137s-.911 1.337-1.332 1.812l-22.752 6.323s-1.226-2.158-.911-2.974c.315-.816 29.035-8.62 29.035-8.62l3.003.606Z" fill="#fff" stroke="#070627" stroke-width=".175" stroke-miterlimit="10"/><path d="M253.589 270.705c.296-2.312 7.244-8.009 9.391-9.586a.95.95 0 0 1 1.072 0c2.032 1.356 9.821 5.592 15.168-4.551a.962.962 0 0 1 .971-.5c.426.051.818.258 1.101.581 1.752 2.027 4.591 5.621 4.891 7.884l-29.876 8.305s-3.063.48-2.718-2.133Z" fill="#1E294A"/><path d="m259.752 263.772 2.302 1.327a.916.916 0 0 1 .439.588.924.924 0 0 1-.123.723 1.002 1.002 0 0 1-1.372.301l-2.903-1.577c.535-.451 1.156-.946 1.657-1.362Z" fill="#fff" stroke="#070627" stroke-width=".175" stroke-miterlimit="10"/><path d="M263.651 261.074s-5.466-4.596-2.598-3.234c2.868 1.362 2.598 3.234 2.598 3.234Z" stroke="#000" stroke-width=".175" stroke-miterlimit="10"/><path d="M263.726 261.054s-5.907 1.642-5.006.305c.811-1.161 5.006-.305 5.006-.305Z" stroke="#000" stroke-width=".175" stroke-miterlimit="10"/><path d="M229.761 272.502a2.203 2.203 0 0 1-.391 2.208l-6.452-1.141-.441-1.477s-1.371.806-1.937 1.056l-22.257-3.929s-.095-2.448.536-3.049 28.634 4.505 28.634 4.505l2.308 1.827Z" fill="#fff" stroke="#070627" stroke-width=".17" stroke-miterlimit="10"/><path d="M199.179 264.293c1.272-1.948 9.742-4.14 12.27-4.631a.867.867 0 0 1 .921.436c1.142 2.072 5.927 9.156 14.983 2.317a.915.915 0 0 1 1.051-.03c.346.236.589.594.681 1.002.601 2.558 1.442 6.973.701 9.13l-29.22-5.161s-2.853-.866-1.387-3.063Z" fill="#1E294A"/><path d="m207.499 260.683 1.382 2.163a.94.94 0 0 1 .13.726.935.935 0 0 1-.427.601.955.955 0 0 1-1.069-.046.946.946 0 0 1-.251-.28l-1.787-2.638c.65-.19 1.401-.37 2.022-.526Z" fill="#fff" stroke="#070627" stroke-width=".17" stroke-miterlimit="10"/><path d="M212.015 259.902s-2.643-6.422-.796-4.004c1.847 2.418.796 4.004.796 4.004Z" stroke="#000" stroke-width=".17" stroke-miterlimit="10"/><path d="M212.09 259.917s-5.777-1.001-4.405-1.827c1.196-.711 4.405 1.827 4.405 1.827Z" stroke="#000" stroke-width=".17" stroke-miterlimit="10"/><path d="M241.44 126.824c-.155-.08-6.348-2.753-6.348-2.753s.536-2.218 4.28-3.209l2.859 4.61-.791 1.352Z" fill="#FF3F08"/><path d="M256.508 155.118a39.04 39.04 0 0 1-2.688 12.68l-9.201.726s-17.957-19.819-17.476-25.531c.48-5.712 4.68-10.067 6.362-10.888 2.649-1.291 7.219-.966 7.219-.966l7.754.376c1.927 2.422 6.178 1.662 8.726 3.419 2.422 1.672 4.245 4.6 4.37 7.539.125 2.938-1.327 5.902-2.653 8.51" fill="#3C64F5"/><path d="M240.864 124.111s1.757 3.894-.686 7.414l1.262 11.198 7.338-10.778s-1.762-1.377-.425-7.834h-7.489Z" fill="#AABCFF"/><path d="m240.489 124.581-.341-.36c-1.622-1.712-1.341-5.662.391-7.299l4.951-4.385 7.253 7.098-4.7 4.756c-1.447 1.322-5.932 1.892-7.554.19Z" fill="#AABCFF"/><path d="M243.392 117.948s-2.823 2.418-2.243 3.289a.54.54 0 0 0 .371.196.549.549 0 0 0 .4-.126" stroke="#070627" stroke-width=".25" stroke-miterlimit="10" stroke-linecap="round"/><path d="M253.059 115.831a1.837 1.837 0 0 0 1.832-1.842c0-1.018-.82-1.842-1.832-1.842a1.836 1.836 0 0 0-1.832 1.842c0 1.017.82 1.842 1.832 1.842Z" fill="#FF3F08"/><path d="M245.412 121.94c.804-.138 1.372-.738 1.268-1.34-.103-.602-.839-.979-1.643-.84-.803.138-1.371.738-1.268 1.34.104.602.839.978 1.643.84ZM239.728 118.003a.993.993 0 0 0 .69.696c.591.145 1.232-.375 1.427-1.166a1.506 1.506 0 0 0-.37-1.502l-.952.901c-.324.31-.593.672-.795 1.071Z" fill="#3C64F5"/><path d="M246.025 114.209s-1.912 1.912-4.36 1.682a7.324 7.324 0 0 1 8.01-3.669c5.731 1.071 3.744 9.556 2.978 10.472 0 0 4.285 3.669 1.532 8.41l-6.348-2.598s-.7-2.578.461-4.36c1.161-1.782 1.301-3.66 1.071-4.28.02 0-2.132-1.032-3.344-5.657Z" fill="#FF3F08"/><path d="M249.785 119.385s1.071-1.101 2.092-.045c1.022 1.056-1.146 4.045-2.503 3.785-.5-.091-.53-.331-.53-.331.395-1.112.71-2.251.941-3.409Z" fill="#AABCFF"/><path d="M250.936 120.396a1.035 1.035 0 0 0-1.197.681M250.331 121.352a.38.38 0 0 0 .169-.253.404.404 0 0 0-.064-.297" stroke="#070627" stroke-width=".155" stroke-miterlimit="10" stroke-linecap="round"/><path d="M252.062 122.539s5.392 1.036 4.09 8.22" stroke="#FF3F08" stroke-width=".185" stroke-miterlimit="10" stroke-linecap="round"/><path d="M241.885 142.683h-35.907v31.427h35.907v-31.427Z" fill="#93B9FF"/><path d="M246.892 145.216H208.09v32.048h38.802v-32.048Z" fill="#D2E9FE"/><path d="M246.967 152.024a44.708 44.708 0 0 1 6.307-9.141c.165-.185-.11-.46-.275-.27a45.254 45.254 0 0 0-6.368 9.216c-.115.22.22.415.336.195ZM208.51 150.112h38.286a.198.198 0 0 0 .164-.193.198.198 0 0 0-.164-.193H208.51a.198.198 0 0 0-.164.193.198.198 0 0 0 .164.193Z" fill="#fff"/><path d="M241.395 157.821h-30.747v9.261h30.747v-9.261Z" fill="#398CFF"/><path d="M275.646 238.056c-4.796 2.914-14.343 6.929-17.787 8.375l2.128 5.141c4.07.071 17.691-8.169 17.691-8.169 0-.606-.771-2.683-2.032-5.347Z" fill="#2C60FF"/><path d="M250 115.125a2.997 2.997 0 0 1 .501 2.503" stroke="#fff" stroke-width=".23" stroke-miterlimit="10" stroke-linecap="round"/><path d="M272.577 241.14a.67.67 0 0 1-.631-.501c-.25-.921-.891-2.603-.896-2.623a.703.703 0 0 1 .366-.896.651.651 0 0 1 .718.163c.059.065.104.14.133.223.03.07.67 1.767.941 2.753a.699.699 0 0 1-.451.856.73.73 0 0 1-.18.025Z" fill="#D2E9FE"/><path d="m80.003 222.325-20.822-11.627-6.526 11.687 20.822 11.627 6.526-11.687Z" fill="#2C60FF"/><path d="m59.198 210.709 7.199 11.544 13.626.075M63.953 218.333l-4.42.526M70.727 222.338l1.521 4.18" stroke="#fff" stroke-width=".225" stroke-miterlimit="10" stroke-linecap="round"/><path d="M316.419 185.364a5.297 5.297 0 1 0-.001-10.593 5.297 5.297 0 0 0 .001 10.593Z" fill="#D2E9FE"/><path d="M205.998 142.583h35.892" stroke="#04042B" stroke-width=".205" stroke-miterlimit="10" stroke-linecap="round"/><path d="M210.648 169.72h27.708M210.648 172.263h20.349" stroke="#398CFF" stroke-width=".986" stroke-miterlimit="10" stroke-linecap="round"/><path d="M225.316 176.949s-9.777 45.934-12.545 69.542l11.323-.58 1.222-68.962Z" fill="#1E294A"/><path d="M212.796 246.521c1.311.291 20.354 6.328 20.354 6.328.385-.35.896-3.399 1.316-6.443-4.069-1.762-17.265-4.315-21.245-5.386a29.387 29.387 0 0 0-.425 5.501Z" fill="#2C60FF"/><path d="M217.271 243.223h-.07a.69.69 0 0 1-.5-.781c0-.075.225-1.883.435-2.879a.59.59 0 0 1 .249-.406.589.589 0 0 1 .467-.094.696.696 0 0 1 .436.831c-.196.931-.411 2.728-.416 2.743a.63.63 0 0 1-.601.586Z" fill="#D2E9FE"/><path d="m136.072 234.642-10.578-4.877-7.996 17.344 10.579 4.877 7.995-17.344Z" fill="#AABCFF"/><path d="M136.355 269.214s1.176.35.376 1.947c-.801 1.597-2.138 2.002-2.934 1.867-2.097-.3-22.121-11.073-22.121-11.073s-2.398-1.202-2.063-2.533a11.993 11.993 0 0 1 1.532-3.069 2.853 2.853 0 0 1 1.447.326l23.763 12.535Z" fill="#fff" stroke="#070627" stroke-width=".165" stroke-miterlimit="10"/><path d="M132.395 261.85c.175.093.355.175.541.245 5.466 2.072 4.665 6.007 2.928 7.469-1.231 1.041-6.222-1.682-10.287-4.005 2.548-2.648 4.966-3.524 6.818-3.709Z" fill="#398CFF"/><path d="M119.149 245.03c.796 5.396 4.33 3.334 5.397 2.868 1.066-.465 6.863.27 6.863.27-.676 1.002-1.757 4.331-1.777 7.509 0 2.563.655 5.041 2.763 6.158-1.852.185-4.27 1.061-6.818 3.689-1.647-.951-3.139-1.832-4.17-2.383a70.443 70.443 0 0 1-9.927-6.467l6.403-12.796c.931-.515 1.266 1.152 1.266 1.152Z" fill="#1E294A"/><path d="m126.798 253.48 2.999.005M129.631 257.74l-2.267.29M129.662 255.627l-2.563.05" stroke="#fff" stroke-width=".711" stroke-miterlimit="10" stroke-linecap="round"/><path d="M114.249 237.931s4.169 1.402 9.205 3.004l2.503-6.693 10.683 3.975-2.217 5.972a43.23 43.23 0 0 0 5.121 1.131l2.418-6.603c-6.874-1.652-18.022-5.216-24.029-7.188-1.852 3.509-3.154 5.837-3.684 6.402Z" fill="#2C60FF"/><path d="m173.171 238.112-11.648.158.26 19.096 11.648-.159-.26-19.095Z" fill="#AABCFF"/><path d="m125.937 234.212-2.503 6.693c3.619 1.141 7.684 2.378 10.968 3.254l2.238-5.942-10.703-4.005ZM154.151 244.354c-.215 4.14-.37 6.888-.41 7.294l6.898-.651-.836-6.863a231.25 231.25 0 0 1-5.652.22ZM171.331 249.996l9.567-.901s-.24-2.569-.706-6.874c-3.304.471-6.578.836-9.671 1.127l.81 6.648Z" fill="#2C60FF"/><path d="m159.803 244.134.831 6.863 10.692-1.001-.811-6.628c-3.989.355-7.674.61-10.712.766Z" fill="#2C60FF"/><path d="M215.644 130.669c.12-.098.223-.215.306-.346l-.326.361.02-.015ZM206.373 128.852l.361-.301a1.68 1.68 0 0 0-.361.301Z" fill="#93B9FF"/><path d="m168.714 112.732-39.983 5.342 3.729 27.873 23.483-3.144c3.029-4.656 5.632-8.65 6.383-9.682 1.967-2.708 3.814-2.678 3.905-2.673a8.607 8.607 0 0 0 1.441-2.973 8.741 8.741 0 0 1-2.052-1.837c-1.957-2.754-1.602-6.333-.881-8.35a10.451 10.451 0 0 1 3.975-4.556ZM215.254 129.958l.09-.241-5.091-6.467a291.707 291.707 0 0 1 1.271-3.254.63.63 0 0 1 .249-.147.647.647 0 0 1 .753.297c.5.676.295 1.887.07 2.423a11.163 11.163 0 0 0 1.552-.631l-2.033-15.018-34.961 4.701a3.111 3.111 0 0 1 1.802 1.777c.655 1.942-.501 3.269-2.133 4.22 1.001 2.002 3.664 8.14.295 10.783a5.767 5.767 0 0 1-4.119 1.196 8.165 8.165 0 0 0-.656 2.854c3.434.826 8.159 3.674 11.569 6.633l31.983-4.321-.641-4.805Z" fill="#D2E9FE"/><path d="m167.562 135.9-.736-7.204-31.327 4.2 1.312 7.319 8.234-1.292 22.517-3.023Z" fill="#93B9FF"/><path d="M172.012 122.379c-.3.64.15 1.501 1.001 1.877.851.375 1.787.2 2.083-.441.295-.64-.15-1.501-1.001-1.877-.851-.375-1.788-.2-2.083.441Z" fill="#3C64F5"/><path d="M143.894 161.095s8.56 19.828 31.287 10.512l-31.287-10.512Z" fill="#93B9FF"/><path d="M165.325 175.782c.455-1.171.921-2.348 1.406-3.534-.5 1.186-.951 2.363-1.406 3.534a1490.474 1490.474 0 0 1-9.041 26.257c-.631 12.74-1.587 31.918-2.133 42.315a231.25 231.25 0 0 0 5.652-.22l-.14-1.117 10.658-1.301.2 1.652c3.094-.291 6.367-.656 9.671-1.127-.03-17.065-3.884-49.904-8.009-71.159-1.427-.266-3.104-.691-4.916-1.222a339.196 339.196 0 0 1-1.942 5.922Z" fill="#398CFF"/><path d="m170.32 241.721-10.657 1.301.14 1.117c3.038-.156 6.723-.396 10.718-.766l-.201-1.652ZM155.182 200.316c.461-.896.896-1.782 1.317-2.658.25-5.046.41-8.32.41-8.32l-.605-23.247a303.376 303.376 0 0 1-8.13-3.214c-3.639 7.969-23.273 50.695-30.231 68.652 6.007 1.972 17.145 5.536 24.028 7.188 4.065-8.645 9.472-23.027 14.323-36.678.08-1.567.15-3.034.215-4.381-.431.876-.881 1.762-1.327 2.658Z" fill="#398CFF"/><path d="M156.498 197.668c-.065 1.347-.135 2.814-.215 4.381a1462.67 1462.67 0 0 0 9.041-26.257c-2.818 7.224-5.151 14.232-8.826 21.876Z" fill="#398CFF"/><path d="M156.909 189.338s-.16 3.274-.411 8.32c3.675-7.634 6.008-14.642 8.826-21.876a956.727 956.727 0 0 0 1.952-5.922c-3.424-1.001-7.338-2.393-10.973-3.769l.606 23.247Z" fill="#398CFF"/><path d="m184.452 141.446.075.03c.356-.821.536-1.336.536-1.336a26.836 26.836 0 0 0-1.167-1.071l-27.953 3.739c-5.106 7.864-11.418 17.621-12.059 18.267 0 0 1.682.731 4.29 1.802.37-.806.571-1.257.586-1.292.015-.035 9.836 2.343 15.518 3.955l6.898.591c.341 1.572.681 3.234 1.001 4.971l3.004.545s-.821-9.186-2.628-15.518a22.648 22.648 0 0 1-.811-6.778 28.773 28.773 0 0 0 4.505 2.002 9.718 9.718 0 0 0 1.843-1.026c-.336-.16-.671-.33-1.002-.501l7.364-8.38Zm-18.472 14.057ZM172.342 132.421v.275l-6.112 1.001-1.547-2.002a4.239 4.239 0 0 0 1.567-1.252c-.09 0-1.937-.035-3.905 2.673-.75 1.032-3.354 5.006-6.382 9.682l27.953-3.739c-3.419-2.964-8.14-5.807-11.574-6.638Z" fill="#1E294A"/><path d="M169.584 132.29c-1.877.501-3.034.341-3.695.111a.666.666 0 0 1-.32-1.002l.666-.926a4.239 4.239 0 0 1-1.567 1.252l1.547 2.002 6.112-1.001v-.275a5.818 5.818 0 0 0-2.743-.161ZM184.527 141.476l-.075-.03-7.364 8.36a19.9 19.9 0 0 0 1.002.501c3.324-2.338 5.496-6.653 6.437-8.831ZM164.283 165.54c2.337.661 3.969 1.202 3.929 1.402 0 .075-.345 1.121-.936 2.918 1.812.531 3.504.956 4.916 1.222a376.22 376.22 0 0 0-1.001-4.971l-6.908-.571ZM156.273 164.874l8.01.666c-5.687-1.612-15.519-3.955-15.519-3.955s-.215.501-.585 1.292c2.202.906 5.066 2.057 8.129 3.214l-.035-1.217Z" fill="#1E294A"/><path d="M156.303 166.091c3.635 1.376 7.549 2.763 10.974 3.769.59-1.797.921-2.843.936-2.918.04-.2-1.592-.741-3.93-1.402l-8.01-.666.03 1.217Z" fill="#1E294A"/><path d="m215.374 130.965.251-.281-.261.22.01.061Z" fill="#93B9FF"/><path d="M188.327 269.183s1.211-.19 1.176 1.602c-.03 1.712-1.076 2.704-1.842 2.944-2.003.636-24.735-.456-24.735-.456s-2.683-.05-2.958-1.396a12.196 12.196 0 0 1 .065-3.429 2.843 2.843 0 0 1 1.447-.326l26.847 1.061Z" fill="#fff" stroke="#070627" stroke-width=".165" stroke-miterlimit="10"/><path d="M181.578 264.248c.199.014.398.014.596 0 5.822-.501 6.793 3.404 5.857 5.476-.661 1.472-6.342 1.166-11.013.801 1.166-3.479 2.969-5.311 4.56-6.277Z" fill="#398CFF"/><path d="M162.371 254.781c3.048 4.506 5.346 1.142 6.107.261.761-.881 6.313-2.714 6.313-2.714-.181 1.192.28 4.666 1.642 7.554 1.091 2.323 2.758 4.27 5.146 4.366-1.592.966-3.394 2.798-4.566 6.267-1.892-.145-3.624-.3-4.791-.35a70.913 70.913 0 0 1-11.743-1.557l.265-14.307c.611-.881 1.627.48 1.627.48Z" fill="#1E294A"/><path d="m172.918 259.111 2.708-1.291M177.313 261.73l-1.922 1.241M176.432 259.812l-2.297 1.152" stroke="#fff" stroke-width=".711" stroke-miterlimit="10" stroke-linecap="round"/><path d="M218.608 121.042c.315-.365.746-2.423.671-2.648-.075-.225-.826-1.567-1.958.791-.635 1.321-2.042 2.233-3.153 2.778-.501.249-1.02.46-1.552.631.225-.536.415-1.747-.065-2.423a.647.647 0 0 0-1.002-.15s-2.002 5.051-2.212 5.827a4.254 4.254 0 0 1-.561.971 18.76 18.76 0 0 1-3.579 3.895c-3.78 3.103-7.324 5.196-9.852 6.828-7.339 4.75-10.307 4.095-10.798 3.934-.941 2.178-4.125 7.109-7.439 9.457 14.227 6.703 26.707-7.75 29.906-11.664a55.849 55.849 0 0 1 3.394-3.74c.436-.445.866-.866 1.282-1.266a81.043 81.043 0 0 1 3.694-3.359l.26-.22.326-.361c1.071-1.181 1.957-2.132 1.957-2.132a2.435 2.435 0 0 0 .4-2.243c.907-1.387.331-2.293.331-2.293.941-1.832-.05-2.613-.05-2.613Z" fill="#AABCFF"/><path d="M214.958 124.036s2.628-1.502 3.649-3.004M215.89 125.638s2.132-1.327 2.888-2.193M216.2 127.645a10.286 10.286 0 0 0 2.102-1.697" stroke="#1E294A" stroke-width=".245" stroke-miterlimit="10" stroke-linecap="round"/><path d="M165.194 176.924c-1.106 5.386-8.565 24.203-8.565 24.203" stroke="#1E294A" stroke-width=".741" stroke-miterlimit="10" stroke-linecap="round"/><path d="m167.717 127.51-.135.26c.042-.092.077-.187.105-.285a8.61 8.61 0 0 1-1.442 2.973l-.666.926a.678.678 0 0 0-.084.579.654.654 0 0 0 .405.423c.66.23 1.817.375 3.694-.111a5.813 5.813 0 0 1 2.758.131 8.025 8.025 0 0 1 .661-2.849 11.504 11.504 0 0 1-5.296-2.047ZM167.688 127.485h.03v-.065a.09.09 0 0 0-.03.065Z" fill="#AABCFF"/><path d="M170.5 124.041a2.86 2.86 0 0 0-.55-.816c.198.336.257.737.165 1.116a1.412 1.412 0 0 1-.601.656.938.938 0 0 1-.23.075 1.872 1.872 0 0 1-1.472-.556 11.11 11.11 0 0 1-.06 2.678c.19-.705.323-1.425.395-2.152l5.006 4.33c-.048.062-.09.129-.125.2a5.806 5.806 0 0 0 4.115-1.191c3.374-2.643.706-8.801-.28-10.783a27.045 27.045 0 0 1-4.32 1.807c-2.433.906-2.043 4.636-2.043 4.636Zm3.595-2.103c.856.396 1.306 1.237 1.001 1.877-.306.641-1.232.841-2.083.441-.851-.401-1.306-1.237-1.001-1.877.305-.641 1.226-.836 2.083-.441Z" fill="#AABCFF"/><path d="M168.143 125.042a13.319 13.319 0 0 1-.396 2.152c0 .086-.035.171-.055.251v.065a11.516 11.516 0 0 0 5.312 2.077c.034-.071.076-.138.125-.2l-4.986-4.345Z" fill="#AABCFF"/><path d="M135.514 122.784c.926-.185 72.557-10.012 72.557-10.012" stroke="#93B9FF" stroke-width=".986" stroke-miterlimit="10"/><path d="m168.713 112.732 8.465-1.131c-2.107-.936-5.566-.696-8.465 1.131Z" fill="#1E294A"/><path d="M164.739 117.293c-.721 2.002-1.077 5.596.881 8.35a8.741 8.741 0 0 0 2.052 1.837v-.06l-2.232-6.783 10.462-5.767.591 2.097s.13.231.325.631c1.612-.951 2.793-2.278 2.143-4.22a3.091 3.091 0 0 0-1.802-1.777l-8.466 1.131a10.463 10.463 0 0 0-3.954 4.561ZM167.582 127.771l.136-.261h-.031a1.824 1.824 0 0 1-.105.261Z" fill="#1E294A"/><path d="M167.697 127.445v-.025.06a.103.103 0 0 1 0-.035ZM167.813 124.516c-.972-.821-1.732-2.292-1.107-3.003.946-1.057 2.058 0 2.063 0 .464.516.861 1.09 1.181 1.707.229.238.416.514.551.816 0 0-.391-3.73 2.002-4.636a27.007 27.007 0 0 0 4.32-1.807c-.195-.4-.325-.631-.325-.631l-.591-2.097-10.462 5.767 2.232 6.783.061-.226a11.12 11.12 0 0 0 .075-2.673Z" fill="#1E294A"/><path d="m167.753 127.194-.061.226v.025a2 2 0 0 0 .061-.251Z" fill="#1E294A"/><path d="M169.284 125.082a.938.938 0 0 0 .23-.075c.266-.148.476-.378.601-.656.092-.379.033-.78-.166-1.116a12.85 12.85 0 0 0-2.568-2.128s.1.566.216 1.377c.08.591.165 1.311.215 2.042a1.857 1.857 0 0 0 1.472.556Zm-1.192-2.002a.563.563 0 0 0 .014.639.557.557 0 0 0-.014-.639Z" fill="#AABCFF"/><path d="M167.342 122.504c.084-.015.17-.025.255-.03-.115-.811-.215-1.377-.215-1.377.944.595 1.808 1.31 2.568 2.128a8.199 8.199 0 0 0-1.181-1.707s-1.117-1.057-2.063 0c-.626.706.135 2.177 1.107 3.003a32.19 32.19 0 0 0-.216-2.042c-.085.003-.17.011-.255.025ZM246.736 151.864s-3.139 4.195-4.725 5.266c-9.747.376-25.631-4.42-25.706-4.445a46.97 46.97 0 0 1-5.462-5.827 2.188 2.188 0 0 0-1.031-.871c-.435-.125-1.001.025-1.001.5 0 0 .025 1.968 2.348 4.836-2.463.095-3.865-1.181-5.842-3.219a2.9 2.9 0 0 0-1.252-.916.658.658 0 0 0-.911.751c.124.638.44 1.224.906 1.677a1.095 1.095 0 0 0-.705 1.001c.076.338.25.646.5.886-.3 0-.5.366-.435.661.086.29.261.546.5.731h.025-.045a1.04 1.04 0 0 0 .396 1.036c2.863 2.268 7.549 3.344 8.099 3.504.15.03.303.045.456.045 1.03.037 2.04.293 2.963.751 5.712 2.804 17.021 7.83 26.242 6.538 8.269-1.156 13.336-11.058 13.336-11.058l-8.656-1.847Z" fill="#AABCFF"/><path d="M204.351 149.906a8.184 8.184 0 0 0 3.233 2.238M203.9 151.548a10.822 10.822 0 0 0 3.003 1.622M203.945 152.9a5.554 5.554 0 0 0 1.812.896" stroke="#1E294A" stroke-width=".165" stroke-miterlimit="10" stroke-linecap="round"/></svg>