<?xml version="1.0" encoding="iso-8859-1"?>
<!-- Generator: Adobe Illustrator 23.0.2, SVG Export Plug-In . SVG Version: 6.00 Build 0)  -->
<svg version="1.1" id="&#x56FE;&#x5C42;_1" xmlns="http://www.w3.org/2000/svg" xmlns:xlink="http://www.w3.org/1999/xlink" x="0px"
	 y="0px" viewBox="0 0 1000 1000" style="enable-background:new 0 0 1000 1000;" xml:space="preserve">
<g>
	<g>
		<defs>
			<path id="XMLID_127_" d="M211.742,242.011c0,0-213.726,89.081-7.958,339.362c0,0,63.078,84.372,324.844,138.905
				c0,0,317.472-3.568,340.209-300.223C891.574,123.4,664.206,159.4,608.139,198.432c-48.587,33.825-178.815,80.298-288.175,29.917
				C319.965,228.349,286.724,206.768,211.742,242.011z"/>
		</defs>
		<use xlink:href="#XMLID_127_"  style="overflow:visible;fill:#FFEBE5;"/>
		<clipPath id="XMLID_2_">
			<use xlink:href="#XMLID_127_"  style="overflow:visible;"/>
		</clipPath>
		<path style="clip-path:url(#XMLID_2_);fill:#FFFFFF;" d="M73.106,545.507c-0.019,0-0.035-0.001-0.049-0.002l0.049-0.998
			l-0.991-0.127l0.015-0.149c1.026-10.346,11.838-102.47,74.477-150.539c32.811-25.18,74.243-33.874,123.149-25.84
			c98.867,16.237,166.661-41.459,198.271-77.299c49.729-56.385,70.705-123.272,63.851-146.405l1.918-0.568
			c3.804,12.84-0.336,36.368-11.075,62.938c-12.05,29.813-30.94,60.128-53.193,85.357c-25.146,28.511-53.562,49.911-84.456,63.604
			c-36.417,16.143-75.323,20.968-115.64,14.345c-48.334-7.938-89.251,0.624-121.607,25.454
			C85.853,442.835,75.137,534.17,74.12,544.429C74.023,545.404,73.372,545.507,73.106,545.507z"/>
		<path style="clip-path:url(#XMLID_2_);fill:#FFFFFF;" d="M184.449,670.455l-1.982-0.27c0.088-0.644,9.245-65.048,49.973-128.702
			c23.935-37.407,53.928-67.253,89.146-88.709c44.017-26.816,96.348-40.517,155.54-40.722c70.74-0.244,118.916-20.15,143.191-59.165
			c24.696-39.693,19.849-92.391,11.434-129.608c-9.143-40.431-24.356-71.844-24.509-72.156l1.797-0.877
			c0.153,0.314,15.456,31.901,24.652,72.549c8.507,37.595,13.386,90.864-11.674,131.145
			c-24.661,39.642-73.408,59.866-144.884,60.113c-133.15,0.461-205.621,70.104-242.97,128.447
			C193.649,605.787,184.536,669.816,184.449,670.455z"/>
		<path style="clip-path:url(#XMLID_2_);fill:#FFFFFF;" d="M906.284,454.114C843.89,422.793,794.566,387.8,759.683,350.108
			c-29.008-31.342-48.344-64.846-57.473-99.58c-10.899-41.471-5.123-77.363,1.643-100.172c7.333-24.724,17.4-39.869,17.501-40.02
			l1.66,1.115c-0.1,0.148-10.027,15.099-17.27,39.561c-6.679,22.554-12.375,58.046-1.59,99.047
			c20.181,76.717,88.488,144.769,203.025,202.268L906.284,454.114z"/>
		<path style="clip-path:url(#XMLID_2_);fill:#FFFFFF;" d="M302.73,798.596c-12.04,0-19.207-1.168-19.395-1.2l0.338-1.971
			c0.494,0.084,50.211,8.151,109.427-19.158c54.67-25.212,128.866-86.609,171.871-235.922
			c21.027-73.008,56.179-116.218,104.477-128.429c25.554-6.459,54.925-4.221,87.297,6.654c25.832,8.679,53.632,22.849,82.627,42.117
			c49.329,32.781,85.525,69.484,85.885,69.852l-1.428,1.4c-0.358-0.365-36.433-36.941-85.595-69.606
			c-45.272-30.08-111.217-62.908-168.299-48.477c-47.558,12.024-82.226,54.768-103.042,127.041
			c-19.082,66.253-45.842,120.966-79.537,162.619c-26.986,33.359-58.454,58.464-93.53,74.618
			C356.462,795.342,322.817,798.596,302.73,798.596z"/>
		<path style="clip-path:url(#XMLID_2_);fill:#FFFFFF;" d="M392.183,773.104l-1.648-1.135c0.313-0.455,31.553-46.153,50.486-99.97
			c17.397-49.449,27.667-116.082-22.207-152.699c-18.035-13.239-37.088-17.146-56.631-11.604
			c-37.201,10.547-70.294,53.69-91.505,88.025c-23.038,37.294-37.403,72.521-37.546,72.872l-1.854-0.752
			c0.143-0.353,14.572-35.735,37.698-73.171c21.396-34.638,54.841-78.177,92.66-88.898c20.164-5.719,39.801-1.709,58.36,11.917
			c22.491,16.513,34.996,40.277,37.165,70.634c1.729,24.179-3.072,52.566-14.267,84.374
			C423.871,726.759,392.498,772.646,392.183,773.104z"/>
	</g>
	<path style="fill:#26205C;" d="M937.116,727.098H62.884c-3.752,0-6.821-3.07-6.821-6.821v0c0-3.752,3.069-6.821,6.821-6.821
		h874.232c3.752,0,6.821,3.07,6.821,6.821v0C943.937,724.029,940.867,727.098,937.116,727.098z"/>
	<path style="fill:#FFFFFF;" d="M675.772,401.104H480.795l-43.75,55.753V254.632c0-5.751,4.662-10.412,10.412-10.412h228.315
		c5.751,0,10.412,4.662,10.412,10.412v136.059C686.185,396.442,681.523,401.104,675.772,401.104z"/>
	<circle style="fill:#FF6666;" cx="383.702" cy="301.756" r="35.704"/>
	<rect x="161.469" y="287.871" style="fill:#5A78EC;" width="117.567" height="28.918"/>
	<rect x="214.42" y="336.079" style="fill:#EAEAFF;" width="85.828" height="28.918"/>
	<g>
		<defs>
			<path id="XMLID_116_" d="M451.383,598.221H149.741c-3.848,0-6.967-3.119-6.967-6.967v-43.665c0-3.848,3.119-6.967,6.967-6.967
				h301.642c3.848,0,6.967,3.119,6.967,6.967v43.665C458.351,595.102,455.231,598.221,451.383,598.221z"/>
		</defs>
		<use xlink:href="#XMLID_116_"  style="overflow:visible;fill:#FFFFFF;"/>
		<clipPath id="XMLID_3_">
			<use xlink:href="#XMLID_116_"  style="overflow:visible;"/>
		</clipPath>
		<rect x="396.29" y="518.136" style="clip-path:url(#XMLID_3_);fill:#FF6666;" width="84.505" height="101.306"/>
	</g>
	<path style="fill:none;stroke:#232323;stroke-width:2;stroke-linecap:round;stroke-linejoin:round;stroke-miterlimit:10;" d="
		M458.974,588.839H157.332c-3.848,0-6.967-3.119-6.967-6.967v-43.665c0-3.848,3.119-6.967,6.967-6.967h301.642
		c3.848,0,6.967,3.119,6.967,6.967v43.665C465.941,585.72,462.822,588.839,458.974,588.839z"/>
	<path style="fill:#FFFFFF;" d="M423.472,580.218c-8.703,0-15.783-7.08-15.783-15.783s7.08-15.783,15.783-15.783
		s15.783,7.08,15.783,15.783S432.176,580.218,423.472,580.218z M423.472,550.651c-7.6,0-13.783,6.184-13.783,13.783
		s6.184,13.783,13.783,13.783s13.783-6.184,13.783-13.783S431.072,550.651,423.472,550.651z"/>
	<path style="fill:#FFFFFF;" d="M449.572,588.868c-0.228,0-0.457-0.077-0.645-0.236l-15.515-13.119
		c-0.422-0.356-0.475-0.987-0.118-1.409c0.357-0.423,0.987-0.477,1.409-0.118l15.515,13.119c0.422,0.356,0.475,0.987,0.118,1.409
		C450.138,588.748,449.856,588.868,449.572,588.868z"/>
	<rect x="460.562" y="259.826" style="fill:#F1F1F1;" width="197.709" height="18.947"/>
	<rect x="460.562" y="286.208" style="fill:#F1F1F1;" width="197.709" height="18.947"/>
	<rect x="460.562" y="311.84" style="fill:#F1F1F1;" width="115.854" height="18.947"/>
	<rect x="458.351" y="346.57" style="fill:#FFD840;" width="34.734" height="34.734"/>
	<rect x="515.47" y="346.57" style="fill:#FF6666;" width="34.734" height="34.734"/>
	<path style="fill:#FFD840;" d="M447.842,439.69c-10.638,0.001-18.559-2.92-23.242-8.76c-7.828-9.762-5.818-26.416,5.813-48.162
		c0.262-0.487,0.866-0.67,1.354-0.41c0.487,0.261,0.671,0.866,0.41,1.354c-11.064,20.685-13.201,37.009-6.017,45.967
		c18.229,22.733,89.493-4.035,158.852-59.665c33.726-27.051,61.93-56.828,79.414-83.848c17.289-26.717,22.015-47.409,13.307-58.266
		c-10.813-13.483-41.376-9.809-81.753,9.824c-0.495,0.242-1.096,0.034-1.337-0.462c-0.241-0.497-0.034-1.096,0.462-1.337
		c41.276-20.069,72.75-23.539,84.188-9.277c9.29,11.583,4.606,33.105-13.188,60.604c-17.599,27.195-45.954,57.141-79.842,84.322
		c-33.89,27.181-69.276,48.36-99.642,59.637C471.396,436.865,458.304,439.69,447.842,439.69z"/>
	<circle style="fill:#5A78EC;" cx="623.532" cy="337.896" r="7.319"/>
	<g>
		<g>
			<defs>
				<path id="SVGID_73_" d="M309.338,680.774v8.479c0,0,22.932,1.068,41.581,25.933h-83.163l3.041-34.19L309.338,680.774z"/>
			</defs>
			<use xlink:href="#SVGID_73_"  style="overflow:visible;fill:#26205C;"/>
			<clipPath id="SVGID_1_">
				<use xlink:href="#SVGID_73_"  style="overflow:visible;"/>
			</clipPath>
			
				<rect x="233.5" y="711.041" transform="matrix(-1 -4.490109e-11 4.490109e-11 -1 612.3926 1424.1545)" style="clip-path:url(#SVGID_1_);fill:#FFFFFF;" width="145.393" height="2.072"/>
		</g>
		<g>
			<path style="fill:#FFB7B7;" d="M339.369,324.983l-2.959-2.319c0.194-1.067,0.311-2.161,0.311-3.284
				c0-10.072-8.165-18.236-18.236-18.236c-10.072,0-18.236,8.165-18.236,18.236c0,10.072,8.165,18.236,18.236,18.236
				c7.401,0,13.758-4.417,16.617-10.751C341.403,327.576,339.369,324.983,339.369,324.983z"/>
			<path style="fill:#26205C;" d="M300.165,321.689l6.93-2.454c0,0-4.346-16.759,12.147-7.315c0,0-0.068-6.176,5.652-4.32
				s7.056,5.456,10.465,3.606c0,0,10.376-11.456-0.879-16.875c-11.255-5.419-17.685-9.82-26.826-2.918
				C298.513,298.314,292.41,306.78,300.165,321.689z"/>
		</g>
		<path style="fill:#5A78EC;" d="M283.862,354.248l65.905-7.575c7.619-0.876,14.754,3.884,16.871,11.255L376.68,459.09h-89.417
			l-16.618-85.568C268.28,364.415,274.516,355.323,283.862,354.248z"/>
		<path style="fill:#5A78EC;" d="M272.033,445.318L272.033,445.318c-7.84-1.242-13.19-8.604-11.948-16.445l9.508-60.036
			c1.242-7.84,8.604-13.19,16.445-11.948h0c7.84,1.242,13.19,8.604,11.948,16.445l-9.508,60.036
			C287.236,441.211,279.874,446.56,272.033,445.318z"/>
		<path style="fill:#5A78EC;" d="M392.87,421.091L392.87,421.091c-6.591,4.424-15.52,2.668-19.945-3.923l-32.365-48.213
			c-4.424-6.591-2.668-15.52,3.923-19.945l0,0c6.591-4.424,15.52-2.668,19.945,3.923l32.365,48.213
			C401.217,407.737,399.461,416.667,392.87,421.091z"/>
		<g>
			<path style="fill:#FFB7B7;" d="M477.06,399.612L477.06,399.612c-0.615-4.955-5.173-8.505-10.128-7.89l-8.581,1.066l-5.54,5.54
				c-1.014,1.014-2.674,1.014-3.688,0s-1.014-2.674,0-3.688l0.807-0.807l-9.123,1.133c-4.955,0.615-8.505,5.173-7.89,10.128
				c0.615,4.955,5.173,8.505,10.127,7.89l26.125-3.245C474.124,409.124,477.675,404.566,477.06,399.612z"/>
			<path style="fill:#FFB7B7;" d="M459.802,391.336c1.014-1.014,1.014-2.674,0-3.688c-1.014-1.014-2.674-1.014-3.688,0l-6.185,6.185
				l8.421-1.046L459.802,391.336z"/>
			<path style="fill:#FFB7B7;" d="M449.123,398.328c1.014,1.014,2.674,1.014,3.688,0l5.54-5.54l-8.421,1.046l-0.807,0.807
				C448.108,395.654,448.108,397.314,449.123,398.328z"/>
		</g>
		<path style="fill:#5A78EC;" d="M447.993,390.932l2.3,24.143c0.118,1.234-0.787,2.329-2.021,2.447l-61.69,5.969
			c-7.902,0.753-14.919-5.043-15.672-12.945v0c-0.753-7.902,5.043-14.919,12.945-15.672l61.685-5.969
			C446.777,388.788,447.876,389.695,447.993,390.932z"/>
		<g>
			<defs>
				<polygon id="SVGID_75_" points="287.262,459.09 270.141,674.088 312.05,674.236 333.599,475.776 348.55,674.088 
					400.294,674.088 376.68,459.09 				"/>
			</defs>
			<use xlink:href="#SVGID_75_"  style="overflow:visible;fill:#26205C;"/>
			<clipPath id="SVGID_2_">
				<use xlink:href="#SVGID_75_"  style="overflow:visible;"/>
			</clipPath>
			<polygon style="clip-path:url(#SVGID_2_);fill:#13113D;" points="282.281,482.692 286.724,490.635 316.096,473.16 
				308.153,461.586 387.812,462.721 385.542,459.09 279.036,459.09 			"/>
		</g>
		<path style="fill:#5A78EC;" d="M310.947,474.202l-20.97,12.107c-1.079,0.623-2.46,0.253-3.083-0.826l-25.616-44.368
			c-3.969-6.875-1.614-15.665,5.261-19.634h0c6.875-3.969,15.665-1.614,19.634,5.261l25.606,44.351
			C312.408,472.181,312.035,473.573,310.947,474.202z"/>
		<polygon style="fill:#FFB7B7;" points="271.785,674.088 270.798,680.996 309.338,681.143 309.673,674.236 		"/>
		<g>
			<defs>
				<path id="SVGID_77_" d="M391.359,680.78l1.142,8.472c0,0,22.932,1.068,41.582,25.933h-83.163v-34.172L391.359,680.78z"/>
			</defs>
			<use xlink:href="#SVGID_77_"  style="overflow:visible;fill:#26205C;"/>
			<clipPath id="SVGID_3_">
				<use xlink:href="#SVGID_77_"  style="overflow:visible;"/>
			</clipPath>
			
				<rect x="316.663" y="711.041" transform="matrix(-1 -4.490109e-11 4.490109e-11 -1 778.7186 1424.1545)" style="clip-path:url(#SVGID_3_);fill:#FFFFFF;" width="145.393" height="2.072"/>
		</g>
		<polygon style="fill:#FFB7B7;" points="350.907,674.088 350.919,680.996 391.359,680.78 390.677,674.088 		"/>
		<polygon style="fill:#4C6AC8;" points="293.855,381.02 286.724,427.695 304.85,459.09 308.153,459.09 289.685,425.745 		"/>
		<polygon style="fill:#4C6AC8;" points="344.258,374.464 372.925,417.168 372.925,423.558 		"/>
		
			<line style="fill:none;stroke:#232323;stroke-width:2;stroke-linecap:round;stroke-linejoin:round;stroke-miterlimit:10;" x1="340.56" y1="368.956" x2="369.728" y2="412.406"/>
		<polygon style="fill:#FFB7B7;" points="289.977,486.308 290.897,488.153 303.125,482.956 311.511,476.266 312.971,474.163 
			311.954,472.991 		"/>
		<path style="fill:none;stroke:#FFFFFF;stroke-width:2;stroke-linecap:round;stroke-linejoin:round;stroke-miterlimit:10;" d="
			M314.268,470.496c0,0-0.105,11.176-26.998,18.751l-14.067,178.971"/>
		<path style="fill:none;stroke:#FFFFFF;stroke-width:2;stroke-linecap:round;stroke-linejoin:round;stroke-miterlimit:10;" d="
			M358.591,469.302c0,0,0.582,10.667,14.334,15.206l21.922,183.71"/>
		
			<polyline style="fill:none;stroke:#232323;stroke-width:2;stroke-linecap:round;stroke-linejoin:round;stroke-miterlimit:10;" points="
			293.736,377.388 286.174,426.741 303.561,456.857 		"/>
	</g>
	<g>
		<defs>
			<path id="XMLID_126_" d="M738.858,472.991c0,0,9.221-36.454,40.547-55.868c0,0,23.495,3.396,16.674,55.868
				c0,0,7.39-46.812,46.042-37.907c0,0-14.4,15.537-15.347,39.411c0,0,36.379,10.042,26.905,44.147c0,0,18.568-16.295,34.105-18.947
				c0,0-15.916,31.074-9.853,47.368c0,0,17.621-12.884,39.789-4.926c0,0-25.389,25.389-20.084,43.579
				c0,0,26.905-11.368,43.958-2.653c0,0-18.947,12.884-30.316,45.095c0,0,12.884,3.032,25.768,29.937c0,0-9.016,6.108-28.042,5.684
				c0,0,33.863,13.713,28.11,49.677H722.185L738.858,472.991z"/>
		</defs>
		<use xlink:href="#XMLID_126_"  style="overflow:visible;fill:#ADCD55;"/>
		<clipPath id="XMLID_4_">
			<use xlink:href="#XMLID_126_"  style="overflow:visible;"/>
		</clipPath>
		<path style="opacity:0.64;clip-path:url(#XMLID_4_);fill:#6F8037;" d="M708.669,456.857h91.301c1.177,0,2.502,0.136,3.858,0.406
			c5.759,1.149,9.916,6.204,10.254,12.067c0.214,3.715,0.439,8.335,0.439,11.367v141.776v3.789h42.189
			c0,0,48.884,20.084,57.979,91.326H728.248L708.669,456.857z"/>
	</g>
	<g>
		<g>
			<defs>
				<path id="SVGID_79_" d="M496.332,461.295c-5.651,0-10.232,4.581-10.232,10.232v209.616c0,0-0.083,34.043,13.9,32.313h304.416
					v-241.93c0-5.651-4.581-10.232-10.232-10.232H496.332z"/>
			</defs>
			<use xlink:href="#SVGID_79_"  style="overflow:visible;fill:#5A78EC;"/>
			<clipPath id="SVGID_4_">
				<use xlink:href="#SVGID_79_"  style="overflow:visible;"/>
			</clipPath>
			<rect x="446.311" y="619.538" style="clip-path:url(#SVGID_4_);fill:#4D6BCE;" width="387.284" height="156.884"/>
		</g>
		<path style="fill:#5A78EC;" d="M906.732,713.456c0,0-4.547-53.846-50.779-81.888H570.984c0,0,54.568,4.618,68.968,81.888H906.732z
			"/>
		<path style="fill:#3A59AF;" d="M515.153,713.456c0,0,19.603,2.169,24.729-43.239c4.577-40.543,39.629-38.649,39.629-38.649
			s55.137-2.274,60.442,81.888H515.153z"/>
		<path style="fill:#FFFFFF;" d="M747.865,512.831H519.409c-2.351,0-4.256-1.906-4.256-4.256v-11.833
			c0-2.351,1.906-4.256,4.256-4.256h228.456c2.351,0,4.256,1.906,4.256,4.256v11.833
			C752.121,510.926,750.216,512.831,747.865,512.831z"/>
		<path style="fill:#FFFFFF;" d="M681.928,544.505H519.409c-2.351,0-4.256-1.906-4.256-4.256v-11.833
			c0-2.351,1.906-4.256,4.256-4.256h162.519c2.351,0,4.256,1.906,4.256,4.256v11.833C686.185,542.6,684.279,544.505,681.928,544.505
			z"/>
		<path style="fill:#FFFFFF;" d="M614.936,560.039h-98.009c-0.98,0-1.775-0.794-1.775-1.775v-0.656c0-0.98,0.794-1.775,1.775-1.775
			h98.009c0.98,0,1.775,0.795,1.775,1.775v0.656C616.711,559.245,615.916,560.039,614.936,560.039z"/>
		<path style="fill:#FFFFFF;" d="M745.041,646.726h-98.009c-0.98,0-1.775-0.795-1.775-1.775v-0.656c0-0.98,0.795-1.775,1.775-1.775
			h98.009c0.98,0,1.775,0.794,1.775,1.775v0.656C746.816,645.932,746.022,646.726,745.041,646.726z"/>
		<path style="fill:#FFFFFF;" d="M799.105,657.337H652.338c-0.98,0-1.775-0.795-1.775-1.775v-0.656c0-0.98,0.794-1.775,1.775-1.775
			h146.767c0.98,0,1.775,0.794,1.775,1.775v0.656C800.879,656.542,800.085,657.337,799.105,657.337z"/>
		<path style="fill:#FFFFFF;" d="M778.105,670.32H659.412c-0.98,0-1.775-0.795-1.775-1.775v-0.656c0-0.98,0.794-1.775,1.775-1.775
			h118.693c0.98,0,1.775,0.795,1.775,1.775v0.656C779.879,669.526,779.085,670.32,778.105,670.32z"/>
		<path style="fill:#FFFFFF;" d="M548.747,571.459h-31.819c-0.98,0-1.775-0.794-1.775-1.775v-0.656c0-0.98,0.794-1.775,1.775-1.775
			h31.819c0.98,0,1.775,0.795,1.775,1.775v0.656C550.521,570.665,549.727,571.459,548.747,571.459z"/>
		<path style="fill:#FFFFFF;" d="M665.084,571.459H561.77c-0.98,0-1.775-0.794-1.775-1.775v-0.656c0-0.98,0.794-1.775,1.775-1.775
			h103.314c0.98,0,1.775,0.795,1.775,1.775v0.656C666.858,570.665,666.064,571.459,665.084,571.459z"/>
		<path style="fill:#FFFFFF;" d="M583.231,582.879h-66.303c-0.98,0-1.775-0.794-1.775-1.775v-0.656c0-0.98,0.794-1.775,1.775-1.775
			h66.303c0.98,0,1.775,0.795,1.775,1.775v0.656C585.006,582.085,584.211,582.879,583.231,582.879z"/>
		<path style="fill:#FFFFFF;" d="M610.515,582.879h-12.619c-0.98,0-1.775-0.794-1.775-1.775v-0.656c0-0.98,0.795-1.775,1.775-1.775
			h12.619c0.98,0,1.775,0.795,1.775,1.775v0.656C612.29,582.085,611.495,582.879,610.515,582.879z"/>
		<path style="fill:#FFFFFF;" d="M524.241,594.299h-7.314c-0.98,0-1.775-0.794-1.775-1.775v-0.656c0-0.98,0.794-1.775,1.775-1.775
			h7.314c0.98,0,1.775,0.795,1.775,1.775v0.656C526.016,593.505,525.222,594.299,524.241,594.299z"/>
		<path style="fill:#FFFFFF;" d="M574.641,594.299h-40.03c-0.98,0-1.775-0.794-1.775-1.775v-0.656c0-0.98,0.794-1.775,1.775-1.775
			h40.03c0.98,0,1.775,0.795,1.775,1.775v0.656C576.416,593.505,575.622,594.299,574.641,594.299z"/>
		<path style="fill:#FFFFFF;" d="M849.015,660.965l2.503,5.442c0.237,0.516,0.697,0.874,1.228,0.957l5.598,0.873
			c1.338,0.209,1.872,1.972,0.904,2.984l-4.051,4.236c-0.384,0.402-0.56,0.981-0.469,1.549l0.956,5.982
			c0.229,1.429-1.17,2.519-2.366,1.844l-5.007-2.824c-0.475-0.268-1.043-0.268-1.518,0l-5.007,2.824
			c-1.196,0.675-2.595-0.415-2.366-1.844l0.956-5.982c0.091-0.568-0.085-1.147-0.469-1.549l-4.051-4.236
			c-0.968-1.012-0.434-2.776,0.904-2.984l5.598-0.873c0.531-0.083,0.99-0.441,1.228-0.957l2.503-5.442
			C846.689,659.664,848.417,659.664,849.015,660.965z"/>
		<path style="fill:#232323;" d="M500,675.089c-0.553,0-1-0.447-1-1V465.082c0-6.54,5.321-11.861,11.861-11.861h294.944
			c6.472,0,11.737,5.266,11.737,11.737v162.063c0,0.553-0.447,1-1,1s-1-0.447-1-1V464.958c0-5.369-4.368-9.737-9.737-9.737H510.861
			c-5.438,0-9.861,4.424-9.861,9.861v209.007C501,674.642,500.552,675.089,500,675.089z"/>
	</g>
	<g>
		<g>
			<defs>
				<path id="XMLID_114_" d="M884.336,361.834H658.271l53.666-36.455v-94.317c0-4.625,3.75-8.375,8.375-8.375h164.024
					c4.625,0,8.375,3.75,8.375,8.375v122.398C892.711,358.085,888.961,361.834,884.336,361.834z"/>
			</defs>
			<use xlink:href="#XMLID_114_"  style="overflow:visible;fill:#FF6666;"/>
			<clipPath id="XMLID_5_">
				<use xlink:href="#XMLID_114_"  style="overflow:visible;"/>
			</clipPath>
			<rect x="666.479" y="183.653" style="clip-path:url(#XMLID_5_);fill:#FFFFFF;" width="253.895" height="65.179"/>
		</g>
		<circle style="fill:#F06361;" cx="830.312" cy="236.453" r="5.522"/>
		<circle style="fill:#F8BB3F;" cx="850.612" cy="236.453" r="5.522"/>
		<circle style="fill:#2FC843;" cx="870.911" cy="236.453" r="5.522"/>
		<path style="fill:#FFFFFF;" d="M811.184,303.546h44.949c0,24.658-20.291,44.949-44.949,44.949
			c-24.658,0-44.949-20.291-44.949-44.949s20.291-44.949,44.949-44.949c0.016,0,0.032,0,0.048,0L811.184,303.546z"/>
		<path style="fill:#FFFFFF;" d="M813.586,301.248l-0.07-44.949c0.023,0,0.047,0,0.07,0c24.658,0,44.949,20.291,44.949,44.949
			H813.586z"/>
		<rect x="728.248" y="259.826" style="fill:#FFFFFF;" width="23.93" height="23.93"/>
		<rect x="728.248" y="293.191" style="fill:#FFFFFF;" width="23.93" height="23.93"/>
		<path style="fill:#FFFFFF;" d="M767.417,330.787h-38.171c-0.549,0-0.999-0.449-0.999-0.999l0,0c0-0.549,0.449-0.999,0.999-0.999
			h38.171c0.549,0,0.999,0.449,0.999,0.999l0,0C768.416,330.338,767.967,330.787,767.417,330.787z"/>
		<path style="fill:#FFFFFF;" d="M767.417,337.356h-38.171c-0.549,0-0.999-0.449-0.999-0.999l0,0c0-0.549,0.449-0.999,0.999-0.999
			h38.171c0.549,0,0.999,0.449,0.999,0.999l0,0C768.416,336.906,767.967,337.356,767.417,337.356z"/>
		<path style="fill:#FFFFFF;" d="M746.765,343.924h-17.518c-0.549,0-0.999-0.449-0.999-0.999l0,0c0-0.549,0.449-0.999,0.999-0.999
			h17.518c0.549,0,0.999,0.449,0.999,0.999l0,0C747.763,343.474,747.314,343.924,746.765,343.924z"/>
		<path style="fill:#232323;" d="M888.164,355.493H734.743c-7.865,0-14.264-6.398-14.264-14.263V231.187
			c0-7.865,6.398-14.264,14.264-14.264h153.421c7.864,0,14.263,6.398,14.263,14.264V341.23
			C902.427,349.095,896.028,355.493,888.164,355.493z M734.743,218.923c-6.763,0-12.264,5.501-12.264,12.264V341.23
			c0,6.762,5.501,12.263,12.264,12.263h153.421c6.762,0,12.263-5.501,12.263-12.263V231.187c0-6.763-5.501-12.264-12.263-12.264
			H734.743z"/>
	</g>
	<path style="fill:#FFFFFF;" d="M381.958,315.024l-1.561,1.765c-0.848,0.959-2.327,1.049-3.285,0.201l-14.468-12.798
		c-0.959-0.848-1.049-2.327-0.201-3.285l1.561-1.765c0.848-0.959,2.327-1.049,3.285-0.201l14.468,12.798
		C382.715,312.587,382.806,314.065,381.958,315.024z"/>
	<path style="fill:#FFFFFF;" d="M405.949,284.443l1.736,1.593c0.943,0.865,1.007,2.345,0.141,3.289l-26.257,28.618
		c-0.865,0.943-2.345,1.007-3.289,0.141l-1.736-1.593c-0.943-0.865-1.007-2.345-0.141-3.289l26.257-28.618
		C403.525,283.641,405.005,283.578,405.949,284.443z"/>
	<path style="fill:#232323;" d="M214.42,351.538h-29.962c-0.553,0-1-0.447-1-1v-33.749c0-0.553,0.447-1,1-1s1,0.447,1,1v32.749
		h28.962c0.553,0,1,0.447,1,1S214.972,351.538,214.42,351.538z"/>
	<path style="fill:#5A6C1C;" d="M851.028,608.694c-0.042,0-0.084-0.003-0.127-0.008c-0.548-0.069-0.936-0.57-0.866-1.118
		c3.026-23.834,23.905-55.191,24.793-56.515c0.307-0.459,0.929-0.583,1.387-0.273c0.459,0.307,0.581,0.929,0.274,1.387
		c-0.215,0.32-21.504,32.292-24.47,55.653C851.955,608.325,851.524,608.694,851.028,608.694z"/>
	<path style="fill:#5A6C1C;" d="M829.047,606.716c-0.521,0-0.96-0.403-0.997-0.932c-2.642-38.31,21.852-83.756,22.1-84.21
		c0.264-0.484,0.87-0.665,1.356-0.399c0.485,0.264,0.664,0.871,0.399,1.356c-0.245,0.449-24.461,45.394-21.859,83.116
		c0.037,0.551-0.378,1.028-0.93,1.066C829.093,606.715,829.07,606.716,829.047,606.716z"/>
	<path style="fill:#5A6C1C;" d="M863.342,622.337c-0.186,0-0.373-0.052-0.541-0.159c-0.464-0.3-0.598-0.919-0.299-1.383
		c16.862-26.145,32.28-31.438,32.929-31.651c0.522-0.173,1.087,0.113,1.261,0.637c0.173,0.524-0.112,1.089-0.636,1.263
		c-0.152,0.051-15.442,5.36-31.872,30.836C863.992,622.176,863.67,622.337,863.342,622.337z"/>
	<path style="fill:#FFD840;" d="M211.212,402.353h-24.547c-1.764,0-3.207-1.443-3.207-3.207l0,0c0-1.764,1.443-3.207,3.207-3.207
		h24.547c1.764,0,3.207,1.443,3.207,3.207l0,0C214.42,400.909,212.977,402.353,211.212,402.353z"/>
	<path style="fill:#FFD840;" d="M211.212,429.972h-24.547c-1.764,0-3.207-1.443-3.207-3.207l0,0c0-1.764,1.443-3.207,3.207-3.207
		h24.547c1.764,0,3.207,1.443,3.207,3.207l0,0C214.42,428.529,212.977,429.972,211.212,429.972z"/>
	<path style="fill:#FFD840;" d="M187.819,416.26h-33.066c-1.764,0-3.207-1.443-3.207-3.207l0,0c0-1.764,1.443-3.207,3.207-3.207
		h33.066c1.764,0,3.207,1.443,3.207,3.207l0,0C191.027,414.817,189.583,416.26,187.819,416.26z"/>
	<path style="fill:#FFD840;" d="M242.135,416.26h-33.066c-1.764,0-3.207-1.443-3.207-3.207l0,0c0-1.764,1.443-3.207,3.207-3.207
		h33.066c1.764,0,3.207,1.443,3.207,3.207l0,0C245.342,414.817,243.899,416.26,242.135,416.26z"/>
</g>
</svg>
