<svg viewBox="0 0 400 300" fill="none" xmlns="http://www.w3.org/2000/svg"><path opacity=".46" d="M323 191.685c-10.465-4.09-7.75-35.37 2.605-48.53 26.25-33.335 12-71.13-16.405-74.665C265.335 63.035 227 85.5 176 108.225c-17.86 7.96-33.5 3.795-68.935 8-69.405 8.275-56.71 80.365-2.93 101.94 41.5 16.65 20.63 18.72 28.165 29.575 14 0 27.97-.07 41.95.27a.54.54 0 0 1 .555-.475c6.13 0 12.255.34 18.38.445a.57.57 0 0 1 .29-.683.575.575 0 0 1 .26-.062h97.915c23.065-12.2 51.095-2.235 64.7-10.735 22.02-13.825-.805-32.085-33.35-44.815Z" fill="#C2D3F9"/><path opacity=".68" d="M174.625 122.395h-66.62a8.92 8.92 0 0 0-8.92 8.92V228.4a8.92 8.92 0 0 0 8.92 8.92h66.62a8.92 8.92 0 0 0 8.92-8.92v-97.085a8.92 8.92 0 0 0-8.92-8.92Z" fill="#A1BEF7"/><path d="M323.34 91.795H209.61a7.645 7.645 0 0 0-7.645 7.645v76.24a7.645 7.645 0 0 0 7.645 7.645h113.73a7.645 7.645 0 0 0 7.645-7.645V99.44a7.645 7.645 0 0 0-7.645-7.645Z" fill="#A1BEF7" style="mix-blend-mode:multiply" opacity=".87"/><path d="M181.705 117.8h-64.91a9.774 9.774 0 0 0-9.775 9.775v67.175a9.774 9.774 0 0 0 9.775 9.775h64.91c5.398 0 9.775-4.376 9.775-9.775v-67.175c0-5.399-4.377-9.775-9.775-9.775Z" fill="#EAF4FE" stroke="#231815" stroke-width=".555" stroke-miterlimit="10"/><path d="M315.095 84.485h-112.02a7.05 7.05 0 0 0-7.05 7.05v77.43a7.05 7.05 0 0 0 7.05 7.05h112.02a7.05 7.05 0 0 0 7.05-7.05v-77.43a7.05 7.05 0 0 0-7.05-7.05Z" fill="#F5F8FE" stroke="#231815" stroke-width=".31" stroke-miterlimit="10"/><path d="M306.395 107.565H274.03a4.15 4.15 0 0 0-4.15 4.15v42.08a4.15 4.15 0 0 0 4.15 4.15h32.365a4.15 4.15 0 0 0 4.15-4.15v-42.08a4.15 4.15 0 0 0-4.15-4.15Z" fill="#8CACE2" style="mix-blend-mode:multiply" opacity=".38"/><path d="M253.565 126.245H212.71a4.31 4.31 0 0 0-4.31 4.31v19.62a4.31 4.31 0 0 0 4.31 4.31h40.855a4.31 4.31 0 0 0 4.31-4.31v-19.62a4.31 4.31 0 0 0-4.31-4.31Z" fill="#fff" stroke="#231815" stroke-width=".31" stroke-miterlimit="10"/><path d="M200.08 94.62h116.585" stroke="#231815" stroke-width=".275" stroke-miterlimit="10"/><path d="M30.985 246.95h355.84" stroke="#000" stroke-width=".555" stroke-miterlimit="10"/><path d="M89.87 104.33h-6.44v6.44h6.44v-6.44ZM83.465 104.365l6.285 6.285M83.44 110.715l6.4-6.325M119.85 104.395H97.805a3.514 3.514 0 0 0-3.515 3.513 3.514 3.514 0 0 0 3.515 3.512h22.045a3.514 3.514 0 0 0 3.515-3.512 3.514 3.514 0 0 0-3.515-3.513Z" stroke="#231815" stroke-width=".275" stroke-miterlimit="10"/><path d="m247.32 199.91-15.435-.38 3.4-10.835s-2.895-2.86-3.385-5.785c-.49-2.925.525-16 .525-16s-.43-4.765 1.5-5.885 5.16-1.185 5.5 3.42c.34 4.605 0 4.57 0 4.57l2.205-3.55 9.105-16s1.845-2.895 4.475-1.71 1.315 4.5.295 6.74-3.155 6.38-3.155 6.38 2.96-3.09 5.36-1c2.4 2.09.065 5.265.065 5.265s2.565-1.5 4.37.395c1.805 1.895-1.28 6.375-1.28 6.375l-5.675 8.74s-.34 5.91-5.14 9.625l-2.73 9.635Z" fill="#F9D3DC"/><path d="m231.76 199.66 4.035-11.705M247.21 200.245c.63-1.1 3.3-10.745 3.3-10.745" stroke="#231815" stroke-width=".415" stroke-miterlimit="10"/><path d="M244.5 191.385s9.6.32 11.04-11.075c0 0 6.08-9.265 6.75-10.74.67-1.475 1.44-4.17-.915-5.04a3.28 3.28 0 0 0-3.7.805s1.205-1.53 1.405-2.41c.2-.88.655-2.5-1.63-3.73s-4.94 1.1-5.81 3.46c0 0 2.38-5.1 3.09-6.385 2.74-5 2.745-7.285 1-8.63-2.69-2.095-4.89 1.5-7 5.29-.6 1.095-9.04 16.205-9.04 16.205" stroke="#231815" stroke-width=".415" stroke-miterlimit="10"/><path d="M236.925 189.16s-5.195-2.975-4.965-10.155c.23-7.18 1.025-13.205.955-15.04-.07-1.835 1.1-4.19 3.63-4 2.53.19 4.28 3.545 2.57 12.55" stroke="#231815" stroke-width=".415" stroke-miterlimit="10"/><path d="M237.78 182.805s4.29-2.795 3-7.685M251.63 162.655l-4.27 7.775M257.665 165.335l-4.245 7.045" stroke="#231815" stroke-width=".415" stroke-miterlimit="10"/><path d="M324.25 197.23c10.35 0 18.74-8.39 18.74-18.74 0-10.35-8.39-18.74-18.74-18.74-10.35 0-18.74 8.39-18.74 18.74 0 10.35 8.39 18.74 18.74 18.74Z" fill="#fff" stroke="#231815" stroke-width=".41" stroke-miterlimit="10"/><path d="M324.25 189.71c6.196 0 11.22-5.023 11.22-11.22 0-6.197-5.024-11.22-11.22-11.22-6.197 0-11.22 5.023-11.22 11.22 0 6.197 5.023 11.22 11.22 11.22Z" fill="#F66" stroke="#231815" stroke-width=".41" stroke-miterlimit="10"/><path d="M254.89 105.365h-44.915a2.188 2.188 0 1 0 0 4.375h44.915a2.189 2.189 0 1 0 0-4.375Z" fill="#49E5DB" stroke="#231815" stroke-width=".31" stroke-miterlimit="10"/><path d="M254.89 114.06h-44.915a2.188 2.188 0 1 0 0 4.375h44.915a2.189 2.189 0 1 0 0-4.375Z" fill="#2F54EB" stroke="#231815" stroke-width=".31" stroke-miterlimit="10"/><path d="M227.85 134.29h-13.005a2.03 2.03 0 0 0-2.03 2.03v10.995a2.03 2.03 0 0 0 2.03 2.03h13.005a2.03 2.03 0 0 0 2.03-2.03V136.32a2.03 2.03 0 0 0-2.03-2.03Z" fill="#2F54EB" stroke="#231815" stroke-width=".415" stroke-miterlimit="10"/><path d="M235.295 134.895h19.675M235.295 138.91h8.835M235.295 143.125h19.675M235.295 146.735h16.06M214.47 149.18l3.26-4.73 4.305 1.945 7.77-6.665" stroke="#000" stroke-width=".465" stroke-miterlimit="10"/><path d="M221.265 141.3a1.975 1.975 0 1 0 0-3.95 1.975 1.975 0 0 0 0 3.95Z" fill="#fff" stroke="#000" stroke-width=".465" stroke-miterlimit="10"/><path d="M302.975 103.88H270.61a4.15 4.15 0 0 0-4.15 4.15v42.08a4.15 4.15 0 0 0 4.15 4.15h32.365a4.15 4.15 0 0 0 4.15-4.15v-42.08a4.15 4.15 0 0 0-4.15-4.15Z" fill="#49E5DB" stroke="#231815" stroke-width=".31" stroke-miterlimit="10"/><path d="M269.845 115.24h34.33" stroke="#231815" stroke-width=".275" stroke-miterlimit="10"/><path d="M274.23 112.38a2.89 2.89 0 1 0 0-5.78 2.89 2.89 0 0 0 0 5.78Z" stroke="#231815" stroke-width=".31" stroke-miterlimit="10"/><path d="M283.03 112.38a2.89 2.89 0 1 0 0-5.78 2.89 2.89 0 0 0 0 5.78Z" fill="#49E5DB" stroke="#231815" stroke-width=".31" stroke-miterlimit="10"/><path d="M291.835 112.38a2.89 2.89 0 1 0 0-5.78 2.89 2.89 0 0 0 0 5.78Z" fill="#fff" stroke="#231815" stroke-width=".31" stroke-miterlimit="10"/><path d="M301.935 119.52H271.93a1.83 1.83 0 1 0 0 3.66h30.005a1.83 1.83 0 1 0 0-3.66Z" fill="#F5F8FE" stroke="#231815" stroke-width=".31" stroke-miterlimit="10"/><path d="M283.28 125.72h-11.35a1.83 1.83 0 1 0 0 3.66h11.35a1.83 1.83 0 1 0 0-3.66Z" fill="#F5F8FE" stroke="#231815" stroke-width=".29" stroke-miterlimit="10"/><path d="M324.22 184.145v-9.795" stroke="#231815" stroke-width=".41" stroke-miterlimit="10"/><path d="M326.19 177.16a.209.209 0 0 1-.285-.065l-1.685-2.65-1.69 2.65a.206.206 0 0 1-.381-.061.193.193 0 0 1 .002-.083.194.194 0 0 1 .034-.076l1.86-2.92a.204.204 0 0 1 .074-.072.208.208 0 0 1 .101-.023.199.199 0 0 1 .17.095l1.86 2.92a.18.18 0 0 1 .035.11.212.212 0 0 1-.095.175Z" fill="#231815"/><path d="M322.21 94.575H196.045V93.45c0-7.335 3.315-8.855 8.465-8.855h111.115a6.5 6.5 0 0 1 6.5 6.345l.085 3.635Z" fill="#2F54EB" stroke="#231815" stroke-width=".31" stroke-miterlimit="10"/><path d="M205.18 92.855a2.89 2.89 0 1 0 0-5.78 2.89 2.89 0 0 0 0 5.78Z" fill="#F66"/><path d="M213.98 92.855a2.89 2.89 0 1 0 0-5.78 2.89 2.89 0 0 0 0 5.78Z" fill="#F5F8FE" stroke="#231815" stroke-width=".31" stroke-miterlimit="10"/><path d="M222.785 92.855a2.89 2.89 0 1 0 0-5.78 2.89 2.89 0 0 0 0 5.78Z" fill="#F8DC29"/><path d="M172.275 125.085s6.825 13.59-2.2 20.625c-7.04 5.5-16.725-1.59-16.725-1.59l-2.785-4-10.685-3.595 4.78-14.435 18.805-5 8.81 7.995Z" fill="#F9D3DC" stroke="#231815" stroke-width=".415" stroke-miterlimit="10"/><path d="m86.09 144.06 16.605 28.73a9.963 9.963 0 0 1 2.491-4.592 9.963 9.963 0 0 1 4.474-2.698c6-1.815 8.27.68 12.345-6.57 4.075-7.25 5.17-9.04 13.18-10.07 8.01-1.03 9.25-5.225 9.25-5.225s6.92 5.085 8.575.065c0 0-.415-3.68-2.725-4.885-2.31-1.205-3.925-3.14-4.455-5-.395-1.385.095-4.525 3.535-4.275s5.25 3.185 5.25 3.185S163.28 131 166 119.93c0 0 3.56 4.835 6.255 5.155l1.21 2.84a10.91 10.91 0 0 0 1.145-2.975c.5-2 2.11-4.96-1.31-9.865s-12.315-9.9-25.025-6.85c-5.06 1.215-7.385 6.58-9 7.895-1.615 1.315-3.645 4.655-10.73 5.365-7.085.71-9.115 6.67-10.43 9-1.315 2.33-3.13 8.5-13.05 8.81-9.92.31-10.615-2.125-18.975 4.755Z" fill="#010001"/><path d="M156.46 145.85v16.74s8.555 6.37 15.105 0l.035-18.305s-6.405 7.215-15.14 1.565Z" fill="#F9D3DC" stroke="#231815" stroke-width=".415" stroke-miterlimit="10"/><path d="M152.73 158.335s-21.12 5.28-25.23 6.665c-4.11 1.385-10.79 3.215-15.385 19.055-4.595 15.84-13.315 47.5-13.315 47.5s-2.3 23.205 21.105 17.945l9.18-2.07h74.38L217 201.5l2.755-1.835-9.63-29.165s-.23-5.28-12.395-7.805a219.9 219.9 0 0 0-22.5-3.445s-9.87 4.14-22.5-.915Z" fill="#2F54EB" stroke="#231815" stroke-width=".415" stroke-miterlimit="10"/><path d="m139.415 182.44-3.215 37.195" stroke="#fff" stroke-width=".415" stroke-miterlimit="10"/><path d="m120.36 221.24 45.23-4.13 2.1 24.69-38.605 5.61" fill="#2F54EB"/><path d="m120.36 221.24 45.23-4.13 2.1 24.69-38.605 5.61" stroke="#231815" stroke-width=".415" stroke-miterlimit="10"/><path d="M193.595 181.985 207.6 232.03" stroke="#fff" stroke-width=".415" stroke-miterlimit="10"/><path d="m286.895 203.7-11.46 40.8a3.269 3.269 0 0 1-3.115 2.38l-64.41.5a3.26 3.26 0 0 1-2.641-1.307 3.254 3.254 0 0 1-.504-2.903l12.6-41.33a3.27 3.27 0 0 1 1.177-1.668 3.275 3.275 0 0 1 1.938-.642l63.315-.115a3.262 3.262 0 0 1 3.1 4.29v-.005Z" fill="#49E5DB" stroke="#231815" stroke-width=".415" stroke-miterlimit="10"/><path d="M247.07 231.75a7.33 7.33 0 1 0 0-14.66 7.33 7.33 0 0 0 0 14.66Z" fill="#fff" stroke="#231815" stroke-width=".555" stroke-miterlimit="10"/><path d="m160.5 147.35 11.12 5.56v-8.65s-3.865 4.705-11.12 3.09Z" fill="#231815"/><path d="m172.19 218.365 14.78-1 6.315-7.365c1.215-1.42 3.5-2.57 5.41-.95 1.91 1.62 1.235 3.35-.71 5.625l-1.78 2.085s1.77-1.11 5.845 2.37c4.075 3.48 5.32 7 1.76 11.18L195 240.63c-1.38 1.61-4.555 4-10.335-.96l-16.94 1.595-1.83-22.5 6.295-.4Z" fill="#F9D3DC" stroke="#231815" stroke-width=".415" stroke-miterlimit="10"/><path d="m197.56 225.21 5.97 5.185M193.475 229.77l5.975 5.445M189.345 234.335l6.34 5.685" stroke="#231815" stroke-width=".535" stroke-miterlimit="10"/><path d="m165.875 218.765 8.245 21.805-6.415.695-1.83-22.5Z" fill="#231815"/><path opacity=".46" d="M42.885 210.37s3.365 20.955 15.15 26.585c11.785 5.63 25.19 3.86 11-15.23-14.19-19.09-25.45-23.225-26.15-11.355Z" fill="#C2D3F9"/><path d="M304.475 212.165H281.61a6.265 6.265 0 0 0-6.265 6.265v13a6.265 6.265 0 0 0 6.265 6.265h22.865a6.265 6.265 0 0 0 6.265-6.265v-13a6.265 6.265 0 0 0-6.265-6.265Z" fill="#fff" stroke="#231815" stroke-width=".41" stroke-miterlimit="10"/><path d="M289.57 231.125h7.545c.785 0 3.775-.55 3.775-3.93s-3-3.93-4.64-3.3c0 0-.55-4.64-5.5-4.64s-6.055 4.405-5.895 6.135c.16 1.73 1.415 5.265 4.715 5.735Z" fill="#2F54EB" stroke="#231815" stroke-width=".415" stroke-miterlimit="10"/><path d="M163.935 132.78c.583 0 1.055-.916 1.055-2.045s-.472-2.045-1.055-2.045-1.055.916-1.055 2.045.472 2.045 1.055 2.045ZM171.642 131.888c.527-.079.836-.925.691-1.889-.145-.964-.69-1.681-1.217-1.602-.527.08-.837.925-.691 1.889.145.964.69 1.681 1.217 1.602Z" fill="#000"/><path d="m168.345 130.355 5.02 7.775-5.33.925M167.795 143.15s-5.055-.47-6.115-3" stroke="#000" stroke-width=".5" stroke-miterlimit="10"/></svg>