<?xml version="1.0" encoding="utf-8"?>
<!-- Generator: Adobe Illustrator 24.2.0, SVG Export Plug-In . SVG Version: 6.00 Build 0)  -->
<svg version="1.1" id="图层_1" xmlns="http://www.w3.org/2000/svg" xmlns:xlink="http://www.w3.org/1999/xlink" x="0px" y="0px"
	 viewBox="0 0 700 700" style="enable-background:new 0 0 700 700;" xml:space="preserve">
<style type="text/css">
	.st0{fill:#E5E6EB;}
	.st1{fill:#FFFFFF;}
	.st2{fill:#155BCD;}
	.st3{fill:#050F64;}
	.st4{fill:#FFBD00;}
	.st5{fill:#84A9FF;}
	.st6{fill:#FF654F;}
	.st7{fill:#FEBD1D;}
	.st8{fill:#FFD45B;}
	.st9{fill:#D6A02F;}
	.st10{fill:#E4A218;}
	.st11{opacity:0.1;}
	.st12{fill:#0C9197;}
	.st13{fill:#F9E288;}
	.st14{opacity:0.2;}
	.st15{fill:#F5BDC8;}
	.st16{fill:#EA8096;}
	.st17{opacity:0;}
	.st18{fill:#DA5544;}
	.st19{opacity:0.3;}
	.st20{clip-path:url(#SVGID_2_);}
	.st21{opacity:0.5;}
</style>
<g>
	<g>
		<g>
			<path class="st0" d="M632,372.1c-11.1-40.1,13.1-63.4,29.4-96.1c21.9-44,17.3-100-16.4-136.5c-40-43.4-96.4-41.3-148.3-23.3
				c-38.7,13.4-75,35.3-115.8,41.8c-20.9,3.3-40.5,0.9-61.1-3.2c-24.6-4.9-49.5-6.6-74.3-10.2c-23.9-3.5-45.4-7.5-69.6-4
				c-43.5,6.2-82.5,28.8-110.3,62.7c-29.1,35.4-24.5,70.8-9.5,110.4c8,21.1,14.4,45,5.6,65.7c-5.6,13.1-16.5,23.1-24.2,35.2
				c-19.7,31-14.6,73.3,5.2,104.2c19.8,30.9,51.8,52.1,85.1,67.5l12.2-12.5c0.6,0.1,1.3,0.2,1.9,0.3
				c153.8,25.5,312.7,24.7,466.2-2.3l-29.8,0.3c27.3-2.8,53.4-15.6,70.8-35.4c29.5-33.7,28.8-77.9,7.4-115.2
				C647.6,405.4,637,389.9,632,372.1z"/>
		</g>
		<g>
			<path class="st1" d="M368.3,592.8c-75.9,0-152-6.2-226.2-18.5c-0.6-0.1-1.2-0.2-1.8-0.3L128,586.5l-0.1-0.1
				c-40.2-18.6-68-40.7-85.2-67.6c-10-15.6-16.2-34.1-17.4-52.2c-1.4-19.4,2.9-37.5,12.2-52.2c3-4.7,6.5-9.1,9.8-13.3
				c5.4-6.8,10.9-13.8,14.3-21.8c8.9-21.1,2.2-45-5.6-65.6c-8.7-23-12.4-40.6-11.8-56.9c0.7-19.5,7.6-37.1,21.3-53.8
				c28.2-34.3,67.4-56.6,110.4-62.8c21.8-3.1,41.6-0.2,62.5,2.9c2.4,0.4,4.7,0.7,7.1,1.1c9.1,1.3,18.5,2.4,27.5,3.5
				c15.4,1.8,31.3,3.7,46.8,6.8c18.6,3.7,38.9,6.7,61,3.2c26.3-4.1,51.2-14.9,75.2-25.4c13.2-5.7,26.8-11.7,40.6-16.4
				c28.8-10,55.3-13.8,78.7-11.4c27.7,2.9,51.2,14.5,69.8,34.7c16.3,17.7,26.4,40.3,29.1,65.6c2.6,24.2-1.9,49.5-12.7,71.2
				c-3.7,7.5-7.9,14.5-11.9,21.3c-13.4,22.5-26,43.8-17.4,74.7c3.9,14.2,11.6,27.1,19.1,39.7c1.9,3.1,3.8,6.4,5.6,9.6
				c10.9,19,16.2,39.4,15.4,59c-0.9,20.8-8.8,40.3-22.8,56.3c-16.5,18.8-40.9,31.5-67.4,35.1l26.2-0.3l0,0.4
				c-76.4,13.5-154.8,20.5-233,20.9C373,592.8,370.7,592.8,368.3,592.8z M140.1,573.5l0.1,0c0.6,0.1,1.3,0.2,1.9,0.3
				c154,25.5,310,24.9,463.8-1.9l-27.4,0.3l0-0.4c27.7-2.9,53.5-15.7,70.7-35.3c27.7-31.6,30.5-74.6,7.4-114.9
				c-1.8-3.2-3.8-6.5-5.6-9.6c-7.5-12.6-15.2-25.5-19.1-39.8c-8.6-31,4.1-52.4,17.5-75c4-6.8,8.2-13.8,11.9-21.3
				c22.6-45.3,15.9-101.4-16.3-136.3c-43.1-46.7-104.3-38.4-148.1-23.2c-13.7,4.7-27.3,10.7-40.5,16.4c-24,10.4-48.9,21.2-75.3,25.4
				c-22.2,3.5-42.5,0.5-61.1-3.2c-15.5-3.1-31.4-5-46.8-6.8c-9-1.1-18.3-2.1-27.5-3.5c-2.4-0.3-4.8-0.7-7.1-1.1
				c-20.9-3.1-40.7-6.1-62.4-2.9c-42.9,6.2-82.1,28.4-110.2,62.6c-30.8,37.5-22.7,75.1-9.5,110.2c7.8,20.7,14.6,44.7,5.6,65.9
				c-3.4,8.1-9,15.1-14.4,21.9c-3.4,4.3-6.9,8.7-9.8,13.3c-18.2,28.8-16.2,70.6,5.2,104c17.1,26.8,44.9,48.8,84.9,67.4L140.1,573.5z
				"/>
		</g>
	</g>
	<g>
		<g>
			<g>
				<g>
					<g>
						<path class="st2" d="M508.5,464.4c0,1.1-0.1,1.7-0.1,1.7c0.7-0.2,1.4-0.4,2.2-0.7c124.2-38.2,122.7-177.5,122.7-177.5
							C517.6,314.4,509.1,447.8,508.5,464.4z"/>
					</g>
				</g>
				<g>
					<g>
						<path class="st3" d="M508.5,464.4c0,1.1-0.1,1.7-0.1,1.7c0.7-0.2,1.4-0.4,2.2-0.7c16.5-22.6,32.8-45.3,48.9-68.1
							c8.4-11.8,16.7-23.7,24.9-35.6l6.1-9l6-9c2-3,4-6.1,6-9.1c1-1.5,1.9-3.1,2.9-4.6l2.9-4.6l-2.9,4.6c-1,1.5-1.9,3-3,4.5
							c-2,3-4,6-6.1,9l-6.2,8.9l-6.2,8.9c-8.4,11.8-16.8,23.6-25.3,35.3C542,419.3,525.3,441.9,508.5,464.4z"/>
					</g>
				</g>
				<g>
					<g>
						<g>
							<g>
								<path class="st3" d="M588.6,342.3c0.1,0,0.2,0.1,0.3,0c0.3,0,0.5-0.3,0.4-0.6c-1.2-7.1-1.1-14.6,0.5-21.6
									c0.1-0.3-0.1-0.5-0.4-0.6c-0.3-0.1-0.5,0.1-0.6,0.4c-1.6,7.2-1.7,14.8-0.5,22C588.4,342.1,588.5,342.2,588.6,342.3z"/>
							</g>
						</g>
					</g>
					<g>
						<g>
							<g>
								<path class="st3" d="M562.9,376.6c0.1,0,0.2,0.1,0.3,0.1c0.3,0,0.5-0.3,0.5-0.5c-0.7-7.9-2.1-15.9-4.1-23.6
									c-0.1-0.3-0.3-0.4-0.6-0.4c-0.3,0.1-0.4,0.3-0.4,0.6c2,7.7,3.4,15.6,4.1,23.5C562.6,376.4,562.7,376.5,562.9,376.6z"/>
							</g>
						</g>
					</g>
					<g>
						<g>
							<g>
								<path class="st3" d="M574.4,389.3c0.1,0.1,0.2,0.1,0.3,0.1c9.1-0.8,17.9-3.1,26.3-6.7c0.3-0.1,0.4-0.4,0.3-0.7
									c-0.1-0.3-0.4-0.4-0.7-0.3c-8.3,3.6-17,5.9-26,6.6c-0.3,0-0.5,0.3-0.5,0.5C574.2,389.1,574.3,389.2,574.4,389.3z"/>
							</g>
						</g>
					</g>
					<g>
						<g>
							<g>
								<path class="st3" d="M597.2,350.2c0.1,0.1,0.3,0.1,0.5,0.1l20.2-7.6c0.3-0.1,0.4-0.4,0.3-0.7c-0.1-0.3-0.4-0.4-0.7-0.3
									l-20.2,7.6c-0.3,0.1-0.4,0.4-0.3,0.7C597.1,350,597.2,350.1,597.2,350.2z"/>
							</g>
						</g>
					</g>
					<g>
						<g>
							<g>
								<path class="st3" d="M536.1,412.8c0.1,0,0.2,0.1,0.3,0.1c0.3,0,0.5-0.3,0.5-0.6l-2.4-22.5c0-0.3-0.3-0.5-0.6-0.5
									c-0.3,0-0.5,0.3-0.5,0.6l2.4,22.5C535.8,412.5,535.9,412.7,536.1,412.8z"/>
							</g>
						</g>
					</g>
					<g>
						<g>
							<g>
								<path class="st3" d="M551.5,420.5c0.1,0,0.2,0.1,0.3,0.1l23.2-2.1c0.3,0,0.5-0.3,0.5-0.5c0-0.3-0.3-0.5-0.5-0.5l-23.2,2.1
									c-0.3,0-0.5,0.3-0.5,0.5C551.2,420.3,551.3,420.4,551.5,420.5z"/>
							</g>
						</g>
					</g>
				</g>
			</g>
			<g>
				<g>
					<g>
						<path class="st4" d="M483.7,483.1c-0.5,1-0.8,1.5-0.8,1.5c0.7,0.1,1.5,0.3,2.2,0.4c128.1,21.6,189.4-103.5,189.4-103.5
							C559.2,353.1,491.7,468.6,483.7,483.1z"/>
					</g>
				</g>
				<g>
					<g>
						<path class="st1" d="M483.7,483.1c-0.5,1-0.8,1.5-0.8,1.5c0.7,0.1,1.5,0.3,2.2,0.4c24.9-12.8,49.6-25.8,74.3-38.9
							c12.8-6.8,25.5-13.7,38.2-20.7l9.5-5.3l9.5-5.3c3.2-1.8,6.3-3.6,9.4-5.4c1.6-0.9,3.1-1.9,4.7-2.8l4.6-2.8l-4.7,2.8
							c-1.6,0.9-3.1,1.8-4.7,2.7c-3.2,1.8-6.3,3.6-9.5,5.3l-9.5,5.2l-9.6,5.1c-12.8,6.8-25.6,13.5-38.5,20.1
							C533.9,457.9,508.8,470.6,483.7,483.1z"/>
					</g>
				</g>
				<g>
					<g>
						<g>
							<g>
								<path class="st1" d="M610.1,409.9c0.1,0.1,0.2,0.1,0.3,0.2c0.3,0.1,0.5-0.1,0.6-0.3c2.1-6.9,5.6-13.5,10.1-19.1
									c0.2-0.2,0.1-0.5-0.1-0.7c-0.2-0.2-0.5-0.1-0.7,0.1c-4.6,5.7-8.2,12.4-10.3,19.4C610,409.6,610,409.8,610.1,409.9z"/>
							</g>
						</g>
					</g>
					<g>
						<g>
							<g>
								<path class="st1" d="M571.7,429c0.1,0.1,0.1,0.1,0.2,0.2c0.3,0.1,0.6,0,0.7-0.3c2.9-7.4,5.3-15.1,6.9-23
									c0.1-0.3-0.1-0.5-0.4-0.6c-0.3-0.1-0.5,0.1-0.6,0.4c-1.7,7.8-4,15.4-6.9,22.8C571.6,428.7,571.6,428.9,571.7,429z"/>
							</g>
						</g>
					</g>
					<g>
						<g>
							<g>
								<path class="st1" d="M576.3,445.6c0.1,0.1,0.1,0.2,0.2,0.2c8.5,3.4,17.4,5.3,26.5,5.8c0.3,0,0.5-0.2,0.5-0.5
									c0-0.3-0.2-0.5-0.5-0.5c-9-0.5-17.8-2.4-26.2-5.7c-0.3-0.1-0.6,0-0.7,0.3C576.2,445.3,576.2,445.4,576.3,445.6z"/>
							</g>
						</g>
					</g>
					<g>
						<g>
							<g>
								<path class="st1" d="M614.3,420.9c0.1,0.2,0.2,0.3,0.4,0.3l21.5,2.3c0.3,0,0.5-0.2,0.6-0.4c0-0.3-0.2-0.5-0.4-0.6l-21.5-2.3
									c-0.3,0-0.5,0.2-0.6,0.4C614.2,420.7,614.2,420.8,614.3,420.9z"/>
							</g>
						</g>
					</g>
					<g>
						<g>
							<g>
								<path class="st1" d="M531.5,449.3c0.1,0.1,0.1,0.1,0.2,0.2c0.3,0.1,0.6,0,0.7-0.3l8-21.2c0.1-0.3,0-0.6-0.3-0.7
									c-0.3-0.1-0.6,0-0.7,0.3l-8,21.2C531.4,449,531.4,449.2,531.5,449.3z"/>
							</g>
						</g>
					</g>
					<g>
						<g>
							<g>
								<path class="st1" d="M541.8,463.2c0.1,0.1,0.1,0.1,0.2,0.2l21.7,8.6c0.3,0.1,0.6,0,0.7-0.3c0.1-0.3,0-0.6-0.3-0.7l-21.7-8.6
									c-0.3-0.1-0.6,0-0.7,0.3C541.7,462.9,541.7,463.1,541.8,463.2z"/>
							</g>
						</g>
					</g>
				</g>
			</g>
		</g>
		<g>
			<g>
				<g>
					<g>
						<path class="st5" d="M185.5,547.6c0.9,0.6,1.4,0.9,1.4,0.9c0.2-0.7,0.4-1.5,0.6-2.2c31.1-126.2-89.1-196.6-89.1-196.6
							C61.5,462.6,171.6,538.6,185.5,547.6z"/>
					</g>
				</g>
				<g>
					<g>
						<path class="st1" d="M185.5,547.6c0.9,0.6,1.4,0.9,1.4,0.9c0.2-0.7,0.4-1.5,0.6-2.2c-10.9-25.7-22-51.4-33.3-77
							c-5.8-13.3-11.7-26.5-17.7-39.6l-4.5-9.9l-4.6-9.8c-1.5-3.3-3.1-6.5-4.7-9.8c-0.8-1.6-1.6-3.2-2.4-4.9l-2.5-4.8l2.4,4.9
							c0.8,1.6,1.6,3.2,2.4,4.9c1.5,3.3,3.1,6.5,4.6,9.8l4.5,9.9l4.4,9.9c5.8,13.3,11.6,26.5,17.2,39.9
							C164.1,495.6,174.9,521.6,185.5,547.6z"/>
					</g>
				</g>
				<g>
					<g>
						<g>
							<g>
								<path class="st1" d="M122,416.1c0.1-0.1,0.2-0.1,0.2-0.2c0.1-0.3,0-0.6-0.3-0.7c-6.7-2.6-13-6.6-18.3-11.5
									c-0.2-0.2-0.5-0.2-0.7,0c-0.2,0.2-0.2,0.5,0,0.7c5.3,5,11.8,9.1,18.6,11.7C121.7,416.2,121.8,416.1,122,416.1z"/>
							</g>
						</g>
					</g>
					<g>
						<g>
							<g>
								<path class="st1" d="M138.2,455.8c0.1,0,0.1-0.1,0.2-0.2c0.1-0.3,0-0.6-0.2-0.7c-7.2-3.5-14.7-6.4-22.4-8.6
									c-0.3-0.1-0.5,0.1-0.6,0.3c-0.1,0.3,0.1,0.5,0.3,0.6c7.6,2.2,15.1,5.1,22.2,8.6C137.8,455.9,138,455.9,138.2,455.8z"/>
							</g>
						</g>
					</g>
					<g>
						<g>
							<g>
								<path class="st1" d="M155,452.4c0.1,0,0.2-0.1,0.2-0.2c4-8.2,6.6-17,7.8-26c0-0.3-0.2-0.5-0.4-0.6c-0.3,0-0.5,0.2-0.6,0.4
									c-1.1,8.9-3.7,17.6-7.7,25.7c-0.1,0.3,0,0.6,0.2,0.7C154.7,452.5,154.8,452.5,155,452.4z"/>
							</g>
						</g>
					</g>
					<g>
						<g>
							<g>
								<path class="st1" d="M133.2,412.7c0.2-0.1,0.3-0.2,0.3-0.4l3.9-21.3c0-0.3-0.1-0.5-0.4-0.6c-0.3,0-0.5,0.1-0.6,0.4
									l-3.9,21.3c-0.1,0.3,0.1,0.5,0.4,0.6C133,412.8,133.1,412.8,133.2,412.7z"/>
							</g>
						</g>
					</g>
					<g>
						<g>
							<g>
								<path class="st1" d="M155.4,497.4c0.1-0.1,0.1-0.1,0.2-0.2c0.1-0.3,0-0.6-0.2-0.7l-20.6-9.6c-0.3-0.1-0.6,0-0.7,0.2
									c-0.1,0.3,0,0.6,0.2,0.7l20.6,9.6C155.1,497.5,155.3,497.5,155.4,497.4z"/>
							</g>
						</g>
					</g>
					<g>
						<g>
							<g>
								<path class="st1" d="M170,488.2c0.1,0,0.1-0.1,0.2-0.2l10.2-21c0.1-0.3,0-0.6-0.2-0.7c-0.3-0.1-0.6,0-0.7,0.2l-10.2,21
									c-0.1,0.3,0,0.6,0.2,0.7C169.7,488.3,169.8,488.2,170,488.2z"/>
							</g>
						</g>
					</g>
				</g>
			</g>
			<g>
				<g>
					<g>
						<path class="st2" d="M208.9,542.5c1.1,0,1.7,0,1.7,0c-0.2-0.7-0.5-1.4-0.7-2.1c-40.8-123.4-180-119.1-180-119.1
							C58.7,536.4,192.4,542.2,208.9,542.5z"/>
					</g>
				</g>
				<g>
					<g>
						<path class="st3" d="M208.9,542.5c1.1,0,1.7,0,1.7,0c-0.2-0.7-0.5-1.4-0.7-2.1c-22.9-16-46-31.8-69.1-47.5
							c-12-8.1-24-16.2-36.1-24.1l-9.1-5.9l-9.1-5.9c-3-2-6.1-3.8-9.2-5.8c-1.5-1-3.1-1.9-4.6-2.8l-4.7-2.8l4.6,2.8
							c1.5,1,3.1,1.9,4.6,2.9c3,2,6.1,3.9,9.1,5.9l9.1,6l9,6.1c12,8.1,23.9,16.3,35.8,24.6C163.2,509.8,186.1,526.1,208.9,542.5z"/>
					</g>
				</g>
				<g>
					<g>
						<g>
							<g>
								<path class="st3" d="M85.2,464.9c0-0.1,0.1-0.2,0-0.3c-0.1-0.3-0.3-0.5-0.6-0.4c-7.1,1.4-14.5,1.4-21.6,0
									c-0.3-0.1-0.5,0.1-0.6,0.4c-0.1,0.3,0.1,0.5,0.4,0.6c7.2,1.4,14.8,1.4,22,0C85,465.1,85.1,465,85.2,464.9z"/>
							</g>
						</g>
					</g>
					<g>
						<g>
							<g>
								<path class="st3" d="M120,489.9c0-0.1,0.1-0.2,0-0.3c0-0.3-0.3-0.5-0.6-0.4c-7.9,0.9-15.9,2.4-23.5,4.6
									c-0.3,0.1-0.4,0.4-0.4,0.6c0.1,0.3,0.4,0.4,0.6,0.4c7.6-2.1,15.5-3.7,23.4-4.6C119.8,490.1,120,490,120,489.9z"/>
							</g>
						</g>
					</g>
					<g>
						<g>
							<g>
								<path class="st3" d="M132.5,478.1c0.1-0.1,0.1-0.2,0.1-0.3c-1-9.1-3.4-17.9-7.3-26.2c-0.1-0.3-0.4-0.4-0.7-0.2
									c-0.3,0.1-0.4,0.4-0.2,0.7c3.8,8.2,6.2,16.9,7.2,25.8c0,0.3,0.3,0.5,0.6,0.4C132.3,478.4,132.4,478.3,132.5,478.1z"/>
							</g>
						</g>
					</g>
					<g>
						<g>
							<g>
								<path class="st3" d="M92.9,456.1c0.1-0.1,0.1-0.3,0.1-0.5l-8-20.1c-0.1-0.3-0.4-0.4-0.7-0.3c-0.3,0.1-0.4,0.4-0.3,0.7
									l8,20.1c0.1,0.3,0.4,0.4,0.7,0.3C92.8,456.2,92.8,456.2,92.9,456.1z"/>
							</g>
						</g>
					</g>
					<g>
						<g>
							<g>
								<path class="st3" d="M156.7,515.9c0-0.1,0.1-0.2,0-0.3c0-0.3-0.3-0.5-0.6-0.4l-22.5,2.8c-0.3,0-0.5,0.3-0.4,0.6
									c0,0.3,0.3,0.5,0.6,0.4l22.5-2.8C156.5,516.2,156.7,516.1,156.7,515.9z"/>
							</g>
						</g>
					</g>
					<g>
						<g>
							<g>
								<path class="st3" d="M164.2,500.4c0-0.1,0.1-0.2,0-0.3l-2.6-23.2c0-0.3-0.3-0.5-0.6-0.4c-0.3,0-0.5,0.3-0.4,0.6l2.6,23.2
									c0,0.3,0.3,0.5,0.6,0.4C164,500.6,164.1,500.5,164.2,500.4z"/>
							</g>
						</g>
					</g>
				</g>
			</g>
			<g>
				<g>
					<g>
						<path class="st4" d="M257.5,545.7c0.9-0.6,1.4-0.9,1.4-0.9c-0.6-0.5-1.2-0.9-1.8-1.4c-103.2-78.9-215.8,3.1-215.8,3.1
							C130,625.4,243.7,554.9,257.5,545.7z"/>
					</g>
				</g>
				<g>
					<g>
						<path class="st1" d="M257.5,545.7c0.9-0.6,1.4-0.9,1.4-0.9c-0.6-0.5-1.2-0.9-1.8-1.4c-28-0.3-55.9-0.4-83.9-0.3
							c-14.5,0.1-29,0.2-43.4,0.4l-10.9,0.2l-10.9,0.3c-3.6,0.1-7.2,0.3-10.9,0.4c-1.8,0.1-3.6,0.2-5.4,0.3l-5.4,0.3l5.4-0.3
							c1.8-0.1,3.6-0.2,5.4-0.2c3.6-0.1,7.2-0.2,10.9-0.3l10.9-0.2l10.9-0.1c14.5,0,29,0,43.4,0.2
							C201.4,544.6,229.4,545.1,257.5,545.7z"/>
					</g>
				</g>
				<g>
					<g>
						<g>
							<g>
								<path class="st1" d="M111.6,551.4c0-0.1-0.1-0.2-0.1-0.3c-0.2-0.2-0.5-0.2-0.7,0c-5.1,5.1-11.2,9.3-17.9,12.2
									c-0.3,0.1-0.4,0.4-0.3,0.7c0.1,0.3,0.4,0.4,0.7,0.3c6.7-2.9,13-7.2,18.2-12.4C111.5,551.7,111.6,551.5,111.6,551.4z"/>
							</g>
						</g>
					</g>
					<g>
						<g>
							<g>
								<path class="st1" d="M154.5,552.4c0-0.1-0.1-0.2-0.1-0.3c-0.2-0.2-0.5-0.2-0.7-0.1c-6.1,5.2-11.7,10.9-16.9,17
									c-0.2,0.2-0.2,0.5,0.1,0.7c0.2,0.2,0.5,0.2,0.7-0.1c5.1-6.1,10.7-11.8,16.7-16.9C154.4,552.8,154.5,552.6,154.5,552.4z"/>
							</g>
						</g>
					</g>
					<g>
						<g>
							<g>
								<path class="st1" d="M158.1,535.7c0-0.1,0-0.2-0.1-0.3c-5.9-6.9-12.9-12.8-20.7-17.5c-0.2-0.1-0.6-0.1-0.7,0.2
									c-0.1,0.2-0.1,0.6,0.2,0.7c7.7,4.6,14.6,10.4,20.5,17.3c0.2,0.2,0.5,0.2,0.7,0.1C158.1,536,158.1,535.8,158.1,535.7z"/>
							</g>
						</g>
					</g>
					<g>
						<g>
							<g>
								<path class="st1" d="M113,539.8c0-0.2-0.1-0.4-0.2-0.5l-18-12.1c-0.2-0.2-0.5-0.1-0.7,0.1c-0.2,0.2-0.1,0.5,0.1,0.7l18,12.1
									c0.2,0.2,0.5,0.1,0.7-0.1C113,540,113,539.9,113,539.8z"/>
							</g>
						</g>
					</g>
					<g>
						<g>
							<g>
								<path class="st1" d="M199.5,553.2c0-0.1-0.1-0.2-0.1-0.3c-0.2-0.2-0.5-0.2-0.7,0l-17,15c-0.2,0.2-0.2,0.5,0,0.7
									c0.2,0.2,0.5,0.2,0.7,0l17-15C199.4,553.6,199.5,553.4,199.5,553.2z"/>
							</g>
						</g>
					</g>
					<g>
						<g>
							<g>
								<path class="st1" d="M196.8,536.2c0-0.1-0.1-0.2-0.1-0.3l-15.2-17.7c-0.2-0.2-0.5-0.2-0.7-0.1c-0.2,0.2-0.2,0.5-0.1,0.7
									l15.2,17.7c0.2,0.2,0.5,0.2,0.7,0.1C196.8,536.5,196.9,536.4,196.8,536.2z"/>
							</g>
						</g>
					</g>
				</g>
			</g>
		</g>
		<g>
			<g>
				<g>
					<g>
						<circle class="st5" cx="587.5" cy="231.6" r="61.9"/>
					</g>
				</g>
			</g>
			<g>
				<g>
					<g>
						
							<ellipse transform="matrix(0.7071 -0.7071 0.7071 0.7071 8.3171 483.2338)" class="st1" cx="587.5" cy="231.6" rx="50.5" ry="50.5"/>
					</g>
				</g>
			</g>
			<g>
				<g>
					<g>
						<rect x="586.5" y="183.8" class="st2" width="2" height="8.1"/>
					</g>
				</g>
			</g>
			<g>
				<g>
					<g>
						<path class="st5" d="M587.5,233.9c-0.3,0-0.5,0-0.8-0.1c-1.2-0.4-1.9-1.8-1.4-3l14.3-39.2c0.4-1.2,1.8-1.9,3-1.4
							c1.2,0.4,1.9,1.8,1.4,3l-14.3,39.2C589.3,233.3,588.4,233.9,587.5,233.9z"/>
					</g>
				</g>
			</g>
			<g>
				<g>
					<g>
						<path class="st5" d="M616.2,253.6c-0.5,0-0.9-0.1-1.3-0.4l-28.7-19.6c-1.1-0.7-1.4-2.2-0.6-3.3c0.7-1.1,2.2-1.4,3.3-0.6
							l28.7,19.6c1.1,0.7,1.4,2.2,0.6,3.3C617.7,253.2,617,253.6,616.2,253.6z"/>
					</g>
				</g>
			</g>
			<g>
				<g>
					<g>
						<circle class="st2" cx="587.5" cy="231.6" r="5.5"/>
					</g>
				</g>
			</g>
			<g>
				<g>
					<g>
						
							<rect x="542.8" y="227.5" transform="matrix(6.123234e-17 -1 1 6.123234e-17 312.196 775.3505)" class="st2" width="2" height="8.1"/>
					</g>
				</g>
			</g>
			<g>
				<g>
					<g>
						
							<rect x="586.5" y="271.2" transform="matrix(-1 -1.224647e-16 1.224647e-16 -1 1174.9467 550.5546)" class="st2" width="2" height="8.1"/>
					</g>
				</g>
			</g>
			<g>
				<g>
					<g>
						
							<rect x="630.2" y="227.5" transform="matrix(-1.836970e-16 1 -1 -1.836970e-16 862.7506 -399.5961)" class="st2" width="2" height="8.1"/>
					</g>
				</g>
			</g>
			<g>
				<g>
					<g>
						<path class="st0" d="M563.6,190.2c-0.5,0.3-0.6,0.9-0.4,1.4l1.4,2.4c0.3,0.5,0.9,0.6,1.4,0.4c0.5-0.3,0.6-0.9,0.4-1.4
							l-1.4-2.4C564.7,190.1,564.1,190,563.6,190.2z"/>
					</g>
				</g>
			</g>
			<g>
				<g>
					<g>
						<path class="st0" d="M546.1,207.7c-0.3,0.5-0.1,1.1,0.4,1.4l2.4,1.4c0.5,0.3,1.1,0.1,1.4-0.4c0.3-0.5,0.1-1.1-0.4-1.4
							l-2.4-1.4C547,207.1,546.4,207.2,546.1,207.7z"/>
					</g>
				</g>
			</g>
			<g>
				<g>
					<g>
						<path class="st0" d="M546.1,255.4c0.3,0.5,0.9,0.6,1.4,0.4l2.4-1.4c0.5-0.3,0.6-0.9,0.4-1.4c-0.3-0.5-0.9-0.6-1.4-0.4
							l-2.4,1.4C546,254.3,545.9,255,546.1,255.4z"/>
					</g>
				</g>
			</g>
			<g>
				<g>
					<g>
						<path class="st0" d="M563.6,272.9c0.5,0.3,1.1,0.1,1.4-0.4l1.4-2.4c0.3-0.5,0.1-1.1-0.4-1.4c-0.5-0.3-1.1-0.1-1.4,0.4
							l-1.4,2.4C563,272,563.1,272.6,563.6,272.9z"/>
					</g>
				</g>
			</g>
			<g>
				<g>
					<g>
						<path class="st0" d="M611.3,272.9c0.5-0.3,0.6-0.9,0.4-1.4l-1.4-2.4c-0.3-0.5-0.9-0.6-1.4-0.4c-0.5,0.3-0.6,0.9-0.4,1.4
							l1.4,2.4C610.2,273,610.9,273.2,611.3,272.9z"/>
					</g>
				</g>
			</g>
			<g>
				<g>
					<g>
						<path class="st0" d="M628.8,255.4c0.3-0.5,0.1-1.1-0.4-1.4l-2.4-1.4c-0.5-0.3-1.1-0.1-1.4,0.4c-0.3,0.5-0.1,1.1,0.4,1.4
							l2.4,1.4C627.9,256.1,628.5,255.9,628.8,255.4z"/>
					</g>
				</g>
			</g>
			<g>
				<g>
					<g>
						<path class="st0" d="M628.8,207.7c-0.3-0.5-0.9-0.6-1.4-0.4l-2.4,1.4c-0.5,0.3-0.6,0.9-0.4,1.4c0.3,0.5,0.9,0.6,1.4,0.4
							l2.4-1.4C628.9,208.8,629.1,208.2,628.8,207.7z"/>
					</g>
				</g>
			</g>
			<g>
				<g>
					<g>
						<path class="st0" d="M611.3,190.2c-0.5-0.3-1.1-0.1-1.4,0.4l-1.4,2.4c-0.3,0.5-0.1,1.1,0.4,1.4s1.1,0.1,1.4-0.4l1.4-2.4
							C612,191.1,611.8,190.5,611.3,190.2z"/>
					</g>
				</g>
			</g>
		</g>
		<g>
			<g>
				<g>
					<g>
						<path class="st2" d="M93.8,563.1L93.8,563.1c0,13.9,8.7,25.2,19.4,25.2H598c10.7,0,19.4-11.3,19.4-25.2l0,0H93.8z"/>
					</g>
				</g>
				<g>
					<g>
						<rect x="145.6" y="278.2" class="st5" width="420" height="263.8"/>
					</g>
				</g>
				<g>
					<g>
						<path class="st3" d="M587.7,265.1v278.5c0,8.1-6.6,14.7-14.7,14.7H138.3c-8.1,0-14.7-6.6-14.7-14.7V265.1
							c0-3.7,1.4-7.1,3.7-9.7c2.7-3,6.6-5,11-5H573C581.1,250.4,587.7,257,587.7,265.1z"/>
					</g>
				</g>
				<g>
					<g>
						<rect x="145.6" y="272.4" class="st1" width="420" height="263.8"/>
					</g>
				</g>
				<g>
					<g>
						<g>
							<g>
								<rect x="216.7" y="362.6" class="st0" width="18" height="74.2"/>
							</g>
						</g>
						<g>
							<g>
								<rect x="239.1" y="349.4" class="st0" width="18" height="87.5"/>
							</g>
						</g>
						<g>
							<g>
								<g>
									<rect x="194.2" y="393.3" class="st0" width="18" height="43.5"/>
								</g>
							</g>
						</g>
						<g>
							<g>
								<rect x="261.5" y="357" class="st0" width="18" height="79.9"/>
							</g>
						</g>
						<g>
							<g>
								<rect x="283.9" y="327.7" class="st0" width="18" height="109.1"/>
							</g>
						</g>
						<g>
							<g>
								<g>
									<g>
										<path class="st0" d="M181.7,387.6c-2,0-4.1-0.2-6.1-0.7c-8-1.9-12.6-8.9-15.4-14l2.5-1.4c4,7.3,8.3,11.3,13.5,12.6
											c10.6,2.5,21.8-2.6,26-11.8c1.6-3.6,2.5-7.6,3.3-11.4c0.1-0.7,0.3-1.3,0.4-2c1.1-5.2,3-11.9,7.4-17.2
											c5.2-6.4,12.8-9.6,20.1-8.5c2.7,0.4,5.4,1.2,8,2c5.2,1.6,10.2,3.1,15.3,1.6c8.2-2.4,14.2-9.4,20-16.1
											c5-5.8,10.1-11.7,16.7-15l1.3,2.6c-6.1,3-10.8,8.5-15.8,14.3c-6.1,7-12.3,14.3-21.3,17c-5.9,1.8-11.5,0.1-16.9-1.6
											c-2.6-0.8-5.1-1.5-7.6-1.9c-6.3-1-12.8,1.8-17.4,7.4c-4,4.9-5.7,11.1-6.8,16c-0.1,0.7-0.3,1.3-0.4,2
											c-0.9,4-1.7,8.2-3.5,12C200.9,382.2,191.6,387.6,181.7,387.6z"/>
									</g>
								</g>
							</g>
							<g>
								<g>
									<g>
										<g>
											<polygon class="st0" points="294.4,311.6 299.9,304.9 291.4,303.4 											"/>
										</g>
									</g>
								</g>
							</g>
						</g>
					</g>
					<g>
						<g>
							<g>
								<g>
									<g>
										<g>
											<path class="st0" d="M168.1,480.8c0.5-7.6,6.7-13.7,14.3-14.3v-7.9c-5.8,0.3-11.3,2.7-15.4,6.8s-6.5,9.6-6.8,15.4H168.1z
												"/>
										</g>
									</g>
									<g>
										<g>
											<path class="st0" d="M184.6,466.5c7.6,0.5,13.7,6.7,14.3,14.3h7.9c-0.3-5.8-2.7-11.3-6.8-15.4c-4.2-4.2-9.6-6.5-15.4-6.8
												V466.5z"/>
										</g>
									</g>
									<g>
										<g>
											<path class="st0" d="M182.4,497.3c-7.6-0.5-13.7-6.7-14.3-14.3h-7.9c0.3,5.8,2.7,11.3,6.8,15.4s9.6,6.5,15.4,6.8V497.3z"
												/>
										</g>
									</g>
									<g>
										<g>
											<path class="st0" d="M198.9,483c-0.5,7.6-6.7,13.7-14.3,14.3v7.9c5.8-0.3,11.3-2.7,15.4-6.8c4.2-4.2,6.5-9.6,6.8-15.4
												H198.9z"/>
										</g>
									</g>
								</g>
								<g>
									<g>
										<rect x="174.4" y="477.7" class="st0" width="18.1" height="8.3"/>
									</g>
								</g>
							</g>
							<g>
								<g>
									<g>
										<g>
											<path class="st0" d="M230.5,480.8c0.5-7.6,6.7-13.7,14.3-14.3v-7.9c-5.8,0.3-11.3,2.7-15.4,6.8s-6.5,9.6-6.8,15.4H230.5z
												"/>
										</g>
									</g>
									<g>
										<g>
											<path class="st0" d="M246.9,466.5c7.6,0.5,13.7,6.7,14.3,14.3h7.9c-0.3-5.8-2.7-11.3-6.8-15.4c-4.2-4.2-9.6-6.5-15.4-6.8
												V466.5z"/>
										</g>
									</g>
									<g>
										<g>
											<path class="st0" d="M244.8,497.3c-7.6-0.5-13.7-6.7-14.3-14.3h-7.9c0.3,5.8,2.7,11.3,6.8,15.4s9.6,6.5,15.4,6.8V497.3z"
												/>
										</g>
									</g>
									<g>
										<g>
											<path class="st0" d="M261.2,483c-0.5,7.6-6.7,13.7-14.3,14.3v7.9c5.8-0.3,11.3-2.7,15.4-6.8c4.2-4.2,6.5-9.6,6.8-15.4
												H261.2z"/>
										</g>
									</g>
								</g>
								<g>
									<g>
										<rect x="236.8" y="477.7" class="st0" width="18.1" height="8.3"/>
									</g>
								</g>
							</g>
							<g>
								<g>
									<g>
										<g>
											<path class="st0" d="M292.8,480.8c0.5-7.6,6.7-13.7,14.3-14.3v-7.9c-5.8,0.3-11.3,2.7-15.4,6.8s-6.5,9.6-6.8,15.4H292.8z
												"/>
										</g>
									</g>
									<g>
										<g>
											<path class="st0" d="M309.3,466.5c7.6,0.5,13.7,6.7,14.3,14.3h7.9c-0.3-5.8-2.7-11.3-6.8-15.4c-4.2-4.2-9.6-6.5-15.4-6.8
												V466.5z"/>
										</g>
									</g>
									<g>
										<g>
											<path class="st0" d="M307.1,497.3c-7.6-0.5-13.7-6.7-14.3-14.3h-7.9c0.3,5.8,2.7,11.3,6.8,15.4s9.6,6.5,15.4,6.8V497.3z"
												/>
										</g>
									</g>
									<g>
										<g>
											<path class="st0" d="M323.6,483c-0.5,7.6-6.7,13.7-14.3,14.3v7.9c5.8-0.3,11.3-2.7,15.4-6.8c4.2-4.2,6.5-9.6,6.8-15.4
												H323.6z"/>
										</g>
									</g>
								</g>
								<g>
									<g>
										<rect x="299.2" y="477.7" class="st0" width="18.1" height="8.3"/>
									</g>
								</g>
							</g>
						</g>
						<g>
							<g>
								<g>
									<g>
										<g>
											<path class="st0" d="M355.2,480.8c0.5-7.6,6.7-13.7,14.3-14.3v-7.9c-5.8,0.3-11.3,2.7-15.4,6.8s-6.5,9.6-6.8,15.4H355.2z
												"/>
										</g>
									</g>
									<g>
										<g>
											<path class="st0" d="M371.7,466.5c7.6,0.5,13.7,6.7,14.3,14.3h7.9c-0.3-5.8-2.7-11.3-6.8-15.4c-4.2-4.2-9.6-6.5-15.4-6.8
												V466.5z"/>
										</g>
									</g>
									<g>
										<g>
											<path class="st0" d="M369.5,497.3c-7.6-0.5-13.7-6.7-14.3-14.3h-7.9c0.3,5.8,2.7,11.3,6.8,15.4s9.6,6.5,15.4,6.8V497.3z"
												/>
										</g>
									</g>
									<g>
										<g>
											<path class="st0" d="M385.9,483c-0.5,7.6-6.7,13.7-14.3,14.3v7.9c5.8-0.3,11.3-2.7,15.4-6.8c4.2-4.2,6.5-9.6,6.8-15.4
												H385.9z"/>
										</g>
									</g>
								</g>
								<g>
									<g>
										<rect x="361.5" y="477.7" class="st0" width="18.1" height="8.3"/>
									</g>
								</g>
							</g>
							<g>
								<g>
									<g>
										<g>
											<path class="st0" d="M417.6,480.8c0.5-7.6,6.7-13.7,14.3-14.3v-7.9c-5.8,0.3-11.3,2.7-15.4,6.8s-6.5,9.6-6.8,15.4H417.6z
												"/>
										</g>
									</g>
									<g>
										<g>
											<path class="st0" d="M434,466.5c7.6,0.5,13.7,6.7,14.3,14.3h7.9c-0.3-5.8-2.7-11.3-6.8-15.4c-4.2-4.2-9.6-6.5-15.4-6.8
												V466.5z"/>
										</g>
									</g>
									<g>
										<g>
											<path class="st0" d="M431.8,497.3c-7.6-0.5-13.7-6.7-14.3-14.3h-7.9c0.3,5.8,2.7,11.3,6.8,15.4s9.6,6.5,15.4,6.8V497.3z"
												/>
										</g>
									</g>
									<g>
										<g>
											<path class="st0" d="M448.3,483c-0.5,7.6-6.7,13.7-14.3,14.3v7.9c5.8-0.3,11.3-2.7,15.4-6.8c4.2-4.2,6.5-9.6,6.8-15.4
												H448.3z"/>
										</g>
									</g>
								</g>
								<g>
									<g>
										<rect x="422.8" y="477.7" class="st0" width="18.1" height="8.3"/>
									</g>
								</g>
							</g>
						</g>
					</g>
					<g>
						<g>
							<g>
								<rect x="476.5" y="463.5" class="st0" width="62.8" height="6.3"/>
							</g>
						</g>
						<g>
							<g>
								<rect x="476.5" y="473.7" class="st0" width="74.5" height="6.3"/>
							</g>
						</g>
						<g>
							<g>
								<rect x="476.5" y="483.9" class="st0" width="55.8" height="6.3"/>
							</g>
						</g>
						<g>
							<g>
								<rect x="476.5" y="494" class="st0" width="69.6" height="6.3"/>
							</g>
						</g>
					</g>
					<g>
						<g>
							<g>
								<path class="st0" d="M366.8,374.9l7.8-36.4c-1.7-0.2-3.4-0.3-5.1-0.3c-21.6,0-39,17.5-39,39c0,3.5,0.5,7,1.4,10.2
									L366.8,374.9z"/>
							</g>
						</g>
						<g>
							<g>
								<path class="st0" d="M380.7,339.8l-8.5,39.8l-38.3,13.7c6.1,13.5,19.8,23,35.6,23c21.6,0,39-17.5,39-39
									C408.5,359.5,396.8,344.6,380.7,339.8z"/>
							</g>
						</g>
					</g>
					<g>
						<g>
							<g>
								<g>
									<g>
										<rect x="450.4" y="311.7" class="st0" width="72.4" height="6.3"/>
									</g>
								</g>
								<g>
									<g>
										<rect x="450.4" y="321.9" class="st0" width="86" height="6.3"/>
									</g>
								</g>
								<g>
									<g>
										<rect x="450.4" y="332.1" class="st0" width="64.4" height="6.3"/>
									</g>
								</g>
								<g>
									<g>
										<rect x="450.4" y="342.3" class="st0" width="80.3" height="6.3"/>
									</g>
								</g>
							</g>
							<g>
								<g>
									<path class="st0" d="M431.8,311.7L431.8,311.7c-4.6,0-8.2,3.7-8.2,8.2v0c0,4.6,3.7,8.2,8.2,8.2l0,0c4.6,0,8.2-3.7,8.2-8.2
										v0C440.1,315.4,436.4,311.7,431.8,311.7z"/>
								</g>
							</g>
						</g>
						<g>
							<g>
								<g>
									<g>
										<rect x="450.4" y="360.7" class="st0" width="58.8" height="6.3"/>
									</g>
								</g>
								<g>
									<g>
										<rect x="450.4" y="370.9" class="st0" width="72.4" height="6.3"/>
									</g>
								</g>
								<g>
									<g>
										<rect x="450.4" y="381.1" class="st0" width="88.9" height="6.3"/>
									</g>
								</g>
								<g>
									<g>
										<rect x="450.4" y="391.3" class="st0" width="80.3" height="6.3"/>
									</g>
								</g>
							</g>
							<g>
								<g>
									<path class="st0" d="M431.8,360.7L431.8,360.7c-4.6,0-8.2,3.7-8.2,8.2l0,0c0,4.6,3.7,8.2,8.2,8.2l0,0
										c4.6,0,8.2-3.7,8.2-8.2l0,0C440.1,364.4,436.4,360.7,431.8,360.7z"/>
								</g>
							</g>
						</g>
						<g>
							<g>
								<g>
									<g>
										<rect x="450.4" y="409.8" class="st0" width="88.9" height="6.3"/>
									</g>
								</g>
								<g>
									<g>
										<rect x="450.4" y="420" class="st0" width="76.1" height="6.3"/>
									</g>
								</g>
								<g>
									<g>
										<rect x="450.4" y="430.2" class="st0" width="54" height="6.3"/>
									</g>
								</g>
								<g>
									<g>
										<rect x="450.4" y="440.4" class="st0" width="69.9" height="6.3"/>
									</g>
								</g>
							</g>
							<g>
								<g>
									<path class="st0" d="M431.8,409.8L431.8,409.8c-4.6,0-8.2,3.7-8.2,8.2v0c0,4.6,3.7,8.2,8.2,8.2l0,0c4.6,0,8.2-3.7,8.2-8.2
										v0C440.1,413.5,436.4,409.8,431.8,409.8z"/>
								</g>
							</g>
						</g>
					</g>
				</g>
				<g>
					<g>
						<g>
							<polygon class="st0" points="295,563.1 189.4,563.1 189.8,558.4 190.2,552.6 294.2,552.6 							"/>
						</g>
					</g>
					<g>
						<g>
							<polygon class="st0" points="521.8,563.1 416.2,563.1 416.6,558.4 417,552.6 521,552.6 							"/>
						</g>
					</g>
				</g>
			</g>
			<g>
				<g>
					<g>
						<polygon class="st6" points="225.7,438.5 224.2,434.9 283.9,409.8 284.4,409.9 390.1,428.7 498.5,308.2 501.4,310.8 
							391.6,432.9 284.3,413.8 						"/>
					</g>
				</g>
				<g>
					<g>
						<g>
							<polygon class="st6" points="504.2,316.4 507.5,301.2 492.7,306 							"/>
						</g>
					</g>
				</g>
			</g>
			<g>
				<g>
					<g>
						<g>
							<rect x="480.5" y="447.9" class="st7" width="94.7" height="12.3"/>
						</g>
					</g>
					<g>
						<g>
							<rect x="480.5" y="445.7" class="st8" width="94.7" height="2.3"/>
						</g>
					</g>
					<g>
						<g>
							<rect x="480.5" y="460.2" class="st9" width="94.7" height="2.3"/>
						</g>
					</g>
					<g>
						<g>
							<g>
								<rect x="486.3" y="447.9" class="st10" width="2.2" height="12.3"/>
							</g>
						</g>
						<g>
							<g>
								<rect x="494.4" y="447.9" class="st10" width="2.2" height="12.3"/>
							</g>
						</g>
						<g>
							<g>
								<rect x="502.5" y="447.9" class="st10" width="2.2" height="12.3"/>
							</g>
						</g>
						<g>
							<g>
								<rect x="510.6" y="447.9" class="st10" width="2.2" height="12.3"/>
							</g>
						</g>
						<g>
							<g>
								<rect x="518.7" y="447.9" class="st10" width="2.2" height="12.3"/>
							</g>
						</g>
						<g>
							<g>
								<rect x="526.8" y="447.9" class="st10" width="2.2" height="12.3"/>
							</g>
						</g>
						<g>
							<g>
								<rect x="534.9" y="447.9" class="st10" width="2.2" height="12.3"/>
							</g>
						</g>
						<g>
							<g>
								<rect x="543" y="447.9" class="st10" width="2.2" height="12.3"/>
							</g>
						</g>
						<g>
							<g>
								<rect x="551.1" y="447.9" class="st10" width="2.2" height="12.3"/>
							</g>
						</g>
						<g>
							<g>
								<rect x="559.2" y="447.9" class="st10" width="2.2" height="12.3"/>
							</g>
						</g>
						<g>
							<g>
								<rect x="567.3" y="447.9" class="st10" width="2.2" height="12.3"/>
							</g>
						</g>
					</g>
				</g>
				<g>
					<g>
						<g>
							<rect x="472.4" y="464.7" class="st7" width="94.7" height="12.3"/>
						</g>
					</g>
					<g>
						<g>
							<rect x="472.4" y="462.5" class="st8" width="94.7" height="2.3"/>
						</g>
					</g>
					<g>
						<g>
							<rect x="472.4" y="477" class="st9" width="94.7" height="2.3"/>
						</g>
					</g>
					<g>
						<g>
							<g>
								<rect x="478.1" y="464.7" class="st10" width="2.2" height="12.3"/>
							</g>
						</g>
						<g>
							<g>
								<rect x="486.2" y="464.7" class="st10" width="2.2" height="12.3"/>
							</g>
						</g>
						<g>
							<g>
								<rect x="494.4" y="464.7" class="st10" width="2.2" height="12.3"/>
							</g>
						</g>
						<g>
							<g>
								<rect x="502.5" y="464.7" class="st10" width="2.2" height="12.3"/>
							</g>
						</g>
						<g>
							<g>
								<rect x="510.6" y="464.7" class="st10" width="2.2" height="12.3"/>
							</g>
						</g>
						<g>
							<g>
								<rect x="518.7" y="464.7" class="st10" width="2.2" height="12.3"/>
							</g>
						</g>
						<g>
							<g>
								<rect x="526.8" y="464.7" class="st10" width="2.2" height="12.3"/>
							</g>
						</g>
						<g>
							<g>
								<rect x="534.9" y="464.7" class="st10" width="2.2" height="12.3"/>
							</g>
						</g>
						<g>
							<g>
								<rect x="543" y="464.7" class="st10" width="2.2" height="12.3"/>
							</g>
						</g>
						<g>
							<g>
								<rect x="551.1" y="464.7" class="st10" width="2.2" height="12.3"/>
							</g>
						</g>
						<g>
							<g>
								<rect x="559.2" y="464.7" class="st10" width="2.2" height="12.3"/>
							</g>
						</g>
					</g>
				</g>
				<g>
					<g>
						<g>
							<rect x="480.5" y="481.5" class="st7" width="94.7" height="12.3"/>
						</g>
					</g>
					<g>
						<g>
							<rect x="480.5" y="479.2" class="st8" width="94.7" height="2.3"/>
						</g>
					</g>
					<g>
						<g>
							<rect x="480.5" y="493.7" class="st9" width="94.7" height="2.3"/>
						</g>
					</g>
					<g>
						<g>
							<g>
								<rect x="486.3" y="481.5" class="st10" width="2.2" height="12.3"/>
							</g>
						</g>
						<g>
							<g>
								<rect x="494.4" y="481.5" class="st10" width="2.2" height="12.3"/>
							</g>
						</g>
						<g>
							<g>
								<rect x="502.5" y="481.5" class="st10" width="2.2" height="12.3"/>
							</g>
						</g>
						<g>
							<g>
								<rect x="510.6" y="481.5" class="st10" width="2.2" height="12.3"/>
							</g>
						</g>
						<g>
							<g>
								<rect x="518.7" y="481.5" class="st10" width="2.2" height="12.3"/>
							</g>
						</g>
						<g>
							<g>
								<rect x="526.8" y="481.5" class="st10" width="2.2" height="12.3"/>
							</g>
						</g>
						<g>
							<g>
								<rect x="534.9" y="481.5" class="st10" width="2.2" height="12.3"/>
							</g>
						</g>
						<g>
							<g>
								<rect x="543" y="481.5" class="st10" width="2.2" height="12.3"/>
							</g>
						</g>
						<g>
							<g>
								<rect x="551.1" y="481.5" class="st10" width="2.2" height="12.3"/>
							</g>
						</g>
						<g>
							<g>
								<rect x="559.2" y="481.5" class="st10" width="2.2" height="12.3"/>
							</g>
						</g>
						<g>
							<g>
								<rect x="567.3" y="481.5" class="st10" width="2.2" height="12.3"/>
							</g>
						</g>
					</g>
				</g>
				<g>
					<g>
						<g>
							<rect x="486.4" y="498.2" class="st7" width="94.7" height="12.3"/>
						</g>
					</g>
					<g>
						<g>
							<rect x="486.4" y="496" class="st8" width="94.7" height="2.3"/>
						</g>
					</g>
					<g>
						<g>
							<rect x="486.4" y="510.5" class="st9" width="94.7" height="2.3"/>
						</g>
					</g>
					<g>
						<g>
							<g>
								<rect x="492.1" y="498.2" class="st10" width="2.2" height="12.3"/>
							</g>
						</g>
						<g>
							<g>
								<rect x="500.2" y="498.2" class="st10" width="2.2" height="12.3"/>
							</g>
						</g>
						<g>
							<g>
								<rect x="508.3" y="498.2" class="st10" width="2.2" height="12.3"/>
							</g>
						</g>
						<g>
							<g>
								<rect x="516.4" y="498.2" class="st10" width="2.2" height="12.3"/>
							</g>
						</g>
						<g>
							<g>
								<rect x="524.5" y="498.2" class="st10" width="2.2" height="12.3"/>
							</g>
						</g>
						<g>
							<g>
								<rect x="532.6" y="498.2" class="st10" width="2.2" height="12.3"/>
							</g>
						</g>
						<g>
							<g>
								<rect x="540.7" y="498.2" class="st10" width="2.2" height="12.3"/>
							</g>
						</g>
						<g>
							<g>
								<rect x="548.8" y="498.2" class="st10" width="2.2" height="12.3"/>
							</g>
						</g>
						<g>
							<g>
								<rect x="556.9" y="498.2" class="st10" width="2.2" height="12.3"/>
							</g>
						</g>
						<g>
							<g>
								<rect x="565" y="498.2" class="st10" width="2.2" height="12.3"/>
							</g>
						</g>
						<g>
							<g>
								<rect x="573.1" y="498.2" class="st10" width="2.2" height="12.3"/>
							</g>
						</g>
					</g>
				</g>
				<g>
					<g>
						<g>
							<rect x="479.4" y="515" class="st7" width="94.7" height="12.3"/>
						</g>
					</g>
					<g>
						<g>
							<rect x="479.4" y="512.8" class="st8" width="94.7" height="2.3"/>
						</g>
					</g>
					<g>
						<g>
							<rect x="479.4" y="527.3" class="st9" width="94.7" height="2.3"/>
						</g>
					</g>
					<g>
						<g>
							<g>
								<rect x="485.1" y="515" class="st10" width="2.2" height="12.3"/>
							</g>
						</g>
						<g>
							<g>
								<rect x="493.2" y="515" class="st10" width="2.2" height="12.3"/>
							</g>
						</g>
						<g>
							<g>
								<rect x="501.3" y="515" class="st10" width="2.2" height="12.3"/>
							</g>
						</g>
						<g>
							<g>
								<rect x="509.4" y="515" class="st10" width="2.2" height="12.3"/>
							</g>
						</g>
						<g>
							<g>
								<rect x="517.5" y="515" class="st10" width="2.2" height="12.3"/>
							</g>
						</g>
						<g>
							<g>
								<rect x="525.6" y="515" class="st10" width="2.2" height="12.3"/>
							</g>
						</g>
						<g>
							<g>
								<rect x="533.7" y="515" class="st10" width="2.2" height="12.3"/>
							</g>
						</g>
						<g>
							<g>
								<rect x="541.8" y="515" class="st10" width="2.2" height="12.3"/>
							</g>
						</g>
						<g>
							<g>
								<rect x="550" y="515" class="st10" width="2.2" height="12.3"/>
							</g>
						</g>
						<g>
							<g>
								<rect x="558.1" y="515" class="st10" width="2.2" height="12.3"/>
							</g>
						</g>
						<g>
							<g>
								<rect x="566.2" y="515" class="st10" width="2.2" height="12.3"/>
							</g>
						</g>
					</g>
				</g>
				<g>
					<g>
						<g>
							<rect x="486.4" y="531.7" class="st7" width="94.7" height="12.3"/>
						</g>
					</g>
					<g>
						<g>
							<rect x="486.4" y="529.5" class="st8" width="94.7" height="2.3"/>
						</g>
					</g>
					<g>
						<g>
							<rect x="486.4" y="544" class="st9" width="94.7" height="2.3"/>
						</g>
					</g>
					<g>
						<g>
							<g>
								<rect x="492.1" y="531.7" class="st10" width="2.2" height="12.3"/>
							</g>
						</g>
						<g>
							<g>
								<rect x="500.2" y="531.7" class="st10" width="2.2" height="12.3"/>
							</g>
						</g>
						<g>
							<g>
								<rect x="508.3" y="531.7" class="st10" width="2.2" height="12.3"/>
							</g>
						</g>
						<g>
							<g>
								<rect x="516.4" y="531.7" class="st10" width="2.2" height="12.3"/>
							</g>
						</g>
						<g>
							<g>
								<rect x="524.5" y="531.7" class="st10" width="2.2" height="12.3"/>
							</g>
						</g>
						<g>
							<g>
								<rect x="532.6" y="531.7" class="st10" width="2.2" height="12.3"/>
							</g>
						</g>
						<g>
							<g>
								<rect x="540.7" y="531.7" class="st10" width="2.2" height="12.3"/>
							</g>
						</g>
						<g>
							<g>
								<rect x="548.8" y="531.7" class="st10" width="2.2" height="12.3"/>
							</g>
						</g>
						<g>
							<g>
								<rect x="556.9" y="531.7" class="st10" width="2.2" height="12.3"/>
							</g>
						</g>
						<g>
							<g>
								<rect x="565" y="531.7" class="st10" width="2.2" height="12.3"/>
							</g>
						</g>
						<g>
							<g>
								<rect x="573.1" y="531.7" class="st10" width="2.2" height="12.3"/>
							</g>
						</g>
					</g>
				</g>
				<g>
					<g>
						<g>
							<rect x="477.2" y="548.5" class="st7" width="94.7" height="12.3"/>
						</g>
					</g>
					<g>
						<g>
							<rect x="477.2" y="546.3" class="st8" width="94.7" height="2.3"/>
						</g>
					</g>
					<g>
						<g>
							<rect x="477.2" y="560.8" class="st9" width="94.7" height="2.3"/>
						</g>
					</g>
					<g>
						<g>
							<g>
								<rect x="482.9" y="548.5" class="st10" width="2.2" height="12.3"/>
							</g>
						</g>
						<g>
							<g>
								<rect x="491" y="548.5" class="st10" width="2.2" height="12.3"/>
							</g>
						</g>
						<g>
							<g>
								<rect x="499.1" y="548.5" class="st10" width="2.2" height="12.3"/>
							</g>
						</g>
						<g>
							<g>
								<rect x="507.2" y="548.5" class="st10" width="2.2" height="12.3"/>
							</g>
						</g>
						<g>
							<g>
								<rect x="515.3" y="548.5" class="st10" width="2.2" height="12.3"/>
							</g>
						</g>
						<g>
							<g>
								<rect x="523.4" y="548.5" class="st10" width="2.2" height="12.3"/>
							</g>
						</g>
						<g>
							<g>
								<rect x="531.5" y="548.5" class="st10" width="2.2" height="12.3"/>
							</g>
						</g>
						<g>
							<g>
								<rect x="539.6" y="548.5" class="st10" width="2.2" height="12.3"/>
							</g>
						</g>
						<g>
							<g>
								<rect x="547.7" y="548.5" class="st10" width="2.2" height="12.3"/>
							</g>
						</g>
						<g>
							<g>
								<rect x="555.8" y="548.5" class="st10" width="2.2" height="12.3"/>
							</g>
						</g>
						<g>
							<g>
								<rect x="563.9" y="548.5" class="st10" width="2.2" height="12.3"/>
							</g>
						</g>
					</g>
				</g>
				<g class="st11">
					<g>
						<g>
							<path class="st12" d="M572,473.9v89.2h-23.2c-6.6-3.5-12.3-8.5-16.6-14.6c-5.5-7.7-8.7-17.1-8.7-27.3
								c0-26.2,21.2-47.4,47.4-47.4C571.2,473.8,571.6,473.8,572,473.9z"/>
						</g>
					</g>
				</g>
				<g>
					<g>
						<g>
							<g>
								<path class="st7" d="M619.3,515.7c0,26.2-21.2,47.4-47.4,47.4c-7.7,0-15-1.8-21.4-5.1c-6.9-3.5-12.8-8.7-17.2-14.9
									c-5.5-7.7-8.7-17.1-8.7-27.3c0-26.2,21.2-47.4,47.4-47.4c4.8,0,9.4,0.7,13.7,2c9.1,2.7,17,8.1,22.9,15.3
									C615.3,493.8,619.3,504.2,619.3,515.7z"/>
							</g>
						</g>
					</g>
					<g>
						<g>
							<g>
								<path class="st8" d="M571.9,558.8c-23.8,0-43.1-19.4-43.1-43.1c0-23.8,19.4-43.1,43.1-43.1c23.8,0,43.1,19.4,43.1,43.1
									C615.1,539.4,595.7,558.8,571.9,558.8z M571.9,475.5c-22.2,0-40.2,18-40.2,40.2c0,22.2,18,40.2,40.2,40.2s40.2-18,40.2-40.2
									C612.1,493.5,594.1,475.5,571.9,475.5z"/>
							</g>
						</g>
					</g>
					<g>
						<g>
							<g>
								<path class="st13" d="M585.8,520.6c-1.1-1.7-2.4-3.2-3.9-4.4c-1.4-1.1-3.3-2.4-5.7-3.8c-1.9-1.2-3.4-2.1-4.4-2.9
									c-1-0.7-1.8-1.6-2.4-2.6c-0.6-0.9-0.9-1.9-0.9-3c0-1.2,0.3-2.1,0.9-2.6c0.6-0.5,1.6-0.8,2.9-0.8s2.3,0.3,2.9,0.8
									c0.6,0.5,0.9,1.4,0.9,2.6v3h11.3v-2.5c0-3.4-1-6.2-2.9-8.3c-1.8-1.9-4.3-3.2-7.5-3.8v-3.6h-10.1v3.6c-3.1,0.7-5.6,2-7.3,3.9
									c-1.9,2.1-2.9,4.9-2.9,8.2c0,2.4,0.6,4.5,1.7,6.3c1.1,1.7,2.4,3.2,3.9,4.4c1.4,1.1,3.3,2.4,5.7,3.8c1.9,1.2,3.4,2.1,4.4,2.9
									c1,0.7,1.8,1.6,2.4,2.6c0.6,0.9,0.9,1.9,0.9,3c0,1.7-0.5,3.4-3.9,3.4c-3.5,0-3.9-1.7-3.9-3.4v-4.7h-11.3v4.2
									c0,3.4,1,6.2,2.9,8.3c1.8,1.9,4.3,3.2,7.5,3.9v3.5H577v-3.5c3.2-0.6,5.7-1.9,7.5-3.8c2-2.1,3-4.9,3-8.4
									C587.5,524.6,586.9,522.4,585.8,520.6z"/>
							</g>
						</g>
					</g>
					<g class="st14">
						<g>
							<g>
								<path class="st1" d="M608.5,485.6l-58,72.3c-6.9-3.5-12.8-8.7-17.2-14.9l52.3-72.7C594.7,473,602.6,478.4,608.5,485.6z"/>
							</g>
						</g>
					</g>
				</g>
			</g>
			<g>
				<g>
					<g>
						<path class="st3" d="M332.5,561.4c0.3-0.3,0.7-0.5,1.1-0.6c0.4-0.1,0.8-0.1,1.3-0.1c1-0.1,2.1-0.3,3-0.9
							c0.5-0.3,0.9-0.6,1.4-0.8l3,0.1c0.4,0.4,0.7,1,0.8,1.6c0.1,0.5,0.1,1.1,0.1,1.6v0.6h-10.9v-0.6h0
							C332.2,562.1,332.3,561.7,332.5,561.4z"/>
					</g>
				</g>
				<g>
					<g>
						<polygon class="st15" points="342.7,555.9 342.3,559.2 339.3,559.1 339.1,556.1 						"/>
					</g>
				</g>
				<g>
					<g>
						<path class="st3" d="M303.4,560.3c0.3-0.3,0.7-0.4,1.2-0.5c0.4,0,0.8,0,1.3,0.1c1,0.1,2.1-0.1,3-0.5c0.5-0.2,1-0.5,1.5-0.6
							l3,0.4c0.4,0.5,0.6,1.1,0.6,1.7c0.1,0.5,0,1.1-0.1,1.6l-0.1,0.6l-10.9-1.2l0.1-0.6l0,0C303.1,560.9,303.2,560.5,303.4,560.3z"
							/>
					</g>
				</g>
				<g>
					<g>
						<path class="st5" d="M345.3,507.9c0.6-11.5,0.5-27.9-2.6-37.1c0-0.2-24.2,2-24.2,2l-5.6,23.2c-2,8.2-3,16.5-2.9,24.9l0.3,34.8
							l4.1,0.3l7.5-46.1c2.8-5.5,5.8-11.8,8.1-17.9l8.8,64.1l4.1-0.2C342.9,555.9,345.3,507.9,345.3,507.9L345.3,507.9z"/>
					</g>
				</g>
				<g>
					<g>
						<polygon class="st15" points="314.1,555.9 313.4,559.1 310.4,558.7 310.5,555.7 						"/>
					</g>
				</g>
				<g>
					<g>
						<g>
							<g>
								<path class="st16" d="M282.3,405.5c0.7-0.5,1.5-0.4,2,0.2c2.9,3.5,5.9,6.8,9.1,9.9c3.2,3.1,6.5,6,10,8.7c3.5,2.6,7.2,5,11,7
									c1.9,1,3.9,1.9,5.8,2.8c0.5,0.2,1,0.4,1.5,0.6l1.5,0.6c1,0.4,2,0.7,3,1.1c0.3,0.1,0.6,0.3,0.9,0.4c0.3,0.2,0.5,0.4,0.8,0.6
									c0.5,0.4,0.8,1,1.1,1.6c0.5,1.2,0.7,2.7,0.2,4.1c-0.5,1.4-1.5,2.5-2.8,3.1c-0.6,0.3-1.3,0.4-2,0.4c-0.4,0-0.7,0-1.1-0.1
									c-0.4-0.1-0.7-0.2-1.1-0.4c-1.1-0.5-2.2-1.1-3.2-1.7l-1.6-0.9c-0.5-0.3-1-0.6-1.6-0.9c-2.1-1.2-4.1-2.6-6-4
									c-3.9-2.8-7.5-5.9-10.9-9.2c-3.3-3.3-6.4-6.9-9.3-10.5c-2.8-3.7-5.4-7.5-7.9-11.4C281.5,406.9,281.7,406,282.3,405.5z"/>
							</g>
						</g>
					</g>
					<g>
						<g>
							<path class="st3" d="M309.6,441.1l10.9,5.1c3.3,1.5,7.2,0.4,8.7-2.9l0,0c1.5-3.3,0.1-7.5-3.1-9l-10.9-5.1L309.6,441.1z"/>
						</g>
					</g>
				</g>
				<g>
					<g>
						
							<ellipse transform="matrix(0.2298 -0.9732 0.9732 0.2298 -182.0037 593.6899)" class="st6" cx="284.1" cy="411.8" rx="11.3" ry="11.3"/>
					</g>
				</g>
				<g>
					<g>
						<path class="st1" d="M284.1,420.2c-4.6,0-8.4-3.8-8.4-8.4c0-4.6,3.8-8.4,8.4-8.4c4.6,0,8.4,3.8,8.4,8.4
							C292.4,416.4,288.7,420.2,284.1,420.2z"/>
					</g>
				</g>
				<g>
					<g>
						<path class="st3" d="M331.6,431.8L331.6,431.8c-9.1-0.1-16.2,7.9-14.9,17l1.8,24c10.1,3.7,17.7,1.7,24.2-2l1.1-25.5
							C344.4,438.1,338.8,431.9,331.6,431.8z"/>
					</g>
				</g>
				<g>
					<g>
						<path class="st1" d="M341.7,436.9l-0.2,0.2c1,1.4,1.7,3,2,4.8l0.3,0C343.5,440,342.8,438.3,341.7,436.9z M331.6,474.6v0.3
							c2.2-0.2,4.4-0.8,6.6-1.7l-0.1-0.3C336.2,473.7,334,474.3,331.6,474.6z M336.9,432.8c-1.6-0.8-3.4-1.2-5.3-1.2h-0.2
							c-4.4,0-8.6,1.9-11.5,5.2c-1.7,1.9-2.8,4.2-3.4,6.6l0.3,0.1c1.5-6.6,7.5-11.7,14.7-11.6c1.9,0,3.7,0.5,5.2,1.2L336.9,432.8z
							 M318.3,469.8c-0.1,0-0.2,0.1-0.3,0.1l0.2,3.1l0.2,0.1c2.3,0.8,4.5,1.4,6.7,1.7v-0.3c-2.1-0.3-4.3-0.8-6.6-1.7L318.3,469.8z
							 M316.4,448.9l0.9,12.1h0.3l-0.9-12.1H316.4z"/>
					</g>
				</g>
				<g>
					<g>
						<path class="st3" d="M333.8,415.2c0,0,6.3,1.5,4.7,8.5c-1,4.7-4.4,7.1-9.3,7.9L333.8,415.2z"/>
					</g>
				</g>
				<g>
					<g>
						<g>
							<path class="st15" d="M327.3,427l0.5,7.2c2.1,1.2,4,1.1,6-0.3l-0.5-7.2L327.3,427z"/>
						</g>
					</g>
					<g>
						<g>
							<path class="st16" d="M327.3,427.8l0.1,2.3c0.9,0.5,2,0.8,3.1,0.8c0.1,0,0.1,0,0.2,0c1-0.1,2-0.5,2.7-1.2l-0.1-2.1
								L327.3,427.8z"/>
						</g>
					</g>
					<g>
						<g>
							<path class="st15" d="M324.3,418.5l0.4,5.3l0.1,1.2c0.3,2.9,2.7,5.2,5.7,5.2c0.3,0,0.6,0,0.9-0.1c0.1,0,0.2-0.1,0.3-0.1
								c0,0,0,0,0.1,0c0.4-0.2,0.8-0.5,1.1-0.8c0.7-0.8,1.1-1.6,1.5-2.5c0.3-0.8,0.6-1.5,0.8-2.3c0.2-0.9,0.4-1.8,0.3-2.8l-0.4-4.7
								l-9.1-0.7L324.3,418.5z"/>
						</g>
					</g>
					<g>
						<g>
							<path class="st3" d="M333.7,417.1c0,0-10.4,0.6-8.3,9.8c0,0-3.3-6.6,0.1-11c3.7-4.9,8.6-3.3,10.3-0.9c1.7,2.3,3,6.2-1.8,9
								C333.9,423.9,335.5,420.4,333.7,417.1z"/>
						</g>
					</g>
					<g>
						<g>
							<path class="st15" d="M333.5,422.7c0.1,1.2,1.1,2.1,2.3,2.1c1.2-0.1,2.1-1.1,2.1-2.3c-0.1-1.2-1.1-2.1-2.3-2.1
								C334.3,420.5,333.4,421.5,333.5,422.7z"/>
						</g>
					</g>
				</g>
				<g>
					<g>
						<g>
							<g>
								<path class="st15" d="M284.8,416.6c0.6-0.6,1.4-0.6,2-0.1c3.5,2.9,7,5.6,10.7,8.1c3.7,2.5,7.5,4.7,11.4,6.7
									c3.9,1.9,8,3.6,12.1,4.9c2.1,0.6,4.1,1.2,6.2,1.6c0.5,0.1,1,0.2,1.6,0.3l1.6,0.3c1.1,0.2,2.1,0.4,3.2,0.5
									c0.3,0.1,0.7,0.1,1,0.3c0.3,0.1,0.6,0.3,0.9,0.4c0.5,0.4,1,0.8,1.4,1.4c0.8,1.1,1.1,2.5,0.9,4c-0.2,1.5-1,2.7-2.2,3.5
									c-0.6,0.4-1.2,0.7-1.9,0.8c-0.4,0.1-0.7,0.1-1.1,0.1c-0.4,0-0.7-0.1-1.1-0.2c-1.2-0.3-2.3-0.7-3.5-1l-1.7-0.6
									c-0.6-0.2-1.1-0.4-1.7-0.6c-2.3-0.8-4.5-1.8-6.6-2.8c-4.3-2-8.5-4.4-12.4-7.1c-3.9-2.6-7.6-5.6-11-8.7
									c-3.5-3.1-6.7-6.4-9.8-9.8C284.2,418.1,284.3,417.2,284.8,416.6z"/>
							</g>
						</g>
					</g>
					<g>
						<g>
							<path class="st3" d="M318.2,446.9l11.6,3c3.5,0.9,7.1-0.9,8-4.4l0,0c0.9-3.5-1.2-7.4-4.7-8.3l-11.6-3L318.2,446.9z"/>
						</g>
					</g>
					<g>
						<g>
							<path class="st1" d="M337.2,447.5c0.4-0.6,0.7-1.3,0.9-2c0.5-1.7,0.2-3.7-0.7-5.3c-0.2-0.3-0.3-0.5-0.5-0.8l-0.2,0.2
								c1.2,1.6,1.7,3.8,1.2,5.8c-0.7,2.6-2.9,4.3-5.5,4.6l0.1,0.3C334.4,450.1,336.1,449.1,337.2,447.5z M329.7,450.1
								c0,0,0.1,0,0.1,0l-0.1-0.3l-3.5-0.9l0,0.3L329.7,450.1z M324.9,448.9l0-0.3l-3.3-0.9l0,0.3L324.9,448.9z M319.9,447.6l0-0.3
								l-1.7-0.5l2.5-9.7l-0.3-0.1l-2.6,10L319.9,447.6z M331.6,436.5l-8.4-2.2l-0.1,0.3l8.5,2.2L331.6,436.5z"/>
						</g>
					</g>
				</g>
			</g>
			<g>
				<g>
					<g>
						<path class="st3" d="M519.3,298c-0.3-2.8,1.6-5.5,4.5-6.1c1.5-0.3,3,0,4.2,0.7c0.7-0.6,1.6-1.1,2.6-1.3
							c2.7-0.6,5.4,0.8,6.4,3.3c2.2,0.4,4.1,2.1,4.6,4.4c0.3,1.2,0.1,2.5-0.4,3.5c1.6,0.7,2.9,2.2,3.3,4c0.6,2.8-0.9,5.5-3.4,6.5
							c0.1,0.2,0.1,0.3,0.1,0.5c0.7,3.1-1.3,6.1-4.4,6.8c-1.7,0.4-3.3,0-4.6-1c-0.1,0-0.1,0-0.2,0.1c-0.9,0.2-1.9,0.2-2.7-0.1
							c-0.7,0.6-1.5,1-2.5,1.2c-3.1,0.7-6.1-1.3-6.8-4.4c-0.2-0.9-0.2-1.7,0-2.5c-0.5-0.7-0.9-1.4-1.1-2.3c-0.3-1.5,0-2.9,0.7-4.2
							c-1.2-0.8-2-2-2.4-3.5C516.8,301.5,517.6,299.3,519.3,298z"/>
					</g>
				</g>
				<g>
					<g>
						<g>
							<g>
								<path class="st16" d="M474.4,331c0.6-0.5,1.5-0.5,2,0c3.1,2.9,6.9,5.2,10.8,6.3c1.9,0.5,3.9,0.8,5.9,0.6
									c1-0.1,1.9-0.2,2.9-0.4c0.9-0.2,1.9-0.5,2.8-0.8c0.9-0.4,1.8-0.8,2.6-1.2l0.3-0.2l0.3-0.2c0.2-0.1,0.4-0.3,0.6-0.4
									c0.4-0.3,0.8-0.5,1.2-0.8c1.6-1.2,3.1-2.5,4.6-3.9c2.9-2.9,5.4-6.3,7.6-9.9c0.4-0.6,0.8-1,1.4-1.3c0.3-0.2,0.6-0.3,0.9-0.4
									c0.3-0.1,0.6-0.2,0.9-0.3c1.3-0.2,2.8,0,4,0.8c1.3,0.8,2,2.1,2.3,3.4c0.1,0.3,0.1,0.7,0.1,1c0,0.3-0.1,0.7-0.2,1
									c-0.2,0.7-0.5,1.4-1,1.9c-1.5,1.8-3.2,3.6-4.9,5.3c-1.7,1.7-3.6,3.3-5.5,4.8c-2,1.5-4.1,2.9-6.3,4c-0.6,0.3-1.1,0.6-1.7,0.8
									c-0.3,0.1-0.6,0.3-0.9,0.4l-0.4,0.2l-0.4,0.2c-1.2,0.5-2.4,0.8-3.7,1.1c-2.5,0.6-5.1,0.8-7.7,0.6c-2.6-0.2-5.1-0.9-7.4-1.9
									c-2.3-1-4.4-2.3-6.3-3.8c-1.9-1.5-3.6-3.2-5.1-5C473.7,332.4,473.8,331.4,474.4,331z"/>
							</g>
						</g>
					</g>
					<g>
						<g>
							<path class="st5" d="M506.3,328.9l7.6-9.2c2.3-2.8,6.3-3.4,9.1-1.1l0,0c2.8,2.3,3.3,6.7,1,9.5l-7.6,9.2L506.3,328.9z"/>
						</g>
					</g>
				</g>
				<g>
					<g>
						<path class="st3" d="M529,444.1c0.3-0.3,0.7-0.5,1.1-0.6c0.4-0.1,0.8-0.1,1.3-0.1c1-0.1,2.1-0.3,3-0.9
							c0.5-0.3,0.9-0.6,1.4-0.8l3,0.1c0.4,0.4,0.7,1,0.8,1.6c0.1,0.5,0.1,1.1,0.1,1.6v0.6h-10.9v-0.6h0
							C528.7,444.7,528.8,444.4,529,444.1z"/>
					</g>
				</g>
				<g>
					<g>
						<polygon class="st15" points="539.1,438.6 538.7,441.8 535.8,441.8 535.5,438.7 						"/>
					</g>
				</g>
				<g>
					<g>
						<path class="st2" d="M526.5,374.5c-3,7.5-6.8,14.2-10.9,19.1l-4.6,45.8l-14.7-0.8l6.9-44.8c0.3-2,0.8-4,1.4-5.9
							c0,0,10.6-32.8,10.6-32.8c1.1-4.3,24.3-1.2,24.3-1.2c6.4,8.9,2.4,37.2,2.4,37.2l3.4,47.5l-15.7,0.3l0.1-47.1L526.5,374.5z"/>
					</g>
				</g>
				<g>
					<g>
						<polygon class="st15" points="505.3,439 504.4,441.8 501.4,441.8 501.9,438.9 						"/>
					</g>
				</g>
				<g>
					<g>
						<path class="st3" d="M494.7,444.1c0.3-0.3,0.7-0.5,1.1-0.6c0.4-0.1,0.8-0.1,1.3-0.1c1-0.1,2.1-0.4,3-0.9
							c0.5-0.3,0.9-0.6,1.4-0.8l3,0.1c0.4,0.4,0.7,1,0.8,1.6c0.1,0.5,0.1,1.1,0.1,1.6l0,0.6l-10.9,0l0-0.6h0
							C494.4,444.7,494.4,444.4,494.7,444.1z"/>
					</g>
				</g>
				<g>
					<g>
						<path class="st5" d="M530.2,314.6L530.2,314.6c-9.1-0.5-16.6,7.1-15.7,16.2l0.6,24.1c9.9,4.2,17.6,2.1,24.3-1.2l2.3-25.1
							C542.7,321.5,537.4,315.1,530.2,314.6z"/>
					</g>
				</g>
				<g>
					<g>
						<path class="st2" d="M533.9,315.1l0,0.3c3.3,1.3,5.9,3.9,7.1,7.1c0.1,0,0.2,0,0.3,0c-0.5-1.3-1.2-2.5-2-3.5
							C537.8,317.2,535.9,315.9,533.9,315.1z M516.9,356c3.1,1.1,6.1,1.6,9.1,1.6c1.9,0,3.8-0.2,5.8-0.7l0-0.3c-4.4,1-9.2,1-14.8-1
							L516.9,356z M514.2,330.9l0.1,2.1l0.3,0l-0.1-2.1c-0.6-6.8,3.5-12.9,9.4-15.2l0-0.3c-2.1,0.8-4.1,2.2-5.7,3.9
							C515.2,322.5,513.8,326.6,514.2,330.9z M514.8,343.8h-0.3l0.2,7.8h0.3L514.8,343.8z M536.9,354.9v0.3c0.8-0.4,1.7-0.8,2.6-1.2
							l0.1-0.1l0.5-5.8l-0.3-0.1l-0.5,5.8C538.6,354.2,537.7,354.6,536.9,354.9z"/>
					</g>
				</g>
				<g>
					<g>
						<g>
							<path class="st15" d="M525.7,309.5l0,9.2c2,1.3,4,1.3,6,0l0-9.2L525.7,309.5z"/>
						</g>
					</g>
					<g>
						<g>
							<path class="st16" d="M525.7,310.4l0,2.3c0.9,0.5,1.9,0.9,3,0.9c0.1,0,0.1,0,0.2,0c1,0,2-0.4,2.7-1.1l0-2.1L525.7,310.4z"/>
						</g>
					</g>
					<g>
						<g>
							<path class="st15" d="M523.2,300.9l0.1,5.3l0,1.2c0.1,3,2.5,5.3,5.4,5.5c0.3,0,0.6,0,0.9-0.1c0.1,0,0.2-0.1,0.3-0.1
								c0,0,0,0,0.1,0c0.4-0.2,0.8-0.4,1.1-0.8c0.7-0.7,1.2-1.6,1.6-2.4c0.4-0.7,0.7-1.5,1-2.2c0.3-0.9,0.5-1.8,0.4-2.8l-0.2-4.7
								l-9-1.1L523.2,300.9z"/>
						</g>
					</g>
					<g>
						<g>
							<path class="st3" d="M521.3,302.4c0-0.6,0.6-1.9,0.6-1.9s0.4-0.6,1.1-1c0.2-0.1,0.5-0.1,0.7-0.1c0.3-0.3,0.6-0.6,1.1-0.9
								c2.1-1.1,5-1.2,6.5-0.6c1.1,0.5,3.2,0.7,2.8,1.1c0.7,0,0.3,0.9,0.8,2.8c0.4,1.7,0.4,4.5-0.5,5.1c-0.9,0.5-2.1,0.3-1.3-1.7
								c0,0,0-0.1,0-0.2c-0.3-0.1-0.7-0.3-0.9-0.6c-0.3-0.4-0.5-1-0.5-1.5c-0.1-0.5-0.1-1.1-0.3-1.6c-0.2-0.7-0.6-1.2-1.2-1.7
								c-0.1,0-0.2-0.1-0.2-0.1c-0.2,0.1-0.4,0.2-0.5,0.3c-0.6,0.5-1,1.2-1.4,1.8c-0.9,1.2-2.2,2.1-3.7,2.6c-0.3,0.1-0.7,0.1-1,0.1
								c0,0.1,0,0.2,0,0.3c0,0-1.2-0.1-1.6-0.6C521.3,303.3,521.3,302.9,521.3,302.4z"/>
						</g>
					</g>
					<g>
						<g>
							<path class="st15" d="M532.1,305.6c0,1.2,1,2.2,2.2,2.2c1.2,0,2.2-1,2.2-2.2c0-1.2-1-2.2-2.2-2.2
								C533,303.4,532.1,304.4,532.1,305.6z"/>
						</g>
					</g>
				</g>
				<g>
					<g>
						<circle class="st6" cx="478.1" cy="333.8" r="11.3"/>
					</g>
				</g>
				<g>
					<g>
						<path class="st1" d="M478.1,342.1c-4.6,0-8.4-3.8-8.4-8.4s3.8-8.4,8.4-8.4s8.4,3.8,8.4,8.4S482.8,342.1,478.1,342.1z"/>
					</g>
				</g>
				<g>
					<g>
						<g>
							<g>
								<path class="st15" d="M480.6,330.8c0.3-0.7,1.1-1.1,1.7-0.9c1,0.3,2,0.5,3.1,0.7c0.5,0.1,1,0.2,1.6,0.2
									c0.5,0.1,1,0.1,1.6,0.2c2.1,0.2,4.2,0.3,6.3,0.3c4.2,0,8.4-0.5,12.5-1.4l0.8-0.2l0.8-0.2l1.5-0.3l1.5-0.4
									c0.5-0.1,1-0.3,1.5-0.4c1-0.3,2-0.6,3-0.9l1.5-0.5c0.5-0.2,1-0.4,1.5-0.5c4-1.4,7.8-3.1,11.6-5c1.2-0.6,2.5-0.5,3.8,0
									c1.2,0.5,2.3,1.5,2.9,2.9v0c0.6,1.4,0.7,2.8,0.2,4.1c-0.5,1.3-1.5,2.3-2.8,2.8c-4.3,1.5-8.8,2.7-13.3,3.6
									c-0.6,0.1-1.1,0.2-1.7,0.3l-1.7,0.3c-1.1,0.2-2.3,0.4-3.4,0.5c-0.6,0.1-1.1,0.1-1.7,0.2l-1.7,0.2l-1.7,0.1l-0.9,0.1l-0.9,0
									c-4.6,0.2-9.2,0.1-13.7-0.5c-2.3-0.3-4.5-0.7-6.7-1.3c-0.6-0.1-1.1-0.3-1.7-0.4c-0.5-0.2-1.1-0.3-1.6-0.5
									c-1.1-0.4-2.2-0.8-3.2-1.2C480.6,332.4,480.2,331.5,480.6,330.8z"/>
							</g>
						</g>
					</g>
					<g>
						<g>
							<path class="st5" d="M522.7,337.1l11.2-4.3c3.4-1.3,5.3-4.9,4-8.3l0,0c-1.3-3.4-5.3-5.3-8.7-4l-11.2,4.3L522.7,337.1z"/>
						</g>
					</g>
					<g>
						<g>
							<path class="st2" d="M523.7,322.4l-6,2.3l0.8,2.1l0.3-0.1l-0.7-1.9l5.7-2.2L523.7,322.4z M530.1,320l0,0.3
								c3.2-0.7,6.6,1.2,7.8,4.2c0.2,0.4,0.3,0.8,0.3,1.2l0.3,0c-0.1-0.4-0.2-0.9-0.4-1.3c-0.6-1.7-2-3.1-3.7-3.9
								C533.1,319.9,531.6,319.7,530.1,320z M537,330.9l-0.2-0.1c-0.7,0.9-1.7,1.6-2.8,2l-3.9,1.5l0.1,0.3l3.9-1.5
								C535.2,332.6,536.3,331.9,537,330.9z M522.7,337.1l-2.7-7l-0.2,0.1l2.8,7.3l3.2-1.2l-0.1-0.2L522.7,337.1z"/>
						</g>
					</g>
				</g>
			</g>
			<g>
				<g>
					<g>
						<g>
							<path class="st16" d="M232.3,434.4c-0.8-0.2-1.5,0.3-1.7,1c-0.7,2.1-1.4,4.2-2.2,6.2c-0.4,1-0.9,2-1.4,2.9
								c-0.5,0.9-1,1.8-1.6,2.6c-0.6,0.8-1.2,1.6-1.9,2.2c-0.2,0.2-0.3,0.3-0.5,0.4l-0.3,0.2l-0.1,0.1l-0.1,0.1
								c-0.3,0.2-0.7,0.4-1,0.5c-0.3,0.1-0.7,0.2-1,0.3c-0.3,0-0.7,0-1,0c-0.4,0-0.7-0.1-1.1-0.2c-0.4-0.1-0.8-0.2-1.1-0.4
								c-0.8-0.3-1.6-0.8-2.4-1.3c-0.8-0.5-1.6-1.1-2.3-1.8c-1.5-1.3-3-2.8-4.4-4.4c-1.4-1.6-2.8-3.2-4.2-4.9
								c-1.4-1.7-2.7-3.5-4-5.2c-0.8-1.1-2.1-1.7-3.4-1.9c-1.3-0.1-2.7,0.2-3.9,1.1c-1.1,0.9-1.8,2.2-1.9,3.5
								c-0.1,1.3,0.3,2.7,1.3,3.8c1.6,1.7,3.2,3.3,4.9,4.9c1.7,1.6,3.4,3.2,5.2,4.7c1.8,1.5,3.7,3,5.8,4.3c1,0.7,2.1,1.3,3.3,1.9
								c1.2,0.6,2.4,1.1,3.8,1.4c0.7,0.2,1.4,0.3,2.1,0.4c0.7,0.1,1.5,0.1,2.3,0c0.8-0.1,1.6-0.2,2.3-0.4c0.8-0.2,1.5-0.6,2.1-0.9
								c0.7-0.4,1.3-0.8,1.8-1.3l0.2-0.2l0.2-0.2l0.4-0.4c0.2-0.3,0.5-0.5,0.7-0.8c0.9-1.1,1.5-2.2,2.1-3.3c0.6-1.1,1-2.2,1.5-3.4
								c0.4-1.1,0.8-2.3,1.1-3.4c0.6-2.3,1.1-4.5,1.5-6.8C233.6,435.3,233.1,434.6,232.3,434.4z"/>
						</g>
					</g>
					<g>
						<g>
							<path class="st5" d="M200.8,452.6l-8.8-10.3c-2.7-3.1-2.6-7.7,0.5-10.4l0,0c3.1-2.7,8.1-2.4,10.8,0.7l8.8,10.3L200.8,452.6z"
								/>
						</g>
					</g>
					<g>
						<g>
							<path class="st3" d="M203.6,432.3c-0.3-0.4-0.7-0.7-1.1-1l-0.2,0.3c0.4,0.3,0.7,0.6,1,1l0.9,1c0.1-0.1,0.2-0.2,0.3-0.2
								L203.6,432.3z M203.3,450.4l-2.6,2.2l-2.5-2.9L198,450l2.7,3.1l2.8-2.4L203.3,450.4z M193,444.1l3.3,3.9l0.3-0.2l-3.2-3.8
								L193,444.1z M195.2,430c-1.1,0.3-2.1,0.9-3,1.6c-1.3,1.1-2.2,2.7-2.5,4.4l0.4,0.1c0.2-1.6,1-3.1,2.4-4.3
								c1.6-1.4,3.7-2,5.8-1.8l0.3-0.4C197.4,429.6,196.3,429.7,195.2,430z M208,437.6l-0.3,0.3l2.2,2.6l0.2-0.3L208,437.6z
								 M208.8,445.7l-2.5,2.2l0.2,0.3l2.6-2.2L208.8,445.7z"/>
						</g>
					</g>
				</g>
				<g>
					<g>
						<path class="st3" d="M192,556.5l13.1,6.6c0.2-0.5,0.3-0.9,0.3-1.4c-0.1-0.6-0.5-1-1-1.4c-0.5-0.3-1-0.6-1.5-0.9
							c-1.2-0.7-2.3-1.7-3-2.8c-0.4-0.6-0.7-1.3-1.2-1.8l-3.6-1.7c-0.8,0.3-1.4,0.8-1.9,1.4C192.6,555.2,192.3,555.8,192,556.5z"/>
					</g>
				</g>
				<g>
					<g>
						<path class="st3" d="M179.3,561.2l14.5,1.9c0.1-0.5,0-1-0.2-1.4c-0.3-0.5-0.8-0.8-1.4-1c-0.5-0.2-1.1-0.2-1.7-0.3
							c-1.4-0.2-2.7-0.8-3.8-1.7c-0.6-0.4-1.1-0.9-1.8-1.3l-4-0.4c-0.6,0.5-1.1,1.2-1.3,2C179.5,559.7,179.3,560.5,179.3,561.2z"/>
					</g>
				</g>
				<g>
					<g>
						<g>
							<polygon class="st3" points="185.4,512.8 185.4,512.8 185.4,512.8 							"/>
						</g>
					</g>
					<g class="st17">
						<g>
							<polygon class="st3" points="187.4,482.2 187.4,482.2 187.4,482.2 187.4,482.2 							"/>
						</g>
					</g>
					<g>
						<g>
							<g>
								<polygon class="st3" points="185.4,512.8 185.4,512.8 185.4,512.8 								"/>
							</g>
						</g>
						<g>
							<g>
								<polygon class="st3" points="185.4,512.8 185.4,512.8 185.4,512.8 								"/>
							</g>
						</g>
						<g>
							<g>
								<path class="st2" d="M218.5,511.4L218.5,511.4l-6.9-30.8c0,0-31.4,1.9-31.3,2.6l0.1,74l5.2,0.3l11.1-57.9l9.8,15.4l-12.1,38
									l4.8,1.9l19-40.8C218.5,513.4,218.6,512.4,218.5,511.4z M185.4,512.8C185.4,512.8,185.4,512.8,185.4,512.8
									C185.4,512.8,185.4,512.8,185.4,512.8L185.4,512.8z"/>
							</g>
						</g>
						<g class="st17">
							<g>
								<polygon class="st3" points="185.4,512.8 185.4,512.8 185.4,512.8 								"/>
							</g>
						</g>
					</g>
				</g>
				<g>
					<g>
						<path class="st5" d="M192.6,429.8L192.6,429.8c7.9-1.3,15.3,4.5,15.9,12.5l3.1,38.3c-12.3,7.1-20,5.5-31.5,2.6l-1.6-36
							C178.1,438.7,184.2,431.2,192.6,429.8z"/>
					</g>
				</g>
				<g>
					<g>
						<path class="st3" d="M180.7,437.3c-0.9,1.5-1.7,3.2-2.1,5l0.4,0.1c0.4-1.7,1.1-3.4,2.1-4.9L180.7,437.3z M180.1,483.2
							l-0.4-9.1l-0.4,0.1l0.4,9.4l0.3,0.1c1,0.2,1.9,0.5,2.8,0.7l0.1-0.4C182,483.7,181.1,483.5,180.1,483.2z M210.2,458.1l-0.4,0
							l1.8,22.5c-2.3,1.3-4.5,2.4-6.6,3.1l0.1,0.4c2.2-0.8,4.4-1.9,6.7-3.2l0.2-0.1L210.2,458.1z M191.2,485.9
							c1.2,0.1,2.3,0.2,3.5,0.2v-0.4c-1.1,0-2.2-0.1-3.3-0.2L191.2,485.9z M178.8,453.4l-0.4-0.1l0.4,8.7h0.4L178.8,453.4z
							 M208.9,442.3c-0.6-7.4-6.8-13.1-14.2-13.1c-0.3,0-0.6,0-0.9,0v0.4c0.4,0,0.7,0,1.1,0c7,0,13.1,5.4,13.7,12.7l0.6,6.9l0.4-0.1
							L208.9,442.3z"/>
					</g>
				</g>
				<g>
					<g>
						
							<ellipse transform="matrix(0.7071 -0.7071 0.7071 0.7071 -242.9054 286.9687)" class="st6" cx="224.9" cy="436.7" rx="11.3" ry="11.3"/>
					</g>
				</g>
				<g>
					<g>
						<path class="st1" d="M224.9,445.1c-4.6,0-8.4-3.8-8.4-8.4s3.8-8.4,8.4-8.4c4.6,0,8.4,3.8,8.4,8.4S229.6,445.1,224.9,445.1z"/>
					</g>
				</g>
				<g>
					<g>
						<g>
							<path class="st15" d="M223.4,442c-0.8-0.2-1.5,0.3-1.7,1c-0.7,2.1-1.4,4.2-2.2,6.2c-0.4,1-0.9,2-1.4,2.9
								c-0.5,0.9-1,1.8-1.6,2.6c-0.6,0.8-1.2,1.6-1.9,2.2c-0.2,0.2-0.3,0.3-0.5,0.4l-0.3,0.2l-0.1,0.1l-0.1,0.1
								c-0.3,0.2-0.7,0.4-1,0.5c-0.3,0.1-0.7,0.2-1,0.3c-0.3,0-0.7,0-1,0c-0.4,0-0.7-0.1-1.1-0.2c-0.4-0.1-0.8-0.2-1.1-0.4
								c-0.8-0.3-1.6-0.8-2.4-1.3c-0.8-0.5-1.6-1.1-2.3-1.8c-1.5-1.3-3-2.8-4.4-4.4c-1.4-1.6-2.8-3.2-4.2-4.9
								c-1.4-1.7-2.7-3.5-4-5.2c-0.8-1.1-2.1-1.7-3.4-1.9c-1.3-0.1-2.7,0.2-3.9,1.1c-1.1,0.9-1.8,2.2-1.9,3.5
								c-0.1,1.3,0.3,2.7,1.3,3.8c1.6,1.7,3.2,3.3,4.9,4.9c1.7,1.6,3.4,3.2,5.2,4.7c1.8,1.5,3.7,3,5.8,4.3c1,0.7,2.1,1.3,3.3,1.9
								c1.2,0.6,2.4,1.1,3.8,1.4c0.7,0.2,1.4,0.3,2.1,0.4c0.7,0.1,1.5,0.1,2.3,0c0.8-0.1,1.6-0.2,2.3-0.4c0.8-0.2,1.5-0.6,2.1-0.9
								c0.7-0.4,1.3-0.8,1.8-1.3l0.2-0.2l0.2-0.2l0.4-0.4c0.2-0.3,0.5-0.5,0.7-0.8c0.9-1.1,1.5-2.2,2.1-3.3c0.6-1.1,1-2.2,1.5-3.4
								c0.4-1.1,0.8-2.3,1.1-3.4c0.6-2.3,1.1-4.5,1.5-6.8C224.6,442.9,224.1,442.1,223.4,442z"/>
						</g>
					</g>
					<g>
						<g>
							<path class="st5" d="M191.8,460.1l-8.8-10.3c-2.7-3.1-2.6-7.7,0.5-10.4l0,0c3.1-2.7,8.1-2.4,10.8,0.7l8.8,10.3L191.8,460.1z"
								/>
						</g>
					</g>
					<g>
						<g>
							<path class="st3" d="M194.6,439.9c-0.3-0.4-0.7-0.7-1.1-1l-0.2,0.3c0.4,0.3,0.7,0.6,1,1l0.9,1c0.1-0.1,0.2-0.2,0.3-0.2
								L194.6,439.9z M194.4,457.9l-2.6,2.2l-2.5-2.9l-0.2,0.3l2.7,3.1l2.8-2.4L194.4,457.9z M184.1,451.7l3.3,3.9l0.3-0.2l-3.2-3.8
								L184.1,451.7z M186.3,437.5c-1.1,0.3-2.1,0.9-3,1.6c-1.3,1.1-2.2,2.7-2.5,4.4l0.4,0.1c0.2-1.6,1-3.1,2.4-4.3
								c1.6-1.4,3.7-2,5.8-1.8l0.3-0.4C188.5,437.1,187.4,437.2,186.3,437.5z M199.1,445.1l-0.3,0.3l2.2,2.6l0.2-0.3L199.1,445.1z
								 M199.8,453.3l-2.5,2.2l0.2,0.3l2.6-2.2L199.8,453.3z"/>
						</g>
					</g>
				</g>
				<g>
					<g>
						<g>
							<g>
								<path class="st15" d="M198.4,426.1l-1.1,9.8c-2.3,1.1-4.4,0.9-6.4-0.7l1.1-9.8L198.4,426.1z"/>
							</g>
						</g>
						<g>
							<g>
								<path class="st16" d="M198.4,426.1l-0.5,4.4c-0.5,0.1-1,0.2-1.5,0.2c-0.2,0-0.3,0-0.5,0c-1.7-0.2-3.3-1.2-4.2-2.7l0.3-2.6
									L198.4,426.1z"/>
							</g>
						</g>
						<g>
							<g>
								<path class="st15" d="M202,420.5l-0.6,4.1l-0.3,1.6c-0.4,2.3-2.4,3.9-4.7,3.9c-0.8,0-1.5-0.2-2.1-0.6
									c-0.2-0.1-0.3-0.2-0.4-0.3c-0.1-0.1-0.2-0.1-0.3-0.2c-0.8-0.6-1.4-1.4-1.8-2.4c-0.3-0.8-0.5-1.7-0.8-2.7
									c-0.1-0.5-0.3-1.1-0.4-1.7c-0.5-2.5,0.3-5.2,2.3-6.8c1.7-1.4,3.6-1.7,5.9-0.7C201.1,415.7,202.4,418.1,202,420.5z"/>
							</g>
						</g>
						<g>
							<g>
								<path class="st3" d="M193.8,422.1l0.7-0.4c0,0-1.2-3-0.7-3.9c0.7-1.4,4.3-1.5,6.1-1c0.6,0.2,1,0.4,1.2,0.9
									c0.4,1.2,0.9,3.5,0.5,5.8c0,0,2.6-6.9,0.5-10.6c-1.4-2.4-2.7-4.1-5.9-2.8c-5.1,2.2-7.9,6.2-7.1,12.2l3.3-1.2L193.8,422.1z"
									/>
							</g>
						</g>
					</g>
					<g>
						<g>
							<path class="st15" d="M193.8,422.5c-0.1,1.2-1.3,2-2.6,1.8c-1.3-0.2-2.3-1.2-2.1-2.4s1.3-2,2.6-1.8
								C193,420.3,194,421.3,193.8,422.5z"/>
						</g>
					</g>
				</g>
			</g>
			<g>
				<g>
					<g>
						<g>
							<path class="st16" d="M386.9,424.8c1.8,1.4,3.6,2.9,5.4,4.2c1.8,1.4,3.6,2.7,5.5,3.9c1.9,1.2,3.7,2.3,5.6,3.1
								c1.9,0.8,3.8,1.4,5.8,1.6c2,0.3,4,0.3,6,0.1c2.1-0.2,4.2-0.5,6.3-1c0.5-0.1,1.1-0.2,1.6-0.3l1.6-0.4c1.1-0.3,2.2-0.5,3.2-0.8
								c2.2-0.6,4.3-1.2,6.5-1.8c2.8-0.7,5.7,1.2,6.4,4.3v0c0.7,3.1-1.1,6.1-4.1,6.6c-2.3,0.3-4.6,0.6-7,0.9
								c-1.2,0.1-2.4,0.3-3.5,0.4l-1.8,0.2c-0.6,0.1-1.2,0.1-1.8,0.1c-2.4,0.1-4.9,0.2-7.4,0.1c-2.5-0.1-5.1-0.5-7.6-1.3
								c-2.5-0.7-4.9-1.9-7.1-3.2c-2.2-1.3-4.1-2.8-5.9-4.4c-1.8-1.6-3.5-3.2-5.1-4.9c-1.6-1.7-3.2-3.3-4.8-5
								c-0.5-0.6-0.5-1.5,0.1-2.1l0,0C385.4,424.5,386.3,424.4,386.9,424.8z"/>
						</g>
					</g>
					<g>
						<g>
							<path class="st6" d="M421.7,448.8l13.3-2.6c4-0.8,6.8-4.4,6.1-8.4l0,0c-0.8-4-4.8-6.9-8.9-6.1l-13.3,2.6L421.7,448.8z"/>
						</g>
					</g>
					<g>
						<g>
							<path class="st18" d="M431.7,431.4l0.1,0.4l0.3-0.1c4-0.8,8.1,2.1,8.9,6.1c0.3,1.7,0,3.3-0.7,4.7l0.2,0.5
								c1-1.6,1.3-3.5,1-5.3c-0.1-0.3-0.2-0.7-0.3-1c-1.3-3.8-5.3-6.2-9.1-5.5L431.7,431.4z M418.4,433.9l1.2,6.4l0.4-0.1l-1.1-5.9
								l7.5-1.4l-0.1-0.4L418.4,433.9z M421.7,448.8l-0.4-2.2l-0.4,0.1l0.5,2.5l12.1-2.3l-0.1-0.4L421.7,448.8z"/>
						</g>
					</g>
				</g>
				<g>
					<g>
						<path class="st3" d="M425,563.1h-14.6c0-0.5,0.1-1,0.4-1.4c0.3-0.4,0.9-0.7,1.5-0.8c0.6-0.1,1.1-0.1,1.7-0.1
							c1.4-0.1,2.8-0.5,4-1.2c0.6-0.4,1.2-0.8,1.9-1l4,0.1c0.5,0.6,0.9,1.4,1.1,2.2C425,561.6,425,562.4,425,563.1z"/>
					</g>
				</g>
				<g>
					<g>
						<path class="st3" d="M453.5,563.1h-14.6c0-0.5,0.1-1,0.4-1.4c0.3-0.4,0.9-0.7,1.5-0.8c0.6-0.1,1.1-0.1,1.7-0.1
							c1.4-0.1,2.8-0.5,4-1.2c0.6-0.4,1.2-0.8,1.9-1l4,0.1c0.5,0.6,0.9,1.4,1.1,2.2C453.5,561.6,453.5,562.4,453.5,563.1z"/>
					</g>
				</g>
				<g>
					<g>
						<path class="st3" d="M419,558.7l1.6-45.1c0,0,0.1-0.8,0.1-0.9l3.9-31.3c0.3-3.9,31.5,2.3,31.5,2.3l-3.5,75.2l-5.2-0.2
							l-7.3-61.4l-8.7,17.3l-7.1,44.2L419,558.7z"/>
					</g>
				</g>
				<g>
					<g>
						<path class="st6" d="M443.1,430.4L443.1,430.4c-7.9-1.2-15.2,4.6-15.7,12.6l-2.8,38.3c12.4,7,20,5.3,31.5,2.3l1.3-36
							C457.7,439.1,451.5,431.7,443.1,430.4z"/>
					</g>
				</g>
				<g>
					<g>
						<path class="st18" d="M456.6,468.7h0.4l0.6-17.5h-0.4L456.6,468.7z M424.1,481.6l0.2,0.1c6.1,3.4,11.2,4.9,16.7,4.9
							c4.2,0,8.2-0.9,13.2-2.1l0-0.4c-10.5,2.7-18,3.8-29.7-2.8l0.9-12.2l-0.4,0L424.1,481.6z M443.1,430.4c0.1,0,0.2,0,0.2,0l0-0.4
							c-0.1,0-0.1,0-0.2,0c-0.7-0.1-1.4-0.2-2.1-0.2c-7.4,0-13.6,5.8-14.1,13.2l-0.9,11.8h0.4l0.8-11.7c0.5-7.3,6.6-12.8,13.7-12.8
							C441.7,430.2,442.4,430.3,443.1,430.4z"/>
					</g>
				</g>
				<g>
					<g>
						
							<ellipse transform="matrix(0.7071 -0.7071 0.7071 0.7071 -190.1464 402.5621)" class="st6" cx="390.9" cy="430.8" rx="11.3" ry="11.3"/>
					</g>
				</g>
				<g>
					<g>
						<circle class="st1" cx="390.9" cy="430.8" r="8.4"/>
					</g>
				</g>
				<g>
					<g>
						<g>
							<path class="st15" d="M397.2,437.1c2,1.1,4,2.2,6,3.2c2,1,4,2,6.1,2.9c2,0.9,4.1,1.6,6.1,2c2,0.5,4,0.7,6,0.6
								c2-0.1,3.9-0.4,5.9-1c2-0.5,4-1.2,6-2c0.5-0.2,1-0.4,1.5-0.6l1.5-0.6c1-0.5,2-0.9,3-1.4c2-0.9,4.1-1.9,6.1-2.9
								c2.6-1.2,5.8,0.2,7,3.2l0,0c1.2,2.9-0.1,6.2-2.9,7.2c-2.2,0.7-4.4,1.4-6.7,2.1c-1.1,0.3-2.3,0.7-3.4,1l-1.7,0.5
								c-0.6,0.2-1.2,0.3-1.8,0.4c-2.4,0.6-4.8,1-7.3,1.3c-2.5,0.3-5.1,0.4-7.7,0.1c-2.6-0.3-5.2-1-7.5-1.9
								c-2.4-0.9-4.5-2.1-6.6-3.3c-2-1.2-4-2.6-5.9-3.9c-1.9-1.4-3.8-2.7-5.6-4.1c-0.6-0.5-0.7-1.4-0.3-2.1v0
								C395.7,437,396.6,436.7,397.2,437.1z"/>
						</g>
					</g>
					<g>
						<g>
							<path class="st6" d="M435.7,454.7l12.7-4.8c3.8-1.5,6-5.5,4.5-9.4l0,0c-1.5-3.8-6-6-9.8-4.5l-12.7,4.8L435.7,454.7z"/>
						</g>
					</g>
					<g>
						<g>
							<path class="st18" d="M442.5,435.8l0.2,0.4l0.3-0.1c3.8-1.5,8.3,0.7,9.8,4.5c0.6,1.6,0.6,3.3,0.1,4.7l0.3,0.5
								c0.7-1.7,0.7-3.6,0.1-5.4c-0.1-0.3-0.3-0.6-0.4-0.9c-1.9-3.5-6.3-5.2-9.9-3.8L442.5,435.8z M429.8,440.6l2.3,6l0.4-0.2
								l-2.1-5.6l7.1-2.7l-0.2-0.4L429.8,440.6z M435.7,454.7l-0.8-2.1l-0.4,0.2l0.9,2.4l11.5-4.4l-0.2-0.4L435.7,454.7z"/>
						</g>
					</g>
				</g>
				<g>
					<g>
						<g>
							<g>
								<path class="st15" d="M437.5,426.3l0.3,9.7c2.2,1.3,4.3,1.2,6.3-0.2l-0.3-9.7L437.5,426.3z"/>
							</g>
						</g>
						<g>
							<g>
								<path class="st16" d="M437.5,426.3l0.2,4.4c0.5,0.2,0.9,0.3,1.4,0.3c0.2,0,0.3,0,0.5,0c1.7-0.1,3.4-0.9,4.4-2.3l-0.1-2.6
									L437.5,426.3z"/>
							</g>
						</g>
						<g>
							<g>
								<path class="st15" d="M434.4,420.4l0.3,4.1l0.1,1.6c0.2,2.3,2,4.1,4.3,4.2c0.8,0,1.5-0.1,2.2-0.4c0.2-0.1,0.3-0.1,0.5-0.2
									c0.1,0,0.2-0.1,0.3-0.2c0.8-0.5,1.5-1.3,2-2.2c0.4-0.8,0.7-1.7,1-2.6c0.2-0.5,0.4-1.1,0.5-1.6c0.7-2.4,0.1-5.1-1.7-6.9
									c-1.6-1.5-3.5-1.9-5.8-1.2C435.7,415.7,434.2,418,434.4,420.4z"/>
							</g>
						</g>
					</g>
					<g>
						<g>
							<path class="st3" d="M433,421.5c-0.4-0.4-0.5-1.2-0.4-1.8c0.1-0.6,0.2-1.3,0-1.9c-0.3-0.8-1.1-1.2-1.2-2
								c-0.1-0.8,0.4-1.4,1-1.9c1.4-1.3,2.8-2.5,4.2-3.8c0.6-0.5,1.1-1,1.8-1.3c0.7-0.3,1.5-0.2,2.1,0.4c0.3,0.3,0.5,0.7,0.8,1
								c0.7,0.6,1.7,0.4,2.5,0.2c1-0.2,2.2-0.2,3.1,0.4c1,0.6,1.7,2,1.4,3.2c-0.1,0.6-0.5,1-0.8,1.5c-0.3,0.5-0.5,1.1-0.3,1.7
								c0.2,0.8,1,1.1,1.5,1.6c0.8,0.7,1.3,1.8,1.3,3s-0.4,2.3-1.2,2.9c-0.7,0.6-1.7,0.7-2.2-0.1c-0.6-0.9-0.2-2.5-1-3.1
								c-1-0.7-2.2,1.2-3.2,0.5c-0.5-0.4-0.6-1.3-1-1.8c-0.6-0.7-1.5-0.4-2.2-0.2c-0.7,0.2-1.4,0.3-2.2,0.4
								c-0.7,0.1-1.2,0.3-1.8,0.7C434.6,421.4,433.7,422.2,433,421.5z"/>
						</g>
					</g>
					<g>
						<g>
							<path class="st15" d="M442.3,423.1c0,1.2,1.1,2.1,2.5,2c1.3,0,2.3-1,2.3-2.2c0-1.2-1.1-2.1-2.5-2
								C443.3,420.9,442.3,421.9,442.3,423.1z"/>
						</g>
					</g>
				</g>
			</g>
			<g class="st19">
				<g>
					<path class="st3" d="M337.8,250.4v104.7c0,4.5-2.3,8.4-5.7,10.8c-2.1,1.4-4.6,2.3-7.3,2.3H140.3c-7.2,0-13.1-5.9-13.1-13.1
						v-99.8c2.7-3,6.6-5,11-5H337.8z"/>
				</g>
			</g>
			<g>
				<g>
					<g>
						<path class="st0" d="M332.2,219.9v135.2c0,4.1-3.3,7.5-7.5,7.5H140.3c-4.1,0-7.5-3.3-7.5-7.5V219.9c0-4.1,3.3-7.5,7.5-7.5
							h184.4C328.9,212.4,332.2,215.8,332.2,219.9z"/>
					</g>
				</g>
				<g>
					<g>
						<path class="st1" d="M140.3,361.5c-3.5,0-6.3-2.8-6.3-6.3V219.9c0-3.5,2.8-6.3,6.3-6.3h184.4c3.5,0,6.3,2.8,6.3,6.3v135.2
							c0,3.5-2.8,6.3-6.3,6.3H140.3z"/>
					</g>
				</g>
				<g>
					<g>
						<path class="st2" d="M332.2,219.9v11.7H132.9v-11.7c0-4.1,3.3-7.5,7.5-7.5h184.4C328.9,212.4,332.2,215.8,332.2,219.9z"/>
					</g>
				</g>
				<g>
					<g>
						<g>
							<g>
								<rect x="311.3" y="245" class="st0" width="1.6" height="102.5"/>
							</g>
						</g>
						<g>
							<g>
								<rect x="293.6" y="245" class="st0" width="1.6" height="102.5"/>
							</g>
						</g>
						<g>
							<g>
								<rect x="276" y="245" class="st0" width="1.6" height="102.5"/>
							</g>
						</g>
						<g>
							<g>
								<rect x="258.3" y="245" class="st0" width="1.6" height="102.5"/>
							</g>
						</g>
						<g>
							<g>
								<rect x="240.6" y="245" class="st0" width="1.6" height="102.5"/>
							</g>
						</g>
						<g>
							<g>
								<rect x="222.9" y="245" class="st0" width="1.6" height="102.5"/>
							</g>
						</g>
						<g>
							<g>
								<rect x="205.2" y="245" class="st0" width="1.6" height="102.5"/>
							</g>
						</g>
						<g>
							<g>
								<rect x="187.5" y="245" class="st0" width="1.6" height="102.5"/>
							</g>
						</g>
						<g>
							<g>
								<rect x="169.8" y="245" class="st0" width="1.6" height="102.5"/>
							</g>
						</g>
						<g>
							<g>
								<rect x="152.2" y="245" class="st0" width="1.6" height="102.5"/>
							</g>
						</g>
					</g>
				</g>
				<g>
					<g>
						<path class="st3" d="M312.9,347.6H153.1c0.9-20.8,5.5-41.4,13.4-60.6c1.3-3.1,2.7-6.2,5.2-8.4c2.5-2.2,6.4-3.1,9.2-1.3
							c2.3,1.5,3.4,4.4,5.8,5.8c4,2.3,9.2-1.3,11.1-5.6c1.9-4.3,2-9.2,4.1-13.4c2.1-4.2,6.2-7.2,10.8-8.1c4.6-0.8,9.5,0.6,13,3.7
							c5.2,4.8,6.5,12.3,8.4,19.2c1.9,6.8,5.9,14.2,12.9,15.5c5.5,1,11.6-2.3,16.5,0.3c5.2,2.7,6.6,10.6,12.3,12
							c6.6,1.6,11.6-7.2,18.5-7.7c3.3-0.2,6.5,1.7,8.6,4.3c2.1,2.6,3.2,5.8,4.3,9C310.6,323.7,312.6,335.6,312.9,347.6z"/>
					</g>
				</g>
				<g>
					<g>
						<path class="st0" d="M312.9,347.6H152.2c0.1-0.2,0.1-0.4,0.2-0.6c1.3-5.2,3.4-10.8,6.8-14.8c4.1-4.8,11.3-7.1,16.2-3.4
							c4.7,3.6,6.8,12,12.6,12.3c3.9,0.2,6.9-3.7,8.3-7.7c1.4-4,1.8-8.4,3.7-12.1c1.9-3.7,6.3-6.5,9.7-4.3c3.2,2,3.4,6.8,5,10.5
							c3.1,7.5,13.1,10.1,18.9,4.8c3.8-3.4,5.3-8.9,7.3-13.8c2-4.9,5.1-10,9.9-10.9c6-1.1,11,4.8,14.2,10.4
							c3.2,5.7,6.5,12.2,12.3,14c4.8,1.4,9.8-1,14.7-1.4c8.9-0.7,18,5.9,20.6,15.3C312.7,346.4,312.8,347,312.9,347.6z"/>
					</g>
				</g>
				<g>
					<g>
						
							<ellipse transform="matrix(0.2298 -0.9732 0.9732 0.2298 -103.0617 313.7711)" class="st1" cx="146.7" cy="222" rx="3.2" ry="3.2"/>
					</g>
				</g>
				<g>
					<g>
						
							<ellipse transform="matrix(0.9239 -0.3827 0.3827 0.9239 -72.7827 78.0925)" class="st1" cx="159.9" cy="222" rx="3.2" ry="3.2"/>
					</g>
				</g>
				<g>
					<g>
						
							<ellipse transform="matrix(0.7071 -0.7071 0.7071 0.7071 -106.2729 187.4298)" class="st1" cx="173.1" cy="222" rx="3.2" ry="3.2"/>
					</g>
				</g>
			</g>
			<g>
				<defs>
					<polygon id="SVGID_1_" points="531.9,157.5 531.9,367.1 500.5,367.1 500.5,250.5 433.4,250.5 433.4,367.1 249.9,367.1 
						249.9,157.5 					"/>
				</defs>
				<clipPath id="SVGID_2_">
					<use xlink:href="#SVGID_1_"  style="overflow:visible;"/>
				</clipPath>
				<g class="st20">
					<g>
						<g>
							<g>
								<g>
									<path class="st16" d="M409.5,229.5c0-0.8,0.6-1.5,1.4-1.6c2.4-0.2,4.8-0.4,7.1-0.7c2.4-0.3,4.7-0.6,7-1
										c2.3-0.4,4.5-1,6.5-1.7c2-0.8,3.9-1.7,5.6-2.9c3.4-2.4,6.2-5.9,8.8-9.6c0.3-0.5,0.7-0.9,1-1.4l1-1.4c0.6-1,1.3-2,1.9-3
										c1.2-2,2.4-4,3.6-6.1c1.6-2.6,5-3.3,7.6-1.6c2.5,1.7,3.2,5.2,1.3,7.7c-1.5,1.9-3,3.8-4.6,5.7c-0.8,1-1.6,1.9-2.4,2.8
										l-1.2,1.4c-0.4,0.5-0.8,0.9-1.3,1.4c-1.7,1.9-3.5,3.7-5.5,5.4c-2,1.7-4.2,3.3-6.6,4.6c-2.4,1.3-5,2.2-7.5,2.7
										c-2.6,0.6-5.1,0.8-7.6,1c-2.5,0.1-4.9,0.1-7.4,0.1c-2.4-0.1-4.8-0.2-7.3-0.3C410.1,231,409.5,230.4,409.5,229.5z"/>
								</g>
							</g>
						</g>
						<g>
							<g>
								<path class="st3" d="M455.4,217.9l7.1-10c2.1-3,1.7-7.1-1.3-9.3l0,0c-3-2.1-7.5-1.5-9.6,1.5l-7.1,10L455.4,217.9z"/>
							</g>
						</g>
					</g>
					<g>
						<g>
							<g>
								<g>
									
										<rect x="390.1" y="228.9" transform="matrix(0.9859 -0.1674 0.1674 0.9859 -34.1058 71.1773)" class="st2" width="30.3" height="18.1"/>
								</g>
							</g>
						</g>
						<g>
							<g>
								<g>
									
										<rect x="419.5" y="214.1" transform="matrix(0.9859 -0.1674 0.1674 0.9859 -31.5344 81.1532)" class="st4" width="92.4" height="27.1"/>
								</g>
							</g>
						</g>
						<g>
							<g>
								<g>
									<path class="st4" d="M400.1,248c-0.1-3-0.4-6-0.9-9c-0.5-3-1.2-6-2.1-8.8c-10-32.5-42.9-53.4-77.3-47.6
										c-37.4,6.4-62.7,42-56.4,79.4c6.4,37.4,42,62.7,79.4,56.4C377.2,312.5,401.4,281.9,400.1,248z M381.4,242
										c4.7,27.6-14,53.9-41.6,58.6c-27.6,4.7-53.9-14-58.6-41.6c-4.7-27.6,14-53.9,41.6-58.6C350.4,195.7,376.7,214.4,381.4,242z
										"/>
								</g>
							</g>
							<g class="st21">
								<g>
									<path class="st0" d="M381.4,242c-4.7-27.6-31-46.3-58.6-41.6c-27.6,4.7-46.3,31-41.6,58.6c4.7,27.6,31,46.3,58.6,41.6
										C367.4,295.9,386,269.6,381.4,242z"/>
								</g>
							</g>
						</g>
					</g>
					<g>
						<g>
							<polygon class="st15" points="468.1,275.6 462.3,326.7 459.3,326.3 455.7,275.8 							"/>
						</g>
					</g>
					<g>
						<g>
							<g>
								<path class="st2" d="M454.8,275.8l14-0.2c3.3-9.5,5.5-30.2,1.1-39.5l-15.5,4.4L454.8,275.8z"/>
							</g>
						</g>
						<g>
							<g>
								
									<ellipse transform="matrix(0.2825 -0.9593 0.9593 0.2825 101.8871 615.8205)" class="st2" cx="462.6" cy="239.8" rx="8.2" ry="8.2"/>
							</g>
						</g>
						<g class="st17">
							<g>
								<polygon class="st2" points="462.6,239.8 462.6,239.8 462.6,239.8 462.6,239.8 								"/>
							</g>
						</g>
					</g>
					<g>
						<g>
							<polygon class="st15" points="484,272.6 491.5,323.5 488.5,323.9 472,275.9 							"/>
						</g>
					</g>
					<g>
						<g>
							<path class="st2" d="M466.8,231.7c3.2-1.2,6.7-0.2,8.9,2.3l0,0c0,0,0,0,0,0c0.2,0.2,0.3,0.4,0.4,0.5c6.3,8.2,9.3,28,8.6,37.8
								l-13.5,3.8l-9.4-34c0,0,0,0,0,0C460.3,237.9,462.5,233.2,466.8,231.7z"/>
						</g>
					</g>
					<g>
						<g>
							<path class="st5" d="M468.5,267.2l2.6,9.3l2.5-0.7l0-0.3l-2.2,0.6l-2.5-9L468.5,267.2z M479.2,240c1.7,3.8,3,8.4,3.9,13.1
								l0.3,0c0-0.1,0-0.2-0.1-0.3c-1-5-2.3-9.5-3.9-13L479.2,240z M484.1,257l-0.3,0c0.4,2.4,0.6,4.8,0.8,7l0.3,0
								C484.7,261.8,484.4,259.4,484.1,257z M476.7,274.6l0.1,0.3l8.1-2.3l0-0.2c0.1-1.4,0.1-2.9,0.1-4.6l-0.3,0
								c0,1.7,0,3.2-0.1,4.6L476.7,274.6z M464,250.9l2.2,8.1l0.3,0l-2.2-8.1L464,250.9z"/>
						</g>
					</g>
					<g>
						<g>
							<path class="st3" d="M482.1,327.3c0.2-0.4,0.6-0.6,1-0.8c0.4-0.1,0.8-0.2,1.3-0.3c1-0.2,2-0.7,2.8-1.4c0.4-0.3,0.8-0.7,1.3-1
								l3-0.4c0.5,0.4,0.8,0.9,1.1,1.5c0.2,0.5,0.3,1.1,0.4,1.6l0.1,0.6l-11,1.9l-0.1-0.6l0,0C481.9,328,481.9,327.7,482.1,327.3z"
								/>
						</g>
					</g>
					<g>
						<g>
							<path class="st3" d="M452.2,328c0.3-0.3,0.7-0.5,1.2-0.5c0.4,0,0.9,0,1.3,0c1.1,0,2.1-0.2,3.1-0.6c0.5-0.2,1-0.5,1.5-0.7
								l3,0.4c0.4,0.5,0.6,1.1,0.7,1.7c0.1,0.6,0,1.1-0.1,1.7l-0.1,0.6l-11.1-1l0.1-0.6l0,0C451.8,328.6,451.9,328.3,452.2,328z"/>
						</g>
					</g>
					<g>
						<g>
							<path class="st3" d="M463.2,196.8L463.2,196.8c-9.3,0.6-15.9,9.3-13.9,18.4l5.1,24.6c6.8,2,16.2,0.6,23.8-2l-1.6-28.2
								C476.7,202.2,470.5,196.4,463.2,196.8z"/>
						</g>
					</g>
					<g>
						<g>
							<path class="st2" d="M477.5,225.7l0.6,10.7l0.3-0.1l-0.6-10.7L477.5,225.7z M457.2,198.2l0.1,0.2c1.8-0.9,3.8-1.5,5.9-1.6
								c0.4,0,0.9,0,1.3,0l0-0.3c-0.4,0-0.8,0-1.2,0c0,0-0.1,0-0.1,0C461.1,196.7,459,197.3,457.2,198.2z M449.1,215.3l1.1,5.4
								l0.3-0.1l-1.1-5.4c-0.2-0.8-0.3-1.6-0.3-2.4c-0.3-5,1.9-9.6,5.6-12.6l-0.2-0.2c-1,0.8-1.8,1.7-2.6,2.7
								C449.1,206.3,448.1,210.9,449.1,215.3z M451.6,225.9l-0.3,0l2.9,14.1l0.2,0c2.7,0.8,5.9,1.1,9.6,0.9c3.8-0.2,8-1,12.1-2.2
								l0-0.3c-7.1,2.2-15.4,3.1-21.5,1.3L451.6,225.9z M476.6,209.6l0.4,6.6l0.3,0l-0.4-6.6c0-3.6-1.4-6.9-4-9.4
								c-1-0.9-2-1.7-3.2-2.2l-0.1,0.3C473.9,200.3,476.7,204.6,476.6,209.6z"/>
						</g>
					</g>
					<g>
						<g>
							<g>
								<path class="st15" d="M458.6,192.8l0.8,7.5c2.2,1,4.2,0.8,6-0.8l-0.8-7.5L458.6,192.8z"/>
							</g>
						</g>
						<g>
							<g>
								<path class="st16" d="M458.9,195.1l0.1,0.9c1,0.4,2.1,0.6,3.3,0.5c0.1,0,0.1,0,0.2,0c1-0.1,1.9-0.6,2.6-1.4l-0.2-2.2
									L458.9,195.1z"/>
							</g>
						</g>
						<g>
							<g>
								<path class="st15" d="M455,184.4l0.8,5.4l0.2,1.2c0.5,3,3.2,5.1,6.2,4.8c0.3,0,0.6-0.1,0.9-0.2c0.1,0,0.2-0.1,0.3-0.1
									c0,0,0,0,0.1,0c0.4-0.2,0.8-0.5,1.1-0.9c0.6-0.8,1-1.7,1.3-2.6c0.3-0.8,0.5-1.6,0.7-2.4c0.2-0.9,0.2-1.9,0-2.9l-0.4-3.7
									l-9.7-1L455,184.4z"/>
							</g>
						</g>
						<g>
							<g>
								<path class="st3" d="M455.7,192.9c0,0-0.1-3.2-0.1-4.8l0,0c0-1.5,0.3-2.9,1.4-2.8c2.2,0.2,2.9-1.6,2.9-1.6s0,0,0,0
									c0.6,0,1.2,0.1,1.9,0.2c3.3,0.6,3.7-0.2,4-0.7c1,2.4,0.8,5.6,0.8,5.9c0,0,0,0,0,0c0,0,0,0,0,0c0,0.1,0,0.3-0.1,0.4
									c-0.2,0.8-0.4,1.6-0.7,2.4c-0.3,0.7-0.5,1.4-1,2.1l0.1,0.5c2.2-0.5,4.9-3.1,5.5-5.2c2-7.5-2.3-11.7-8.1-12.5
									c-5-0.7-7.5,4-8.2,8.2C453.7,187.6,455.1,192.3,455.7,192.9z"/>
							</g>
						</g>
						<g>
							<g>
								<path class="st15" d="M464.6,188c0.2,1.2,1.3,2.1,2.5,1.9c1.2-0.2,2.1-1.3,1.9-2.5c-0.2-1.2-1.3-2.1-2.5-1.9
									C465.3,185.7,464.5,186.8,464.6,188z"/>
							</g>
						</g>
					</g>
					<g>
						<g>
							<g>
								<g>
									<path class="st15" d="M427.8,246.7c-0.2-0.8,0.2-1.6,0.9-1.9c2.2-0.8,4.5-1.7,6.7-2.6c2.2-0.9,4.4-1.8,6.4-2.8
										c2.1-1,4-2.2,5.8-3.4c1.8-1.3,3.3-2.7,4.6-4.4c2.6-3.3,4.4-7.3,5.9-11.6c0.2-0.5,0.4-1.1,0.5-1.6l0.5-1.6
										c0.3-1.1,0.7-2.2,1-3.4c0.6-2.2,1.3-4.5,1.8-6.8c0.8-2.9,3.9-4.6,6.8-3.6c2.9,0.9,4.5,4.1,3.3,7c-0.9,2.3-1.8,4.5-2.8,6.8
										c-0.5,1.1-1,2.3-1.5,3.4l-0.8,1.7c-0.3,0.6-0.6,1.1-0.8,1.7c-1.1,2.3-2.4,4.5-3.8,6.7c-1.4,2.2-3.1,4.3-5.1,6.2
										c-2,1.9-4.2,3.4-6.5,4.7c-2.3,1.2-4.7,2.2-7,3c-2.4,0.8-4.7,1.5-7.1,2.1c-2.4,0.6-4.7,1.2-7.1,1.7
										C428.8,248,428,247.5,427.8,246.7z"/>
								</g>
							</g>
						</g>
						<g>
							<g>
								<path class="st3" d="M469,222.7l4.1-11.5c1.2-3.5-0.3-7.3-3.8-8.6l0,0c-3.5-1.2-7.6,0.6-8.8,4.1l-4.1,11.5L469,222.7z"/>
							</g>
						</g>
						<g>
							<g>
								<path class="st2" d="M460.2,206.6l-0.3,1l0.2,0.1l0.4-1c1-2.9,4-4.6,6.9-4.5l0-0.3c-1.2-0.1-2.4,0.2-3.5,0.7
									C462.1,203.5,460.8,204.9,460.2,206.6z M458.6,211.9l-0.3-0.1l-2.3,6.6l10.5,3.7l0.1-0.3l-10.3-3.6L458.6,211.9z
									 M470.3,203.1c2.4,1.4,3.5,4.2,3,7l0.3,0c0.6-2.9-0.7-5.9-3.2-7.3L470.3,203.1z M471.5,216.4l-0.3-0.1l-2,5.6l0.3,0.1
									L471.5,216.4z"/>
							</g>
						</g>
					</g>
				</g>
			</g>
		</g>
		<g>
			<g>
				<path class="st3" d="M664.7,596.1H48.4c-2.1,0-3.9-1.7-3.9-3.9l0,0c0-2.1,1.7-3.9,3.9-3.9h616.3c2.1,0,3.9,1.7,3.9,3.9l0,0
					C668.6,594.4,666.9,596.1,664.7,596.1z"/>
			</g>
		</g>
	</g>
	<g>
		<g>
			<path class="st1" d="M535.3,120.8c17.5-2.1,35.6,0.4,52.2,6.6c8.3,3.1,16.3,7.2,23.8,12.1c7.4,4.9,14.3,10.7,20.4,17.2
				c6.1,6.6,11.4,13.8,15.8,21.6l3.1,5.9l2.8,6.1l2.4,6.2l2.1,6.3c5,17,6.2,35.2,3,52.5c1.8-17.5-0.1-35.2-5.6-51.7l-2.2-6.1l-2.5-6
				l-2.8-5.9l-3.1-5.7c-4.4-7.5-9.5-14.5-15.4-20.8c-5.9-6.4-12.5-12-19.7-16.9c-7.2-4.9-14.9-9-22.9-12.3
				C570.4,123.4,552.9,120.1,535.3,120.8z"/>
		</g>
	</g>
	<g>
		<g>
			<path class="st1" d="M650.2,438.5c3.8,8,6.1,16.7,7,25.5c0.5,4.4,0.5,8.9,0.3,13.3c-0.3,4.4-0.9,8.9-1.9,13.2
				c-1,4.3-2.4,8.6-4.1,12.7c-1.7,4.1-3.7,8.1-6.1,11.9c-4.7,7.6-10.6,14.4-17.5,19.9c6.3-6.1,11.8-13.1,16.2-20.7
				c2.2-3.8,4.1-7.7,5.7-11.8c1.6-4.1,2.9-8.2,3.9-12.5c1-4.2,1.6-8.6,2-12.9c0.3-4.3,0.3-8.7,0-13.1
				C655.1,455.4,653.3,446.8,650.2,438.5z"/>
		</g>
	</g>
	<g>
		<g>
			<path class="st1" d="M76.2,291.2c-3.7-15.2-3.4-31.4,0.4-46.8c3.8-15.4,11.1-29.9,21.5-42c10.4-12.1,23.7-21.5,38.3-27.6
				c14.6-6.1,30.6-8.9,46.2-7.5c-15.6,0.3-31,3.8-45,10.3c-14,6.4-26.6,15.8-36.5,27.4c-10,11.6-17.3,25.5-21.5,40.3
				C75.2,260,74,275.7,76.2,291.2z"/>
		</g>
	</g>
</g>
</svg>
