<?xml version="1.0" encoding="UTF-8"?>
<svg width="246px" height="246px" viewBox="0 0 246 246" version="1.1" xmlns="http://www.w3.org/2000/svg" xmlns:xlink="http://www.w3.org/1999/xlink">
    <title>Illustration/数据</title>
    <defs>
        <filter x="-36.7%" y="-46.4%" width="173.4%" height="192.7%" filterUnits="objectBoundingBox" id="filter-1">
            <feGaussianBlur stdDeviation="17" in="SourceGraphic"></feGaussianBlur>
        </filter>
        <filter x="-187.5%" y="-187.5%" width="475.0%" height="475.0%" filterUnits="objectBoundingBox" id="filter-2">
            <feGaussianBlur stdDeviation="10" in="SourceGraphic"></feGaussianBlur>
        </filter>
        <linearGradient x1="50%" y1="0%" x2="50%" y2="100%" id="linearGradient-3">
            <stop stop-color="#92B7FF" offset="0%"></stop>
            <stop stop-color="#ECE1F7" stop-opacity="0" offset="100%"></stop>
        </linearGradient>
    </defs>
    <g id="Illustration/数据" stroke="none" stroke-width="1" fill="none" fill-rule="evenodd">
        <g id="数据">
            <rect id="矩形备份-27" fill-opacity="0" fill="#D8D8D8" x="0" y="0" width="246" height="246"></rect>
            <g id="img_yinliuillustration" transform="translate(17.000000, 17.000000)">
                <rect id="矩形备份-15" fill-opacity="0" fill="#D8D8D8" x="0" y="0" width="212" height="212"></rect>
                <g id="编组-18" transform="translate(1.000000, 4.000000)">
                    <circle id="椭圆形" fill="#E1E8F1" opacity="0.400000006" cx="113" cy="99" r="97"></circle>
                    <g id="编组-16">
                        <path d="M199.564662,169.0012 L30.4350385,169.0012 C26.8806694,169.0012 23.99985,165.163314 23.99985,160.431302 L23.99985,33.5710982 C23.99985,28.8376578 26.8806694,25.0012 30.4350385,25.0012 L199.564662,25.0012 C203.119031,25.0012 205.99985,28.8376578 205.99985,33.5710982 L205.99985,160.431302 C205.99985,165.163314 203.119031,169.0012 199.564662,169.0012" id="Fill-13" fill="#CED7E2"></path>
                        <path d="M179.59797,176 L50.4017301,176 C47.686587,176 45.4859611,173.068281 45.4859611,169.45355 L45.4859611,72.54645 C45.4859611,68.9306275 47.686587,66 50.4017301,66 L179.59797,66 C182.313113,66 184.513739,68.9306275 184.513739,72.54645 L184.513739,169.45355 C184.513739,173.068281 182.313113,176 179.59797,176" id="Fill-13" fill="#CED7E2" filter="url(#filter-1)"></path>
                        <path d="M193.98896,162.0012 L36.0107403,162.0012 C32.6907252,162.0012 29.99985,158.536442 29.99985,154.264486 L29.99985,39.7379137 C29.99985,35.4646688 32.6907252,32.0012 36.0107403,32.0012 L193.98896,32.0012 C197.308975,32.0012 199.99985,35.4646688 199.99985,39.7379137 L199.99985,154.264486 C199.99985,158.536442 197.308975,162.0012 193.98896,162.0012" id="Fill-13" fill="#FCFFFF"></path>
                        <path d="M181.08535,46.1782 L168.01735,46.1782 C165.80835,46.1782 164.01735,44.3882 164.01735,42.1782 L164.01735,29.1112 C164.01735,26.9022 165.80835,25.1112 168.01735,25.1112 L181.08535,25.1112 C183.29435,25.1112 185.08535,26.9022 185.08535,29.1112 L185.08535,42.1782 C185.08535,44.3882 183.29435,46.1782 181.08535,46.1782" id="Fill-27" fill="#2DC8CE"></path>
                        <path d="M179.513803,48.5335 L169.588897,48.5335 C167.911202,48.5335 166.55097,47.1740278 166.55097,45.4955734 L166.55097,35.5714266 C166.55097,33.8937316 167.911202,32.5335 169.588897,32.5335 L179.513803,32.5335 C181.191498,32.5335 182.55173,33.8937316 182.55173,35.5714266 L182.55173,45.4955734 C182.55173,47.1740278 181.191498,48.5335 179.513803,48.5335" id="Fill-27" fill="#2DC8CE" opacity="0.300000012" filter="url(#filter-2)"></path>
                        <path d="M175.23385,31.9732 L177.51085,33.3522 L175.73285,35.8302 L171.95985,34.6232 L166.73585,39.7782 C166.34185,40.1662 166.33885,40.7992 166.72685,41.1922 L166.72685,41.1922 C166.92185,41.3902 167.17985,41.4902 167.43885,41.4902 L167.43885,41.4902 C167.69185,41.4902 167.94585,41.3942 168.14185,41.2022 L168.14185,41.2022 L172.50285,36.8962 L176.50985,38.1772 L179.22585,34.3912 L181.39085,35.7032 L180.75985,29.7992 L175.23385,31.9732 Z" id="Fill-29" fill="#FCFFFF"></path>
                        <path d="M186.81635,17.893 L186.00635,15.702 C184.98935,12.946 182.81735,10.774 180.06235,9.756 L177.87035,8.947 L180.06235,8.137 C182.81735,7.12 184.98935,4.948 186.00635,2.193 L186.81635,1.42108547e-14 L187.62635,2.193 C188.64335,4.948 190.81535,7.12 193.57035,8.137 L195.76235,8.947 L193.57035,9.756 C190.81535,10.774 188.64335,12.946 187.62635,15.702 L186.81635,17.893 Z" id="Fill-31" fill="#B5E0FC"></path>
                        <path d="M67.16935,196.2299 C67.16935,200.6839 63.55935,204.2939 59.10535,204.2939 C54.65135,204.2939 51.04135,200.6839 51.04135,196.2299 C51.04135,191.7769 54.65135,188.1669 59.10535,188.1669 C63.55935,188.1669 67.16935,191.7769 67.16935,196.2299 Z" id="Stroke-33" stroke="#B5E0FC" stroke-width="2"></path>
                        <rect id="矩形" fill="#E3EBF3" x="40.99985" y="122.0012" width="4" height="29" rx="2"></rect>
                        <rect id="矩形备份-10" fill="#E3EBF3" x="178.99985" y="67.0012" width="4" height="84" rx="2"></rect>
                        <rect id="矩形备份-11" fill="#E3EBF3" x="163.99985" y="86.0012" width="4" height="65" rx="2"></rect>
                        <rect id="矩形备份-23" fill="#E3EBF3" x="147.99985" y="80.0012" width="4" height="71" rx="2"></rect>
                        <rect id="矩形备份-18" fill="#E3EBF3" x="132.99985" y="97.0012" width="4" height="54" rx="2"></rect>
                        <rect id="矩形备份-19" fill="#E3EBF3" x="117.99985" y="92.0012" width="4" height="59" rx="2"></rect>
                        <rect id="矩形备份-20" fill="#E3EBF3" x="101.99985" y="110.0012" width="4" height="41" rx="2"></rect>
                        <rect id="矩形备份-21" fill="#E3EBF3" x="86.99985" y="102.0012" width="4" height="49" rx="2"></rect>
                        <rect id="矩形备份-22" fill="#E3EBF3" x="71.99985" y="118.0012" width="4" height="33" rx="2"></rect>
                        <rect id="矩形备份-24" fill="#E3EBF3" x="55.99985" y="113.0012" width="4" height="38" rx="2"></rect>
                        <polygon id="路径-12" fill="url(#linearGradient-3)" points="40.99985 126.5012 57.99985 117.0012 73.99985 122.0012 88.99985 106.0012 103.99985 114.0012 119.99985 96.0012 134.99985 101.0012 149.99985 84.0012 165.99985 90.0012 182.99985 68.1758341 182.99985 151.0012 40.99985 151.0012"></polygon>
                        <circle id="椭圆形" fill="#1B68FF" cx="42.99985" cy="126.0012" r="4"></circle>
                        <circle id="椭圆形备份-104" fill="#1B68FF" cx="57.99985" cy="117.0012" r="4"></circle>
                        <circle id="椭圆形备份-105" fill="#1B68FF" cx="73.99985" cy="122.0012" r="4"></circle>
                        <circle id="椭圆形备份-106" fill="#1B68FF" cx="88.99985" cy="106.0012" r="4"></circle>
                        <circle id="椭圆形备份-107" fill="#1B68FF" cx="103.99985" cy="114.0012" r="4"></circle>
                        <circle id="椭圆形备份-108" fill="#1B68FF" cx="119.99985" cy="96.0012" r="4"></circle>
                        <circle id="椭圆形备份-109" fill="#1B68FF" cx="134.99985" cy="101.0012" r="4"></circle>
                        <circle id="椭圆形备份-110" fill="#1B68FF" cx="149.99985" cy="84.0012" r="4"></circle>
                        <circle id="椭圆形备份-111" fill="#1B68FF" cx="165.99985" cy="90.0012" r="4"></circle>
                        <circle id="椭圆形备份-112" fill="#1B68FF" cx="180.99985" cy="71.0012" r="4"></circle>
                        <polyline id="路径-12" stroke="#1B68FF" stroke-width="2" points="42.99985 126.5012 57.99985 117.0012 73.99985 122.0012 88.99985 106.0012 103.99985 114.0012 119.99985 96.0012 134.99985 101.0012 149.99985 84.0012 165.99985 90.0012 180.99985 71.0012"></polyline>
                        <path d="M9.69525,105.5121 L5.70125,109.5061 C5.31025,109.8971 4.67725,109.8971 4.28725,109.5061 L0.29325,105.5121 C-0.09775,105.1221 -0.09775,104.4891 0.29325,104.0981 L4.28725,100.1041 C4.67725,99.7131 5.31025,99.7131 5.70125,100.1041 L9.69525,104.0981 C10.08525,104.4891 10.08525,105.1221 9.69525,105.5121" id="Fill-9" fill="#BBD9FA"></path>
                        <path d="M25.66595,127.7612 L17.92695,135.4992 C17.53695,135.8902 16.90295,135.8902 16.51295,135.4992 L8.77395,127.7612 C8.38295,127.3702 8.38295,126.7372 8.77395,126.3462 L16.51295,118.6082 C16.90295,118.2172 17.53695,118.2172 17.92695,118.6082 L25.66595,126.3462 C26.05595,126.7372 26.05595,127.3702 25.66595,127.7612" id="Fill-11" fill="#FFBBD8"></path>
                    </g>
                    <circle id="椭圆形" stroke="#E6EDF5" stroke-width="4" cx="52.5" cy="55.5" r="8.5"></circle>
                    <circle id="椭圆形备份-113" stroke="#E6EDF5" stroke-width="4" cx="81.5" cy="55.5" r="8.5"></circle>
                    <circle id="椭圆形备份-114" stroke="#E6EDF5" stroke-width="4" cx="110.5" cy="55.5" r="8.5"></circle>
                    <path d="M115.711018,48.7841963 C114.271866,47.665895 112.463697,47 110.5,47 C105.80558,47 102,50.8055796 102,55.5 C102,60.1944204 105.80558,64 110.5,64 C115.19442,64 119,60.1944204 119,55.5" id="路径" stroke="#1A66FF" stroke-width="4" stroke-linecap="round"></path>
                    <path d="M55.3933785,47.5688975 C54.4568789,47.201476 53.4390082,47 52.3747736,47 C47.7495139,47 44,50.8055796 44,55.5 C44,60.1944204 47.7495139,64 52.3747736,64 C55.7630749,64 58.6814065,61.9577326 60,59.0198593" id="路径" stroke="#1A66FF" stroke-width="4" stroke-linecap="round"></path>
                    <path d="M73,55.5 C73,60.1944204 76.7495139,64 81.3747736,64 C83.0980037,64 84.6996733,63.4717554 86.0311639,62.5661069" id="路径" stroke="#1A66FF" stroke-width="4" stroke-linecap="round"></path>
                </g>
            </g>
        </g>
    </g>
</svg>