<svg viewBox="0 0 400 300" fill="none" xmlns="http://www.w3.org/2000/svg"><path d="M90.115 225.116c-6.463-.014-3.803-19.706-3.272-23.205 1.944-12.72 8.956-22.004 18.539-30.421 12.744-11.189 25.419-20.506 35.178-34.576 9.457-13.634 17.607-29.309 32.956-37.26 41.605-21.574 79.052 34.406 110.574 53.118 14.393 8.544 22.357 21.85 24.46 38.438.741 5.844-1.169 33.892-10.728 33.892l-207.707.014Z" fill="#ECF4FD"/><g clip-path="url(#a)"><path fill-rule="evenodd" clip-rule="evenodd" d="M313.187 213.733c4.402 4.245-8.194 11.724-8.194 11.724l8.367 6.398c7.354-1.634 6.699-7.027 6.699-7.027-.163-1.306 1.798-2.942 1.798-2.942 5.224-2.941 2.419-7.517 2.419-7.517-1.211-1.968.35-4.628 1.87-5.855.569-.46 1.371-.723 2.181-.988 1.353-.443 2.731-.895 3.096-2.285.194-.767-.071-1.526-.338-2.293-.144-.411-.288-.825-.363-1.243-.343-1.933.949-3.646 2.55-4.581.331-.192.682-.364 1.034-.537.998-.489 1.999-.98 2.538-1.922.729-1.274.273-2.98-.753-4.03-1.026-1.049-2.489-1.549-3.931-1.816-2.578-.477-5.35-.28-7.646.989-3.284 1.814-5.109 5.532-5.78 9.223-.5 2.76-.858 4.731-3.328 6.281-.286.179-.582.35-.879.523-1.517.878-3.054 1.769-3.249 3.733-.145 1.54.837 3.13 1.909 4.165Zm25.181-.154c-5.753.654-17.271 13.937-17.271 13.937l8.022 5.816c3.228-.627 10.992-5.17 12.11-8.48.352-1.047.206-2.323.061-3.579-.188-1.639-.373-3.246.563-4.268.759-.829 1.97-1.309 3.012-1.655.54-.18 3.661-1.208 4.166-.717-2.576-2.499 1.505-1.276 1.505-1.276 1.212-.617 1.389-3.175 1.525-5.131.053-.774.1-1.453.202-1.881.234-.954 2.632-7.499 3.74-7.265-4.792-.984-9.504.884-12.972 4.184-1.478 1.407-2.314 3.165-2.971 5.07-.069.198-.178.667-.314 1.248-.365 1.567-.92 3.946-1.378 3.997Z" fill="#CDE5F9"/><mask id="b" style="mask-type:alpha" maskUnits="userSpaceOnUse" x="304" y="188" width="53" height="46"><path fill-rule="evenodd" clip-rule="evenodd" d="M313.187 213.733c4.402 4.245-8.194 11.724-8.194 11.724l8.367 6.398c7.354-1.634 6.699-7.027 6.699-7.027-.163-1.306 1.798-2.942 1.798-2.942 5.224-2.941 2.419-7.517 2.419-7.517-1.211-1.968.35-4.628 1.87-5.855.569-.46 1.371-.723 2.181-.988 1.353-.443 2.731-.895 3.096-2.285.194-.767-.071-1.526-.338-2.293-.144-.411-.288-.825-.363-1.243-.343-1.933.949-3.646 2.55-4.581.331-.192.682-.364 1.034-.537.998-.489 1.999-.98 2.538-1.922.729-1.274.273-2.98-.753-4.03-1.026-1.049-2.489-1.549-3.931-1.816-2.578-.477-5.35-.28-7.646.989-3.284 1.814-5.109 5.532-5.78 9.223-.5 2.76-.858 4.731-3.328 6.281-.286.179-.582.35-.879.523-1.517.878-3.054 1.769-3.249 3.733-.145 1.54.837 3.13 1.909 4.165Zm25.181-.154c-5.753.654-17.271 13.937-17.271 13.937l8.022 5.816c3.228-.627 10.992-5.17 12.11-8.48.352-1.047.206-2.323.061-3.579-.188-1.639-.373-3.246.563-4.268.759-.829 1.97-1.309 3.012-1.655.54-.18 3.661-1.208 4.166-.717-2.576-2.499 1.505-1.276 1.505-1.276 1.212-.617 1.389-3.175 1.525-5.131.053-.774.1-1.453.202-1.881.234-.954 2.632-7.499 3.74-7.265-4.792-.984-9.504.884-12.972 4.184-1.478 1.407-2.314 3.165-2.971 5.07-.069.198-.178.667-.314 1.248-.365 1.567-.92 3.946-1.378 3.997Z" fill="#CDE5F9"/></mask><g mask="url(#b)" stroke="#fff" stroke-width=".175" stroke-miterlimit="10"><path d="M338.897 188.581c-1.052 2.043-2.805 3.09-4.86 3.952-1.287.545-2.804.935-3.887 1.87-1.545 1.363-1.091 3.039-1.682 4.867-.332 1.012-.935 1.972-1.87 2.515-3.7 2.192-5.94 4.118-6.487 8.648-.769 6.39-3.922 15.623-10.768 18.362M356.003 199.08a17.288 17.288 0 0 0-9.859 9.144c-.848 1.917-.874 4.139-2.417 5.666-1.543 1.526-3.871 2.148-5.75 3.23-3.454 1.991-8.389 8.461-9.115 12.269"/></g></g><g clip-path="url(#c)"><path fill-rule="evenodd" clip-rule="evenodd" d="M76.317 205.569c-6.446 3.898 8.137 21.651 8.137 21.651l-13.272.091c-.445-.211-.86-.427-1.248-.65l-9.428 1.961c-3.623-.152-7.45-1.356-9.202-4.794-.556-1.087-.601-2.505-.646-3.901-.058-1.823-.115-3.609-1.306-4.574-.965-.783-2.365-1.113-3.56-1.323-.626-.11-4.207-.727-4.675-.11 2.41-3.146-1.853-1.15-1.853-1.15-1.424-.482-2.03-3.244-2.496-5.359-.184-.841-.347-1.579-.529-2.032-.402-1-4.095-7.764-5.263-7.337 5.072-1.849 10.53-.563 14.856 2.476 1.842 1.297 3.04 3.083 4.07 5.06.105.203.297.685.536 1.282.651 1.627 1.645 4.111 2.158 4.178.59.077 6.758 4.564 12.206 8.598-.134-1.53.247-2.596.247-2.596.554-1.524-1.356-4.022-1.356-4.022-5.478-4.96-.857-9.691-.857-9.691 1.989-2.033.832-5.652-.652-7.545-.558-.711-1.45-1.246-2.353-1.788-1.501-.902-3.03-1.82-3.089-3.588-.033-.972.493-1.818 1.024-2.673.282-.452.564-.907.767-1.384.941-2.228-.143-4.647-1.812-6.201-.346-.323-.723-.627-1.1-.932-1.065-.86-2.133-1.722-2.523-2.998-.528-1.727.489-3.653 2.006-4.635 1.517-.981 3.412-1.185 5.217-1.11 3.223.131 6.495 1.117 8.917 3.263 3.45 3.074 4.628 8.041 4.427 12.657-.152 3.452-.26 5.918 2.285 8.457.3.3.617.594.934.888 1.579 1.467 3.174 2.948 2.862 5.35-.243 1.889-1.858 3.532-3.428 4.481Z" fill="#CDE5F9"/><mask id="d" style="mask-type:alpha" maskUnits="userSpaceOnUse" x="30" y="170" width="55" height="59"><path fill-rule="evenodd" clip-rule="evenodd" d="M76.317 205.569c-6.446 3.898 8.137 21.651 8.137 21.651l-13.272.091c-.445-.211-.86-.427-1.248-.65l-9.428 1.961c-3.623-.152-7.45-1.356-9.202-4.794-.556-1.087-.601-2.505-.646-3.901-.058-1.823-.115-3.609-1.306-4.574-.965-.783-2.365-1.113-3.56-1.323-.626-.11-4.207-.727-4.675-.11 2.41-3.146-1.853-1.15-1.853-1.15-1.424-.482-2.03-3.244-2.496-5.359-.184-.841-.347-1.579-.529-2.032-.402-1-4.095-7.764-5.263-7.337 5.072-1.849 10.53-.563 14.856 2.476 1.842 1.297 3.04 3.083 4.07 5.06.105.203.297.685.536 1.282.651 1.627 1.645 4.111 2.158 4.178.59.077 6.758 4.564 12.206 8.598-.134-1.53.247-2.596.247-2.596.554-1.524-1.356-4.022-1.356-4.022-5.478-4.96-.857-9.691-.857-9.691 1.989-2.033.832-5.652-.652-7.545-.558-.711-1.45-1.246-2.353-1.788-1.501-.902-3.03-1.82-3.089-3.588-.033-.972.493-1.818 1.024-2.673.282-.452.564-.907.767-1.384.941-2.228-.143-4.647-1.812-6.201-.346-.323-.723-.627-1.1-.932-1.065-.86-2.133-1.722-2.523-2.998-.528-1.727.489-3.653 2.006-4.635 1.517-.981 3.412-1.185 5.217-1.11 3.223.131 6.495 1.117 8.917 3.263 3.45 3.074 4.628 8.041 4.427 12.657-.152 3.452-.26 5.918 2.285 8.457.3.3.617.594.934.888 1.579 1.467 3.174 2.948 2.862 5.35-.243 1.889-1.858 3.532-3.428 4.481Z" fill="#CDE5F9"/></mask><g mask="url(#d)" stroke="#fff" stroke-width=".175" stroke-miterlimit="10"><path d="M52.294 168.351c.702 2.739 2.541 4.481 4.762 6.077 1.402 1.005 3.127 1.886 4.158 3.312 1.484 2.057.467 3.96.701 6.311.121 1.307.589 2.627 1.543 3.529 3.85 3.642 6.014 6.566 5.434 12.155-.82 7.886-.818 19.909 6.66 25.068M30.976 198.042a19.103 19.103 0 0 1 12.254 8.398c1.24 1.959 1.637 4.385 3.56 5.802 1.973 1.449 4.579 1.722 6.809 2.601 4.097 1.618 6.886 5.734 8.295 9.777"/></g></g><path d="M253.683 130.979a2.296 2.296 0 0 1-1.231-4.235 12.11 12.11 0 0 0 5.118-13.597 12.108 12.108 0 0 0-11.622-8.718 12.103 12.103 0 0 0-11.329 16.369 12.11 12.11 0 0 0 4.825 5.946 2.296 2.296 0 0 1 .982 2.583 2.301 2.301 0 0 1-2.209 1.661H209.65v.024-72.627h28.6a1.938 1.938 0 0 0 1.713-1.926 1.913 1.913 0 0 0-.902-1.636 12.095 12.095 0 1 1 13.633-19.95 12.093 12.093 0 0 1 3.973 14.042 12.1 12.1 0 0 1-4.933 5.908 1.94 1.94 0 0 0 .809 3.564h29.71v72.592h-28.57Z" fill="#F4F7FC"/><path d="M137.048 102.405a1.941 1.941 0 0 0-2.861-1.474 1.93 1.93 0 0 0-.701.663 12.09 12.09 0 0 1-5.908 4.933 12.099 12.099 0 0 1-14.043-18.566 12.098 12.098 0 0 1 19.951.962 1.92 1.92 0 0 0 1.636.902 1.941 1.941 0 0 0 1.926-1.713v-29.72h72.617v28.603a1.942 1.942 0 0 0 2.862 1.474c.286-.157.527-.386.7-.663a12.098 12.098 0 0 1 19.951-.96 12.095 12.095 0 0 1-14.042 18.565 12.1 12.1 0 0 1-5.909-4.932 1.941 1.941 0 0 0-3.082-.262 1.94 1.94 0 0 0-.484 1.071v29.707h-72.613v-28.59Z" fill="#CCDBF7"/><path d="m275.883 183.242 4.207-30.023-28.282-3.974a2.283 2.283 0 0 1-1.517-.892 2.303 2.303 0 0 1-.441-1.704 2.313 2.313 0 0 1 1.332-1.777 12.092 12.092 0 0 0 3.494-19.58 12.093 12.093 0 0 0-19.558 3.621 12.101 12.101 0 0 0 3.183 14.162 2.312 2.312 0 0 1 .787 2.068 2.3 2.3 0 0 1-2.594 1.957l-28.294-3.974-3.948 28.116a1.939 1.939 0 0 1-2.192 1.653 1.922 1.922 0 0 1-1.496-1.12 12.094 12.094 0 0 0-19.625-3.715 12.092 12.092 0 0 0-2.022 14.453 12.098 12.098 0 0 0 19.892 1.811 1.927 1.927 0 0 1 1.748-.668 1.943 1.943 0 0 1 1.653 2.192l-4.098 29.196 71.902 10.072 4.359-31.113 1.51-10.761Z" fill="#58BFCA"/><path d="M26.116 224.952H360" stroke="#000" stroke-width=".234" stroke-miterlimit="10"/><path d="M139.291 179.554a1.75 1.75 0 0 1-1.082 1.62 1.757 1.757 0 0 1-2.391-1.278 1.756 1.756 0 0 1 1.72-2.095 1.755 1.755 0 0 1 1.753 1.753ZM150.342 179.554a1.756 1.756 0 0 1-1.082 1.62 1.756 1.756 0 0 1-2.39-1.278 1.753 1.753 0 1 1 3.472-.342ZM161.393 179.554a1.75 1.75 0 0 1-1.082 1.62 1.757 1.757 0 0 1-2.391-1.278 1.756 1.756 0 0 1 1.72-2.095 1.753 1.753 0 0 1 1.753 1.753ZM172.442 179.554a1.75 1.75 0 0 1-1.082 1.62 1.757 1.757 0 0 1-2.391-1.278 1.764 1.764 0 0 1 .1-1.013 1.756 1.756 0 0 1 2.859-.569c.329.329.514.775.514 1.24ZM139.291 190.32a1.752 1.752 0 0 1-2.993 1.239 1.755 1.755 0 0 1-.38-1.91 1.756 1.756 0 0 1 1.62-1.082 1.75 1.75 0 0 1 1.753 1.753ZM150.342 190.32a1.753 1.753 0 1 1-3.504-.003 1.753 1.753 0 0 1 3.504.003ZM161.393 190.32a1.752 1.752 0 0 1-2.993 1.239 1.755 1.755 0 0 1-.38-1.91 1.756 1.756 0 0 1 2.859-.569c.329.329.514.775.514 1.24ZM172.442 190.32a1.752 1.752 0 0 1-2.993 1.239 1.755 1.755 0 0 1-.38-1.91 1.756 1.756 0 0 1 2.859-.569c.329.329.514.775.514 1.24ZM183.492 190.32a1.75 1.75 0 0 1-2.992 1.239 1.755 1.755 0 0 1 .265-2.697 1.753 1.753 0 0 1 2.727 1.458ZM139.291 201.083a1.75 1.75 0 0 1-1.082 1.62 1.758 1.758 0 0 1-2.391-1.278 1.757 1.757 0 0 1 .746-1.799 1.75 1.75 0 0 1 2.213.218c.329.328.514.774.514 1.239ZM150.342 201.083a1.756 1.756 0 0 1-1.082 1.62 1.755 1.755 0 0 1-1.645-3.077 1.752 1.752 0 0 1 2.727 1.457ZM161.393 201.083a1.75 1.75 0 0 1-1.082 1.62 1.758 1.758 0 0 1-2.391-1.278 1.757 1.757 0 0 1 .746-1.799 1.75 1.75 0 0 1 2.213.218c.329.328.514.774.514 1.239ZM172.442 201.083a1.75 1.75 0 0 1-1.082 1.62 1.758 1.758 0 0 1-2.391-1.278 1.754 1.754 0 1 1 3.473-.342ZM183.492 201.083a1.748 1.748 0 0 1-1.082 1.62 1.755 1.755 0 0 1-1.645-3.077 1.754 1.754 0 0 1 2.727 1.457ZM194.543 201.083a1.756 1.756 0 0 1-1.082 1.62 1.755 1.755 0 0 1-1.645-3.077 1.75 1.75 0 0 1 2.214.218c.328.328.513.774.513 1.239ZM139.291 211.849a1.75 1.75 0 0 1-1.082 1.62 1.757 1.757 0 0 1-2.391-1.278 1.756 1.756 0 0 1 1.72-2.095 1.755 1.755 0 0 1 1.753 1.753ZM150.342 211.849a1.756 1.756 0 0 1-1.082 1.62 1.756 1.756 0 0 1-2.39-1.278 1.753 1.753 0 1 1 3.472-.342ZM161.393 211.849a1.75 1.75 0 0 1-1.082 1.62 1.757 1.757 0 0 1-2.391-1.278 1.756 1.756 0 0 1 1.72-2.095 1.753 1.753 0 0 1 1.753 1.753ZM172.442 211.849a1.75 1.75 0 0 1-1.082 1.62 1.757 1.757 0 0 1-2.391-1.278 1.764 1.764 0 0 1 .1-1.013 1.756 1.756 0 0 1 2.859-.569c.329.329.514.775.514 1.24ZM183.492 211.849a1.748 1.748 0 0 1-1.082 1.62 1.756 1.756 0 0 1-2.39-1.278 1.753 1.753 0 1 1 3.472-.342ZM194.543 211.849a1.756 1.756 0 0 1-1.082 1.62 1.756 1.756 0 0 1-2.39-1.278 1.753 1.753 0 1 1 3.472-.342ZM139.291 222.615a1.75 1.75 0 0 1-1.082 1.62 1.757 1.757 0 0 1-2.391-1.278 1.757 1.757 0 0 1 .746-1.8 1.756 1.756 0 0 1 2.213.218c.329.329.514.775.514 1.24ZM150.342 222.615a1.756 1.756 0 0 1-1.082 1.62 1.756 1.756 0 0 1-2.39-1.278 1.749 1.749 0 0 1 .745-1.8 1.759 1.759 0 0 1 2.214.218c.329.329.513.775.513 1.24ZM161.393 222.615a1.75 1.75 0 0 1-1.082 1.62 1.757 1.757 0 0 1-2.391-1.278 1.757 1.757 0 0 1 .746-1.8 1.756 1.756 0 0 1 2.213.218c.329.329.514.775.514 1.24ZM172.442 222.615a1.75 1.75 0 0 1-1.082 1.62 1.757 1.757 0 0 1-2.391-1.278 1.765 1.765 0 0 1 .1-1.013 1.756 1.756 0 0 1 2.859-.569c.329.329.514.775.514 1.24ZM183.492 222.615a1.748 1.748 0 0 1-1.082 1.62 1.756 1.756 0 0 1-2.39-1.278 1.749 1.749 0 0 1 .745-1.8 1.757 1.757 0 0 1 2.214.218c.329.329.513.775.513 1.24ZM194.543 222.615a1.756 1.756 0 0 1-1.082 1.62 1.756 1.756 0 0 1-2.39-1.278 1.749 1.749 0 0 1 .745-1.8 1.756 1.756 0 0 1 2.214.218c.328.329.513.775.513 1.24ZM105.908 209.617a5.387 5.387 0 0 0-.234.701c-.423 1.564-.935 5.495 2.878 9.487l-11.29-5.376 3.974-8.835 5.186 2.036-.621 2.225" fill="#fff"/><path d="m97.258 214.446-.919 1.758 15.034 6.736s1.316-1.44-.453-2.506l-13.662-5.988Z" fill="#060000"/><path d="M105.383 212.153s-.213 3.317 1.472 5.488" stroke="#060000" stroke-width=".234" stroke-miterlimit="10"/><path d="m96.687 215.485-.71 1.531 4.827 2.241.711-1.531-4.828-2.241Z" fill="#060000"/><path d="M159.214 213.719a5.492 5.492 0 0 0-.072.746c-.063 1.617.318 5.563 4.925 8.601l-12.204-2.704 1.903-9.504 5.511.825-.107 2.309" fill="#fff"/><path d="m151.863 220.362-.5 1.919 16.158 3.202s.961-1.697-1.003-2.337l-14.655-2.784Z" fill="#060000"/><path d="M159.277 216.306s.535 3.273 2.662 5.021" stroke="#060000" stroke-width=".234" stroke-miterlimit="10"/><path d="m151.522 221.469-.35 1.651 5.207 1.104.35-1.651-5.207-1.104Z" fill="#060000"/><path d="m126.287 136.184-31.51 71.306 17.517 6.164 28.401-61.77-14.408-15.7Z" fill="#1AB7B7"/><path d="M200.758 154.147c.421-.197 4.998.255 4.998.255 1.806.965 3.697 1.846 5.434 2.931.383.233.407.568.33.986a3.615 3.615 0 0 1-.536 1.37c-.776 1.077-2.178.822-3.249.383l-3.973-1.636-4.675-.211 1.671-4.078Z" fill="#EFD1D8"/><path d="M139.01 125.112c-3.974 1.248-7.854 3.656-10.422 6.966-8.067 10.394-.393 22.109 7.311 29.546 3.941 3.803 7.931 7.566 12.079 11.142 2.438 2.104 5.661 5.351 9.023 6.924-1.732 1.236-8.934 36.857-8.934 36.857l16.249 1.636 8.817-32.171s5.053-16.64-14.746-31.804" fill="#58C1CC"/><path d="M175.364 94.71a15.77 15.77 0 0 0-2.289.666 7.564 7.564 0 0 0-1.619.786c-.863.58-1.066 1.591-1.95 2.145-.797.5-1.79.676-2.632 1.11-.347.17-.669.389-.953.65-.29.283-.468.631-.753.919a7.736 7.736 0 0 1-.739.638c-.406.316-1.089.879-1.706.771l17.25 9.319-4.609-17.004Z" fill="#000"/><path d="M174.288 104.911c-2.435.532-3.884-.669-4.167-2.361-.257-1.571.996-3.462 2.891-2.917a5.024 5.024 0 0 1 2.024 1.229c.209.469.366.96.468 1.463.205 1.031.142 2.284-1.227 2.586" fill="#EFD1D8"/><path d="M174.475 107.341c3.728 2.821 7.19 1.099 8.613-2.438.631-1.568 1.169-3.326.879-5.018-.264-1.554-1.038-2.966-2.368-3.808-2.788-1.766-6.647-.673-8.613 2.438 0 0 0 .02-.019.03a6.626 6.626 0 0 0 1.508 8.796Z" fill="#EFD1D8"/><path d="M173.97 102.809a2.338 2.338 0 0 0-2.104-2.005c-.292-.024-.374.428-.079.453a1.873 1.873 0 0 1 1.73 1.59c.044.292.502.257.467-.038" fill="#000"/><path d="m174.828 104.799-2.574 4.752 3.477 1.884 2.574-4.752-3.477-1.884Z" fill="#EFD1D8"/><path d="M180.474 102.947a.428.428 0 0 1-.632-.497.426.426 0 0 1 .386-.3.424.424 0 0 1 .417.255.421.421 0 0 1 .047.152.412.412 0 0 1-.213.399M181.426 105.969a9.208 9.208 0 0 0 1.061-2.475c.068-.255-.308-.411-.376-.157a8.876 8.876 0 0 1-1.021 2.384c-.134.218.201.468.336.248ZM175.036 99.027l9.571 3.974c-.07-.052.356-1.347.386-1.461.652-2.37-.325-5.226-2.407-6.472-2.572-1.543-6.438-2.19-8.721-.028-.255.233-3.298 3.74-3.055 3.863l3.609 1.667.617-1.543Z" fill="#000"/><path d="M185.649 93.427a3.148 3.148 0 0 1-1.946 2.913 3.154 3.154 0 1 1 1.946-2.913Z" fill="#000"/><path d="M125.155 138.751s-1.333 11.731 10.751 22.873" stroke="#000" stroke-width=".234" stroke-miterlimit="10"/><path d="M140.695 140.356c1.306 9.817 7.479 17.998 14.608 24.503 2.843 2.597 6.199 4.612 7.947 8.155 3.99 8.045-.406 19.031-2.183 27.328l-3.56 16.621" stroke="#fff" stroke-width=".234" stroke-miterlimit="10"/><path d="m192.659 146.181-9.21-.893c2.48-6.544 2.74-10.77 2.48-16.686-.523-11.956-8.307-19.987-19.33-21.359-10.751-1.337-23.539 5.124-31.379 11.666-2.868 2.391-15.361 12.783-15.608 12.622l37.893 22.513c1.933 6.778 2.786 12.358 12.371 12.358l20.621 1.998a11.147 11.147 0 0 0 12.13-9.987v-.099a11.142 11.142 0 0 0-9.987-12.133" fill="#3458DF"/><path d="m183.441 145.288-3.214-17.656M197.678 152.583s3.901 9.35-3.111 12.44M165.165 109.903s-7.947-1.657-13.302 2.7" stroke="#fff" stroke-width=".234" stroke-miterlimit="10"/><g opacity=".32" fill="#fff"><path opacity=".32" d="M130.104 102.926h-1.494v.374h1.494v-.374ZM216.214 103.3h-3.08v-.374h3.076l.004.374Zm-6.152 0h-3.073v-.374h3.073v.374Zm-6.149 0h-3.076v-.374h3.076v.374Zm-6.152 0h-3.074v-.374h3.074v.374Zm-6.15 0h-3.076v-.374h3.076v.374Zm-6.152 0h-3.075v-.374h3.075v.374Zm-6.151 0h-3.074v-.374h3.074v.374Zm-6.15 0h-3.076v-.374h3.083l-.007.374Zm-6.152 0h-3.074v-.374h3.074v.374Zm-6.15 0h-3.075v-.374h3.075v.374Zm-6.151 0h-3.074v-.374h3.069l.005.374Zm-6.15 0h-3.076v-.374h3.076v.374Zm-6.152 0h-3.076v-.374h3.076v.374Zm-6.15 0h-3.076v-.374h3.076v.374ZM220.781 102.926h-1.491v.374h1.491v-.374ZM121.208 111.161h-1.491v.374h1.491v-.374ZM216.317 111.532h-2.97v-.371h2.97v.371Zm-5.944 0H207.4v-.371h2.973v.371Zm-5.943 0h-2.983v-.371h2.973l.01.371Zm-5.944 0h-2.973v-.371h2.973v.371Zm-5.947 0h-2.97v-.371h2.97v.371Zm-5.943 0h-2.971v-.371h2.971v.371Zm-5.944 0h-2.973v-.371h2.966l.007.371Zm-5.944 0h-2.973v-.371h2.973v.371Zm-5.944 0h-2.973v-.371h2.973v.371Zm-5.944 0h-2.978v-.371h2.973l.005.371Zm-5.946 0h-2.971v-.371h2.971v.371Zm-5.944 0h-2.971v-.371h2.971v.371Zm-5.944 0h-2.971v-.371h2.971v.371Zm-5.944 0h-2.973v-.371h2.971l.002.371Zm-5.944 0h-2.973v-.371h2.973v.371Zm-5.944 0h-2.973v-.371h2.973v.371ZM220.781 111.161h-1.491v.374h1.491v-.374ZM121.208 119.881h-1.491v.374h1.491v-.374ZM216.317 120.253h-2.97v-.372h2.97v.372Zm-5.944 0H207.4v-.372h2.973v.372Zm-5.943 0h-2.983v-.372h2.973l.01.372Zm-5.944 0h-2.973v-.372h2.973v.372Zm-5.947 0h-2.97v-.372h2.97v.372Zm-5.943 0h-2.971v-.372h2.971v.372Zm-5.944 0h-2.973v-.372h2.966l.007.372Zm-5.944 0h-2.973v-.372h2.973v.372Zm-5.944 0h-2.973v-.372h2.973v.372Zm-5.944 0h-2.978v-.372h2.973l.005.372Zm-5.946 0h-2.971v-.372h2.971v.372Zm-5.944 0h-2.971v-.372h2.971v.372Zm-5.944 0h-2.971v-.372h2.971v.372Zm-5.944 0h-2.973v-.372h2.971l.002.372Zm-5.944 0h-2.973v-.372h2.973v.372Zm-5.944 0h-2.973v-.372h2.973v.372ZM220.781 119.881h-1.491v.374h1.491v-.374ZM121.208 128.602h-1.491v.374h1.491v-.374ZM216.317 128.974h-2.97v-.372h2.97v.372Zm-5.944 0H207.4v-.372h2.973v.372Zm-5.943 0h-2.983v-.372h2.973l.01.372Zm-5.944 0h-2.973v-.372h2.973v.372Zm-5.947 0h-2.97v-.372h2.97v.372Zm-5.943 0h-2.971v-.372h2.971v.372Zm-5.944 0h-2.973v-.372h2.966l.007.372Zm-5.944 0h-2.973v-.372h2.973v.372Zm-5.944 0h-2.973v-.372h2.973v.372Zm-5.944 0h-2.978v-.372h2.973l.005.372Zm-5.946 0h-2.971v-.372h2.971v.372Zm-5.944 0h-2.971v-.372h2.971v.372Zm-5.944 0h-2.971v-.372h2.971v.372Zm-5.944 0h-2.973v-.372h2.971l.002.372Zm-5.944 0h-2.973v-.372h2.973v.372Zm-5.944 0h-2.973v-.372h2.973v.372ZM220.781 128.602h-1.491v.374h1.491v-.374ZM121.208 137.323h-1.491v.374h1.491v-.374ZM216.317 137.699h-2.97v-.374h2.97v.374Zm-5.944 0H207.4v-.374h2.973v.374Zm-5.943 0h-2.983v-.374h2.973l.01.374Zm-5.944 0h-2.973v-.374h2.973v.374Zm-5.947 0h-2.97v-.374h2.97v.374Zm-5.943 0h-2.971v-.374h2.971v.374Zm-5.951 0h-2.966v-.374h2.966v.374Zm-5.944 0h-2.966v-.374h2.973l-.007.374Zm-5.944 0h-2.966v-.374h2.973l-.007.374Zm-5.944 0h-2.971v-.374h2.973l-.002.374Zm-5.946 0h-2.964v-.374h2.971l-.007.374Zm-5.944 0h-2.964v-.374h2.971l-.007.374Zm-5.944 0h-2.964v-.374h2.971l-.007.374Zm-5.939 0h-2.971v-.374h2.971v.374Zm-5.944 0h-2.971v-.374h2.973l-.002.374Zm-5.944 0h-2.971v-.374h2.973l-.002.374ZM220.781 137.323h-1.491v.374h1.491v-.374ZM121.208 146.043h-1.491v.374h1.491v-.374ZM216.317 146.417h-2.97v-.374h2.97v.374Zm-5.944 0H207.4v-.374h2.973v.374Zm-5.943 0h-2.983v-.374h2.973l.01.374Zm-5.944 0h-2.973v-.374h2.973v.374Zm-5.947 0h-2.97v-.374h2.97v.374Zm-5.943 0h-2.971v-.374h2.971v.374Zm-5.944 0h-2.973v-.374h2.966l.007.374Zm-5.944 0h-2.973v-.374h2.973v.374Zm-5.944 0h-2.973v-.374h2.973v.374Zm-5.944 0h-2.978v-.374h2.973l.005.374Zm-5.946 0h-2.971v-.374h2.971v.374Zm-5.944 0h-2.971v-.374h2.971v.374Zm-5.944 0h-2.971v-.374h2.971v.374Zm-5.944 0h-2.973v-.374h2.971l.002.374Zm-5.944 0h-2.973v-.374h2.973v.374Zm-5.944 0h-2.973v-.374h2.973v.374ZM220.781 146.043h-1.491v.374h1.491v-.374ZM130.104 153.593h-1.494v.374h1.494v-.374ZM216.214 153.965h-3.08v-.372h3.076l.004.372Zm-6.152 0h-3.073v-.372h3.073v.372Zm-6.149 0h-3.076v-.372h3.076v.372Zm-6.152 0h-3.074v-.372h3.074v.372Zm-6.15 0h-3.076v-.372h3.076v.372Zm-6.152 0h-3.075v-.372h3.075v.372Zm-6.151 0h-3.074v-.372h3.074v.372Zm-6.15 0h-3.076v-.372h3.083l-.007.372Zm-6.152 0h-3.074v-.372h3.074v.372Zm-6.15 0h-3.075v-.372h3.075v.372Zm-6.151 0h-3.074v-.372h3.069l.005.372Zm-6.15 0h-3.076v-.372h3.076v.372Zm-6.152 0h-3.076v-.372h3.076v.372Zm-6.15 0h-3.076v-.372h3.076v.372ZM220.781 153.593h-1.491v.374h1.491v-.374ZM121.208 161.825h-1.491v.374h1.491v-.374ZM216.317 162.199h-2.97v-.374h2.97v.374Zm-5.944 0H207.4v-.374h2.973v.374Zm-5.943 0h-2.983v-.374h2.973l.01.374Zm-5.944 0h-2.973v-.374h2.973v.374Zm-5.947 0h-2.97v-.374h2.97v.374Zm-5.943 0h-2.971v-.374h2.971v.374Zm-5.944 0h-2.973v-.374h2.966l.007.374Zm-5.944 0h-2.973v-.374h2.973v.374Zm-5.944 0h-2.973v-.374h2.973v.374Zm-5.944 0h-2.978v-.374h2.973l.005.374Zm-5.946 0h-2.971v-.374h2.971v.374Zm-5.944 0h-2.971v-.374h2.971v.374Zm-5.944 0h-2.971v-.374h2.971v.374Zm-5.944 0h-2.973v-.374h2.971l.002.374Zm-5.944 0h-2.973v-.374h2.973v.374Zm-5.944 0h-2.973v-.374h2.973v.374ZM220.781 161.825h-1.491v.374h1.491v-.374ZM121.208 170.546h-1.491v.374h1.491v-.374ZM216.317 170.92h-2.97v-.374h2.97v.374Zm-5.944 0H207.4v-.374h2.973v.374Zm-5.943 0h-2.983v-.374h2.973l.01.374Zm-5.944 0h-2.973v-.374h2.973v.374Zm-5.947 0h-2.97v-.374h2.97v.374Zm-5.943 0h-2.971v-.374h2.971v.374Zm-5.944 0h-2.973v-.374h2.966l.007.374Zm-5.944 0h-2.973v-.374h2.973v.374Zm-5.944 0h-2.973v-.374h2.973v.374Zm-5.944 0h-2.978v-.374h2.973l.005.374Zm-5.946 0h-2.971v-.374h2.971v.374Zm-5.944 0h-2.971v-.374h2.971v.374Zm-5.944 0h-2.971v-.374h2.971v.374Zm-5.944 0h-2.973v-.374h2.971l.002.374Zm-5.944 0h-2.973v-.374h2.973v.374Zm-5.944 0h-2.973v-.374h2.973v.374ZM220.781 170.546h-1.491v.374h1.491v-.374ZM121.208 179.267h-1.491v.373h1.491v-.373ZM216.317 179.64h-2.97v-.373h2.97v.373Zm-5.944 0H207.4v-.373h2.973v.373Zm-5.943 0h-2.983v-.373h2.973l.01.373Zm-5.944 0h-2.973v-.373h2.973v.373Zm-5.947 0h-2.97v-.373h2.97v.373Zm-5.943 0h-2.971v-.373h2.971v.373Zm-5.944 0h-2.973v-.373h2.966l.007.373Zm-5.944 0h-2.973v-.373h2.973v.373Zm-5.944 0h-2.973v-.373h2.973v.373Zm-5.944 0h-2.978v-.373h2.973l.005.373Zm-5.946 0h-2.971v-.373h2.971v.373Zm-5.944 0h-2.971v-.373h2.971v.373Zm-5.944 0h-2.971v-.373h2.971v.373Zm-5.944 0h-2.973v-.373h2.971l.002.373Zm-5.944 0h-2.973v-.373h2.973v.373Zm-5.944 0h-2.973v-.373h2.973v.373ZM220.781 179.267h-1.491v.373h1.491v-.373ZM121.208 187.99h-1.491v.374h1.491v-.374ZM216.317 188.361h-2.97v-.371h2.97v.371Zm-5.944 0H207.4v-.371h2.973v.371Zm-5.943 0h-2.983v-.371h2.973l.01.371Zm-5.944 0h-2.973v-.371h2.973v.371Zm-5.947 0h-2.97v-.371h2.97v.371Zm-5.943 0h-2.971v-.371h2.971v.371Zm-5.944 0h-2.973v-.371h2.966l.007.371Zm-5.944 0h-2.973v-.371h2.973v.371Zm-5.944 0h-2.973v-.371h2.973v.371Zm-5.944 0h-2.978v-.371h2.973l.005.371Zm-5.946 0h-2.971v-.371h2.971v.371Zm-5.944 0h-2.971v-.371h2.971v.371Zm-5.944 0h-2.971v-.371h2.971v.371Zm-5.944 0h-2.973v-.371h2.971l.002.371Zm-5.944 0h-2.973v-.371h2.973v.371Zm-5.944 0h-2.973v-.371h2.973v.371ZM220.781 187.99h-1.491v.374h1.491v-.374ZM121.208 196.71h-1.491v.374h1.491v-.374ZM216.317 197.082h-2.97v-.372h2.97v.372Zm-5.944 0H207.4v-.372h2.973v.372Zm-5.943 0h-2.983v-.372h2.973l.01.372Zm-5.944 0h-2.973v-.372h2.973v.372Zm-5.947 0h-2.97v-.372h2.97v.372Zm-5.943 0h-2.971v-.372h2.971v.372Zm-5.944 0h-2.973v-.372h2.966l.007.372Zm-5.944 0h-2.973v-.372h2.973v.372Zm-5.944 0h-2.973v-.372h2.973v.372Zm-5.944 0h-2.978v-.372h2.973l.005.372Zm-5.946 0h-2.971v-.372h2.971v.372Zm-5.944 0h-2.971v-.372h2.971v.372Zm-5.944 0h-2.971v-.372h2.971v.372Zm-5.944 0h-2.973v-.372h2.971l.002.372Zm-5.944 0h-2.973v-.372h2.973v.372Zm-5.944 0h-2.973v-.372h2.973v.372ZM220.781 196.71h-1.491v.374h1.491v-.374Z"/></g><path d="m152.723 134.772 4.792 19.272" stroke="#000" stroke-width=".234" stroke-miterlimit="10"/><path d="m121.396 187.216-11.353 22.2" stroke="#221715" stroke-width=".234" stroke-miterlimit="10"/><path d="M193.674 143.329s10.34 2.057 10.777 7.433M175.048 174.919s4.441 4.31 2.194 12.297" stroke="#000" stroke-width=".234" stroke-miterlimit="10"/><path d="M204.954 158.008s3.106 1.938 1.597 2.917c0 0-1.141.935-3.74-2.646" fill="#EFD1D8"/><path d="M204.954 158.008s3.106 1.938 1.597 2.917c0 0-1.141.935-3.74-2.646M173.15 106.116a7.027 7.027 0 0 0 4.908 2.871M158.487 52.636c3.197 3.58 6.907 6.918 11.184 9.15 3.924 2.045 8.478 3.102 12.83 2.3 1.895-.35 4.06-1.484 4.085-3.412.024-1.844-1.925-3.039-3.678-3.61a22.037 22.037 0 0 0-9.923-.869c-3.312.468-6.939 2.167-7.739 5.416-.619 2.52.702 5.142 2.452 7.059a16.776 16.776 0 0 0 10.56 5.357c9.116.96 7.277-8.973-1.968-7.76-1.713.234-3.471.517-4.948 1.402-1.477.886-2.634 2.534-2.466 4.254.092.959.575 1.837 1.122 2.63a15.196 15.196 0 0 0 7.463 5.673c1.637.57 4.014.498 4.495-1.169.276-.968-.32-2.013-1.145-2.592-2.15-1.51-5.675.06-5.991 2.67-.43 3.575 3.787 4.517 6.465 4.52" stroke="#000" stroke-width=".234" stroke-miterlimit="10"/><defs><clipPath id="a"><path fill="#fff" transform="translate(305 188)" d="M0 0h51v37H0z"/></clipPath><clipPath id="c"><path fill="#fff" transform="translate(31 170)" d="M0 0h53v55H0z"/></clipPath></defs></svg>