<?xml version="1.0" encoding="utf-8"?>
<!-- Generator: Adobe Illustrator 24.2.0, SVG Export Plug-In . SVG Version: 6.00 Build 0)  -->
<svg version="1.1" id="图层_1" xmlns="http://www.w3.org/2000/svg" xmlns:xlink="http://www.w3.org/1999/xlink" x="0px" y="0px"
	 viewBox="0 0 700 700" style="enable-background:new 0 0 700 700;" xml:space="preserve">
<style type="text/css">
	.st0{fill:#DAEBFF;}
	.st1{fill:#D3E2F9;}
	.st2{fill:#00B77B;}
	.st3{fill:#00D967;}
	.st4{fill:none;stroke:#FFFFFF;stroke-width:0.4109;stroke-linecap:round;stroke-linejoin:round;stroke-miterlimit:10;}
	.st5{fill:#1E2889;}
	.st6{fill:#0542BF;}
	.st7{fill:#006DFE;}
	.st8{fill:url(#SVGID_1_);}
	.st9{fill:#FFFFFF;}
	.st10{fill:#B0D8FF;}
	.st11{fill:#3998FF;}
	.st12{fill:url(#SVGID_2_);}
	.st13{fill:#0ACE68;}
	.st14{fill:#EBF5FF;}
	.st15{fill:#D1E3FF;}
	.st16{fill:#F5FCFF;}
	.st17{fill:url(#SVGID_3_);}
	.st18{fill:url(#SVGID_4_);}
	.st19{fill:#9FD4FF;}
	.st20{fill:#78CFFF;}
	.st21{fill:#B6E2FF;}
	.st22{fill:#64C8FF;}
	.st23{clip-path:url(#SVGID_6_);fill:#FE8E00;}
	.st24{clip-path:url(#SVGID_8_);fill:#FE8E00;}
	.st25{clip-path:url(#SVGID_10_);fill:#17216B;}
	.st26{clip-path:url(#XMLID_7_);fill:#FE8E00;}
	.st27{fill:#FFACA6;}
	.st28{fill:#78C2FF;}
	.st29{fill:#EA756C;}
	.st30{clip-path:url(#SVGID_12_);fill:#10163D;}
	.st31{clip-path:url(#SVGID_14_);fill:#EA756C;}
</style>
<g>
	<ellipse class="st0" cx="148.4" cy="487" rx="110.1" ry="49.7"/>
	<ellipse class="st0" cx="103.3" cy="543.4" rx="34.2" ry="15.4"/>
	<ellipse class="st0" cx="348.5" cy="475.4" rx="95.3" ry="15.4"/>
	<rect x="9.8" y="442.2" class="st1" width="623.8" height="4"/>
	<g>
		<path class="st2" d="M85.7,441.4c0,0-7.2,15.1-20,20.7s-30.8-1.5-40.9-9.8C14.8,444,5,432.1,4,423.3C3.1,414.5,20,418,20,418
			s-7.5-10.7-10.6-18.4s0.5-15.6,10.7-10.9c10.2,4.8,10.2,4.8,10.2,4.8s-7.8-16.6-7.7-27c0.1-10.4,6-26,17-15
			c11,11,12.1,34.1,12.1,34.1s2.4-9.8,5.9-17c3.5-7.2,10.7-6.3,14.1,3.8c3.3,10,4.6,24.4,4.6,24.4s3.2-11.1,8.4-9.3
			c5.2,1.8,8.2,14.7,7.4,27.5C91.3,427.6,85.7,441.4,85.7,441.4z"/>
		<g>
			<path class="st3" d="M83.5,414.4c0,0-0.4-54.8-40.4-74.4c0,0-18.3,46.1,9.5,85.6s22.1,30.3,22.1,30.3L83.5,414.4z"/>
			<line class="st4" x1="52.9" y1="365.7" x2="75.7" y2="447.2"/>
		</g>
	</g>
	<g>
		<g>
			<g>
				<rect x="306.6" y="403.8" class="st5" width="83.8" height="50.3"/>
				<rect x="265.9" y="453.7" class="st6" width="165.2" height="21.8"/>
			</g>
			<path class="st7" d="M535.8,408.1H161.2c-4.5,0-8.1-3.6-8.1-8.1V149.3c0-4.5,3.6-8.1,8.1-8.1h374.6c4.5,0,8.1,3.6,8.1,8.1v250.7
				C543.9,404.4,540.3,408.1,535.8,408.1z"/>
			<linearGradient id="SVGID_1_" gradientUnits="userSpaceOnUse" x1="166.0677" y1="274.5998" x2="531.0042" y2="274.5998">
				<stop  offset="0" style="stop-color:#B0D8FF"/>
				<stop  offset="1.537955e-02" style="stop-color:#B3D9FF"/>
				<stop  offset="0.145" style="stop-color:#C4E1FF"/>
				<stop  offset="0.3014" style="stop-color:#D1E7FF"/>
				<stop  offset="0.5117" style="stop-color:#D8EAFF"/>
				<stop  offset="1" style="stop-color:#DAEBFF"/>
			</linearGradient>
			<path class="st8" d="M523.5,397.6H173.6c-4.2,0-7.5-3.4-7.5-7.5V159.1c0-4.2,3.4-7.5,7.5-7.5h349.9c4.2,0,7.5,3.4,7.5,7.5v230.9
				C531,394.2,527.6,397.6,523.5,397.6z"/>
		</g>
		<g>
			<path class="st9" d="M294.9,178.4H186.6c-2.4,0-4.3-1.9-4.3-4.3l0,0c0-2.4,1.9-4.3,4.3-4.3h108.4c2.4,0,4.3,1.9,4.3,4.3l0,0
				C299.2,176.4,297.3,178.4,294.9,178.4z"/>
			<path class="st9" d="M294.9,197H186.6c-2.4,0-4.3-1.9-4.3-4.3l0,0c0-2.4,1.9-4.3,4.3-4.3h108.4c2.4,0,4.3,1.9,4.3,4.3l0,0
				C299.2,195.1,297.3,197,294.9,197z"/>
			<path class="st9" d="M297.3,215.6H184.1c-1,0-1.9-0.8-1.9-1.9v-4.8c0-1,0.8-1.9,1.9-1.9h113.2c1,0,1.9,0.8,1.9,1.9v4.8
				C299.2,214.8,298.4,215.6,297.3,215.6z"/>
			<path class="st9" d="M294.9,234.2H186.6c-2.4,0-4.3-1.9-4.3-4.3l0,0c0-2.4,1.9-4.3,4.3-4.3h108.4c2.4,0,4.3,1.9,4.3,4.3l0,0
				C299.2,232.3,297.3,234.2,294.9,234.2z"/>
			<path class="st9" d="M294.9,252.9H186.6c-2.4,0-4.3-1.9-4.3-4.3l0,0c0-2.4,1.9-4.3,4.3-4.3h108.4c2.4,0,4.3,1.9,4.3,4.3l0,0
				C299.2,250.9,297.3,252.9,294.9,252.9z"/>
		</g>
		<g>
			<path class="st9" d="M294.9,291.5H186.6c-2.4,0-4.3-1.9-4.3-4.3l0,0c0-2.4,1.9-4.3,4.3-4.3h108.4c2.4,0,4.3,1.9,4.3,4.3l0,0
				C299.2,289.6,297.3,291.5,294.9,291.5z"/>
			<path class="st3" d="M294.9,310.1H186.6c-2.4,0-4.3-1.9-4.3-4.3l0,0c0-2.4,1.9-4.3,4.3-4.3h108.4c2.4,0,4.3,1.9,4.3,4.3l0,0
				C299.2,308.2,297.3,310.1,294.9,310.1z"/>
			<path class="st9" d="M297.3,328.8H184.1c-1,0-1.9-0.8-1.9-1.9v-4.8c0-1,0.8-1.9,1.9-1.9h113.2c1,0,1.9,0.8,1.9,1.9v4.8
				C299.2,327.9,298.4,328.8,297.3,328.8z"/>
			<path class="st9" d="M294.9,347.4H186.6c-2.4,0-4.3-1.9-4.3-4.3l0,0c0-2.4,1.9-4.3,4.3-4.3h108.4c2.4,0,4.3,1.9,4.3,4.3l0,0
				C299.2,345.5,297.3,347.4,294.9,347.4z"/>
			<path class="st9" d="M297.3,366H184.1c-1,0-1.9-0.8-1.9-1.9v-4.8c0-1,0.8-1.9,1.9-1.9h113.2c1,0,1.9,0.8,1.9,1.9v4.8
				C299.2,365.2,298.4,366,297.3,366z"/>
		</g>
		<g>
			<path class="st9" d="M502.7,291.5H322.7c-2.4,0-4.3-1.9-4.3-4.3l0,0c0-2.4,1.9-4.3,4.3-4.3h180.1c2.4,0,4.3,1.9,4.3,4.3l0,0
				C507,289.6,505.1,291.5,502.7,291.5z"/>
			<path class="st9" d="M502.7,310.1H322.7c-2.4,0-4.3-1.9-4.3-4.3l0,0c0-2.4,1.9-4.3,4.3-4.3h180.1c2.4,0,4.3,1.9,4.3,4.3l0,0
				C507,308.2,505.1,310.1,502.7,310.1z"/>
			<path class="st9" d="M505.2,328.8H320.2c-1,0-1.9-0.8-1.9-1.9v-4.8c0-1,0.8-1.9,1.9-1.9h184.9c1,0,1.9,0.8,1.9,1.9v4.8
				C507,327.9,506.2,328.8,505.2,328.8z"/>
			<path class="st9" d="M502.7,347.4H322.7c-2.4,0-4.3-1.9-4.3-4.3l0,0c0-2.4,1.9-4.3,4.3-4.3h180.1c2.4,0,4.3,1.9,4.3,4.3l0,0
				C507,345.5,505.1,347.4,502.7,347.4z"/>
			<path class="st9" d="M505.2,366H320.2c-1,0-1.9-0.8-1.9-1.9v-4.8c0-1,0.8-1.9,1.9-1.9h184.9c1,0,1.9,0.8,1.9,1.9v4.8
				C507,365.2,506.2,366,505.2,366z"/>
		</g>
		<g>
			<path class="st9" d="M513.1,253.9H317.9c-0.9,0-1.7-0.7-1.7-1.7v-81.5c0-0.9,0.7-1.7,1.7-1.7h195.2c0.9,0,1.7,0.7,1.7,1.7v81.5
				C514.8,253.1,514.1,253.9,513.1,253.9z"/>
			<path class="st0" d="M509.5,214.5v32.2c0,1.4-1.2,2.6-2.6,2.6H323.5c-1.4,0-2.6-1.2-2.6-2.6v-70.8c16.9,0,25.4,6.3,30.3,14.7
				c0.3,0.5,0.6,1.1,0.9,1.6c8.4,15.8,5.8,37.5,24.2,37.5c0.7,0,1.3-0.1,1.9-0.2c0.4-0.1,0.8-0.2,1.1-0.4
				c12.4-5.2,10.4-42.2,32.5-41.9c4.7,0.1,8.2,1.9,11,4.7c0.3,0.3,0.5,0.6,0.8,0.9c9.9,11.6,10,37.3,25.1,42
				c5.5,1.7,10.3-0.6,15-4.4c0.3-0.2,0.6-0.5,0.9-0.8c10.1-8.4,20.1-22.6,35.6-19.1c0.4,0.1,0.9,0.2,1.4,0.3
				C504.1,211.6,506.7,212.8,509.5,214.5z"/>
			<path class="st2" d="M509.5,208c-3.3,0-5.8,1.2-7.8,2.9c-3.7,3.3-5.8,9-7.7,14.5c-2.9,8.3-6,16.8-14.9,16.8c-0.5,0-1,0-1.5-0.1
				c-5.8-0.6-10.1-5.3-13.8-11.7c-2.3-4-4.5-8.7-6.6-13.5c-6.1-13.5-12.5-27.4-24.2-27.8c-0.1,0-0.3,0-0.4,0c-3.5,0-6.4,1.4-8.9,3.6
				c-5,4.5-8.1,12.7-11.2,20.6c-4.6,11.8-9.3,24-19.9,24.2c-7.6,0.2-11.1-2.7-14.2-8.2c-1.2-2.1-2.4-4.6-3.7-7.5
				c-2.4-5.3-5.4-11.8-10.4-19.4c-3.3-5.1-7.6-8.4-12.1-10.3c-12.3-5.3-26.7-1.4-31.2,0V191c4.8-1.5,18.3-5,30.3-0.5
				c5.2,2,10.2,5.5,14,11.3c5,7.7,8,14.3,10.5,19.6c1.4,3,2.5,5.5,3.8,7.6c2.9,5.1,6.2,7.6,13.1,7.4c9.9-0.2,14.2-11.5,18.9-23.5
				c3.1-8.1,6.3-16.4,11.5-21.1c2.7-2.5,6-4,10.1-3.8c12.5,0.3,19,14.6,25.3,28.4c2.1,4.7,4.2,9.3,6.5,13.2
				c3.6,6.3,7.6,10.8,13,11.3c9.2,0.9,12.1-7.3,15.1-16c1.9-5.4,3.9-10.9,7.4-14.5c2.3-2.3,5.2-3.7,9.2-3.8L509.5,208z"/>
		</g>
	</g>
	<g>
		<g>
			<path class="st10" d="M191.3,253.8H56.9c-1.8,0-3.3-1.5-3.3-3.3v-83.7c0-1.8,1.5-3.3,3.3-3.3h134.4c1.8,0,3.3,1.5,3.3,3.3v83.7
				C194.5,252.3,193.1,253.8,191.3,253.8z"/>
			<g>
				<path class="st11" d="M194.5,170.6c0-4-3.2-7.3-7.3-7.3H63.4c-4,0-7.3,3.2-7.3,7.3v8.3h138.4V170.6z"/>
				<linearGradient id="SVGID_2_" gradientUnits="userSpaceOnUse" x1="125.0443" y1="173.3549" x2="125.7302" y2="254.3086">
					<stop  offset="0" style="stop-color:#B0D8FF"/>
					<stop  offset="1.537955e-02" style="stop-color:#B3D9FF"/>
					<stop  offset="0.145" style="stop-color:#C4E1FF"/>
					<stop  offset="0.3014" style="stop-color:#D1E7FF"/>
					<stop  offset="0.5117" style="stop-color:#D8EAFF"/>
					<stop  offset="1" style="stop-color:#DAEBFF"/>
				</linearGradient>
				<path class="st12" d="M56.2,178.9v65c0,4,3.2,7.3,7.3,7.3h123.8c4,0,7.3-3.2,7.3-7.3v-65H56.2z"/>
			</g>
			<g>
				<circle class="st9" cx="161.2" cy="171.4" r="2.8"/>
				<g>
					<circle class="st9" cx="172.6" cy="171.4" r="2.8"/>
				</g>
				<g>
					
						<ellipse transform="matrix(0.2298 -0.9732 0.9732 0.2298 -25.1428 311.0461)" class="st9" cx="183.9" cy="171.4" rx="2.8" ry="2.8"/>
				</g>
			</g>
		</g>
		<path class="st9" d="M182.4,245.7h-51.3c-2.7,0-4.8-2.1-4.8-4.8v-46.7c0-2.7,2.1-4.8,4.8-4.8h51.3c2.7,0,4.8,2.1,4.8,4.8v46.7
			C187.2,243.6,185,245.7,182.4,245.7z"/>
		<g>
			<g>
				<path class="st13" d="M115.4,212.1c-2.5-11.1-12.4-19.3-24.2-19.3v24.8L115.4,212.1z"/>
				<path class="st9" d="M91.2,217.6v-24.8c-13.7,0-24.8,11.1-24.8,24.8c0,13.7,11.1,24.8,24.8,24.8c13.7,0,24.8-11.1,24.8-24.8
					c0-1.9-0.2-3.7-0.6-5.5L91.2,217.6z"/>
			</g>
			<circle class="st0" cx="91.2" cy="218" r="19"/>
		</g>
	</g>
	<g>
		<g>
			<g>
				<rect x="574.9" y="304.2" class="st14" width="116.3" height="155"/>
				<rect x="581" y="310.5" class="st15" width="104" height="36.1"/>
				<rect x="581" y="353" class="st15" width="104" height="36.1"/>
				<rect x="581" y="396.7" class="st15" width="104" height="36.1"/>
				<path class="st16" d="M636.7,318.3c0,2.1-1.6,3.8-3.6,3.8c-2,0-3.6-1.7-3.6-3.8s1.6-3.8,3.6-3.8
					C635.1,314.5,636.7,316.2,636.7,318.3z"/>
				<path class="st16" d="M636.7,360.6c0,2.1-1.6,3.8-3.6,3.8c-2,0-3.6-1.7-3.6-3.8c0-2.1,1.6-3.8,3.6-3.8
					C635.1,356.8,636.7,358.5,636.7,360.6z"/>
				<path class="st16" d="M636.7,404c0,2.1-1.6,3.8-3.6,3.8c-2,0-3.6-1.7-3.6-3.8c0-2.1,1.6-3.8,3.6-3.8
					C635.1,400.2,636.7,401.9,636.7,404z"/>
			</g>
			<rect x="549.4" y="304.2" class="st15" width="27.9" height="155"/>
		</g>
	</g>
	<rect x="23.9" y="286.1" class="st0" width="42.2" height="18.7"/>
	<rect x="41" y="304.8" class="st14" width="42.2" height="18.7"/>
	<rect x="636.7" y="235.1" class="st0" width="42.2" height="18.7"/>
	<rect x="653.8" y="253.8" class="st14" width="42.2" height="18.7"/>
	<g>
		<path class="st10" d="M621.6,291.9H436.9c-2.5,0-4.5-2-4.5-4.5V172.5c0-2.5,2-4.5,4.5-4.5h184.6c2.5,0,4.5,2,4.5,4.5v114.9
			C626,289.9,624,291.9,621.6,291.9z"/>
		<g>
			<path class="st11" d="M626,177.6c0-5.5-4.5-10-10-10H446c-5.5,0-10,4.5-10,10V189h190V177.6z"/>
			<linearGradient id="SVGID_3_" gradientUnits="userSpaceOnUse" x1="531.9879" y1="181.8862" x2="529.9296" y2="290.2821">
				<stop  offset="0" style="stop-color:#B0D8FF"/>
				<stop  offset="1.537955e-02" style="stop-color:#B3D9FF"/>
				<stop  offset="0.145" style="stop-color:#C4E1FF"/>
				<stop  offset="0.3014" style="stop-color:#D1E7FF"/>
				<stop  offset="0.5117" style="stop-color:#D8EAFF"/>
				<stop  offset="1" style="stop-color:#DAEBFF"/>
			</linearGradient>
			<path class="st17" d="M436,189v89.3c0,5.5,4.5,10,10,10h170.1c5.5,0,10-4.5,10-10V189H436z"/>
		</g>
		<g>
			<g>
				<path class="st7" d="M511.5,199h-34.6c-0.7,0-1.3-0.6-1.3-1.4v0c0-0.8,0.6-1.4,1.3-1.4h34.6c0.7,0,1.3,0.6,1.3,1.4v0
					C512.7,198.4,512.2,199,511.5,199z"/>
			</g>
			<g>
				<g>
					<path class="st3" d="M505.8,211.3h-34.6c-0.7,0-1.3-0.6-1.3-1.4l0,0c0-0.8,0.6-1.4,1.3-1.4h34.6c0.7,0,1.3,0.6,1.3,1.4l0,0
						C507,210.7,506.5,211.3,505.8,211.3z"/>
				</g>
			</g>
			<g>
				<path class="st7" d="M579.1,211.3h-59.4c-0.7,0-1.3-0.6-1.3-1.4l0,0c0-0.8,0.6-1.4,1.3-1.4h59.4c0.7,0,1.3,0.6,1.3,1.4l0,0
					C580.4,210.7,579.8,211.3,579.1,211.3z"/>
			</g>
			<g>
				<path class="st7" d="M541.4,199h-17.5c-0.7,0-1.3-0.6-1.3-1.4v0c0-0.8,0.6-1.4,1.3-1.4h17.5c0.7,0,1.3,0.6,1.3,1.4v0
					C542.7,198.4,542.1,199,541.4,199z"/>
			</g>
			<g>
				<path class="st7" d="M572.1,199h-17.5c-0.7,0-1.3-0.6-1.3-1.4v0c0-0.8,0.6-1.4,1.3-1.4h17.5c0.7,0,1.3,0.6,1.3,1.4v0
					C573.4,198.4,572.8,199,572.1,199z"/>
			</g>
			<g>
				<path class="st7" d="M494.3,223.7h-22.7c-0.7,0-1.3-0.6-1.3-1.4l0,0c0-0.8,0.6-1.4,1.3-1.4h22.7c0.7,0,1.3,0.6,1.3,1.4l0,0
					C495.6,223,495,223.7,494.3,223.7z"/>
			</g>
			<g>
				<g>
					<path class="st3" d="M541.5,223.7h-34.6c-0.7,0-1.3-0.6-1.3-1.4l0,0c0-0.8,0.6-1.4,1.3-1.4h34.6c0.7,0,1.3,0.6,1.3,1.4l0,0
						C542.7,223,542.2,223.7,541.5,223.7z"/>
				</g>
			</g>
			<g>
				<path class="st7" d="M566.7,223.7h-12.9c-0.7,0-1.3-0.6-1.3-1.4l0,0c0-0.8,0.6-1.4,1.3-1.4h12.9c0.7,0,1.3,0.6,1.3,1.4l0,0
					C568,223,567.4,223.7,566.7,223.7z"/>
			</g>
			<g>
				<path class="st7" d="M515.7,236h-20.3c-0.7,0-1.3-0.6-1.3-1.4l0,0c0-0.8,0.6-1.4,1.3-1.4h20.3c0.7,0,1.3,0.6,1.3,1.4l0,0
					C517,235.4,516.4,236,515.7,236z"/>
			</g>
			<g>
				<path class="st7" d="M564.2,236h-34.6c-0.7,0-1.3-0.6-1.3-1.4l0,0c0-0.8,0.6-1.4,1.3-1.4h34.6c0.7,0,1.3,0.6,1.3,1.4l0,0
					C565.5,235.4,564.9,236,564.2,236z"/>
			</g>
			<g>
				<path class="st7" d="M553.1,248.3h-64.8c-0.7,0-1.3-0.6-1.3-1.4l0,0c0-0.8,0.6-1.4,1.3-1.4h64.8c0.7,0,1.3,0.6,1.3,1.4l0,0
					C554.4,247.7,553.8,248.3,553.1,248.3z"/>
			</g>
			<g>
				<path class="st7" d="M601.6,248.3h-39.2c-0.7,0-1.3-0.6-1.3-1.4l0,0c0-0.8,0.6-1.4,1.3-1.4h39.2c0.7,0,1.3,0.6,1.3,1.4l0,0
					C602.9,247.7,602.3,248.3,601.6,248.3z"/>
			</g>
			<g>
				<path class="st7" d="M505.8,260.7h-34.6c-0.7,0-1.3-0.6-1.3-1.4l0,0c0-0.8,0.6-1.4,1.3-1.4h34.6c0.7,0,1.3,0.6,1.3,1.4l0,0
					C507,260.1,506.5,260.7,505.8,260.7z"/>
			</g>
			<g>
				<g>
					<path class="st3" d="M547.6,260.7H513c-0.7,0-1.3-0.6-1.3-1.4l0,0c0-0.8,0.6-1.4,1.3-1.4h34.6c0.7,0,1.3,0.6,1.3,1.4l0,0
						C548.9,260.1,548.3,260.7,547.6,260.7z"/>
				</g>
			</g>
			<g>
				<path class="st7" d="M551,273h-52.6c-0.7,0-1.3-0.6-1.3-1.4l0,0c0-0.8,0.6-1.4,1.3-1.4H551c0.7,0,1.3,0.6,1.3,1.4l0,0
					C552.2,272.4,551.7,273,551,273z"/>
			</g>
			<g>
				<g>
					<rect x="453" y="196.2" class="st7" width="2.5" height="2.8"/>
				</g>
				<g>
					<rect x="453" y="208.6" class="st7" width="2.5" height="2.8"/>
				</g>
				<g>
					<rect x="453" y="220.9" class="st7" width="2.5" height="2.8"/>
				</g>
				<g>
					<rect x="453" y="233.2" class="st7" width="2.5" height="2.8"/>
				</g>
				<g>
					<rect x="453" y="245.6" class="st7" width="2.5" height="2.8"/>
				</g>
				<g>
					<rect x="453" y="257.9" class="st7" width="2.5" height="2.8"/>
				</g>
				<g>
					<rect x="453" y="270.3" class="st7" width="2.5" height="2.8"/>
				</g>
			</g>
			<g>
				<g>
					<path class="st7" d="M588.2,278.6l-9.3-4.3c-0.3-0.1-0.5-0.4-0.5-0.8v-0.9c0-0.3,0.2-0.6,0.5-0.8l9.3-4.3
						c0.5-0.2,1.1,0.2,1.1,0.8v0.3c0,0.3-0.2,0.6-0.5,0.8l-6.4,2.8c-0.6,0.3-0.6,1.3,0,1.6l6.4,2.8c0.3,0.1,0.5,0.4,0.5,0.8v0.3
						C589.3,278.5,588.7,278.9,588.2,278.6z"/>
				</g>
				<g>
					<path class="st7" d="M596.7,265.2l-4.3,16c-0.1,0.4-0.4,0.6-0.7,0.6l0,0c-0.5,0-0.9-0.5-0.7-1.1l4.3-16
						c0.1-0.4,0.4-0.6,0.7-0.6l0,0C596.4,264.2,596.8,264.7,596.7,265.2z"/>
				</g>
				<g>
					<path class="st7" d="M608.6,274.4l-9.3,4.3c-0.5,0.2-1.1-0.2-1.1-0.8v-0.3c0-0.3,0.2-0.6,0.5-0.8l6.4-2.8
						c0.6-0.3,0.6-1.3,0-1.6l-6.4-2.8c-0.3-0.1-0.5-0.4-0.5-0.8v-0.3c0-0.6,0.6-1,1.1-0.8l9.3,4.3c0.3,0.1,0.5,0.4,0.5,0.8v0.9
						C609,273.9,608.9,274.2,608.6,274.4z"/>
				</g>
			</g>
		</g>
		<g>
			<circle class="st9" cx="580.2" cy="178.7" r="3.9"/>
			<g>
				<circle class="st9" cx="595.8" cy="178.7" r="3.9"/>
			</g>
			<g>
				<circle class="st9" cx="611.5" cy="178.7" r="3.9"/>
			</g>
		</g>
	</g>
	<g>
		<path class="st10" d="M476.6,427.6H330.3c-2,0-3.5-1.6-3.5-3.5V333c0-2,1.6-3.5,3.5-3.5h146.3c2,0,3.5,1.6,3.5,3.5V424
			C480.1,426,478.5,427.6,476.6,427.6z"/>
		<g>
			<path class="st11" d="M480.1,337c0-4.4-3.5-7.9-7.9-7.9H337.4c-4.4,0-7.9,3.5-7.9,7.9v9h150.6V337z"/>
			<linearGradient id="SVGID_4_" gradientUnits="userSpaceOnUse" x1="405.122" y1="344.5875" x2="404.436" y2="425.5412">
				<stop  offset="0" style="stop-color:#B0D8FF"/>
				<stop  offset="1.537955e-02" style="stop-color:#B3D9FF"/>
				<stop  offset="0.145" style="stop-color:#C4E1FF"/>
				<stop  offset="0.3014" style="stop-color:#D1E7FF"/>
				<stop  offset="0.5117" style="stop-color:#D8EAFF"/>
				<stop  offset="1" style="stop-color:#DAEBFF"/>
			</linearGradient>
			<path class="st18" d="M329.5,346v70.8c0,4.4,3.5,7.9,7.9,7.9h134.8c4.4,0,7.9-3.5,7.9-7.9V346H329.5z"/>
		</g>
		<g>
			
				<ellipse transform="matrix(0.2298 -0.9732 0.9732 0.2298 12.9758 692.1846)" class="st9" cx="443.8" cy="337.9" rx="3.1" ry="3.1"/>
			<g>
				
					<ellipse transform="matrix(0.2298 -0.9732 0.9732 0.2298 22.5131 704.2354)" class="st9" cx="456.2" cy="337.9" rx="3.1" ry="3.1"/>
			</g>
			<g>
				
					<ellipse transform="matrix(0.2298 -0.9732 0.9732 0.2298 32.0502 716.2861)" class="st9" cx="468.6" cy="337.9" rx="3.1" ry="3.1"/>
			</g>
		</g>
	</g>
	<g>
		<rect x="342.7" y="359.3" class="st3" width="12.4" height="46.5"/>
		<rect x="364.5" y="365.3" class="st3" width="12.4" height="40.5"/>
		<rect x="386.2" y="377.4" class="st3" width="12.4" height="28.4"/>
		<rect x="407.9" y="368.3" class="st3" width="12.4" height="37.4"/>
		<rect x="429.7" y="377.4" class="st3" width="12.4" height="28.4"/>
		<rect x="451.4" y="368.3" class="st3" width="12.4" height="37.4"/>
		<rect x="338.2" y="409.7" class="st3" width="130.5" height="1.8"/>
	</g>
	<g>
		<g>
			<path class="st19" d="M88.4,378.1c0,0,3.4-48.9,29.6-74.9c26.2-26.1,77-29,96.6-17.6s31.6,27.4,37,65.1
				c5.4,37.6,3.8,89.4-6.4,111.3c-10.1,22-31.3,45.6-60.1,52.3c-28.8,6.7-60.1,11.5-92.4,3.5c-32.3-8-45.7-16.7-53.2-49
				s18.1-53.2,27.8-59.6S88.4,378.1,88.4,378.1z"/>
		</g>
		<path class="st20" d="M222.6,290.8c4.2,8.5,9,21.7,11.2,40c4.2,35.3,12.9,78.9,0.9,103.2c-12,24.3-22.5,48-48.7,57
			c-26.2,9-52.4,12.1-52.4,12.1s-53.6,0.4-85.3-11.2c8.6,14.3,21.9,20.2,44.6,25.9c32.3,8,63.6,3.2,92.4-3.5
			c28.8-6.7,50-30.3,60.1-52.3c10.1-22,11.7-73.7,6.4-111.3C247,318.4,237.6,302,222.6,290.8z"/>
		<path class="st21" d="M165.7,315.7l-1.5-16.7l-4.4-17c-15.5,3.4-30.8,10.3-41.8,21.3c-26.2,26.1-29.6,74.9-29.6,74.9
			s-11.3,24.5-21.1,31c-9.3,6.1-32.9,25.3-28.7,55c13.2,2.7,32,3.9,44-6.6c20-17.6,64.9-95.6,64.9-95.6L165.7,315.7z"/>
		<path class="st22" d="M201.6,311.9c11.5-10.8,9.1-24.1,7.8-28.8c-8-3-19-4.4-30.9-3.7l-4.4,8l-0.9,11.2c0,0-7.5,36.3-7.5,39.9
			c0,3.6-6.8,20.1-8,22.5c-1.2,2.4-22.8,38.2-22.8,38.2s-32.3,37.6-32,39c0.3,1.4-0.2,78.6-0.2,78.6l4.9,3.7
			c6.8,0.9,13.6,1.4,20.3,1.4c-0.7-4.2-1.9-9.6-3.8-16.5c-7.1-26.5,1.3-58.2,1.3-58.2s3.8,41.4,13.7,50.9c9.8,9.5,20.2,5.6,16.7-4.5
			c-3.5-10.1,3.4-21.7,3.4-21.7s62.9-26.5,67-44.2c4.1-17.7-17.8-19.8-17.8-19.8s16.2-7.4,21.3-17.5c5-10.1-6.3-46-13.3-56.3
			C209.2,323.7,198.7,315.9,201.6,311.9z"/>
		<g>
			<defs>
				<path id="SVGID_5_" d="M113.7,515.7c0,0,1,5.9,2.4,10.4c1.4,4.5,5.6,7.2,5.3,12c-0.3,4.7-13.2,8.8-22.1,12.8
					c-8.9,3.9-17.7,4.4-18.6-2.9c-0.9-7.3,14.9-9.2,18.2-19.6c3.2-10.4,1-11.3,1-11.3L113.7,515.7z"/>
			</defs>
			<use xlink:href="#SVGID_5_"  style="overflow:visible;fill:#FFAB00;"/>
			<clipPath id="SVGID_6_">
				<use xlink:href="#SVGID_5_"  style="overflow:visible;"/>
			</clipPath>
			<path class="st23" d="M93,530.1c0,0,10.3-2.6,14.2,0.4c3.8,3,5.8,12.9,4.4,16.4l8.9-1.3l6.4-7.5l-4.5-15.4l-10.1-9.6l-20.5,4.5
				L93,530.1z"/>
		</g>
		<g>
			<defs>
				<path id="SVGID_7_" d="M149.3,448.6c0,0-5.1,3.1-9.4,5.1c-4.3,2-9.1,0.6-12.5,4c-3.4,3.4,2.2,15.8,5.2,25
					c3,9.3,8.5,16.2,14.6,12c6.1-4.2-3.1-17.2,2.5-26.6c5.6-9.4,7.7-8.3,7.7-8.3L149.3,448.6z"/>
			</defs>
			<use xlink:href="#SVGID_7_"  style="overflow:visible;fill:#FFAB00;"/>
			<clipPath id="SVGID_8_">
				<use xlink:href="#SVGID_7_"  style="overflow:visible;"/>
			</clipPath>
			<path class="st24" d="M136.4,453.7c0,0,5,3.2,5.2,12.7c0.3,9.5,7,29.4,7,29.4s2.8-5.8,3-6.2c0.3-0.4-2.1-14.6-2.1-14.6
				s4.7-6.9,4.9-7.1s3.5-7.5,3.5-7.5l-13.4-14.2L136.4,453.7z"/>
		</g>
		<g>
			<defs>
				<path id="SVGID_9_" d="M191.5,404.3c0,0,22.7,8,26.6,15.6c3.9,7.6,1.6,19.6-21.6,29.7c-23.3,10.1-44.2,19.7-44.2,19.7
					s-10.9-7.3-10.7-19.9l30.1-17.5c0,0-7.5-4.4-16.5-3.3c-9,1-43.4,5.8-43.4,5.8s4,35.6,6.9,85c0,0-10.8,8.3-22.8,2.6
					c0,0-16.4-81.6-15.4-95c1-13.5,9.8-18.7,22.3-21.2s38.2-10.4,38.2-10.4L191.5,404.3z"/>
			</defs>
			<use xlink:href="#SVGID_9_"  style="overflow:visible;fill:#1E2889;"/>
			<clipPath id="SVGID_10_">
				<use xlink:href="#SVGID_9_"  style="overflow:visible;"/>
			</clipPath>
			<path class="st25" d="M80.1,414.2c0,0,12.5-2.8,19.6,6.4c7,9.1,18.3,32.2,18.3,32.2l31.9-7.5c0,0,14-7.3,27.1-12
				c13.1-4.7,27.8-13.8,36.7-4.8c8.9,9-2.4,21.7-2.4,21.7l17.2-20.9l-4.1-28.9l-67.7-14.6L97,391.1L80.1,414.2z"/>
		</g>
		<g>
			<defs>
				<path id="XMLID_241_" d="M217.3,358.9c-3.4-10.2-10-28.7-19.3-32.3c-9.3-3.6-22.7-3.9-22.7-3.9l-3.9,0.5l-11.7-0.4
					c-20.7-0.2-23.9,5.1-27.9,12.3c-3.6,6.5-7.3,16.6-7.3,16.6l-13.9,41.9c30.3,23.2,83.4,12.8,83.4,12.8s19.6-8.8,25.7-13.8
					C225.8,387.7,220.7,369,217.3,358.9z M141.4,364.4l-0.9,16.4l-9.3-2.6c0,0,5.8-16.9,11-27.4L141.4,364.4z M203.2,379
					c-1.4,3.7-11.5,10.1-11.5,10.1l2.8-33.4C194.5,355.8,204.5,375.3,203.2,379z"/>
			</defs>
			<use xlink:href="#XMLID_241_"  style="overflow:visible;fill:#FFAB00;"/>
			<clipPath id="XMLID_7_">
				<use xlink:href="#XMLID_241_"  style="overflow:visible;"/>
			</clipPath>
			<path class="st26" d="M195,359.4l-0.5-3.7c0,0-0.7-8.6,0.7-16.3c0,0-6.4,13.8-9.4,31.4c-3,17.6-34.9,21.5-34.9,21.5l-0.5,12.6
				l24.3-2l4.1-3.6l12.8-10.1l5-20.2L195,359.4z"/>
			<path class="st26" d="M216.8,352.7c0,0.5,3.9,19.8,3,27.3c-0.9,7.5-3,9.9-13.5,15.7c-10.5,5.8-25.3,11.4-25.3,11.4l0.6,3.6
				l12.5-0.1l10.3-5.1l16.8-6.3c0,0,4.7-6.7,4.9-10.4s2.3-3.6,0-11.3C223.7,369.9,216.8,352.7,216.8,352.7z"/>
			<path class="st26" d="M139.8,357l2.1-5.6c0,0-1.3-3.6,0.9-15.6l-10.8,28l-3.3,16.2l6.2-7.7L139.8,357z"/>
		</g>
		<path class="st27" d="M152.5,401c0,0,3.6-4.5,7.6-6c4-1.4,18.8,4.3,18.8,4.3l3.4,8.8c0,0-5.2,3.3-11.4,1.8c-6.2-1.5-16-1.4-16-1.4
			L152.5,401z"/>
		<g>
			
				<rect x="97.1" y="405.9" transform="matrix(0.9984 5.699676e-02 -5.699676e-02 0.9984 23.5337 -7.2323)" class="st28" width="82.8" height="6"/>
			<polygon class="st6" points="157.8,413.1 85.8,409 78.2,357.9 150.2,362 			"/>
			<polygon class="st7" points="152.4,412.8 80.4,408.6 72.8,357.6 144.8,361.7 			"/>
		</g>
		<ellipse transform="matrix(0.989 -0.1478 0.1478 0.989 -54.9333 20.4925)" class="st9" cx="110.4" cy="379.8" rx="6.4" ry="8.2"/>
		<g>
			<path class="st27" d="M161.4,316.4c-0.2,1.8-0.7,4-1.7,6.5c0,0,1.9,4.5,7,4c5.1-0.5,8.6-4.1,8.6-4.1s-1-2-1.6-5.5
				C169.2,315,164.5,315.5,161.4,316.4z"/>
			<path class="st29" d="M173.7,317.3c-0.4-2.6-0.5-6.1,0.3-10.2l-3.2-2.1l-10.6,4.3c0,0,1.5,2.6,1.1,7.2
				C164.5,315.5,169.2,315,173.7,317.3z"/>
		</g>
		<g>
			<defs>
				<path id="SVGID_11_" d="M153.1,283.7c0,0-5.7,0.8-8-8.1c-1.8-6.9,2.2-9.5,5.1-11.2c2.9-1.7,3.1-3.2,6.8-5.3
					c4.9-2.7,6.8,0.4,9.5-1.4c2.7-1.8,7.8-1.9,10.4,1.7c2.6,3.5,4.4,1.9,8.3,3.8c3.9,1.9,2.3,6.9,4.1,8.4c1.8,1.5,4.8,2.2,4.4,6.5
					c-0.4,4.3-3.4,5.3-1.5,8.4c1.8,3.1,0.9,10.1-3.8,11c-4.7,0.9-7.1,4.1-7.7,7.2c-0.6,3.1-5.7,4.4-8.5,3.2
					C169.3,306.7,153.1,283.7,153.1,283.7z"/>
			</defs>
			<use xlink:href="#SVGID_11_"  style="overflow:visible;fill:#191E56;"/>
			<clipPath id="SVGID_12_">
				<use xlink:href="#SVGID_11_"  style="overflow:visible;"/>
			</clipPath>
			<path class="st30" d="M143.1,269.4c0,0,1.3,2.4,18,2.1c16.7-0.3,16.8,14.1,22.3,17c5.5,2.9,11,6.5,11,6.5l-10.6,13.5l-9.3,7.1
				l-30.8-15.3L143.1,269.4z"/>
		</g>
		<g>
			<defs>
				<path id="SVGID_13_" d="M152.6,279c0,0-4.1,16.6-1,26.4c3.1,9.7,12.2,6.4,19.5,1.1l1.5-5.6c0,0,3.8,0.8,6.2-3.8
					c2.3-4.6-2.7-5.5-2.7-5.5s-1.9-1.4-2.1-4.1c0,0-3.1,1.4-6.6-3.5c0,0-1.8-3.1-4.6-2c-2.8,1.1-5.8,0.2-7.2-2.2
					C154.2,277.3,152.6,279,152.6,279z"/>
			</defs>
			<use xlink:href="#SVGID_13_"  style="overflow:visible;fill:#FFACA6;"/>
			<clipPath id="SVGID_14_">
				<use xlink:href="#SVGID_13_"  style="overflow:visible;"/>
			</clipPath>
			<path class="st31" d="M148.4,282.8c0,0,0.9,2.5,6.2,3.1s6.5,1.5,10.6,3.9c4,2.4,6.2,5.2,11,5c4.8-0.2,4.4-2.2,4.4-2.2l-3.9-5.4
				l-11.7-6.2l-9.4-2.5l-3.6-0.7L148.4,282.8z"/>
		</g>
	</g>
</g>
</svg>
