<svg viewBox="0 0 300.33 273.46" xmlns:xlink="http://www.w3.org/1999/xlink" xmlns="http://www.w3.org/2000/svg"><defs><style>.cls-1{opacity:0.46;}.cls-2{fill:url(#未命名的渐变_37);}.cls-3{fill:url(#未命名的渐变_37-2);}.cls-4{fill:url(#未命名的渐变_37-3);}.cls-5{fill:url(#未命名的渐变_37-4);}.cls-6{fill:url(#未命名的渐变_69);}.cls-28,.cls-7{fill:none;stroke-miterlimit:10;stroke-width:1.08px;}.cls-7{stroke:#fff;}.cls-8{fill:#fff;}.cls-9{fill:url(#未命名的渐变_37-5);}.cls-10{fill:#2a2f6d;}.cls-11{fill:url(#未命名的渐变_37-6);}.cls-12{fill:url(#未命名的渐变_25);}.cls-13{fill:url(#未命名的渐变_37-7);}.cls-14{fill:url(#未命名的渐变_37-8);}.cls-15{fill:url(#未命名的渐变_37-9);}.cls-16{fill:url(#未命名的渐变_37-10);}.cls-17{opacity:0.5;}.cls-18{fill:url(#未命名的渐变_18);}.cls-19{fill:#fffeff;}.cls-20{opacity:0.58;}.cls-21{fill:url(#未命名的渐变_68);}.cls-22{fill:url(#未命名的渐变_67);}.cls-23{opacity:0.21;fill:url(#未命名的渐变_10);}.cls-23,.cls-52{isolation:isolate;}.cls-24{fill:#cde9f9;}.cls-25{fill:#bd8aae;}.cls-26{fill:url(#未命名的渐变_10-2);}.cls-27{fill:url(#未命名的渐变_28);}.cls-28{stroke:#1ba0db;}.cls-29{fill:url(#未命名的渐变_37-11);}.cls-30{fill:#e7f6fd;}.cls-31{fill:url(#未命名的渐变_28-2);}.cls-32{fill:url(#未命名的渐变_28-3);}.cls-33{fill:url(#未命名的渐变_37-12);}.cls-34{fill:url(#未命名的渐变_66);}.cls-35{fill:url(#未命名的渐变_65);}.cls-36{fill:url(#未命名的渐变_65-2);}.cls-37{fill:url(#未命名的渐变_10-3);}.cls-38{fill:url(#未命名的渐变_37-13);}.cls-39{fill:#fdfefe;}.cls-40{fill:url(#未命名的渐变_37-14);}.cls-41{fill:url(#未命名的渐变_37-15);}.cls-42{fill:url(#未命名的渐变_37-16);}.cls-43{fill:#17a1db;}.cls-44{fill:url(#未命名的渐变_37-17);}.cls-45{fill:url(#未命名的渐变_10-4);}.cls-46{fill:#fde0d9;}.cls-47{fill:url(#未命名的渐变_42);}.cls-48{fill:#222457;}.cls-49{fill:url(#未命名的渐变_97);}.cls-50{fill:url(#未命名的渐变_42-2);}.cls-51{fill:url(#未命名的渐变_42-3);}.cls-52{opacity:0.3;fill:url(#未命名的渐变_42-4);}.cls-53{fill:#ecbfb9;}</style><linearGradient gradientUnits="userSpaceOnUse" gradientTransform="matrix(1, 0, 0, -1, 0, 292.71)" y2="192.9" x2="69.08" y1="192.9" id="未命名的渐变_37"><stop stop-color="#28a8e0" offset="0.06"></stop><stop stop-opacity="0" stop-color="#29abe2" offset="1"></stop></linearGradient><linearGradient xlink:href="#未命名的渐变_37" y2="222.52" x2="145.74" y1="222.52" x1="76.66" id="未命名的渐变_37-2"></linearGradient><linearGradient xlink:href="#未命名的渐变_37" y2="261.25" x2="151.54" y1="261.25" x1="82.46" id="未命名的渐变_37-3"></linearGradient><linearGradient xlink:href="#未命名的渐变_37" gradientTransform="translate(-904.83 292.71) rotate(180)" y2="140.86" x2="-906.93" y1="140.86" x1="-972.01" id="未命名的渐变_37-4"></linearGradient><linearGradient gradientUnits="userSpaceOnUse" gradientTransform="matrix(1, 0, 0, -1, 0, 292.71)" y2="101.75" x2="300.33" y1="101.75" x1="18.39" id="未命名的渐变_69"><stop stop-color="#fff" offset="0.11"></stop><stop stop-color="#cde9f9" offset="0.65"></stop><stop stop-color="#cde9f9" offset="1"></stop></linearGradient><linearGradient xlink:href="#未命名的渐变_37" y2="115.84" x2="251.17" y1="115.84" x1="121.68" id="未命名的渐变_37-5"></linearGradient><linearGradient xlink:href="#未命名的渐变_37" y2="138.71" x2="251.17" y1="138.71" x1="121.68" id="未命名的渐变_37-6"></linearGradient><linearGradient gradientUnits="userSpaceOnUse" gradientTransform="matrix(1, 0, 0, -1, 0, 292.71)" y2="141.32" x2="219.19" y1="141.32" x1="152.14" id="未命名的渐变_25"><stop stop-color="#bd8aae" offset="0"></stop><stop stop-opacity="0" stop-color="#2484c6" offset="1"></stop></linearGradient><linearGradient xlink:href="#未命名的渐变_37" y2="141.32" x2="209.86" y1="141.32" x1="161.49" id="未命名的渐变_37-7"></linearGradient><linearGradient xlink:href="#未命名的渐变_37" y2="126.04" x2="186.8" y1="126.04" x1="184.62" id="未命名的渐变_37-8"></linearGradient><linearGradient xlink:href="#未命名的渐变_37" y2="151.22" x2="132.87" y1="151.22" x1="130.68" id="未命名的渐变_37-9"></linearGradient><linearGradient xlink:href="#未命名的渐变_37" y2="153.71" x2="241.26" y1="153.71" x1="239.08" id="未命名的渐变_37-10"></linearGradient><linearGradient gradientUnits="userSpaceOnUse" gradientTransform="matrix(1, 0, 0, -1, 0, 292.71)" y2="186.84" x2="244.93" y1="186.84" x1="128.21" id="未命名的渐变_18"><stop stop-color="#fff" offset="0.42"></stop><stop stop-opacity="0" stop-color="#2484c6" offset="1"></stop></linearGradient><linearGradient gradientUnits="userSpaceOnUse" gradientTransform="matrix(1, 0, 0, -1, 0, 292.71)" y2="186.84" x2="244.93" y1="186.84" x1="128.22" id="未命名的渐变_68"><stop stop-opacity="0" stop-color="#29abe2" offset="0"></stop><stop stop-color="#28a8e0" offset="1"></stop></linearGradient><linearGradient gradientUnits="userSpaceOnUse" gradientTransform="matrix(1, 0, 0, -1, 0, 292.71)" y2="202.41" x2="216.34" y1="112.75" x1="216.34" id="未命名的渐变_67"><stop stop-opacity="0" stop-color="#29abe2" offset="0"></stop><stop stop-color="#3c7fbe" offset="1"></stop></linearGradient><linearGradient gradientUnits="userSpaceOnUse" gradientTransform="matrix(1, 0, 0, -1, 0, 292.71)" y2="259.91" x2="227.03" y1="129.16" x1="227.03" id="未命名的渐变_10"><stop stop-color="#21409a" offset="0"></stop><stop stop-color="#bd8aae" offset="1"></stop></linearGradient><linearGradient xlink:href="#未命名的渐变_10" y2="269.95" x2="242.13" y1="269.95" x1="130.59" id="未命名的渐变_10-2"></linearGradient><linearGradient gradientUnits="userSpaceOnUse" gradientTransform="matrix(1, 0, 0, -1, 0, 292.71)" y2="271.68" x2="222.18" y1="271.68" x1="150.59" id="未命名的渐变_28"><stop stop-color="#21409a" offset="0"></stop><stop stop-opacity="0" stop-color="#29abe2" offset="1"></stop></linearGradient><linearGradient xlink:href="#未命名的渐变_37" y2="277.28" x2="200.77" y1="277.28" x1="172.08" id="未命名的渐变_37-11"></linearGradient><linearGradient xlink:href="#未命名的渐变_28" y2="190.85" x2="219.63" y1="190.85" x1="150.26" id="未命名的渐变_28-2"></linearGradient><linearGradient xlink:href="#未命名的渐变_28" y2="176.64" x2="201.91" y1="176.64" x1="167.91" id="未命名的渐变_28-3"></linearGradient><linearGradient xlink:href="#未命名的渐变_37" y2="110.71" x2="138.94" y1="110.71" x1="76.9" id="未命名的渐变_37-12"></linearGradient><linearGradient gradientUnits="userSpaceOnUse" gradientTransform="matrix(1, 0, 0, -1, 0, 292.71)" y2="121.66" x2="154.25" y1="76.34" x1="128.09" id="未命名的渐变_66"><stop stop-color="#64cdf6" offset="0.08"></stop><stop stop-opacity="0" stop-color="#fff" offset="1"></stop></linearGradient><linearGradient gradientUnits="userSpaceOnUse" gradientTransform="matrix(1, 0, 0, -1, 0, 292.71)" y2="69.47" x2="154.13" y1="69.47" x1="101.55" id="未命名的渐变_65"><stop stop-color="#fff" offset="0.11"></stop><stop stop-color="#cde9f9" offset="0.4"></stop><stop stop-color="#17a1db" offset="0.91"></stop></linearGradient><linearGradient xlink:href="#未命名的渐变_65" y2="100.24" x2="148.73" y1="100.24" x1="107.07" id="未命名的渐变_65-2"></linearGradient><linearGradient xlink:href="#未命名的渐变_10" y2="100.24" x2="148.73" y1="100.24" x1="107.07" id="未命名的渐变_10-3"></linearGradient><linearGradient xlink:href="#未命名的渐变_37" y2="112.78" x2="141.84" y1="112.78" x1="117.02" id="未命名的渐变_37-13"></linearGradient><linearGradient xlink:href="#未命名的渐变_37" y2="111.47" x2="137.64" y1="111.47" x1="116.27" id="未命名的渐变_37-14"></linearGradient><linearGradient xlink:href="#未命名的渐变_37" y2="93.45" x2="137.13" y1="93.45" x1="137.1" id="未命名的渐变_37-15"></linearGradient><linearGradient xlink:href="#未命名的渐变_37" y2="106.83" x2="141.84" y1="106.83" x1="137.83" id="未命名的渐变_37-16"></linearGradient><linearGradient xlink:href="#未命名的渐变_37" y2="166.07" x2="118.7" y1="166.07" x1="85.5" id="未命名的渐变_37-17"></linearGradient><linearGradient xlink:href="#未命名的渐变_10" y2="166.07" x2="118.7" y1="166.07" x1="85.5" id="未命名的渐变_10-4"></linearGradient><linearGradient gradientUnits="userSpaceOnUse" gradientTransform="matrix(1, 0, 0, -1, 0, 292.71)" y2="157.08" x2="60.69" y1="157.08" x1="52.75" id="未命名的渐变_42"><stop stop-color="#d2d2d1" offset="0"></stop><stop stop-color="#fff" offset="1"></stop></linearGradient><linearGradient gradientUnits="userSpaceOnUse" gradientTransform="matrix(1, 0, 0, -1, 0, 292.71)" y2="131.22" x2="67.33" y1="73.52" x1="67.33" id="未命名的渐变_97"><stop stop-color="#306097" offset="0"></stop><stop stop-opacity="0" stop-color="#2484c6" offset="1"></stop></linearGradient><linearGradient xlink:href="#未命名的渐变_42" y2="132.92" x2="84.02" y1="150.41" x1="66.53" id="未命名的渐变_42-2"></linearGradient><linearGradient xlink:href="#未命名的渐变_42" y2="157.85" x2="100.69" y1="157.85" x1="75.77" id="未命名的渐变_42-3"></linearGradient><linearGradient xlink:href="#未命名的渐变_42" y2="145.73" x2="65.13" y1="145.73" x1="53.24" id="未命名的渐变_42-4"></linearGradient></defs><g id="图层_2"><g id="图层_1-2"><g id="side_BG"><g class="cls-1"><g class="cls-1"><path d="M67.31,94.61l-62,35.72A3.53,3.53,0,0,1,0,127.27v-19.2a3.51,3.51,0,0,1,1.77-3l62-35.72a3.53,3.53,0,0,1,5.29,3.06v19.2A3.51,3.51,0,0,1,67.31,94.61Z" class="cls-2"></path></g><g class="cls-1"><path d="M144,65,82,100.71a3.53,3.53,0,0,1-5.29-3.06V78.45a3.5,3.5,0,0,1,1.77-3l62-35.72a3.53,3.53,0,0,1,5.29,3v19.2A3.51,3.51,0,0,1,144,65Z" class="cls-3"></path></g><g class="cls-1"><path d="M149.77,26.26,87.74,62a3.53,3.53,0,0,1-5.28-3.06V39.72a3.51,3.51,0,0,1,1.77-3L146.25,1A3.53,3.53,0,0,1,151.54,4V23.2A3.53,3.53,0,0,1,149.77,26.26Z" class="cls-4"></path></g></g><g class="cls-1"><path d="M67.18,116.07v40.37a5.51,5.51,0,0,1-2.76,4.78l-54,31.21a5.53,5.53,0,0,1-8.29-4.79V147a5.51,5.51,0,0,1,2.78-4.79l54-31A5.53,5.53,0,0,1,67.18,116.07Z" class="cls-5"></path></g></g><g id="flooring"><path d="M144,270.84,21.71,200.25a6.65,6.65,0,0,1,0-11.51l135.65-78.31a14.65,14.65,0,0,1,14.63,0l125,71.85a6.64,6.64,0,0,1,0,11.51L163.53,270.84A19.58,19.58,0,0,1,144,270.84Z" class="cls-6"></path></g><g id="connectivity"><polyline points="216.32 178.66 233.12 188.85 162.49 229.63 136.64 214.45" class="cls-7"></polyline><polyline points="143.18 211.68 162.49 222.84 209.57 195.65 198.71 189.38" class="cls-7"></polyline><line y2="206.8" x2="143.18" y1="189.38" x1="173.35" class="cls-7"></line><line y2="191.03" x2="146.94" y1="183.07" x1="160.76" class="cls-7"></line><polyline points="144.73 219.5 121.29 233.03 98.36 219.44 116.96 208.34" class="cls-7"></polyline><polyline points="143.87 144.12 133.06 137.51 103.92 154.7" class="cls-7"></polyline><polyline points="155.24 137.09 138.95 127.34 105.19 147.16" class="cls-7"></polyline><polyline points="174.26 127.68 151.47 113.94 99.94 142.82" class="cls-7"></polyline><polyline points="256.66 209.24 239 199.05 256.66 188.85 229.37 173.12" class="cls-7"></polyline><polyline points="150.26 208.34 156.6 212.64 186.8 195.21" class="cls-7"></polyline><line y2="169.49" x2="235.54" y1="195.65" x1="280.2" class="cls-7"></line><line y2="163.55" x2="248.15" y1="188.85" x1="291.97" class="cls-7"></line></g><g id="cubeflooring"><path d="M121.68,154.3v8a1.92,1.92,0,0,0,.88,1.67L184,198.79a4.77,4.77,0,0,0,4.79,0L250.16,164a2.19,2.19,0,0,0,1-1.91V154.3l-64.74,34.37Z" class="cls-8"></path><path d="M121.68,154.3v7.95a2,2,0,0,0,.91,1.73l61.51,34.85a4.65,4.65,0,0,0,4.65,0l60.95-34.54a3.16,3.16,0,0,0,1.47-2.78V154.3l-64.74,34.8Z" class="cls-9"></path><path d="M121.68,154.3l64.75-35.67,64.74,35.67-62.7,34.54a4.17,4.17,0,0,1-4.08,0Z" class="cls-10"></path><path d="M121.68,154.3l64.75-35.67,64.74,35.67-62.7,34.54a4.17,4.17,0,0,1-4.08,0Z" class="cls-11"></path><ellipse ry="18.49" rx="33.57" cy="151.4" cx="185.71" class="cls-12"></ellipse><ellipse ry="13.34" rx="24.21" cy="151.4" cx="185.71" class="cls-13"></ellipse><ellipse ry="7.49" rx="13.6" cy="151.4" cx="185.71" class="cls-8"></ellipse></g><g id="signalpost"><path d="M184.62,153.21v26.93a1.21,1.21,0,0,0,1.09,1.31h0a1.22,1.22,0,0,0,1.09-1.31V153.21a1.23,1.23,0,0,0-1.07-1.31h0A1.21,1.21,0,0,0,184.62,153.21Z" class="cls-14"></path><path d="M130.68,130.26v22.45a1.09,1.09,0,0,0,1.09,1.09h0a1.09,1.09,0,0,0,1.1-1.09V130.26a1.1,1.1,0,0,0-1.07-1.09h0A1.1,1.1,0,0,0,130.68,130.26Z" class="cls-15"></path><path d="M239.08,125.54v26.93a1.22,1.22,0,0,0,1.09,1.31h0a1.22,1.22,0,0,0,1.09-1.31V125.54a1.23,1.23,0,0,0-1.07-1.31h0A1.21,1.21,0,0,0,239.08,125.54Z" class="cls-16"></path></g><g id="glasscube"><g class="cls-17"><path d="M185.76,184.3a7,7,0,0,1-3.42-.9l-50-27.45a8.81,8.81,0,0,1-4.14-7.77V33.28c0-2.09,1.39-3.82,3.08-3.85l110.52-2c1.72,0,3.12,1.73,3.12,3.86V151.15a4,4,0,0,1-1.89,3.53L189.1,183.45a7.08,7.08,0,0,1-3.34.85Z" class="cls-18"></path><path d="M241.81,28c1.42,0,2.58,1.49,2.58,3.32V151.15a3.42,3.42,0,0,1-1.61,3.06L188.85,183a6.43,6.43,0,0,1-3.09.79,6.52,6.52,0,0,1-3.16-.83l-50-27.45a8.27,8.27,0,0,1-3.86-7.3V33.28c0-1.8,1.15-3.29,2.55-3.31l110.47-2h0m0-1.08h-.06l-110.47,2c-2,0-3.6,2-3.6,4.39v114.9a9.3,9.3,0,0,0,4.41,8.24l50,27.46a7.5,7.5,0,0,0,7.27,0l53.94-28.76a4.51,4.51,0,0,0,2.18-4V31.29c0-2.43-1.65-4.4-3.66-4.4Z" class="cls-19"></path></g><g class="cls-20"><path d="M185.76,184.3a7,7,0,0,1-3.42-.9l-50-27.45a8.8,8.8,0,0,1-4.13-7.77V33.28c0-2.09,1.38-3.82,3.07-3.85l110.52-2c1.72,0,3.12,1.73,3.12,3.86V151.15a4,4,0,0,1-1.89,3.53L189.1,183.45a7.08,7.08,0,0,1-3.34.85Z" class="cls-21"></path><path d="M241.81,28c1.42,0,2.58,1.49,2.58,3.32V151.15a3.42,3.42,0,0,1-1.61,3.06L188.85,183a6.43,6.43,0,0,1-3.09.79,6.52,6.52,0,0,1-3.16-.83l-50-27.45a8.27,8.27,0,0,1-3.86-7.3V33.28c0-1.8,1.15-3.29,2.55-3.31l110.47-2h0m0-1.08h-.06l-110.47,2c-2,0-3.6,2-3.6,4.39v114.9a9.3,9.3,0,0,0,4.41,8.24l50,27.46a7.5,7.5,0,0,0,7.27,0l53.94-28.76a4.51,4.51,0,0,0,2.18-4V31.29c0-2.43-1.65-4.4-3.66-4.4Z" class="cls-8"></path></g><path d="M189.66,180s16.51-14,17-25.09-2.7-17.46,14.7-26.36S243,90.3,243,90.3V151Z" class="cls-22"></path><path d="M244.36,32.8l-.13,111.77c0,2.24-2.69,6.06-4.61,6.94L214,163.27a3.1,3.1,0,0,1-4.31-3v-108a95,95,0,0,0,16.37-4.92C234.11,44.06,240.26,39.53,244.36,32.8Z" class="cls-23"></path></g><g id="topcube"><ellipse ry="27.14" rx="58.79" cy="27.26" cx="186.43" class="cls-24"></ellipse><ellipse ry="27.14" rx="58.79" cy="27.26" cx="186.43" class="cls-8"></ellipse><ellipse ry="22.76" rx="55.84" cy="22.76" cx="186.43" class="cls-25"></ellipse><ellipse ry="22.76" rx="55.84" cy="22.76" cx="186.43" class="cls-26"></ellipse><ellipse ry="14.61" rx="35.84" cy="21.03" cx="186.43" class="cls-27"></ellipse><ellipse ry="18.59" rx="45.61" cy="21.03" cx="186.43" class="cls-28"></ellipse><ellipse ry="5.93" rx="14.54" cy="18.45" cx="186.43" class="cls-24"></ellipse><path d="M186.43,21.17a27.93,27.93,0,0,1-10.22-1.72c-2.66-1.08-4.13-2.51-4.13-4s1.47-2.94,4.13-4a31.19,31.19,0,0,1,20.43,0c2.66,1.08,4.13,2.51,4.13,4s-1.47,2.94-4.13,4A27.87,27.87,0,0,1,186.43,21.17Z" class="cls-29"></path><path d="M186.43,9.87a27.71,27.71,0,0,1,10.14,1.7c2.56,1,4,2.45,4,3.86s-1.46,2.82-4,3.86A27.71,27.71,0,0,1,186.43,21a27.76,27.76,0,0,1-10.15-1.7c-2.55-1-4-2.45-4-3.86s1.47-2.82,4-3.86a27.76,27.76,0,0,1,10.15-1.7m0-.36a28.45,28.45,0,0,0-10.29,1.73c-5.65,2.3-5.65,6.08,0,8.38a28.45,28.45,0,0,0,10.29,1.73,28.43,28.43,0,0,0,10.28-1.73c5.65-2.3,5.65-6.08,0-8.38a28.43,28.43,0,0,0-10.28-1.73Z" class="cls-30"></path></g><g id="cloudlogo"><path d="M204.91,96.54a14.7,14.7,0,0,0-1.83-.82c-1.57-11.72-8.84-23.26-17.76-27.91-10.72-5.6-20.1.7-20.9,14l0,.68-.06,0c-7.21-3.76-13.5.47-14,9.43s4.89,19.31,12.1,23.07l11.75,6.13c.74.38,1.38,0,1.44-1a2.7,2.7,0,0,0-1.24-2.37l-11.75-6.13c-5.73-3-10-11.21-9.62-18.33s5.43-10.48,11.16-7.49l1.49.77a.91.91,0,0,0,1,0,1.34,1.34,0,0,0,.42-1.11c0-.75,0-1.5,0-2.22.69-11.51,8.78-16.94,18-12.11,8.06,4.21,14.57,14.95,15.47,25.54a2.92,2.92,0,0,0,.5,1.38,2,2,0,0,0,1,.78,12.6,12.6,0,0,1,2.6,1c7.26,3.79,12.73,14.22,12.2,23.25-.28,4.59-2.12,8.19-5.06,9.87l-.1.06c-2,1.62-5,1.68-7.84.18l-10.69-5.58c-.74-.38-1.39,0-1.44,1A2.68,2.68,0,0,0,193,131l10.69,5.58c3.65,1.9,7.24,1.83,9.85-.2,3.5-2,5.7-6.35,6-11.85C220.24,113.65,213.65,101.1,204.91,96.54Z" class="cls-31"></path><path d="M199.69,117.88a2.19,2.19,0,0,0,.77.73.9.9,0,0,0,1.13-.12,2.19,2.19,0,0,0-.16-2.49L186.62,93.7s0,0,0,0a.31.31,0,0,0-.07-.09,1.09,1.09,0,0,0-.13-.17l-.08-.09-.15-.14-.08-.06a1.39,1.39,0,0,0-.48-.25l-.08,0-.16,0h-.09l-.14,0H185l-16.49,6c-.63.22-.83,1.2-.44,2.17s1.22,1.58,1.85,1.35l14.26-5.16-2.37,39.6a2.67,2.67,0,0,0,1.24,2.36c.74.39,1.39,0,1.44-1l2.37-39.59Z" class="cls-32"></path><path d="M201.6,98.24a16.33,16.33,0,0,0-1.83-.82C198.2,85.7,190.93,74.17,182,69.51c-10.73-5.6-20.1.71-20.9,14l0,.68-.06,0c-7.21-3.76-13.5.47-14,9.43s4.89,19.31,12.1,23.07l11.75,6.13c.74.39,1.38,0,1.44-1A2.68,2.68,0,0,0,171,119.5l-11.74-6.13c-5.73-3-10-11.21-9.62-18.33s5.43-10.48,11.16-7.49l1.49.78a.93.93,0,0,0,1,0,1.29,1.29,0,0,0,.41-1.11c0-.75,0-1.5,0-2.22.69-11.51,8.77-16.94,18-12.11,8.07,4.21,14.58,15,15.47,25.54a3.05,3.05,0,0,0,.51,1.38,2,2,0,0,0,1,.78,12.46,12.46,0,0,1,2.61,1c7.26,3.79,12.73,14.22,12.19,23.25-.27,4.59-2.11,8.19-5.05,9.87l-.1.07c-2,1.61-5,1.67-7.84.17l-10.69-5.57c-.74-.39-1.39,0-1.44,1a2.65,2.65,0,0,0,1.24,2.37l10.69,5.58c3.65,1.91,7.24,1.83,9.85-.2,3.5-2,5.7-6.35,6-11.85C216.92,115.35,210.34,102.8,201.6,98.24Z" class="cls-8"></path><path d="M196.38,119.58a2,2,0,0,0,.77.73.88.88,0,0,0,1.12-.12,2.19,2.19,0,0,0-.15-2.48L183.31,95.4s0,0,0,0l-.07-.09-.13-.17L183,95l-.15-.15-.08-.06a1.52,1.52,0,0,0-.49-.25l-.07,0-.16,0H182l-.14,0-.08,0h0l-16.49,6c-.64.23-.83,1.2-.44,2.17s1.22,1.58,1.85,1.35l14.25-5.15-2.36,39.59a2.68,2.68,0,0,0,1.24,2.37c.74.38,1.39,0,1.44-1l2.37-39.59Z" class="cls-8"></path></g><g id="tables"><path d="M133.51,219.5,76.9,186.63V144.5s54.88,24.6,59.92,31.39-.47,30.91-.47,30.91Z" class="cls-33"></path><path d="M151.75,175v33.75L133.51,219.5V184.91a11,11,0,0,0-2.09-7.69,9.86,9.86,0,0,0-2.82-2.42l-50.9-29a1.58,1.58,0,0,1,0-2.75l13.58-7.55a4.1,4.1,0,0,1,4,0l51,28.59a9.73,9.73,0,0,1,4.3,4.87A14.76,14.76,0,0,1,151.75,175Z" class="cls-30"></path><path d="M151.75,175v33.75L133.51,219.5V184.91a11,11,0,0,0-2.09-7.69l19.14-8.3A14.76,14.76,0,0,1,151.75,175Z" class="cls-34"></path><path d="M147.79,231.69l0-36.81H108.06l0,36.8L102.42,235a1.75,1.75,0,0,0,0,3l21.92,12.66a7.19,7.19,0,0,0,7.18,0l21.64-12.5a1.93,1.93,0,0,0,0-3.35Z" class="cls-35"></path><ellipse ry="12.04" rx="20.86" cy="192.47" cx="127.93" class="cls-36"></ellipse><ellipse ry="12.04" rx="20.86" cy="192.47" cx="127.93" class="cls-37"></ellipse></g><g id="cloudbox"><path d="M134.53,195.35l-.15-.79-13.53-7.82a2.82,2.82,0,0,1-1.4-2.42V166.43l-.73-.83-1.7-2.32,3.61-2.08h0l.17-.1a1.67,1.67,0,0,1,.88-.27,1.46,1.46,0,0,1,.73.2l18,10.38a2.89,2.89,0,0,1,1.44,2.5V195.6a1.17,1.17,0,0,1-.56,1l0,0-4.09,2.4Z" class="cls-38"></path><path d="M121.68,161a1.24,1.24,0,0,1,.64.18l18,10.38a2.7,2.7,0,0,1,1.35,2.34V195.6a1,1,0,0,1-.47.85l0,0h0l-4,2.32-2.5-3.52-.13-.67,0-.16-.14-.09-13.46-7.78a2.62,2.62,0,0,1-1.31-2.26V166.37l-.09-.11-.67-.77-1.59-2.15,3.34-1.93h0l.26-.16a1.54,1.54,0,0,1,.79-.24m0-.36a1.89,1.89,0,0,0-1,.3h0l-4,2.28,1.84,2.49.68.78v17.82a3,3,0,0,0,1.49,2.57l13.46,7.78.14.75,2.74,3.85,4.23-2.48h0l0,0h0a1.37,1.37,0,0,0,.64-1.16V173.91a3,3,0,0,0-1.53-2.65l-18-10.38a1.61,1.61,0,0,0-.82-.23Z" class="cls-39"></path><path d="M136.45,199.26a1.11,1.11,0,0,1-.59-.16l-18.2-10.52a2.8,2.8,0,0,1-1.39-2.42V164.38a1.15,1.15,0,0,1,1.15-1.15,1.19,1.19,0,0,1,.58.15l18.19,10.5a2.91,2.91,0,0,1,1.45,2.5v21.69a1.16,1.16,0,0,1-.36.85,1.21,1.21,0,0,1-.83.34Z" class="cls-40"></path><path d="M117.42,163.4a1,1,0,0,1,.49.14L136.1,174a2.71,2.71,0,0,1,1.36,2.34v21.69a1,1,0,0,1-1,1,1,1,0,0,1-.5-.14l-18.2-10.52a2.62,2.62,0,0,1-1.3-2.26V164.38a1,1,0,0,1,1-1m0-.35a1.33,1.33,0,0,0-1.33,1.33v21.78a3,3,0,0,0,1.48,2.57l18.2,10.52a1.32,1.32,0,0,0,.68.19,1.37,1.37,0,0,0,1.37-1.37V176.38a3,3,0,0,0-1.54-2.65l-18.19-10.5a1.3,1.3,0,0,0-.67-.18Z" class="cls-39"></path><path d="M137.13,199.26h0Z" class="cls-41"></path><path d="M137.13,199.26Zm0,0h0Z" class="cls-39"></path><path d="M137.91,198.59a1.5,1.5,0,0,0,.09-.52V176.38a3.09,3.09,0,0,0-.17-1l3.9-2.25a2.55,2.55,0,0,1,.11.74V195.6a1.16,1.16,0,0,1-.56,1l-.05,0Z" class="cls-42"></path><path d="M141.61,173.44a2,2,0,0,1,0,.47V195.6a1,1,0,0,1-.47.85l0,0h0l-3,1.75s0-.11,0-.16V176.38a3.16,3.16,0,0,0-.14-.88l3.57-2.06m.22-.54-4.22,2.44a3,3,0,0,1,.21,1v21.69a1.37,1.37,0,0,1-.67,1.18l4.18-2.46h0l0,0h0a1.37,1.37,0,0,0,.64-1.16V173.91a3.12,3.12,0,0,0-.19-1Zm-4.68,26.35h0Z" class="cls-39"></path><g id="cloud-upload"><path d="M132.91,181.33a11,11,0,0,0-5.17-7c-2-1.11-3.78-1-4.62.26-2.18-.91-3.79,0-3.77,2.17s1.93,5.21,4.23,6.47l9,5c2,1.07,3.5.38,3.5-1.58A7.13,7.13,0,0,0,132.91,181.33Zm-3.77.27v2.2c0,.2-.16.27-.36.16l-2.09-1.15a.7.7,0,0,1-.35-.54v-2.21a.5.5,0,0,0-.24-.37l-1-.55c-.31-.17-.47-.64-.25-.74l2.65-1.19c.14-.06.36.06.5.27l2.64,4.1c.22.34.07.63-.25.46l-1-.55C129.24,181.42,129.14,181.47,129.14,181.6Z" class="cls-8"></path></g></g><g id="monitor"><path d="M91.78,94.58l26,15a5,5,0,0,1,2.52,4.37v41.29a2.15,2.15,0,0,1-3.22,1.86l-27-15.59a6,6,0,0,1-3-5.16V97.26A3.09,3.09,0,0,1,91.78,94.58Z" class="cls-24"></path><path d="M90.14,95.43l26,15a5,5,0,0,1,2.53,4.37v41.29a2.15,2.15,0,0,1-3.23,1.86l-27-15.59a6,6,0,0,1-3-5.15V98.11A3.09,3.09,0,0,1,90.14,95.43Z" class="cls-43"></path><path d="M90.14,95.43l26,15a5,5,0,0,1,2.53,4.37v41.29a2.15,2.15,0,0,1-3.23,1.86l-27-15.59a6,6,0,0,1-3-5.15V98.11A3.09,3.09,0,0,1,90.14,95.43Z" class="cls-44"></path><path d="M90.14,95.43l26,15a5,5,0,0,1,2.53,4.37v41.29a2.15,2.15,0,0,1-3.23,1.86l-27-15.59a6,6,0,0,1-3-5.15V98.11A3.09,3.09,0,0,1,90.14,95.43Z" class="cls-45"></path><polygon points="89.24 99.69 89.24 100.41 92.27 102.15 92.27 101.43 89.24 99.69" class="cls-24"></polygon><polygon points="89.24 101 89.24 101.72 92.27 103.47 92.27 102.75 89.24 101" class="cls-24"></polygon><polygon points="89.24 102.32 89.24 103.04 92.27 104.79 92.27 104.07 89.24 102.32" class="cls-24"></polygon><polygon points="112.08 117.53 112.08 116.81 93.4 106.04 93.4 106.76 112.08 117.53" class="cls-24"></polygon><polygon points="89.24 103.64 89.24 104.36 92.27 106.1 92.27 105.38 89.24 103.64" class="cls-24"></polygon><polygon points="89.24 104.95 89.24 105.67 92.27 107.42 92.27 106.7 89.24 104.95" class="cls-24"></polygon><polygon points="112.08 118.85 112.08 118.13 93.4 107.35 93.4 108.07 112.08 118.85" class="cls-24"></polygon><polygon points="89.24 108.9 89.24 109.62 92.27 111.37 92.27 110.65 89.24 108.9" class="cls-24"></polygon><polygon points="89.24 110.22 89.24 110.94 92.27 112.68 92.27 111.96 89.24 110.22" class="cls-24"></polygon><polygon points="89.24 115.48 89.24 116.2 92.27 117.95 92.27 117.23 89.24 115.48" class="cls-24"></polygon><polygon points="89.24 116.8 89.24 117.52 92.27 119.27 92.27 118.55 89.24 116.8" class="cls-24"></polygon><polygon points="105.19 126 93.4 119.2 93.4 119.92 105.19 126.72 105.19 126" class="cls-24"></polygon><polygon points="105.81 126.36 105.81 127.08 112.08 130.7 112.08 129.98 105.81 126.36" class="cls-24"></polygon><polygon points="99.32 121.3 93.4 117.88 93.4 118.61 99.32 122.02 99.32 121.3" class="cls-24"></polygon><polygon points="99.94 121.66 99.94 122.38 112.08 129.38 112.08 128.66 99.94 121.66" class="cls-24"></polygon><polygon points="110.49 123.79 110.49 124.51 112.08 125.43 112.08 124.71 110.49 123.79" class="cls-24"></polygon><polygon points="101.8 117.46 93.4 112.62 93.4 113.34 101.8 118.18 101.8 117.46" class="cls-24"></polygon><polygon points="98.36 104.95 93.4 102.09 93.4 102.81 98.36 105.67 98.36 104.95" class="cls-24"></polygon><polygon points="106.48 109.63 98.98 105.3 98.98 106.03 106.48 110.35 106.48 109.63" class="cls-24"></polygon><polygon points="102.11 108.43 96.83 105.38 96.83 106.1 102.11 109.15 102.11 108.43" class="cls-24"></polygon><polygon points="107.65 111.62 102.73 108.78 102.73 109.5 107.65 112.34 107.65 111.62" class="cls-24"></polygon><polygon points="108.27 111.98 108.27 112.7 112.08 114.9 112.08 114.18 108.27 111.98" class="cls-24"></polygon><polygon points="94.38 105.28 94.38 106 98.36 108.3 98.36 107.58 94.38 105.28" class="cls-24"></polygon><polygon points="110.53 114.6 98.98 107.94 98.98 108.66 110.53 115.32 110.53 114.6" class="cls-24"></polygon><polygon points="103.92 114.73 96.37 110.38 96.37 111.1 103.92 115.45 103.92 114.73" class="cls-24"></polygon><polygon points="110.53 118.55 104.54 115.09 104.54 115.81 110.53 119.27 110.53 118.55" class="cls-24"></polygon><polygon points="109.87 122.11 102.42 117.82 102.42 118.54 109.87 122.84 109.87 122.11" class="cls-24"></polygon><polygon points="105.81 121.09 105.81 121.81 109.87 124.15 109.87 123.43 105.81 121.09" class="cls-24"></polygon><polygon points="94.86 114.78 93.4 113.94 93.4 114.66 94.86 115.5 94.86 114.78" class="cls-24"></polygon><polygon points="97.6 116.36 97.6 117.08 105.19 121.45 105.19 120.73 97.6 116.36" class="cls-24"></polygon><polygon points="96.98 116 95.48 115.14 95.48 115.86 96.98 116.72 96.98 116" class="cls-24"></polygon><polygon points="103.78 121.24 95.48 116.45 95.48 117.17 103.78 121.96 103.78 121.24" class="cls-24"></polygon><polygon points="89.24 120.85 89.24 121.57 92.27 123.31 92.27 122.59 89.24 120.85" class="cls-24"></polygon><polygon points="89.24 122.16 89.24 122.88 92.27 124.63 92.27 123.91 89.24 122.16" class="cls-24"></polygon><polygon points="89.24 123.48 89.24 124.2 92.27 125.94 92.27 125.22 89.24 123.48" class="cls-24"></polygon><polygon points="112.08 138.69 112.08 137.97 93.4 127.2 93.4 127.92 112.08 138.69" class="cls-24"></polygon><polygon points="89.24 124.8 89.24 125.52 92.27 127.26 92.27 126.54 89.24 124.8" class="cls-24"></polygon><polygon points="89.24 126.11 89.24 126.83 92.27 128.58 92.27 127.86 89.24 126.11" class="cls-24"></polygon><polygon points="112.08 140.01 112.08 139.29 93.4 128.51 93.4 129.23 112.08 140.01" class="cls-24"></polygon><polygon points="89.24 130.06 89.24 130.78 92.27 132.53 92.27 131.81 89.24 130.06" class="cls-24"></polygon><polygon points="89.24 131.38 89.24 132.1 92.27 133.84 92.27 133.12 89.24 131.38" class="cls-24"></polygon><polygon points="89.24 136.64 89.24 137.36 92.27 139.11 92.27 138.39 89.24 136.64" class="cls-24"></polygon><polygon points="89.24 137.96 89.24 138.68 92.27 140.43 92.27 139.71 89.24 137.96" class="cls-24"></polygon><polygon points="105.19 147.16 93.4 140.36 93.4 141.08 105.19 147.88 105.19 147.16" class="cls-24"></polygon><polygon points="105.81 147.52 105.81 148.24 112.08 151.86 112.08 151.14 105.81 147.52" class="cls-24"></polygon><polygon points="99.32 142.46 93.4 139.04 93.4 139.76 99.32 143.18 99.32 142.46" class="cls-24"></polygon><polygon points="99.94 142.82 99.94 143.54 112.08 150.54 112.08 149.82 99.94 142.82" class="cls-24"></polygon><polygon points="110.49 144.95 110.49 145.67 112.08 146.59 112.08 145.87 110.49 144.95" class="cls-24"></polygon><polygon points="101.8 138.62 93.4 133.78 93.4 134.5 101.8 139.34 101.8 138.62" class="cls-24"></polygon><polygon points="98.36 126.11 93.4 123.25 93.4 123.97 98.36 126.83 98.36 126.11" class="cls-24"></polygon><polygon points="106.48 130.79 98.98 126.46 98.98 127.18 106.48 131.51 106.48 130.79" class="cls-24"></polygon><polygon points="102.11 129.59 96.83 126.54 96.83 127.26 102.11 130.31 102.11 129.59" class="cls-24"></polygon><polygon points="107.65 132.78 102.73 129.94 102.73 130.66 107.65 133.5 107.65 132.78" class="cls-24"></polygon><polygon points="108.27 133.14 108.27 133.86 112.08 136.06 112.08 135.34 108.27 133.14" class="cls-24"></polygon><polygon points="94.38 126.44 94.38 127.16 98.36 129.46 98.36 128.74 94.38 126.44" class="cls-24"></polygon><polygon points="110.53 135.76 98.98 129.1 98.98 129.82 110.53 136.48 110.53 135.76" class="cls-24"></polygon><polygon points="103.92 135.89 96.37 131.54 96.37 132.26 103.92 136.61 103.92 135.89" class="cls-24"></polygon><polygon points="110.53 139.71 104.54 136.25 104.54 136.97 110.53 140.43 110.53 139.71" class="cls-24"></polygon><polygon points="109.87 143.28 102.42 138.98 102.42 139.7 109.87 144 109.87 143.28" class="cls-24"></polygon><polygon points="105.81 142.25 105.81 142.97 109.87 145.31 109.87 144.59 105.81 142.25" class="cls-24"></polygon><polygon points="94.86 135.94 93.4 135.09 93.4 135.81 94.86 136.66 94.86 135.94" class="cls-24"></polygon><polygon points="97.6 137.51 97.6 138.24 105.19 142.61 105.19 141.89 97.6 137.51" class="cls-24"></polygon><polygon points="96.98 137.16 95.48 136.3 95.48 137.02 96.98 137.88 96.98 137.16" class="cls-24"></polygon><polygon points="103.78 142.4 95.48 137.61 95.48 138.33 103.78 143.12 103.78 142.4" class="cls-24"></polygon></g><g id="man"><path d="M76.61,109.36v8.79a4,4,0,0,1-3,3.1,11.11,11.11,0,0,1-1.63.36h0V125a5.65,5.65,0,0,1-4.1-.51c-1.37-.91-1.56-1.92-1.25-3.53a6.46,6.46,0,0,1-3.18-4.57C62,109.94,74,91.55,76.61,109.36Z" class="cls-46"></path><path d="M65.15,122.58s-7.92-1.88-11.52,9.06c0,0-3.83,8-2.77,11.42s7,3.42,7,3.42Z" class="cls-8"></path><path d="M65.15,122.58l-7.24,23.9a12.75,12.75,0,0,1-1.66-.14,10.63,10.63,0,0,1-3-.82,4.14,4.14,0,0,1-2.42-2.46c-1.06-3.42,2.77-11.42,2.77-11.42C57.23,120.7,65.15,122.58,65.15,122.58Z" class="cls-8"></path><path d="M56.25,146.34a10.63,10.63,0,0,1-3-.82c-1.08-1.22-.22-4,0-4.86.78-3.14,1.7-12.29,6.08-15.46C63.17,122.43,57.71,141.44,56.25,146.34Z" class="cls-47"></path><path d="M54.11,156.17s-.79,9.9.85,17.82,3.17,20.83,3.17,20.83a6.87,6.87,0,0,1,0,3.16c-.38,1.91-2,11.1-2,11.1a3.68,3.68,0,0,0,3.55,2.4,4.89,4.89,0,0,0,3.83-1.83s4-16.37,3.64-19-1.56-16.79-1.26-18.8S57.31,156.84,54.11,156.17Z" class="cls-48"></path><path d="M75,215s4.56-3.57,6.94-2.15c2.87,1.72,2.72,2.64-.3,4.92S63.84,223,75,215Z" class="cls-48"></path><path d="M81.94,200.47c-1.59,6.88-3.54,16.21-3.54,16.21s-1.62,4-4.57,3.13l-2.15-.62-.81-.23s.85-20,1.81-24.14c0,0-7.66-18-9.38-24.3a63.7,63.7,0,0,0-3.26-9h0c-.65-1.45-1.1-2.3-1.1-2.3l19.33,2.3,4.06,26.82A30,30,0,0,1,81.94,200.47Z" class="cls-10"></path><path d="M101.32,120.11a2.86,2.86,0,0,1,.25-1.67c.24-.37.23-.7-.49-.41a4.87,4.87,0,0,0-1.37,1.23l-.41.32c-.42.34-.73.64-.73.64,0-.87-.5-1.51-.65-.71s-.53.58-.89,1,.53,3.17.53,3.17a10,10,0,0,0,2.53,1.63c1,.3,2-1.48,2-2.39A8.6,8.6,0,0,0,101.32,120.11Z" class="cls-46"></path><path d="M74.21,196.64c-.22,1.08-1.78,15.49-2.53,22.55l-.81-.23s.85-20,1.81-24.14c0,0-7.66-18-9.38-24.3a63.7,63.7,0,0,0-3.26-9h0l7.12,3.14s3.73,19.87,6,24.93S74.5,195.2,74.21,196.64Z" class="cls-49"></path><path d="M100.53,126.32s-2,11.62-4.74,15.43A7.37,7.37,0,0,1,90,144.83c-3.1-.06-10.12-4.16-10.7-4.5l0,0v4.5l0,18.41a2.87,2.87,0,0,1-.12.85c-.27,1-1.19,2.54-4.17,3a11.8,11.8,0,0,1-1.56.15c-.5,0-1,0-1.61,0a23.36,23.36,0,0,1-3.86-.6c-.93-.22-1.86-.49-2.78-.8-5.87-2-11.24-5.43-11.81-7.2-.45-1.38,1-13.74,2.7-24.07.38-2.26.78-4.42,1.18-6.35h0c.78-3.79,3.06-5,3.87-5.3l.29-.1s.82-1,3.83-.71c7.61.68,13.21,3.77,15.48,6.77,0,0,6.74,5.23,9.47,6.52,2.26,1.07,5.2-8.35,6.15-11.63a1.3,1.3,0,0,1,1.74-.86A4.72,4.72,0,0,1,99.68,124a4.64,4.64,0,0,1,.7.86l0,0C101,125.85,100.53,126.32,100.53,126.32Z" class="cls-8"></path><path d="M72.49,110.57a8.49,8.49,0,0,0,6.6-2.61c3.25-3.09-.72-9.22-4.09-9.89l.78,2S72.87,98.39,70.86,99l1.91,1.23s-3.92-.79-5.83.3l1.24.74s-5.61,1-6,3.43,0,2.63,0,2.63a3.53,3.53,0,0,0-2.71,2.84c-.47,2.45.42,7.78,4.79,9.46l1.92,1.07s1,.88,2.19-.87,1-2.52,1-2.52-1.69-2.22-1.3-3.75,2.48-1.15,2.77.87C70.86,114.43,70.86,111.1,72.49,110.57Z" class="cls-10"></path><path d="M79.3,140.33l0,0v4.5l0,18.41a2.87,2.87,0,0,1-.12.85c-.27,1-1.19,2.54-4.17,3a11.8,11.8,0,0,1-1.56.15c-.14-1.93-.29-5.64-.25-12.36a109.41,109.41,0,0,1,2.44-21.6C75.74,135.88,77.7,138.55,79.3,140.33Z" class="cls-50"></path><path d="M100.53,126.32s-2,11.62-4.74,15.43A7.37,7.37,0,0,1,90,144.83c-3.1-.06-10.12-4.16-10.7-4.5l0,0v.09c-2.17-2.62-3.46-4.13-3.49-5.92,0,0,8,6.77,15.27,5.4,5.84-1.1,8.55-11.18,9.37-15C101,125.85,100.53,126.32,100.53,126.32Z" class="cls-51"></path><path d="M65.13,165.8c-5.87-2-11.24-5.43-11.81-7.2-.45-1.38,1-13.74,2.7-24.07.38-2.26.78-4.42,1.18-6.35h0a159.29,159.29,0,0,1,2.16,25A15.6,15.6,0,0,0,65.13,165.8Z" class="cls-52"></path><path d="M72,121.61h0v1.5a6.44,6.44,0,0,1-1.69-2.75A2.43,2.43,0,0,0,72,121.61Z" class="cls-53"></path><path d="M60.39,207.16s4-3.11,6-1.87c2.51,1.5,2.38,2.3-.26,4.29S50.66,214.12,60.39,207.16Z" class="cls-48"></path></g></g></g></svg>