<?xml version="1.0" encoding="utf-8"?>
<!-- Generator: Adobe Illustrator 22.0.0, SVG Export Plug-In . SVG Version: 6.00 Build 0)  -->
<svg version="1.1" id="图层_1" xmlns="http://www.w3.org/2000/svg" xmlns:xlink="http://www.w3.org/1999/xlink" x="0px" y="0px"
	 viewBox="0 0 595.3 595.3" style="enable-background:new 0 0 595.3 595.3;" xml:space="preserve">
<style type="text/css">
	.st0{fill:#F1F8F9;stroke:#33CCFF;stroke-width:10.7;stroke-miterlimit:10;}
	.st1{opacity:0.19;fill:none;stroke:#1E92D2;stroke-width:16.4025;stroke-miterlimit:10;}
	.st2{fill:none;stroke:#009FE8;stroke-width:10.7;stroke-miterlimit:10;}
	.st3{opacity:0.39;fill:#A1CBE5;}
	.st4{fill:#003366;stroke:#009FE8;stroke-width:11.7176;stroke-miterlimit:10;}
	.st5{opacity:0.79;fill:none;stroke:#021F49;stroke-width:21.286;stroke-miterlimit:10;}
	.st6{fill:none;stroke:#009FE8;stroke-width:11.7176;stroke-miterlimit:10;}
	.st7{fill:#009FE8;stroke:#009FE8;stroke-width:11.7176;stroke-miterlimit:10;}
</style>
<circle class="st0" cx="296.6" cy="297.6" r="285.4"/>
<ellipse class="st1" cx="297" cy="291.6" rx="285" ry="279.3"/>
<circle class="st2" cx="297.3" cy="297.6" r="285.4"/>
<path class="st3" d="M530.6,401.1c-20.3,6.9-201.1,81.9-460.4,0c-36.9-11.7-14.7-120,0-156.1c12.9-31.7,62-91.3,95.3-97.7
	c16.7-3.2,65.3,20,65.3,20H370c0,0,48.5-23.2,65.3-20c33.4,6.4,82.4,66,95.3,97.7C545.2,281.1,567.3,389.1,530.6,401.1
	c-230.3,75.5-460.4,0-460.4,0"/>
<path class="st4" d="M519.7,388.1c0,0-214.5,72.5-446,0c-35.8-11.2-14.2-115.2,0-149.8c12.5-30.4,60-87.6,92.3-93.7
	c16.2-3.1,63.2,19.2,63.2,19.2h134.9c0,0,47-22.3,63.2-19.2c32.3,6.1,79.8,63.3,92.3,93.7C533.9,273,555.3,376.6,519.7,388.1
	c-223,72.5-446,0-446,0"/>
<path class="st5" d="M511.6,385.3c0,0-205.8,68.2-427.9,0c-34.3-10.5-13.6-108.5,0-141.1c12-28.7,57.6-82.5,88.6-88.3
	c15.6-2.9,60.6,18.1,60.6,18.1h129.5c0,0,45.1-21,60.6-18.1c31,5.8,76.6,59.6,88.6,88.3C525.3,276.9,545.8,374.4,511.6,385.3
	c-214,68.2-427.9,0-427.9,0"/>
<path class="st6" d="M522.7,391.1c0,0-214.5,72.5-446,0c-35.8-11.2-14.2-115.2,0-149.8c12.5-30.4,60-87.6,92.3-93.7
	c16.2-3.1,63.2,19.2,63.2,19.2h134.9c0,0,47-22.3,63.2-19.2c32.3,6.1,79.8,63.3,92.3,93.7C536.9,276,558.3,379.6,522.7,391.1
	c-223,72.5-446,0-446,0"/>
<ellipse class="st7" cx="193.7" cy="292.6" rx="21.3" ry="38.7"/>
<ellipse class="st7" cx="401.9" cy="292.9" rx="21.3" ry="38.7"/>
</svg>
