<svg id="图层_1" data-name="图层 1" xmlns="http://www.w3.org/2000/svg" viewBox="0 0 711.75 258.1"><defs><style>.cls-1,.cls-2{fill:#3e3e3e;}.cls-2{font-size:80px;font-family:Consolas-BoldItalic, Consolas;font-weight:700;font-style:italic;}</style></defs><title>黑横</title><path class="cls-1" d="M270.05,352.57c-2.38,9.12-4.66,18.27-7.26,27.33-.46,1.63-2.09,3.93-3.46,4.15-17.35,2.67-32.46,11.19-48,18.3-12.27,5.6-24,12.32-36.12,18.28-2.16,1.06-5.44,1.88-7.38,1-10.53-4.76-20.81-10.09-31.17-15.22l.4-1.55,20.75,5.91,1.46-1.6c-3.64-5.76-7-11.74-11-17.23-5.32-7.28-11.12-14.21-16.8-21.23-8.28-10.23-10.91-10.71-22.26-4.37a4.71,4.71,0,0,1-3.88.39c2.85-2.64,6-5,8.43-8,1.5-1.85,3.32-5.56,2.51-6.8-6.43-9.85-13.47-19.31-20.32-28.88l-2.37.52c-1.28,3.71-2.87,7.34-3.74,11.13-.92,4-1.16,8.1-2.77,12.17,0-5-.06-10.08,0-15.12.27-19.54,1.58-14.71-15.66-23.79-.85-.44-1.77-.72-2.66-1.08.12-.53.25-1.06.37-1.59,3.79.83,7.6,1.56,11.35,2.52,7.4,1.88,8.79.88,9-6.63a45,45,0,0,1,1-8.93c6.62,31,21.27,56.08,50.8,71-2.16,1.31-5.2,2.24-5.32,3.44a10.8,10.8,0,0,0,2.24,6.71c8.62,11.73,17.44,23.31,26.27,34.89.83,1.08,2.17,1.76,3.81,3.05,5.48-8.77,8-18,6.75-27.72-.34-2.66-4.7-5-7.47-7.1-1.83-1.4-4.11-2.21-6.62-3.51h38c-.19,5.8,4.41,5.77,9.4,5.75,12.13-.05,24.27.28,36.4.24,7.69,0,9.14-1.65,9.15-9,0-13.66-2.05-14.91-15.23-10a71.45,71.45,0,0,1-16.78,3.89c15.21-5.49,28.88-13.09,39.82-25.09-2,9.34-4,18.69-6.14,28.89,7.6-1.33,8.32-6.87,10.94-10.69a47.08,47.08,0,0,1,3.65-4.23Zm-31,32.12-.94-2.19c-.71-.34-1.41-1-2.11-1-16.84.06-33.68,0-50.49.56-2.1.07-5.13,3.49-5.9,5.94-2,6.41-3.15,13.12-4.4,19.75-1.08,5.76.28,6.85,5.81,4.55,13.78-5.7,27.61-11.32,41.17-17.5C228.08,392.11,233.41,388.1,239,384.69Z" transform="translate(-38.25 -163.9)"/><path class="cls-1" d="M83.28,234.83A46.52,46.52,0,0,0,85.65,239c1.46,2.06,2.85,4.33,4.81,5.76.48.34,3.11-2.29,5.86-4.41-2.6,10.79-5,20.68-7.44,30.8-.78-.56-1.26-.72-1.34-1-.77-2.64-1.46-5.3-2.18-8-2.47,1.23-5.29,2-7.35,3.76-8.16,6.86-16.22,13.86-24.06,21.08-6,5.49-5.57,7.7,1.37,12.13,2.35,1.51,4.83,2.81,7,5.28l-16.43-3.13L63,342.21l-1.25.47C54.05,328.31,46.28,314,38.88,299.52c-1-1.9-.72-5.07.15-7.16,6.89-16.38,14.33-32.54,21.06-49,4.93-12.06,10.53-24,11-37.45,0-1.17,1.69-2.87,2.95-3.33,12.45-4.57,25-8.94,37.49-13.33.5-.17,1.16.1,2.7.26-4.51,2.81-8.48,5-12.09,7.65-2.37,1.74-4,4.52-6.35,6.23a16.31,16.31,0,0,1-7.27,3.13c-7.76.87-9,2-8,9.63.83,6.3,1.91,12.57,2.88,18.85l-8.77-17.55a24.53,24.53,0,0,0-2.52,3.61c-2.93,7-6,13.84-8.57,20.93-3.48,9.82-6.59,19.78-9.62,29.75a7.83,7.83,0,0,0,.71,5.15c.26.55,2.69.53,3.88.1,14.31-5.2,25-21,24.59-36C83.06,238.93,83.22,236.88,83.28,234.83Z" transform="translate(-38.25 -163.9)"/><path class="cls-1" d="M200.92,181c-13,4.09-24.32,7.79-38.39,6.52l12.06-14.24c-7-2.07-12.22,0-17.33,2.32a38.91,38.91,0,0,0-5.14,3.38c-9.32,6.37-14.33,7.36-27.81,5.07l8.47-4.49c8.69-4.6,17.46-9.05,26-13.88,3.29-1.86,5.86-2.56,9.57-.6C178.44,170.39,188.82,175.13,200.92,181Z" transform="translate(-38.25 -163.9)"/><path class="cls-1" d="M270.12,352.7c1.09-5.36,2.23-10.7,3.25-16.07,1.41-7.37,1.2-7.56-6.9-5.82,3.57-6.39,6.78-12.17,10-17.94,3-5.35,6.16-10.64,9.13-16,3.84-7,1.87-14-.27-20.88-1.34-4.28-3.42-8.32-5-12.54a5,5,0,0,1,.62-4.25c5.44,9.7,11,19.32,16.17,29.16.67,1.28-.48,3.79-1.25,5.51-4.45,9.81-9.19,19.5-13.55,29.35-4.29,9.7-8.25,19.55-12.34,29.35Z" transform="translate(-38.25 -163.9)"/><path class="cls-1" d="M197.42,190.36c9.38-3.83,18.59-1.92,27.78-.18,8.63,1.64,17.31,3.16,25.84,5.24,2.64.65,6.24,2.45,7.07,4.62,5,13.08,9.33,26.42,13.82,39.69.29.88,0,1.94-.93,3.23-2.53-5.84-5.46-11.54-7.53-17.54-5.21-15.12-15.73-24.07-31.05-27.57C220.79,195.19,209.09,192.85,197.42,190.36Z" transform="translate(-38.25 -163.9)"/><path class="cls-1" d="M86.1,353.21c-.36,5.38-.82,10.75-1,16.14a50.65,50.65,0,0,0,.51,6.48,42.81,42.81,0,0,0,6.92-1.08c1.81-.58,3.38-1.93,6-1.92l-9.6,10.61,18,10.17c-.16.54-.31,1.09-.47,1.63-7.1-1.86-14.15-3.95-21.31-5.53-5.58-1.23-8.55-4.31-10.29-9.76-3.18-9.92-7.11-19.59-10.62-29.4a5.92,5.92,0,0,1,.44-4.56c3.71,6.95,7.31,14,11.22,20.78.86,1.51,2.85,2.37,4.32,3.53,1-1.79,2.5-3.49,2.86-5.41.72-3.89.82-7.9,1.18-11.86Z" transform="translate(-38.25 -163.9)"/><path class="cls-1" d="M104.21,227c-.92-8.24,10.21-14.05,3.42-21.72,9.61-5.31,18.76-10.41,28-15.41a4.83,4.83,0,0,1,3.38-.56c3.55,1.22,7,2.76,11.25,4.49C132,201.18,114.19,208.59,104.21,227Z" transform="translate(-38.25 -163.9)"/><text class="cls-2" transform="translate(267.75 167.63)">InfoWeaver</text></svg>